<?xml version="1.0" encoding="UTF-8" standalone="no"?>
<!-- Created with Inkscape (http://www.inkscape.org/) -->

<svg
   version="1.1"
   id="svg1"
   width="405.16534"
   height="113.38667"
   viewBox="0 0 405.16534 113.38667"
   sodipodi:docname="multitask-page1.pdf"
   xmlns:inkscape="http://www.inkscape.org/namespaces/inkscape"
   xmlns:sodipodi="http://sodipodi.sourceforge.net/DTD/sodipodi-0.dtd"
   xmlns="http://www.w3.org/2000/svg"
   xmlns:svg="http://www.w3.org/2000/svg">
  <defs
     id="defs1">
    <clipPath
       clipPathUnits="userSpaceOnUse"
       id="clipPath1">
      <path
         d="M 0,0 H 453.543 V 283.465 H 0 Z"
         id="path1" />
    </clipPath>
    <clipPath
       clipPathUnits="userSpaceOnUse"
       id="clipPath2">
      <path
         d="M 0,0 H 453.543 V 283.465 H 0 Z"
         transform="translate(-84.743002,-164.547)"
         id="path2" />
    </clipPath>
    <clipPath
       clipPathUnits="userSpaceOnUse"
       id="clipPath3">
      <path
         d="M 0,0 H 453.543 V 283.465 H 0 Z"
         transform="matrix(1,0,0,-1,-31.982001,161.82)"
         id="path3" />
    </clipPath>
    <clipPath
       clipPathUnits="userSpaceOnUse"
       id="clipPath4">
      <path
         d="M 0,0 H 453.543 V 283.465 H 0 Z"
         transform="translate(-84.743002,-164.547)"
         id="path4" />
    </clipPath>
    <clipPath
       clipPathUnits="userSpaceOnUse"
       id="clipPath5">
      <path
         d="M 0,0 H 453.543 V 283.465 H 0 Z"
         transform="matrix(1,0,0,-1,-190.34501,184.456)"
         id="path5" />
    </clipPath>
    <clipPath
       clipPathUnits="userSpaceOnUse"
       id="clipPath6">
      <path
         d="M 0,0 H 453.543 V 283.465 H 0 Z"
         transform="translate(-84.743002,-164.547)"
         id="path6" />
    </clipPath>
    <clipPath
       clipPathUnits="userSpaceOnUse"
       id="clipPath7">
      <path
         d="M 0,0 H 453.543 V 283.465 H 0 Z"
         transform="matrix(1,0,0,-1,-190.34501,141.937)"
         id="path7" />
    </clipPath>
    <clipPath
       clipPathUnits="userSpaceOnUse"
       id="clipPath8">
      <path
         d="M 0,0 H 453.543 V 283.465 H 0 Z"
         transform="translate(-84.743002,-164.547)"
         id="path8" />
    </clipPath>
    <clipPath
       clipPathUnits="userSpaceOnUse"
       id="clipPath9">
      <path
         d="M 0,0 H 453.543 V 283.465 H 0 Z"
         transform="matrix(0.9899589,-0.14167272,0.14167272,0.9899589,-205.36161,-150.87508)"
         id="path9" />
    </clipPath>
    <clipPath
       clipPathUnits="userSpaceOnUse"
       id="clipPath10">
      <path
         d="M 0,0 H 453.543 V 283.465 H 0 Z"
         transform="translate(-84.743002,-164.547)"
         id="path10" />
    </clipPath>
    <clipPath
       clipPathUnits="userSpaceOnUse"
       id="clipPath11">
      <path
         d="M 0,0 H 453.543 V 283.465 H 0 Z"
         transform="matrix(0.9899589,0.14167272,-0.14167272,0.9899589,-158.73797,-174.91445)"
         id="path11" />
    </clipPath>
    <clipPath
       clipPathUnits="userSpaceOnUse"
       id="clipPath12">
      <path
         d="M 0,0 H 303.873 V 85.04 H 0 Z"
         transform="matrix(1.3333733,0,0,-1.3333733,-0.00533333,113.388)"
         id="path12" />
    </clipPath>
  </defs>
  <sodipodi:namedview
     id="namedview1"
     pagecolor="#ffffff"
     bordercolor="#000000"
     borderopacity="0.25"
     inkscape:showpageshadow="2"
     inkscape:pageopacity="0.0"
     inkscape:pagecheckerboard="0"
     inkscape:deskcolor="#d1d1d1">
    <inkscape:page
       x="0"
       y="0"
       inkscape:label="1"
       id="page1"
       width="405.16534"
       height="113.38667"
       margin="0"
       bleed="0" />
  </sodipodi:namedview>
  <g
     id="g1"
     inkscape:groupmode="layer"
     inkscape:label="1">
    <g
       id="g64">
      <g
         clip-path="url(#clipPath12)"
         id="g63">
        <path
           d="M 0,0 H 453.543 V 283.465 H 0 Z"
           style="fill:#ffffff;fill-opacity:1;fill-rule:nonzero;stroke:none"
           transform="matrix(1.3333733,0,0,-1.3333733,-18.147211,283.47177)"
           clip-path="url(#clipPath1)"
           id="path13" />
        <path
           d="M -56.39757,-9.09062 H 56.39758 V 9.09064 H -56.39757 Z"
           style="fill:#ffbfbf;fill-opacity:0.2;fill-rule:nonzero;stroke:none"
           transform="matrix(1.3333733,0,0,-1.3333733,94.846845,64.069187)"
           clip-path="url(#clipPath2)"
           id="path14" />
        <g
           aria-label="x→ϕ(x)=F&#10;1:L-1&#10;(x)"
           transform="matrix(1.3333733,0,0,1.3333733,24.496735,67.705296)"
           clip-path="url(#clipPath3)"
           id="g25">
          <path
             d="m 3.7728433,-2.682212 1.2773055,-1.4179262 c 0.1406208,-0.1523392 0.2109312,-0.234368 1.1132478,-0.234368 v -0.5038911 c -0.3867071,0.011718 -0.9491902,0.023437 -1.0077822,0.023437 -0.2695232,0 -0.8085695,-0.011718 -1.1249663,-0.023437 v 0.5038911 c 0.1640576,0 0.29296,0.023437 0.4218624,0.1054656 -0.046874,0.058592 -0.046874,0.082029 -0.093747,0.1289024 L 3.4447282,-3.0806376 2.3783539,-4.3345062 h 0.4335808 v -0.5038911 c -0.2812416,0.011718 -0.9726271,0.023437 -1.3124607,0.023437 -0.3515519,0 -0.84372464,-0.011718 -1.20699499,-0.023437 v 0.5038911 H 1.0658933 l 1.6991678,2.0155645 -1.4179262,1.60542062 C 1.1596405,-0.5143083 0.76121495,-0.5143083 0.23388702,-0.5143083 v 0.51560953 c 0.38670714,-0.0234368 0.94919028,-0.0351552 1.00778228,-0.0351552 0.2695231,0 0.9023167,0.0234368 1.1249662,0.0351552 V -0.5143083 c -0.1992127,0 -0.3984255,-0.0468736 -0.3984255,-0.11718399 0,-0.0117184 0,-0.0234368 0.07031,-0.10546558 L 3.0931762,-1.9322345 4.3001713,-0.5143083 H 3.8783089 v 0.51560953 c 0.2812416,-0.0117184 0.9491903,-0.0351552 1.3007423,-0.0351552 0.3515519,0 0.8437246,0.0234368 1.206995,0.0351552 V -0.5143083 H 5.6126319 Z m 0,0"
             style="fill:#000000;fill-opacity:1;fill-rule:nonzero;stroke:none"
             id="path15" />
          <path
             d="m 20.568238,-2.506436 c -0.597638,0.4570175 -0.890598,0.9023166 -0.972627,1.0429374 -0.492173,0.74997752 -0.58592,1.44136303 -0.58592,1.45308143 0,0.12890238 0.128902,0.12890238 0.222649,0.12890238 0.187495,0 0.199213,-0.02343679 0.234368,-0.21093117 0.257805,-1.07809264 0.902317,-1.99212774 2.132749,-2.49601884 0.128902,-0.035155 0.164058,-0.058592 0.164058,-0.1406208 0,-0.07031 -0.07031,-0.1054656 -0.09375,-0.117184 -0.468736,-0.1874944 -1.792915,-0.7265407 -2.214777,-2.5663293 -0.02344,-0.1289023 -0.03515,-0.1640575 -0.22265,-0.1640575 -0.09375,0 -0.222649,0 -0.222649,0.1289024 0,0.023437 0.105466,0.7148223 0.562483,1.441363 0.210931,0.3281151 0.527328,0.7148223 0.996064,1.0663742 h -8.097413 c -0.199213,0 -0.398426,0 -0.398426,0.2109312 0,0.2226496 0.199213,0.2226496 0.398426,0.2226496 z m 0,0"
             style="fill:#000000;fill-opacity:1;fill-rule:nonzero;stroke:none"
             id="path16" />
          <path
             d="m 32.746584,-7.2523874 c 0.03516,-0.1289024 0.03516,-0.1523392 0.03516,-0.1640576 0,-0.1523392 -0.152339,-0.1523392 -0.257805,-0.1523392 -0.210931,0 -0.22265,0.023437 -0.281242,0.2460864 l -0.539046,2.1679037 c -0.04687,0.1406208 -0.04687,0.1523392 -0.05859,0.1640576 -0.02344,0.011718 -0.03515,0.011718 -0.22265,0.023437 -2.238214,0.1406208 -3.585829,1.6874494 -3.585829,3.0702204 0,1.17183982 0.937471,1.96869092 2.542892,2.01556451 L 29.910731,2.052021 c 0,0.1523391 0.152339,0.1523391 0.246086,0.1523391 0.175776,0 0.234368,-0.011718 0.281242,-0.1992127 l 0.374989,-1.52339184 c 0.08203,-0.31639675 0.09375,-0.32811515 0.105465,-0.33983355 0.02344,-0.0117184 0.03516,-0.0117184 0.210932,-0.0234368 2.214777,-0.12890238 3.597548,-1.65229421 3.597548,-3.05850201 0,-1.1718398 -0.937472,-1.9686909 -2.542893,-2.0272829 z m -2.27337,6.98416546 c -0.937472,-0.058592 -1.511673,-0.45701754 -1.511673,-1.34761586 0,-0.3046783 0.117184,-1.3124606 0.691385,-2.0272829 0.374989,-0.4804543 1.007783,-0.8554431 1.910099,-0.9257535 z m 1.605421,-4.30065226 c 0.937472,0.058592 1.523392,0.4570176 1.523392,1.3358975 0,0.3046783 -0.128903,1.3124606 -0.691386,2.0390013 -0.386707,0.48045432 -1.019501,0.84372468 -1.910099,0.92575346 z m 0,0"
             style="fill:#000000;fill-opacity:1;fill-rule:nonzero;stroke:none"
             id="path17" />
          <path
             d="m 38.608712,2.6145041 c 0,-0.023437 0,-0.046874 -0.187494,-0.234368 -1.359334,-1.3710526 -1.710886,-3.4334907 -1.710886,-5.1092217 0,-1.8983806 0.421862,-3.7967611 1.75776,-5.1560953 0.14062,-0.1289024 0.14062,-0.1523392 0.14062,-0.1874944 0,-0.07031 -0.04687,-0.1054656 -0.105465,-0.1054656 -0.105466,0 -1.089811,0.7382591 -1.734323,2.1210301 -0.562483,1.2069951 -0.691386,2.4139901 -0.691386,3.3280252 0,0.8554431 0.117184,2.1796221 0.726541,3.41005394 0.644512,1.33589746 1.593702,2.05071976 1.699168,2.05071976 0.05859,0 0.105465,-0.035155 0.105465,-0.117184 z m 0,0"
             style="fill:#000000;fill-opacity:1;fill-rule:nonzero;stroke:none"
             id="path18" />
          <path
             d="m 43.01776,-2.682212 1.277305,-1.4179262 c 0.140621,-0.1523392 0.210931,-0.234368 1.113248,-0.234368 v -0.5038911 c -0.386707,0.011718 -0.94919,0.023437 -1.007782,0.023437 -0.269523,0 -0.80857,-0.011718 -1.124966,-0.023437 v 0.5038911 c 0.164057,0 0.292959,0.023437 0.421862,0.1054656 -0.04687,0.058592 -0.04687,0.082029 -0.09375,0.1289024 l -0.914035,1.0195006 -1.066375,-1.2538686 h 0.433581 v -0.5038911 c -0.281241,0.011718 -0.972627,0.023437 -1.312461,0.023437 -0.351552,0 -0.843724,-0.011718 -1.206995,-0.023437 v 0.5038911 h 0.773415 l 1.699167,2.0155645 -1.417926,1.60542062 C 40.404554,-0.5143083 40.006128,-0.5143083 39.4788,-0.5143083 v 0.51560953 c 0.386708,-0.0234368 0.949191,-0.0351552 1.007783,-0.0351552 0.269523,0 0.902316,0.0234368 1.124966,0.0351552 V -0.5143083 c -0.199213,0 -0.398426,-0.0468736 -0.398426,-0.11718399 0,-0.0117184 0,-0.0234368 0.07031,-0.10546558 l 1.054656,-1.19527663 1.206995,1.4179262 h -0.421863 v 0.51560953 c 0.281242,-0.0117184 0.949191,-0.0351552 1.300743,-0.0351552 0.351552,0 0.843724,0.0234368 1.206995,0.0351552 V -0.5143083 h -0.773415 z m 0,0"
             style="fill:#000000;fill-opacity:1;fill-rule:nonzero;stroke:none"
             id="path19" />
          <path
             d="m 49.01758,-2.7290856 c 0,-0.8437247 -0.117184,-2.1679037 -0.714823,-3.3983356 -0.65623,-1.3476158 -1.593702,-2.0507197 -1.710886,-2.0507197 -0.05859,0 -0.105465,0.035155 -0.105465,0.1054656 0,0.035155 0,0.058592 0.210931,0.2460864 1.066374,1.089811 1.687449,2.824134 1.687449,5.0975033 0,1.86322534 -0.398425,3.7850427 -1.75776,5.1678137 -0.14062,0.1289024 -0.14062,0.1523392 -0.14062,0.175776 0,0.07031 0.04687,0.117184 0.105465,0.117184 0.117184,0 1.089811,-0.7499775 1.734323,-2.13274855 0.562483,-1.19527664 0.691386,-2.41399005 0.691386,-3.32802515 z m 11.621721,-0.8320063 c 0.164058,0 0.363271,0 0.363271,-0.2226496 0,-0.2226495 -0.199213,-0.2226495 -0.351552,-0.2226495 h -6.538867 c -0.152339,0 -0.36327,0 -0.36327,0.2226495 0,0.2226496 0.210931,0.2226496 0.374989,0.2226496 z m 0.01172,2.1093117 c 0.152339,0 0.351552,0 0.351552,-0.2109312 0,-0.2226495 -0.199213,-0.2226495 -0.363271,-0.2226495 h -6.515429 c -0.164058,0 -0.374989,0 -0.374989,0.2226495 0,0.2109312 0.210931,0.2109312 0.36327,0.2109312 z m 0,0"
             style="fill:#000000;fill-opacity:1;fill-rule:nonzero;stroke:none"
             id="path20" />
          <path
             d="m 67.951582,-3.5493735 h 1.054656 c 0.820288,0 0.914035,0.175776 0.914035,0.4921727 0,0.082029 0,0.2109312 -0.08203,0.5390464 -0.02344,0.058592 -0.03516,0.093747 -0.03516,0.1171839 0,0.093747 0.07031,0.1289024 0.140621,0.1289024 0.105465,0 0.105465,-0.023437 0.152339,-0.2226495 L 70.7054,-4.8618341 c 0.02344,-0.117184 0.02344,-0.1406208 0.02344,-0.175776 0,-0.023437 -0.01172,-0.117184 -0.128902,-0.117184 -0.105465,0 -0.117184,0.046874 -0.164057,0.2226496 -0.22265,0.8554431 -0.480455,1.0546558 -1.406208,1.0546558 h -0.984346 l 0.691386,-2.7772604 c 0.105465,-0.3749887 0.105465,-0.4218623 0.58592,-0.4218623 h 1.441363 c 1.347615,0 1.593702,0.3632703 1.593702,1.1952766 0,0.2578048 0,0.29296 -0.03515,0.5859199 -0.01172,0.1523392 -0.01172,0.1640576 -0.01172,0.1992128 0,0.058592 0.02344,0.1289024 0.128903,0.1289024 0.117184,0 0.128902,-0.058592 0.152339,-0.2695232 l 0.210931,-1.8866621 c 0.03516,-0.29296 -0.01172,-0.29296 -0.29296,-0.29296 h -5.34359 c -0.222649,0 -0.328115,0 -0.328115,0.2226496 0,0.117184 0.105466,0.117184 0.304679,0.117184 0.410144,0 0.714822,0 0.714822,0.1992127 0,0.035155 0,0.058592 -0.05859,0.2578048 l -1.441363,5.76545204 c -0.105466,0.43358074 -0.128903,0.51560953 -0.996064,0.51560953 -0.175776,0 -0.304678,0 -0.304678,0.21093118 0,0.12890238 0.14062,0.12890238 0.164057,0.12890238 0.316397,0 1.124966,-0.0351552 1.441363,-0.0351552 0.363271,0 1.265587,0.0351552 1.628858,0.0351552 0.09375,0 0.234368,0 0.234368,-0.21093117 0,-0.0820288 -0.07031,-0.10546559 -0.07031,-0.11718399 -0.03516,-0.0117184 -0.05859,-0.0117184 -0.304678,-0.0117184 -0.246087,0 -0.29296,0 -0.574202,-0.0234368 -0.316396,-0.0351552 -0.339833,-0.0703104 -0.339833,-0.21093118 0,-0.0234368 0,-0.0937472 0.03516,-0.25780476 z m 0,0"
             style="fill:#000000;fill-opacity:1;fill-rule:nonzero;stroke:none"
             id="path21" />
          <path
             d="m 74.220925,-3.6138247 h -0.175776 c -0.515609,0.4687359 -1.17184,0.5038911 -1.640576,0.5273279 v 0.4921728 c 0.304679,0 0.703104,-0.023437 1.10153,-0.175776 v 4.0428475 h -1.054656 v 0.5038911 h 2.835852 V 1.2727475 h -1.066374 z m 3.216701,1.851507 h -0.726541 v 0.7148223 h 0.726541 z m -0.726541,2.824134 v 0.7148223 h 0.726541 V 1.0618163 Z m 3.122953,-4.8162618 h -0.808569 v 5.5310841 h 3.468646 V 1.2141555 c -0.749978,0 -1.511674,0.011718 -2.261651,0.011718 h -0.398426 z m 5.369956,4.0076923 V -0.25064434 H 82.954062 V 0.2532468 Z m 3.035065,-3.8670715 h -0.175776 c -0.515609,0.4687359 -1.171839,0.5038911 -1.640575,0.5273279 v 0.4921728 c 0.304678,0 0.703104,-0.023437 1.101529,-0.175776 v 4.0428475 h -1.054656 v 0.5038911 h 2.835853 V 1.2727475 h -1.066375 z m 0,0"
             style="fill:#000000;fill-opacity:1;fill-rule:nonzero;stroke:none"
             id="path22" />
          <path
             d="m 94.025019,2.6145041 c 0,-0.023437 0,-0.046874 -0.187495,-0.234368 -1.359334,-1.3710526 -1.710886,-3.4334907 -1.710886,-5.1092217 0,-1.8983806 0.421862,-3.7967611 1.75776,-5.1560953 0.140621,-0.1289024 0.140621,-0.1523392 0.140621,-0.1874944 0,-0.07031 -0.04687,-0.1054656 -0.105466,-0.1054656 -0.105466,0 -1.089811,0.7382591 -1.734323,2.1210301 -0.562483,1.2069951 -0.691385,2.4139901 -0.691385,3.3280252 0,0.8554431 0.117184,2.1796221 0.72654,3.41005394 0.644512,1.33589746 1.593702,2.05071976 1.699168,2.05071976 0.05859,0 0.105466,-0.035155 0.105466,-0.117184 z m 0,0"
             style="fill:#000000;fill-opacity:1;fill-rule:nonzero;stroke:none"
             id="path23" />
          <path
             d="m 98.431136,-2.682212 1.277306,-1.4179262 c 0.140621,-0.1523392 0.210931,-0.234368 1.113248,-0.234368 v -0.5038911 c -0.38671,0.011718 -0.949191,0.023437 -1.007783,0.023437 -0.269523,0 -0.808569,-0.011718 -1.124966,-0.023437 v 0.5038911 c 0.164058,0 0.29296,0.023437 0.421863,0.1054656 -0.04687,0.058592 -0.04687,0.082029 -0.09375,0.1289024 l -0.914035,1.0195006 -1.066374,-1.2538686 h 0.433581 v -0.5038911 c -0.281242,0.011718 -0.972627,0.023437 -1.312461,0.023437 -0.351552,0 -0.843725,-0.011718 -1.206995,-0.023437 v 0.5038911 h 0.773414 l 1.699168,2.0155645 -1.417926,1.60542062 c -0.187494,0.19921278 -0.58592,0.19921278 -1.113248,0.19921278 v 0.51560953 c 0.386707,-0.0234368 0.94919,-0.0351552 1.007782,-0.0351552 0.269524,0 0.902317,0.0234368 1.124967,0.0351552 V -0.5143083 c -0.199213,0 -0.398426,-0.0468736 -0.398426,-0.11718399 0,-0.0117184 0,-0.0234368 0.07031,-0.10546558 l 1.054656,-1.19527663 1.206995,1.4179262 H 98.5366 v 0.51560953 c 0.281242,-0.0117184 0.94919,-0.0351552 1.300742,-0.0351552 0.351558,0 0.843728,0.0234368 1.206998,0.0351552 V -0.5143083 h -0.77342 z m 0,0"
             style="fill:#000000;fill-opacity:1;fill-rule:nonzero;stroke:none"
             id="path24" />
          <path
             d="m 104.43096,-2.7290856 c 0,-0.8437247 -0.11719,-2.1679037 -0.71483,-3.3983356 -0.65623,-1.3476158 -1.5937,-2.0507197 -1.71088,-2.0507197 -0.0586,0 -0.10547,0.035155 -0.10547,0.1054656 0,0.035155 0,0.058592 0.21093,0.2460864 1.06638,1.089811 1.68745,2.824134 1.68745,5.0975033 0,1.86322534 -0.39842,3.7850427 -1.75776,5.1678137 -0.14062,0.1289024 -0.14062,0.1523392 -0.14062,0.175776 0,0.07031 0.0469,0.117184 0.10547,0.117184 0.11718,0 1.08981,-0.7499775 1.73432,-2.13274855 0.56248,-1.19527664 0.69139,-2.41399005 0.69139,-3.32802515 z m 0,0"
             style="fill:#000000;fill-opacity:1;fill-rule:nonzero;stroke:none"
             id="path25" />
        </g>
        <path
           d="m 101.9674,9.87924 h 93.70663 V 32.64091 H 101.9674 Z"
           style="fill:#ff8000;fill-opacity:0.2;fill-rule:nonzero;stroke:none"
           transform="matrix(1.3333733,0,0,-1.3333733,94.846845,64.069187)"
           clip-path="url(#clipPath4)"
           id="path26" />
        <g
           aria-label="y&#10;′&#10;1&#10;=F&#10;1&#10;L:L&#10;′&#10;1&#10;(ϕ(x))"
           transform="matrix(1.3333733,0,0,1.3333733,235.65374,37.523057)"
           clip-path="url(#clipPath5)"
           id="g42">
          <path
             d="m 5.5183213,-4.1011544 c 0.082029,-0.1523392 0.1054656,-0.234368 0.8085695,-0.234368 v -0.5038911 c -0.2578047,0.011718 -0.5859199,0.023437 -0.8671614,0.023437 -0.2695232,0 -0.7616959,-0.011718 -0.9843455,-0.023437 v 0.5038911 c 0.023437,0 0.5038911,0 0.5038911,0.1406208 0,0 -0.035155,0.117184 -0.046874,0.1289024 L 3.6785328,-1.382486 2.2957618,-4.3355224 h 0.5859199 v -0.5038911 c -0.3632704,0.011718 -1.3476158,0.023437 -1.3593342,0.023437 -0.3046784,0 -0.79685112,-0.011718 -1.24215026,-0.023437 v 0.5038911 h 0.7031039 L 3.0223025,2.8502645e-4 2.7644977,0.52761296 C 2.5301297,1.0432225 2.1785778,1.7932 1.4051635,1.7932 c -0.1523392,0 -0.175776,-0.011718 -0.2578048,-0.046874 0.093747,-0.046874 0.351552,-0.1992128 0.351552,-0.5742015 0,-0.36327038 -0.2695232,-0.62107515 -0.63279354,-0.62107515 -0.31639676,0 -0.63279352,0.19921278 -0.63279352,0.63279355 0,0.5507647 0.51560953,0.9960638 1.17183986,0.9960638 0.8437247,0 1.4765182,-0.6796671 1.7694782,-1.30074219 z m 0,0"
             style="fill:#000000;fill-opacity:1;fill-rule:nonzero;stroke:none"
             id="path27" />
          <path
             d="m 8.9049385,-7.7309283 c 0.046874,-0.1054656 0.07031,-0.1640576 0.07031,-0.2460864 0,-0.2578048 -0.234368,-0.4335808 -0.4570176,-0.4335808 -0.3163967,0 -0.4101439,0.2812416 -0.4452991,0.3867072 l -1.0077823,3.4334907 c -0.035155,0.093747 -0.035155,0.117184 -0.035155,0.1289024 0,0.07031 0.046874,0.093747 0.1289024,0.117184 0.1523392,0.058592 0.1640576,0.058592 0.175776,0.058592 0.023437,0 0.07031,0 0.1289024,-0.1289024 z m 0,0"
             style="fill:#000000;fill-opacity:1;fill-rule:nonzero;stroke:none"
             id="path28" />
          <path
             d="m 9.1305177,-2.1500411 c 0,-0.2226496 -0.023437,-0.2226496 -0.234368,-0.2226496 -0.3281152,0.3163968 -0.7499775,0.5038912 -1.5116734,0.5038912 v 0.2695231 c 0.2226496,0 0.6445119,0 1.1132478,-0.2226495 v 4.089721 c 0,0.29296 -0.023437,0.3984256 -0.7851326,0.3984256 H 7.4313499 v 0.2578047 c 0.3281151,-0.023437 1.0195007,-0.023437 1.3710526,-0.023437 0.3632704,0 1.0546559,0 1.3827715,0.023437 V 2.6662207 H 9.903932 c -0.7499775,0 -0.7734143,-0.1054656 -0.7734143,-0.3984256 z m 0,0"
             style="fill:#000000;fill-opacity:1;fill-rule:nonzero;stroke:none"
             id="path29" />
          <path
             d="m 23.702346,-3.5621081 c 0.164058,0 0.36327,0 0.36327,-0.2226496 0,-0.2226495 -0.199212,-0.2226495 -0.351551,-0.2226495 h -6.538867 c -0.152339,0 -0.36327,0 -0.36327,0.2226495 0,0.2226496 0.210931,0.2226496 0.374989,0.2226496 z m 0.01172,2.1093117 c 0.152339,0 0.351551,0 0.351551,-0.2109312 0,-0.2226495 -0.199212,-0.2226495 -0.36327,-0.2226495 h -6.515429 c -0.164058,0 -0.374989,0 -0.374989,0.2226495 0,0.2109312 0.210931,0.2109312 0.36327,0.2109312 z m 0,0"
             style="fill:#000000;fill-opacity:1;fill-rule:nonzero;stroke:none"
             id="path30" />
          <path
             d="m 32.833908,-3.5503897 h 1.054656 c 0.820288,0 0.914035,0.175776 0.914035,0.4921727 0,0.082029 0,0.2109312 -0.08203,0.5390464 -0.02344,0.058592 -0.03516,0.093747 -0.03516,0.1171839 0,0.093747 0.07031,0.1289024 0.140621,0.1289024 0.105465,0 0.105465,-0.023437 0.152339,-0.2226495 l 0.609357,-2.3671165 c 0.02344,-0.117184 0.02344,-0.1406208 0.02344,-0.175776 0,-0.023437 -0.01172,-0.117184 -0.128903,-0.117184 -0.105465,0 -0.117184,0.046874 -0.164057,0.2226496 -0.22265,0.8554431 -0.480455,1.0546558 -1.406208,1.0546558 h -0.984346 l 0.691386,-2.7772604 c 0.105465,-0.3749887 0.105465,-0.4218623 0.58592,-0.4218623 h 1.441363 c 1.347616,0 1.593702,0.3632703 1.593702,1.1952766 0,0.2578048 0,0.29296 -0.03516,0.5859199 -0.01172,0.1523392 -0.01172,0.1640576 -0.01172,0.1992128 0,0.058592 0.02344,0.1289024 0.128903,0.1289024 0.117184,0 0.128902,-0.058592 0.152339,-0.2695232 l 0.210931,-1.8866621 c 0.03516,-0.29296 -0.01172,-0.29296 -0.29296,-0.29296 h -5.34359 c -0.222649,0 -0.328115,0 -0.328115,0.2226496 0,0.117184 0.105466,0.117184 0.304679,0.117184 0.410144,0 0.714822,0 0.714822,0.1992127 0,0.035155 0,0.058592 -0.05859,0.2578048 l -1.441363,5.76545204 c -0.105466,0.43358074 -0.128902,0.51560953 -0.996064,0.51560953 -0.175776,0 -0.304678,0 -0.304678,0.21093117 0,0.12890238645 0.14062,0.12890238645 0.164057,0.12890238645 0.316397,0 1.124967,-0.0351551964 1.441363,-0.0351551964 0.363271,0 1.265587,0.0351551964 1.628858,0.0351551964 0.09375,0 0.234368,0 0.234368,-0.21093117645 0,-0.0820288 -0.07031,-0.10546558 -0.07031,-0.11718398 -0.03515,-0.0117184 -0.05859,-0.0117184 -0.304678,-0.0117184 -0.246086,0 -0.29296,0 -0.574202,-0.0234368 -0.316396,-0.0351552 -0.339833,-0.0703104 -0.339833,-0.21093117 0,-0.0234368 0,-0.0937472 0.03515,-0.25780476 z m 0,0"
             style="fill:#000000;fill-opacity:1;fill-rule:nonzero;stroke:none"
             id="path31" />
          <path
             d="m 40.57391,-9.0316706 c 0,-0.2226495 -0.02344,-0.2226495 -0.234368,-0.2226495 -0.328115,0.3163967 -0.749977,0.5038911 -1.511673,0.5038911 v 0.2695231 c 0.22265,0 0.644512,0 1.113248,-0.2226495 v 4.089721 c 0,0.29296 -0.02344,0.3984256 -0.785133,0.3984256 h -0.281241 v 0.2578048 c 0.328115,-0.023437 1.0195,-0.023437 1.371052,-0.023437 0.36327,0 1.054656,0 1.382771,0.023437 v -0.2578048 h -0.281241 c -0.749978,0 -0.773415,-0.1054656 -0.773415,-0.3984256 z m 0,0"
             style="fill:#000000;fill-opacity:1;fill-rule:nonzero;stroke:none"
             id="path32" />
          <path
             d="m 39.645227,-0.96355325 c 0.07031,-0.28124155 0.08203,-0.36327035 0.820288,-0.36327035 0.22265,0 0.304678,0 0.304678,-0.1523392 0,-0.011718 -0.02344,-0.1054656 -0.14062,-0.1054656 -0.164058,0 -0.410144,0.011718 -0.574202,0.023437 H 39.48117 c -0.820288,0 -1.019501,-0.023437 -1.078093,-0.023437 -0.02344,0 -0.152339,0 -0.152339,0.1406208 0,0.117184 0.105465,0.117184 0.234368,0.117184 0.257805,0 0.492173,0 0.492173,0.1289024 0,0.035155 -0.01172,0.035155 -0.03516,0.1406208 l -1.06637,4.2772154 c -0.07031,0.3046784 -0.09375,0.3749888 -0.679667,0.3749888 -0.152339,0 -0.246086,0 -0.246086,0.1406207 0,0.117184 0.105465,0.117184 0.234368,0.117184 h 3.855353 c 0.199212,0 0.210931,-0.011718 0.269523,-0.1640576 0.08203,-0.2226495 0.65623,-1.7108861 0.65623,-1.7929149 0,-0.07031 -0.05859,-0.117184 -0.117184,-0.117184 -0.08203,0 -0.105465,0.058592 -0.152339,0.175776 -0.29296,0.7382591 -0.632794,1.6405758 -2.062438,1.6405758 h -1.007782 c -0.07031,-0.023437 -0.09375,-0.023437 -0.09375,-0.082029 0,-0.058592 0.01172,-0.117184 0.02344,-0.175776 z m 0,0"
             style="fill:#000000;fill-opacity:1;fill-rule:nonzero;stroke:none"
             id="path33" />
          <path
             d="m 43.928302,0.86451691 c 0,-0.26952316 -0.210931,-0.44529914 -0.433581,-0.44529914 -0.269523,0 -0.445299,0.21093117 -0.445299,0.43358074 0,0.26952319 0.210931,0.44529919 0.433581,0.44529919 0.269523,0 0.445299,-0.2109312 0.445299,-0.43358079 z m 0,2.55461089 c 0,-0.2812416 -0.210931,-0.4452992 -0.433581,-0.4452992 -0.269523,0 -0.445299,0.2109312 -0.445299,0.4335808 0,0.2695231 0.210931,0.4452991 0.433581,0.4452991 0.269523,0 0.445299,-0.2109312 0.445299,-0.4335807 z m 0,0"
             style="fill:#000000;fill-opacity:1;fill-rule:nonzero;stroke:none"
             id="path34" />
          <path
             d="m 47.757289,-0.96355325 c 0.07031,-0.28124155 0.08203,-0.36327035 0.820287,-0.36327035 0.22265,0 0.304679,0 0.304679,-0.1523392 0,-0.011718 -0.02344,-0.1054656 -0.140621,-0.1054656 -0.164058,0 -0.410144,0.011718 -0.574202,0.023437 h -0.574201 c -0.820288,0 -1.019501,-0.023437 -1.078093,-0.023437 -0.02344,0 -0.152339,0 -0.152339,0.1406208 0,0.117184 0.105466,0.117184 0.234368,0.117184 0.257805,0 0.492173,0 0.492173,0.1289024 0,0.035155 -0.01172,0.035155 -0.03516,0.1406208 L 45.98781,3.219915 c -0.07031,0.3046784 -0.09375,0.3749888 -0.679667,0.3749888 -0.152339,0 -0.246086,0 -0.246086,0.1406207 0,0.117184 0.105465,0.117184 0.234368,0.117184 h 3.855353 c 0.199213,0 0.210931,-0.011718 0.269523,-0.1640576 0.08203,-0.2226495 0.65623,-1.7108861 0.65623,-1.7929149 0,-0.07031 -0.05859,-0.117184 -0.117184,-0.117184 -0.08203,0 -0.105465,0.058592 -0.152339,0.175776 -0.29296,0.7382591 -0.632793,1.6405758 -2.062438,1.6405758 h -1.007782 c -0.07031,-0.023437 -0.09375,-0.023437 -0.09375,-0.082029 0,-0.058592 0.01172,-0.117184 0.02344,-0.175776 z m 0,0"
             style="fill:#000000;fill-opacity:1;fill-rule:nonzero;stroke:none"
             id="path35" />
          <path
             d="m 52.295238,-1.7047419 c 0.04687,-0.082029 0.05859,-0.1523392 0.05859,-0.1874944 0,-0.1874944 -0.175776,-0.3398336 -0.36327,-0.3398336 -0.246086,0 -0.316397,0.2109312 -0.339834,0.29296 L 50.81872,0.61550094 c -0.01172,0.0351552 -0.03515,0.0820288 -0.03515,0.10546559 0,0.10546559 0.246086,0.15233918 0.246086,0.15233918 0.05859,0 0.08203,-0.0468736 0.105466,-0.10546559 z m 0,0"
             style="fill:#000000;fill-opacity:1;fill-rule:nonzero;stroke:none"
             id="path36" />
          <path
             d="m 52.564762,2.5959103 c 0,-0.175776 -0.02344,-0.175776 -0.199213,-0.175776 -0.398426,0.3749888 -1.007783,0.3749888 -1.218714,0.3749888 V 3.029491 c 0.152339,0 0.550765,0 0.902317,-0.1640576 v 3.0233468 c 0,0.1874944 0,0.2695232 -0.609357,0.2695232 H 51.18199 v 0.234368 c 0.328116,-0.023437 0.796852,-0.023437 1.124967,-0.023437 0.339833,0 0.796851,0 1.136684,0.023437 v -0.234368 h -0.257804 c -0.621075,0 -0.621075,-0.082029 -0.621075,-0.2695232 z m 0,0"
             style="fill:#000000;fill-opacity:1;fill-rule:nonzero;stroke:none"
             id="path37" />
          <path
             d="m 58.678836,2.6134879 c 0,-0.023437 0,-0.046874 -0.187494,-0.234368 -1.359335,-1.3710526 -1.710887,-3.4334907 -1.710887,-5.1092217 0,-1.8983806 0.421863,-3.7967611 1.75776,-5.1560953 0.140621,-0.1289024 0.140621,-0.1523392 0.140621,-0.1874944 0,-0.07031 -0.04687,-0.1054656 -0.105466,-0.1054656 -0.105465,0 -1.089811,0.7382591 -1.734323,2.1210301 -0.562483,1.2069951 -0.691385,2.4139901 -0.691385,3.3280252 0,0.8554431 0.117184,2.1796221 0.726541,3.41005394 0.644511,1.33589746 1.593702,2.05071976 1.699167,2.05071976 0.05859,0 0.105466,-0.035155 0.105466,-0.117184 z m 0,0"
             style="fill:#000000;fill-opacity:1;fill-rule:nonzero;stroke:none"
             id="path38" />
          <path
             d="m 64.830995,-7.2534036 c 0.03516,-0.1289024 0.03516,-0.1523392 0.03516,-0.1640576 0,-0.1523392 -0.152339,-0.1523392 -0.257804,-0.1523392 -0.210932,0 -0.22265,0.023437 -0.281242,0.2460864 l -0.539046,2.1679037 c -0.04687,0.1406208 -0.04687,0.1523392 -0.05859,0.1640576 -0.02344,0.011718 -0.03516,0.011718 -0.22265,0.023437 -2.238214,0.1406208 -3.58583,1.6874494 -3.58583,3.0702204 0,1.17183982 0.937472,1.96869092 2.542893,2.01556451 L 61.995143,2.0510048 c 0,0.1523391 0.152339,0.1523391 0.246086,0.1523391 0.175776,0 0.234368,-0.011718 0.281242,-0.1992127 l 0.374988,-1.52339184 c 0.08203,-0.31639676 0.09375,-0.32811515 0.105466,-0.33983355 0.02344,-0.0117184 0.03516,-0.0117184 0.210931,-0.0234368 2.214777,-0.12890238 3.597548,-1.65229421 3.597548,-3.05850201 0,-1.1718398 -0.937471,-1.9686909 -2.542892,-2.0272829 z m -2.273369,6.98416546 c -0.937472,-0.058592 -1.511674,-0.45701754 -1.511674,-1.34761586 0,-0.3046783 0.117184,-1.3124606 0.691386,-2.0272829 0.374989,-0.4804543 1.007782,-0.8554431 1.910099,-0.9257535 z m 1.60542,-4.30065226 c 0.937472,0.058592 1.523392,0.4570176 1.523392,1.3358975 0,0.3046783 -0.128902,1.3124606 -0.691385,2.0390013 -0.386707,0.48045432 -1.019501,0.84372467 -1.910099,0.92575346 z m 0,0"
             style="fill:#000000;fill-opacity:1;fill-rule:nonzero;stroke:none"
             id="path39" />
          <path
             d="m 70.693124,2.6134879 c 0,-0.023437 0,-0.046874 -0.187494,-0.234368 -1.359335,-1.3710526 -1.710887,-3.4334907 -1.710887,-5.1092217 0,-1.8983806 0.421863,-3.7967611 1.75776,-5.1560953 0.140621,-0.1289024 0.140621,-0.1523392 0.140621,-0.1874944 0,-0.07031 -0.04687,-0.1054656 -0.105466,-0.1054656 -0.105465,0 -1.089811,0.7382591 -1.734323,2.1210301 -0.562483,1.2069951 -0.691385,2.4139901 -0.691385,3.3280252 0,0.8554431 0.117184,2.1796221 0.726541,3.41005394 0.644511,1.33589746 1.593702,2.05071976 1.699167,2.05071976 0.05859,0 0.105466,-0.035155 0.105466,-0.117184 z m 0,0"
             style="fill:#000000;fill-opacity:1;fill-rule:nonzero;stroke:none"
             id="path40" />
          <path
             d="m 75.102171,-2.6832282 1.277306,-1.4179262 c 0.140621,-0.1523392 0.210931,-0.234368 1.113248,-0.234368 v -0.5038911 c -0.386708,0.011718 -0.949191,0.023437 -1.007783,0.023437 -0.269523,0 -0.808569,-0.011718 -1.124966,-0.023437 v 0.5038911 c 0.164058,0 0.29296,0.023437 0.421862,0.1054656 -0.04687,0.058592 -0.04687,0.082029 -0.09375,0.1289024 l -0.914035,1.0195006 -1.066374,-1.2538686 h 0.433581 v -0.5038911 c -0.281242,0.011718 -0.972627,0.023437 -1.312461,0.023437 -0.351552,0 -0.843725,-0.011718 -1.206995,-0.023437 v 0.5038911 h 0.773414 l 1.699168,2.0155645 -1.417926,1.60542062 c -0.187495,0.19921277 -0.58592,0.19921277 -1.113248,0.19921277 V 2.8502645e-4 c 0.386707,-0.0234367964 0.94919,-0.0351551964 1.007782,-0.0351551964 0.269523,0 0.902317,0.0234368 1.124967,0.0351551964 V -0.51532451 c -0.199213,0 -0.398426,-0.0468736 -0.398426,-0.11718398 0,-0.0117184 0,-0.0234368 0.07031,-0.10546559 l 1.054656,-1.19527662 1.206995,1.41792619 H 75.207637 V 2.8502645e-4 c 0.281241,-0.0117183964 0.94919,-0.0351551964 1.300742,-0.0351551964 0.351552,0 0.843725,0.0234368 1.206995,0.0351551964 V -0.51532451 H 76.94196 Z m 0,0"
             style="fill:#000000;fill-opacity:1;fill-rule:nonzero;stroke:none"
             id="path41" />
          <path
             d="m 81.101991,-2.7301018 c 0,-0.8437247 -0.117184,-2.1679037 -0.714822,-3.3983356 -0.65623,-1.3476158 -1.593702,-2.0507197 -1.710886,-2.0507197 -0.05859,0 -0.105466,0.035155 -0.105466,0.1054656 0,0.035155 0,0.058592 0.210931,0.2460864 1.066375,1.089811 1.68745,2.824134 1.68745,5.0975033 0,1.86322534 -0.398426,3.7850427 -1.75776,5.1678137 -0.140621,0.1289024 -0.140621,0.1523392 -0.140621,0.175776 0,0.07031 0.04687,0.117184 0.105466,0.117184 0.117184,0 1.089811,-0.7499775 1.734323,-2.13274855 0.562483,-1.19527664 0.691385,-2.41399005 0.691385,-3.32802515 z m 4.242061,0 c 0,-0.8437247 -0.117184,-2.1679037 -0.714823,-3.3983356 -0.65623,-1.3476158 -1.593702,-2.0507197 -1.710886,-2.0507197 -0.05859,0 -0.105465,0.035155 -0.105465,0.1054656 0,0.035155 0,0.058592 0.210931,0.2460864 1.066374,1.089811 1.687449,2.824134 1.687449,5.0975033 0,1.86322534 -0.398425,3.7850427 -1.75776,5.1678137 -0.14062,0.1289024 -0.14062,0.1523392 -0.14062,0.175776 0,0.07031 0.04687,0.117184 0.105465,0.117184 0.117184,0 1.089811,-0.7499775 1.734323,-2.13274855 0.562483,-1.19527664 0.691386,-2.41399005 0.691386,-3.32802515 z m 0,0"
             style="fill:#000000;fill-opacity:1;fill-rule:nonzero;stroke:none"
             id="path42" />
        </g>
        <path
           d="m 101.9674,-32.64091 h 93.70663 V -9.87924 H 101.9674 Z"
           style="fill:#5959a6;fill-opacity:0.2;fill-rule:nonzero;stroke:none"
           transform="matrix(1.3333733,0,0,-1.3333733,94.846845,64.069187)"
           clip-path="url(#clipPath6)"
           id="path43" />
        <g
           aria-label="y&#10;′&#10;2&#10;=F&#10;2&#10;L:L&#10;′&#10;2&#10;(ϕ(x))"
           transform="matrix(1.3333733,0,0,1.3333733,235.65374,94.216758)"
           clip-path="url(#clipPath7)"
           id="g59">
          <path
             d="m 5.5183213,-4.1028753 c 0.082029,-0.1523391 0.1054656,-0.2343679 0.8085695,-0.2343679 v -0.5038912 c -0.2578047,0.011718 -0.5859199,0.023437 -0.8671614,0.023437 -0.2695232,0 -0.7616959,-0.011718 -0.9843455,-0.023437 v 0.5038912 c 0.023437,0 0.5038911,0 0.5038911,0.1406208 0,0 -0.035155,0.1171839 -0.046874,0.1289023 l -1.2538686,2.6835133 -1.382771,-2.9530364 h 0.5859199 v -0.5038912 c -0.3632704,0.011718 -1.3476158,0.023437 -1.3593342,0.023437 -0.3046784,0 -0.79685112,-0.011718 -1.24215026,-0.023437 v 0.5038912 h 0.7031039 L 3.0223025,-0.0014358 2.7644977,0.52589213 C 2.5301297,1.0415017 2.1785778,1.7914792 1.4051635,1.7914792 c -0.1523392,0 -0.175776,-0.011718 -0.2578048,-0.046874 0.093747,-0.046874 0.351552,-0.1992128 0.351552,-0.5742016 0,-0.36327031 -0.2695232,-0.62107508 -0.63279354,-0.62107508 -0.31639676,0 -0.63279352,0.19921278 -0.63279352,0.63279348 0,0.5507648 0.51560953,0.9960639 1.17183986,0.9960639 0.8437247,0 1.4765182,-0.6796671 1.7694782,-1.30074222 z m 0,0"
             style="fill:#000000;fill-opacity:1;fill-rule:nonzero;stroke:none"
             id="path44" />
          <path
             d="m 8.9049385,-7.7326492 c 0.046874,-0.1054656 0.07031,-0.1640576 0.07031,-0.2460863 0,-0.2578048 -0.234368,-0.4335808 -0.4570176,-0.4335808 -0.3163967,0 -0.4101439,0.2812416 -0.4452991,0.3867072 l -1.0077823,3.4334907 c -0.035155,0.093747 -0.035155,0.117184 -0.035155,0.1289024 0,0.07031 0.046874,0.093747 0.1289024,0.117184 0.1523392,0.058592 0.1640576,0.058592 0.175776,0.058592 0.023437,0 0.07031,0 0.1289024,-0.1289024 z m 0,0"
             style="fill:#000000;fill-opacity:1;fill-rule:nonzero;stroke:none"
             id="path45" />
          <path
             d="M 8.8727129,1.2934472 C 9.0016153,1.1762632 9.3297304,0.91845847 9.4586328,0.80127449 9.9508056,0.34425695 10.419541,-0.08932379 10.419541,-0.8158645 c 0,-0.9491903 -0.7968506,-1.558547 -1.7929145,-1.558547 -0.9491902,0 -1.5819838,0.7265407 -1.5819838,1.42964462 0,0.39842555 0.3163968,0.44529914 0.4218624,0.44529914 0.1640576,0 0.4101439,-0.11718398 0.4101439,-0.42186234 0,-0.41014392 -0.3984255,-0.41014392 -0.4921727,-0.41014392 0.234368,-0.58592 0.7734143,-0.7851327 1.1601214,-0.7851327 0.7382591,0 1.1249663,0.6327935 1.1249663,1.3007422 0,0.83200629 -0.5859199,1.42964461 -1.5233918,2.4022717 l -1.0077823,1.031219 c -0.093747,0.093747 -0.093747,0.1054656 -0.093747,0.3046784 H 10.196892 L 10.419541,1.49266 h -0.246086 c -0.02344,0.1640576 -0.08203,0.5624831 -0.1757759,0.7148223 -0.046873,0.058592 -0.6562303,0.058592 -0.7851326,0.058592 H 7.7946202 Z m 0,0"
             style="fill:#000000;fill-opacity:1;fill-rule:nonzero;stroke:none"
             id="path46" />
          <path
             d="m 23.702346,-3.5638289 c 0.164058,0 0.36327,0 0.36327,-0.2226496 0,-0.2226496 -0.199212,-0.2226496 -0.351551,-0.2226496 h -6.538867 c -0.152339,0 -0.36327,0 -0.36327,0.2226496 0,0.2226496 0.210931,0.2226496 0.374989,0.2226496 z m 0.01172,2.1093117 c 0.152339,0 0.351551,0 0.351551,-0.2109312 0,-0.2226496 -0.199212,-0.2226496 -0.36327,-0.2226496 h -6.515429 c -0.164058,0 -0.374989,0 -0.374989,0.2226496 0,0.2109312 0.210931,0.2109312 0.36327,0.2109312 z m 0,0"
             style="fill:#000000;fill-opacity:1;fill-rule:nonzero;stroke:none"
             id="path47" />
          <path
             d="m 32.833908,-3.5521105 h 1.054656 c 0.820288,0 0.914035,0.1757759 0.914035,0.4921727 0,0.082029 0,0.2109312 -0.08203,0.5390463 -0.02344,0.058592 -0.03516,0.093747 -0.03516,0.117184 0,0.093747 0.07031,0.1289024 0.140621,0.1289024 0.105465,0 0.105465,-0.023437 0.152339,-0.2226496 l 0.609357,-2.3671165 c 0.02344,-0.1171839 0.02344,-0.1406207 0.02344,-0.1757759 0,-0.023437 -0.01172,-0.117184 -0.128903,-0.117184 -0.105465,0 -0.117184,0.046874 -0.164057,0.2226495 -0.22265,0.8554431 -0.480455,1.0546559 -1.406208,1.0546559 h -0.984346 l 0.691386,-2.7772604 c 0.105465,-0.3749888 0.105465,-0.4218624 0.58592,-0.4218624 h 1.441363 c 1.347616,0 1.593702,0.3632704 1.593702,1.1952767 0,0.2578047 0,0.2929599 -0.03516,0.5859199 -0.01172,0.1523392 -0.01172,0.1640576 -0.01172,0.1992128 0,0.058592 0.02344,0.1289024 0.128903,0.1289024 0.117184,0 0.128902,-0.058592 0.152339,-0.2695232 l 0.210931,-1.8866622 c 0.03516,-0.2929599 -0.01172,-0.2929599 -0.29296,-0.2929599 h -5.34359 c -0.222649,0 -0.328115,0 -0.328115,0.2226495 0,0.117184 0.105466,0.117184 0.304679,0.117184 0.410144,0 0.714822,0 0.714822,0.1992128 0,0.035155 0,0.058592 -0.05859,0.2578048 l -1.441363,5.76545201 c -0.105466,0.43358074 -0.128902,0.51560953 -0.996064,0.51560953 -0.175776,0 -0.304678,0 -0.304678,0.21093117 0,0.12890239 0.14062,0.12890239 0.164057,0.12890239 0.316397,0 1.124967,-0.0351552 1.441363,-0.0351552 0.363271,0 1.265587,0.0351552 1.628858,0.0351552 0.09375,0 0.234368,0 0.234368,-0.21093118 0,-0.0820288 -0.07031,-0.10546558 -0.07031,-0.11718398 -0.03515,-0.0117184 -0.05859,-0.0117184 -0.304678,-0.0117184 -0.246086,0 -0.29296,0 -0.574202,-0.0234368 -0.316396,-0.0351552 -0.339833,-0.0703104 -0.339833,-0.21093117 0,-0.0234368 0,-0.0937472 0.03515,-0.25780476 z m 0,0"
             style="fill:#000000;fill-opacity:1;fill-rule:nonzero;stroke:none"
             id="path48" />
          <path
             d="m 40.316106,-5.5881823 c 0.128902,-0.1171839 0.457017,-0.3749887 0.585919,-0.4921727 0.492173,-0.4570175 0.960909,-0.8905983 0.960909,-1.617139 0,-0.9491903 -0.796851,-1.558547 -1.792915,-1.558547 -0.94919,0 -1.581984,0.7265407 -1.581984,1.4296446 0,0.3984256 0.316397,0.4452992 0.421863,0.4452992 0.164057,0 0.410144,-0.117184 0.410144,-0.4218624 0,-0.4101439 -0.398426,-0.4101439 -0.492173,-0.4101439 0.234368,-0.5859199 0.773414,-0.7851327 1.160121,-0.7851327 0.738259,0 1.124967,0.6327935 1.124967,1.3007422 0,0.8320063 -0.58592,1.4296446 -1.523392,2.4022717 l -1.007782,1.0312191 c -0.09375,0.093747 -0.09375,0.1054655 -0.09375,0.3046783 h 3.15225 l 0.222649,-1.4296446 h -0.246086 c -0.02344,0.1640576 -0.08203,0.5624831 -0.175776,0.7148223 -0.04687,0.058592 -0.656231,0.058592 -0.785133,0.058592 h -1.417926 z m 0,0"
             style="fill:#000000;fill-opacity:1;fill-rule:nonzero;stroke:none"
             id="path49" />
          <path
             d="m 39.645227,-0.96234448 c 0.07031,-0.28124152 0.08203,-0.36327032 0.820288,-0.36327032 0.22265,0 0.304678,0 0.304678,-0.1523392 0,-0.011718 -0.02344,-0.1054656 -0.14062,-0.1054656 -0.164058,0 -0.410144,0.011718 -0.574202,0.023437 H 39.48117 c -0.820288,0 -1.019501,-0.023437 -1.078093,-0.023437 -0.02344,0 -0.152339,0 -0.152339,0.1406208 0,0.117184 0.105465,0.117184 0.234368,0.117184 0.257805,0 0.492173,0 0.492173,0.1289024 0,0.035155 -0.01172,0.035155 -0.03516,0.1406207 l -1.066374,4.2772155 c -0.07031,0.3046783 -0.09375,0.3749887 -0.679667,0.3749887 -0.152339,0 -0.246086,0 -0.246086,0.1406208 0,0.117184 0.105465,0.117184 0.234368,0.117184 h 3.855353 c 0.199212,0 0.210931,-0.011718 0.269523,-0.1640576 0.08203,-0.2226496 0.65623,-1.7108862 0.65623,-1.792915 0,-0.07031 -0.05859,-0.1171839 -0.117184,-0.1171839 -0.08203,0 -0.105465,0.058592 -0.152339,0.1757759 -0.29296,0.7382591 -0.632794,1.6405758 -2.062438,1.6405758 h -1.007782 c -0.07031,-0.023437 -0.09375,-0.023437 -0.09375,-0.082029 0,-0.058592 0.01172,-0.117184 0.02344,-0.1757759 z m 0,0"
             style="fill:#000000;fill-opacity:1;fill-rule:nonzero;stroke:none"
             id="path50" />
          <path
             d="m 43.928302,0.86572568 c 0,-0.26952316 -0.210931,-0.44529914 -0.433581,-0.44529914 -0.269523,0 -0.445299,0.21093117 -0.445299,0.43358074 0,0.26952312 0.210931,0.44529912 0.433581,0.44529912 0.269523,0 0.445299,-0.2109311 0.445299,-0.43358072 z m 0,2.55461082 c 0,-0.2812415 -0.210931,-0.4452991 -0.433581,-0.4452991 -0.269523,0 -0.445299,0.2109312 -0.445299,0.4335807 0,0.2695232 0.210931,0.4452992 0.433581,0.4452992 0.269523,0 0.445299,-0.2109312 0.445299,-0.4335808 z m 0,0"
             style="fill:#000000;fill-opacity:1;fill-rule:nonzero;stroke:none"
             id="path51" />
          <path
             d="m 47.757289,-0.96234448 c 0.07031,-0.28124152 0.08203,-0.36327032 0.820287,-0.36327032 0.22265,0 0.304679,0 0.304679,-0.1523392 0,-0.011718 -0.02344,-0.1054656 -0.140621,-0.1054656 -0.164058,0 -0.410144,0.011718 -0.574202,0.023437 h -0.574201 c -0.820288,0 -1.019501,-0.023437 -1.078093,-0.023437 -0.02344,0 -0.152339,0 -0.152339,0.1406208 0,0.117184 0.105466,0.117184 0.234368,0.117184 0.257805,0 0.492173,0 0.492173,0.1289024 0,0.035155 -0.01172,0.035155 -0.03516,0.1406207 l -1.06637,4.2772155 c -0.07031,0.3046783 -0.09375,0.3749887 -0.679667,0.3749887 -0.152339,0 -0.246086,0 -0.246086,0.1406208 0,0.117184 0.105465,0.117184 0.234368,0.117184 h 3.855353 c 0.199213,0 0.210931,-0.011718 0.269523,-0.1640576 0.08203,-0.2226496 0.65623,-1.7108862 0.65623,-1.792915 0,-0.07031 -0.05859,-0.1171839 -0.117184,-0.1171839 -0.08203,0 -0.105465,0.058592 -0.152339,0.1757759 -0.29296,0.7382591 -0.632793,1.6405758 -2.062438,1.6405758 h -1.007782 c -0.07031,-0.023437 -0.09375,-0.023437 -0.09375,-0.082029 0,-0.058592 0.01172,-0.117184 0.02344,-0.1757759 z m 0,0"
             style="fill:#000000;fill-opacity:1;fill-rule:nonzero;stroke:none"
             id="path52" />
          <path
             d="m 52.295238,-1.7035332 c 0.04687,-0.082029 0.05859,-0.1523392 0.05859,-0.1874944 0,-0.1874943 -0.175776,-0.3398335 -0.36327,-0.3398335 -0.246086,0 -0.316397,0.2109312 -0.339834,0.29296 L 50.81872,0.61670971 c -0.01172,0.0351552 -0.03515,0.0820288 -0.03515,0.10546559 0,0.10546559 0.246086,0.15233918 0.246086,0.15233918 0.05859,0 0.08203,-0.0468736 0.105466,-0.10546559 z m 0,0"
             style="fill:#000000;fill-opacity:1;fill-rule:nonzero;stroke:none"
             id="path53" />
          <path
             d="m 53.631136,5.2806323 h -0.210931 c -0.02344,0.082029 -0.08203,0.4687359 -0.164058,0.5390463 -0.04687,0.035155 -0.527328,0.035155 -0.609357,0.035155 h -1.124966 l 0.773414,-0.6210751 c 0.199213,-0.1640576 0.726541,-0.5390463 0.914035,-0.7265407 0.175776,-0.175776 0.421863,-0.4804543 0.421863,-0.9023167 0,-0.7499775 -0.667949,-1.1835582 -1.476518,-1.1835582 -0.761696,0 -1.300743,0.5038911 -1.300743,1.0663742 0,0.3046784 0.257805,0.3398336 0.316397,0.3398336 0.152339,0 0.328115,-0.1054656 0.328115,-0.3163968 0,-0.1406208 -0.08203,-0.3281151 -0.339833,-0.3281151 0.128902,-0.3046784 0.503891,-0.527328 0.914035,-0.527328 0.621075,0 0.960908,0.468736 0.960908,0.9491903 0,0.4218624 -0.281241,0.8554431 -0.703103,1.2421503 l -1.417927,1.3007422 c -0.05859,0.058592 -0.05859,0.058592 -0.05859,0.2460863 h 2.601485 z m 0,0"
             style="fill:#000000;fill-opacity:1;fill-rule:nonzero;stroke:none"
             id="path54" />
          <path
             d="m 58.678836,2.611767 c 0,-0.023437 0,-0.046873 -0.187494,-0.2343679 -1.359335,-1.3710526 -1.710887,-3.4334908 -1.710887,-5.1092217 0,-1.8983806 0.421863,-3.7967611 1.75776,-5.1560954 0.140621,-0.1289023 0.140621,-0.1523391 0.140621,-0.1874943 0,-0.07031 -0.04687,-0.1054656 -0.105466,-0.1054656 -0.105465,0 -1.089811,0.7382591 -1.734323,2.1210301 -0.562483,1.206995 -0.691385,2.4139901 -0.691385,3.3280252 0,0.855443 0.117184,2.17962207 0.726541,3.41005391 0.644511,1.33589739 1.593702,2.05071969 1.699167,2.05071969 0.05859,0 0.105466,-0.035155 0.105466,-0.117184 z m 0,0"
             style="fill:#000000;fill-opacity:1;fill-rule:nonzero;stroke:none"
             id="path55" />
          <path
             d="m 64.830995,-7.2551244 c 0.03516,-0.1289024 0.03516,-0.1523392 0.03516,-0.1640576 0,-0.1523392 -0.152339,-0.1523392 -0.257804,-0.1523392 -0.210932,0 -0.22265,0.023437 -0.281242,0.2460864 l -0.539046,2.1679037 c -0.04687,0.1406208 -0.04687,0.1523392 -0.05859,0.1640576 -0.02344,0.011718 -0.03516,0.011718 -0.22265,0.023437 -2.238214,0.1406207 -3.58583,1.6874493 -3.58583,3.0702203 0,1.17183989 0.937472,1.96869099 2.542893,2.01556458 L 61.995143,2.0492839 c 0,0.1523392 0.152339,0.1523392 0.246086,0.1523392 0.175776,0 0.234368,-0.011718 0.281242,-0.1992128 l 0.374988,-1.52339177 c 0.08203,-0.31639676 0.09375,-0.32811515 0.105466,-0.33983355 0.02344,-0.0117184 0.03516,-0.0117184 0.210931,-0.0234368 2.214777,-0.12890238 3.597548,-1.65229418 3.597548,-3.05850198 0,-1.1718399 -0.937471,-1.968691 -2.542892,-2.0272829 z m -2.273369,6.98416543 c -0.937472,-0.058592 -1.511674,-0.45701754 -1.511674,-1.34761583 0,-0.3046783 0.117184,-1.3124606 0.691386,-2.0272829 0.374989,-0.4804544 1.007782,-0.8554431 1.910099,-0.9257535 z m 1.60542,-4.30065223 c 0.937472,0.058592 1.523392,0.4570175 1.523392,1.3358974 0,0.3046784 -0.128902,1.3124607 -0.691385,2.0390014 -0.386707,0.48045429 -1.019501,0.84372464 -1.910099,0.92575343 z m 0,0"
             style="fill:#000000;fill-opacity:1;fill-rule:nonzero;stroke:none"
             id="path56" />
          <path
             d="m 70.693124,2.611767 c 0,-0.023437 0,-0.046873 -0.187494,-0.2343679 -1.359335,-1.3710526 -1.710887,-3.4334908 -1.710887,-5.1092217 0,-1.8983806 0.421863,-3.7967611 1.75776,-5.1560954 0.140621,-0.1289023 0.140621,-0.1523391 0.140621,-0.1874943 0,-0.07031 -0.04687,-0.1054656 -0.105466,-0.1054656 -0.105465,0 -1.089811,0.7382591 -1.734323,2.1210301 -0.562483,1.206995 -0.691385,2.4139901 -0.691385,3.3280252 0,0.855443 0.117184,2.17962207 0.726541,3.41005391 0.644511,1.33589739 1.593702,2.05071969 1.699167,2.05071969 0.05859,0 0.105466,-0.035155 0.105466,-0.117184 z m 0,0"
             style="fill:#000000;fill-opacity:1;fill-rule:nonzero;stroke:none"
             id="path57" />
          <path
             d="m 75.102171,-2.684949 1.277306,-1.4179263 c 0.140621,-0.1523391 0.210931,-0.2343679 1.113248,-0.2343679 v -0.5038912 c -0.386708,0.011718 -0.949191,0.023437 -1.007783,0.023437 -0.269523,0 -0.808569,-0.011718 -1.124966,-0.023437 v 0.5038912 c 0.164058,0 0.29296,0.023437 0.421862,0.1054656 -0.04687,0.058592 -0.04687,0.082029 -0.09375,0.1289023 l -0.914035,1.0195007 -1.066374,-1.2538686 h 0.433581 v -0.5038912 c -0.281242,0.011718 -0.972627,0.023437 -1.312461,0.023437 -0.351552,0 -0.843725,-0.011718 -1.206995,-0.023437 v 0.5038912 h 0.773414 l 1.699168,2.0155645 -1.417926,1.60542059 c -0.187495,0.19921277 -0.58592,0.19921277 -1.113248,0.19921277 v 0.51560954 c 0.386707,-0.0234368 0.94919,-0.0351552 1.007782,-0.0351552 0.269523,0 0.902317,0.0234368 1.124967,0.0351552 v -0.51560954 c -0.199213,0 -0.398426,-0.0468736 -0.398426,-0.11718398 0,-0.0117184 0,-0.0234368 0.07031,-0.10546559 l 1.054656,-1.19527659 1.206995,1.41792616 h -0.421862 v 0.51560954 c 0.281241,-0.0117184 0.94919,-0.0351552 1.300742,-0.0351552 0.351552,0 0.843725,0.0234368 1.206995,0.0351552 V -0.51704534 H 76.94196 Z m 0,0"
             style="fill:#000000;fill-opacity:1;fill-rule:nonzero;stroke:none"
             id="path58" />
          <path
             d="m 81.101991,-2.7318226 c 0,-0.8437247 -0.117184,-2.1679038 -0.714822,-3.3983356 -0.65623,-1.3476158 -1.593702,-2.0507197 -1.710886,-2.0507197 -0.05859,0 -0.105466,0.035155 -0.105466,0.1054656 0,0.035155 0,0.058592 0.210931,0.2460863 1.066375,1.0898111 1.68745,2.8241341 1.68745,5.0975034 0,1.86322531 -0.398426,3.7850427 -1.75776,5.1678137 -0.140621,0.1289024 -0.140621,0.1523392 -0.140621,0.1757759 0,0.07031 0.04687,0.117184 0.105466,0.117184 0.117184,0 1.089811,-0.7499775 1.734323,-2.13274848 0.562483,-1.19527665 0.691385,-2.41399012 0.691385,-3.32802512 z m 4.242061,0 c 0,-0.8437247 -0.117184,-2.1679038 -0.714823,-3.3983356 -0.65623,-1.3476158 -1.593702,-2.0507197 -1.710886,-2.0507197 -0.05859,0 -0.105465,0.035155 -0.105465,0.1054656 0,0.035155 0,0.058592 0.210931,0.2460863 1.066374,1.0898111 1.687449,2.8241341 1.687449,5.0975034 0,1.86322531 -0.398425,3.7850427 -1.75776,5.1678137 -0.14062,0.1289024 -0.14062,0.1523392 -0.14062,0.1757759 0,0.07031 0.04687,0.117184 0.105465,0.117184 0.117184,0 1.089811,-0.7499775 1.734323,-2.13274848 0.562483,-1.19527665 0.691386,-2.41399012 0.691386,-3.32802512 z m 0,0"
             style="fill:#000000;fill-opacity:1;fill-rule:nonzero;stroke:none"
             id="path59" />
        </g>
        <path
           d="m 56.60371,8.08597 40.56165,5.80528"
           style="fill:none;stroke:#000000;stroke-width:0.79701;stroke-linecap:butt;stroke-linejoin:miter;stroke-miterlimit:10;stroke-dasharray:none;stroke-opacity:1"
           transform="matrix(1.3333733,0,0,-1.3333733,94.846845,64.069187)"
           clip-path="url(#clipPath8)"
           id="path60" />
        <path
           d="M 4.66248,0 C 3.28098,0.25902 1.0361,1.0361 -0.51805,1.94269 V -1.94269 C 1.0361,-1.0361 3.28098,-0.25902 4.66248,0"
           style="fill:#000000;fill-opacity:1;fill-rule:nonzero;stroke:none"
           transform="matrix(1.3198663,-0.18888567,-0.18888567,-1.3198663,224.40452,45.546965)"
           clip-path="url(#clipPath9)"
           id="path61" />
        <path
           d="m 56.60371,-8.08597 40.56165,-5.80528"
           style="fill:none;stroke:#000000;stroke-width:0.79701;stroke-linecap:butt;stroke-linejoin:miter;stroke-miterlimit:10;stroke-dasharray:none;stroke-opacity:1"
           transform="matrix(1.3333733,0,0,-1.3333733,94.846845,64.069187)"
           clip-path="url(#clipPath10)"
           id="path62" />
        <path
           d="M 4.66248,0 C 3.28098,0.25902 1.0361,1.0361 -0.51805,1.94269 V -1.94269 C 1.0361,-1.0361 3.28098,-0.25902 4.66248,0"
           style="fill:#000000;fill-opacity:1;fill-rule:nonzero;stroke:none"
           transform="matrix(1.3198663,0.18888567,0.18888567,-1.3198663,224.40452,82.591409)"
           clip-path="url(#clipPath11)"
           id="path63" />
      </g>
    </g>
  </g>
</svg>
