<?xml version="1.0" encoding="UTF-8" standalone="no"?>
<!-- Created with Inkscape (http://www.inkscape.org/) -->

<svg
   version="1.1"
   id="svg1"
   width="320.504"
   height="283.46533"
   viewBox="0 0 320.504 283.46533"
   sodipodi:docname="moe-page1.pdf"
   xmlns:inkscape="http://www.inkscape.org/namespaces/inkscape"
   xmlns:sodipodi="http://sodipodi.sourceforge.net/DTD/sodipodi-0.dtd"
   xmlns="http://www.w3.org/2000/svg"
   xmlns:svg="http://www.w3.org/2000/svg">
  <defs
     id="defs1">
    <clipPath
       clipPathUnits="userSpaceOnUse"
       id="clipPath1">
      <path
         d="M 0,0 H 453.543 V 283.465 H 0 Z"
         id="path1" />
    </clipPath>
    <clipPath
       clipPathUnits="userSpaceOnUse"
       id="clipPath2">
      <path
         d="M 0,0 H 453.543 V 283.465 H 0 Z"
         transform="translate(-123.991,-81.058001)"
         id="path2" />
    </clipPath>
    <clipPath
       clipPathUnits="userSpaceOnUse"
       id="clipPath3">
      <path
         d="M 0,0 H 453.543 V 283.465 H 0 Z"
         transform="matrix(1,0,0,-1,-120.681,78.634005)"
         id="path3" />
    </clipPath>
    <clipPath
       clipPathUnits="userSpaceOnUse"
       id="clipPath4">
      <path
         d="M 0,0 H 453.543 V 283.465 H 0 Z"
         transform="translate(-2124.0169,-2081.0838)"
         id="path4" />
    </clipPath>
    <clipPath
       clipPathUnits="userSpaceOnUse"
       id="clipPath5">
      <path
         d="M 0,0 H 453.543 V 283.465 H 0 Z"
         transform="matrix(1,0,0,-1,-2176.5259,2077.3568)"
         id="path5" />
    </clipPath>
    <clipPath
       clipPathUnits="userSpaceOnUse"
       id="clipPath6">
      <path
         d="M 0,0 H 453.543 V 283.465 H 0 Z"
         transform="translate(-2124.0169,-2081.0838)"
         id="path6" />
    </clipPath>
    <clipPath
       clipPathUnits="userSpaceOnUse"
       id="clipPath7">
      <path
         d="M 0,0 H 453.543 V 283.465 H 0 Z"
         transform="translate(-2167.8297,-2081.0838)"
         id="path7" />
    </clipPath>
    <clipPath
       clipPathUnits="userSpaceOnUse"
       id="clipPath8">
      <path
         d="M 0,0 H 453.543 V 283.465 H 0 Z"
         transform="translate(-2124.0169,-2081.0838)"
         id="path8" />
    </clipPath>
    <clipPath
       clipPathUnits="userSpaceOnUse"
       id="clipPath9">
      <path
         d="M 0,0 H 453.543 V 283.465 H 0 Z"
         transform="translate(-2124.0169,-2081.0838)"
         id="path9" />
    </clipPath>
    <clipPath
       clipPathUnits="userSpaceOnUse"
       id="clipPath10">
      <path
         d="M 0,0 H 453.543 V 283.465 H 0 Z"
         transform="matrix(1,0,0,-1,-2200.3659,2082.0469)"
         id="path10" />
    </clipPath>
    <clipPath
       clipPathUnits="userSpaceOnUse"
       id="clipPath11">
      <path
         d="M 0,0 H 453.543 V 283.465 H 0 Z"
         transform="translate(-2124.0169,-2081.0838)"
         id="path11" />
    </clipPath>
    <clipPath
       clipPathUnits="userSpaceOnUse"
       id="clipPath12">
      <path
         d="M 0,0 H 453.543 V 283.465 H 0 Z"
         transform="translate(-2124.0169,-2081.0838)"
         id="path12" />
    </clipPath>
    <clipPath
       clipPathUnits="userSpaceOnUse"
       id="clipPath13">
      <path
         d="M 0,0 H 453.543 V 283.465 H 0 Z"
         transform="translate(-2124.0169,-2081.0838)"
         id="path13" />
    </clipPath>
    <clipPath
       clipPathUnits="userSpaceOnUse"
       id="clipPath14">
      <path
         d="M 0,0 H 453.543 V 283.465 H 0 Z"
         transform="translate(-2124.0169,-2081.0838)"
         id="path14" />
    </clipPath>
    <clipPath
       clipPathUnits="userSpaceOnUse"
       id="clipPath15">
      <path
         d="M 0,0 H 453.543 V 283.465 H 0 Z"
         transform="matrix(1,0,0,-1,-2200.3659,2082.0469)"
         id="path15" />
    </clipPath>
    <clipPath
       clipPathUnits="userSpaceOnUse"
       id="clipPath16">
      <path
         d="M 0,0 H 453.543 V 283.465 H 0 Z"
         transform="translate(-2124.0169,-2081.0838)"
         id="path16" />
    </clipPath>
    <clipPath
       clipPathUnits="userSpaceOnUse"
       id="clipPath17">
      <path
         d="M 0,0 H 453.543 V 283.465 H 0 Z"
         transform="translate(-2124.0169,-2081.0838)"
         id="path17" />
    </clipPath>
    <clipPath
       clipPathUnits="userSpaceOnUse"
       id="clipPath18">
      <path
         d="M 0,0 H 453.543 V 283.465 H 0 Z"
         transform="translate(-2124.0169,-2081.0838)"
         id="path18" />
    </clipPath>
    <clipPath
       clipPathUnits="userSpaceOnUse"
       id="clipPath19">
      <path
         d="M 0,0 H 453.543 V 283.465 H 0 Z"
         transform="rotate(-90,23.797769,2100.2191)"
         id="path19" />
    </clipPath>
    <clipPath
       clipPathUnits="userSpaceOnUse"
       id="clipPath20">
      <path
         d="M 0,0 H 453.543 V 283.465 H 0 Z"
         transform="translate(-2124.0169,-2081.0838)"
         id="path20" />
    </clipPath>
    <clipPath
       clipPathUnits="userSpaceOnUse"
       id="clipPath21">
      <path
         d="M 0,0 H 453.543 V 283.465 H 0 Z"
         transform="rotate(-90,23.797769,2100.2191)"
         id="path21" />
    </clipPath>
    <clipPath
       clipPathUnits="userSpaceOnUse"
       id="clipPath22">
      <path
         d="M 0,0 H 453.543 V 283.465 H 0 Z"
         transform="translate(-2124.0169,-2081.0838)"
         id="path22" />
    </clipPath>
    <clipPath
       clipPathUnits="userSpaceOnUse"
       id="clipPath23">
      <path
         d="M 0,0 H 453.543 V 283.465 H 0 Z"
         transform="matrix(1,0,0,-1,-2070.9218,2133.2299)"
         id="path23" />
    </clipPath>
    <clipPath
       clipPathUnits="userSpaceOnUse"
       id="clipPath24">
      <path
         d="M 0,0 H 453.543 V 283.465 H 0 Z"
         transform="translate(-2124.0169,-2081.0838)"
         id="path24" />
    </clipPath>
    <clipPath
       clipPathUnits="userSpaceOnUse"
       id="clipPath25">
      <path
         d="M 0,0 H 453.543 V 283.465 H 0 Z"
         transform="matrix(1,0,0,-1,-2203.9568,2133.0298)"
         id="path25" />
    </clipPath>
    <clipPath
       clipPathUnits="userSpaceOnUse"
       id="clipPath26">
      <path
         d="M 0,0 H 453.543 V 283.465 H 0 Z"
         transform="translate(-2124.0169,-2081.0838)"
         id="path26" />
    </clipPath>
    <clipPath
       clipPathUnits="userSpaceOnUse"
       id="clipPath27">
      <path
         d="M 0,0 H 453.543 V 283.465 H 0 Z"
         transform="matrix(1,0,0,-1,-2070.9218,2133.2299)"
         id="path27" />
    </clipPath>
    <clipPath
       clipPathUnits="userSpaceOnUse"
       id="clipPath28">
      <path
         d="M 0,0 H 453.543 V 283.465 H 0 Z"
         transform="translate(-2124.0169,-2081.0838)"
         id="path28" />
    </clipPath>
    <clipPath
       clipPathUnits="userSpaceOnUse"
       id="clipPath29">
      <path
         d="M 0,0 H 453.543 V 283.465 H 0 Z"
         transform="matrix(1,0,0,-1,-2203.9568,2133.0298)"
         id="path29" />
    </clipPath>
    <clipPath
       clipPathUnits="userSpaceOnUse"
       id="clipPath30">
      <path
         d="M 0,0 H 453.543 V 283.465 H 0 Z"
         transform="translate(-2124.0169,-2081.0838)"
         id="path30" />
    </clipPath>
    <clipPath
       clipPathUnits="userSpaceOnUse"
       id="clipPath31">
      <path
         d="M 0,0 H 453.543 V 283.465 H 0 Z"
         transform="matrix(1,0,0,-1,-2104.9378,2133.2299)"
         id="path31" />
    </clipPath>
    <clipPath
       clipPathUnits="userSpaceOnUse"
       id="clipPath32">
      <path
         d="M 0,0 H 453.543 V 283.465 H 0 Z"
         transform="translate(-2124.0169,-2081.0838)"
         id="path32" />
    </clipPath>
    <clipPath
       clipPathUnits="userSpaceOnUse"
       id="clipPath33">
      <path
         d="M 0,0 H 453.543 V 283.465 H 0 Z"
         transform="matrix(1,0,0,-1,-2156.0268,2133.0298)"
         id="path33" />
    </clipPath>
    <clipPath
       clipPathUnits="userSpaceOnUse"
       id="clipPath34">
      <path
         d="M 0,0 H 453.543 V 283.465 H 0 Z"
         transform="matrix(1,0,0,-1,-2135.7128,2134.5888)"
         id="path34" />
    </clipPath>
    <clipPath
       clipPathUnits="userSpaceOnUse"
       id="clipPath35">
      <path
         d="M 0,0 H 453.543 V 283.465 H 0 Z"
         transform="translate(-2124.0169,-2081.0838)"
         id="path35" />
    </clipPath>
    <clipPath
       clipPathUnits="userSpaceOnUse"
       id="clipPath36">
      <path
         d="M 0,0 H 453.543 V 283.465 H 0 Z"
         transform="matrix(-0.64771549,-0.7619588,0.7619588,-0.64771549,-268.42885,2966.3628)"
         id="path36" />
    </clipPath>
    <clipPath
       clipPathUnits="userSpaceOnUse"
       id="clipPath37">
      <path
         d="M 0,0 H 453.543 V 283.465 H 0 Z"
         transform="translate(-2124.0169,-2081.0838)"
         id="path37" />
    </clipPath>
    <clipPath
       clipPathUnits="userSpaceOnUse"
       id="clipPath38">
      <path
         d="M 0,0 H 453.543 V 283.465 H 0 Z"
         transform="matrix(-0.24255008,-0.9701603,0.9701603,-0.24255008,-1548.7355,2565.403)"
         id="path38" />
    </clipPath>
    <clipPath
       clipPathUnits="userSpaceOnUse"
       id="clipPath39">
      <path
         d="M 0,0 H 453.543 V 283.465 H 0 Z"
         transform="translate(-2124.0169,-2081.0838)"
         id="path39" />
    </clipPath>
    <clipPath
       clipPathUnits="userSpaceOnUse"
       id="clipPath40">
      <path
         d="M 0,0 H 453.543 V 283.465 H 0 Z"
         transform="matrix(0.60004398,-0.79999199,0.79999199,0.60004398,-2994.5852,450.45529)"
         id="path40" />
    </clipPath>
    <clipPath
       clipPathUnits="userSpaceOnUse"
       id="clipPath41">
      <path
         d="M 0,0 H 453.543 V 283.465 H 0 Z"
         transform="translate(-2124.0169,-2081.0838)"
         id="path41" />
    </clipPath>
    <clipPath
       clipPathUnits="userSpaceOnUse"
       id="clipPath42">
      <path
         d="M 0,0 H 453.543 V 283.465 H 0 Z"
         transform="matrix(0.8320629,-0.55478196,0.55478196,0.8320629,-3008.4372,-553.22607)"
         id="path42" />
    </clipPath>
    <clipPath
       clipPathUnits="userSpaceOnUse"
       id="clipPath43">
      <path
         d="M 0,0 H 453.543 V 283.465 H 0 Z"
         transform="translate(-2124.0169,-2081.0838)"
         id="path43" />
    </clipPath>
    <clipPath
       clipPathUnits="userSpaceOnUse"
       id="clipPath44">
      <path
         d="M 0,0 H 453.543 V 283.465 H 0 Z"
         transform="matrix(1,0,0,-1,-2071.0379,2176.8099)"
         id="path44" />
    </clipPath>
    <clipPath
       clipPathUnits="userSpaceOnUse"
       id="clipPath45">
      <path
         d="M 0,0 H 453.543 V 283.465 H 0 Z"
         transform="translate(-2124.0169,-2081.0838)"
         id="path45" />
    </clipPath>
    <clipPath
       clipPathUnits="userSpaceOnUse"
       id="clipPath46">
      <path
         d="M 0,0 H 453.543 V 283.465 H 0 Z"
         transform="matrix(1,0,0,-1,-2105.0538,2176.8099)"
         id="path46" />
    </clipPath>
    <clipPath
       clipPathUnits="userSpaceOnUse"
       id="clipPath47">
      <path
         d="M 0,0 H 453.543 V 283.465 H 0 Z"
         transform="translate(-2124.0169,-2081.0838)"
         id="path47" />
    </clipPath>
    <clipPath
       clipPathUnits="userSpaceOnUse"
       id="clipPath48">
      <path
         d="M 0,0 H 453.543 V 283.465 H 0 Z"
         transform="matrix(1,0,0,-1,-2156.1418,2176.6108)"
         id="path48" />
    </clipPath>
    <clipPath
       clipPathUnits="userSpaceOnUse"
       id="clipPath49">
      <path
         d="M 0,0 H 453.543 V 283.465 H 0 Z"
         transform="translate(-2124.0169,-2081.0838)"
         id="path49" />
    </clipPath>
    <clipPath
       clipPathUnits="userSpaceOnUse"
       id="clipPath50">
      <path
         d="M 0,0 H 453.543 V 283.465 H 0 Z"
         transform="matrix(1,0,0,-1,-2204.0719,2176.6108)"
         id="path50" />
    </clipPath>
    <clipPath
       clipPathUnits="userSpaceOnUse"
       id="clipPath51">
      <path
         d="M 0,0 H 453.543 V 283.465 H 0 Z"
         transform="translate(-2124.0169,-2081.0838)"
         id="path51" />
    </clipPath>
    <clipPath
       clipPathUnits="userSpaceOnUse"
       id="clipPath52">
      <path
         d="M 0,0 H 453.543 V 283.465 H 0 Z"
         transform="rotate(-90,-44.47404,2120.3014)"
         id="path52" />
    </clipPath>
    <clipPath
       clipPathUnits="userSpaceOnUse"
       id="clipPath53">
      <path
         d="M 0,0 H 453.543 V 283.465 H 0 Z"
         transform="translate(-2124.0169,-2081.0838)"
         id="path53" />
    </clipPath>
    <clipPath
       clipPathUnits="userSpaceOnUse"
       id="clipPath54">
      <path
         d="M 0,0 H 453.543 V 283.465 H 0 Z"
         transform="rotate(-90,-27.465991,2137.3095)"
         id="path54" />
    </clipPath>
    <clipPath
       clipPathUnits="userSpaceOnUse"
       id="clipPath55">
      <path
         d="M 0,0 H 453.543 V 283.465 H 0 Z"
         transform="translate(-2124.0169,-2081.0838)"
         id="path55" />
    </clipPath>
    <clipPath
       clipPathUnits="userSpaceOnUse"
       id="clipPath56">
      <path
         d="M 0,0 H 453.543 V 283.465 H 0 Z"
         transform="rotate(-90,3.1506319,2163.3864)"
         id="path56" />
    </clipPath>
    <clipPath
       clipPathUnits="userSpaceOnUse"
       id="clipPath57">
      <path
         d="M 0,0 H 453.543 V 283.465 H 0 Z"
         transform="translate(-2124.0169,-2081.0838)"
         id="path57" />
    </clipPath>
    <clipPath
       clipPathUnits="userSpaceOnUse"
       id="clipPath58">
      <path
         d="M 0,0 H 453.543 V 283.465 H 0 Z"
         transform="rotate(-90,22.27809,2186.7792)"
         id="path58" />
    </clipPath>
    <clipPath
       clipPathUnits="userSpaceOnUse"
       id="clipPath59">
      <path
         d="M 0,0 H 453.543 V 283.465 H 0 Z"
         transform="translate(-2124.0169,-2081.0838)"
         id="path59" />
    </clipPath>
    <clipPath
       clipPathUnits="userSpaceOnUse"
       id="clipPath60">
      <path
         d="M 0,0 H 453.543 V 283.465 H 0 Z"
         transform="matrix(1,0,0,-1,-2036.1799,2136.4889)"
         id="path60" />
    </clipPath>
    <clipPath
       clipPathUnits="userSpaceOnUse"
       id="clipPath61">
      <path
         d="M 0,0 H 453.543 V 283.465 H 0 Z"
         transform="translate(-2124.0169,-2081.0838)"
         id="path61" />
    </clipPath>
    <clipPath
       clipPathUnits="userSpaceOnUse"
       id="clipPath62">
      <path
         d="M 0,0 H 453.543 V 283.465 H 0 Z"
         transform="matrix(1,0,0,-1,-2034.3598,2177.8728)"
         id="path62" />
    </clipPath>
    <clipPath
       clipPathUnits="userSpaceOnUse"
       id="clipPath63">
      <path
         d="M 0,0 H 453.543 V 283.465 H 0 Z"
         transform="translate(-2124.0169,-2081.0838)"
         id="path63" />
    </clipPath>
    <clipPath
       clipPathUnits="userSpaceOnUse"
       id="clipPath64">
      <path
         d="M 0,0 H 453.543 V 283.465 H 0 Z"
         transform="matrix(-0.83207367,-0.5547558,0.5547558,-0.83207367,523.50534,2909.9264)"
         id="path64" />
    </clipPath>
    <clipPath
       clipPathUnits="userSpaceOnUse"
       id="clipPath65">
      <path
         d="M 0,0 H 453.543 V 283.465 H 0 Z"
         transform="translate(-2124.0169,-2081.0838)"
         id="path65" />
    </clipPath>
    <clipPath
       clipPathUnits="userSpaceOnUse"
       id="clipPath66">
      <path
         d="M 0,0 H 453.543 V 283.465 H 0 Z"
         transform="rotate(-90,-63.026603,2102.003)"
         id="path66" />
    </clipPath>
    <clipPath
       clipPathUnits="userSpaceOnUse"
       id="clipPath67">
      <path
         d="M 0,0 H 453.543 V 283.465 H 0 Z"
         transform="translate(-2124.0169,-2081.0838)"
         id="path67" />
    </clipPath>
    <clipPath
       clipPathUnits="userSpaceOnUse"
       id="clipPath68">
      <path
         d="M 0,0 H 453.543 V 283.465 H 0 Z"
         transform="translate(-2124.0169,-2081.0838)"
         id="path68" />
    </clipPath>
    <clipPath
       clipPathUnits="userSpaceOnUse"
       id="clipPath69">
      <path
         d="M 0,0 H 453.543 V 283.465 H 0 Z"
         transform="translate(-2054.1566,-2180.2977)"
         id="path69" />
    </clipPath>
    <clipPath
       clipPathUnits="userSpaceOnUse"
       id="clipPath70">
      <path
         d="M 0,0 H 453.543 V 283.465 H 0 Z"
         transform="translate(-2124.0169,-2081.0838)"
         id="path70" />
    </clipPath>
    <clipPath
       clipPathUnits="userSpaceOnUse"
       id="clipPath71">
      <path
         d="M 0,0 H 453.543 V 283.465 H 0 Z"
         transform="rotate(-90,-49.903887,2125.7313)"
         id="path71" />
    </clipPath>
    <clipPath
       clipPathUnits="userSpaceOnUse"
       id="clipPath72">
      <path
         d="M 0,0 H 453.543 V 283.465 H 0 Z"
         transform="translate(-2124.0169,-2081.0838)"
         id="path72" />
    </clipPath>
    <clipPath
       clipPathUnits="userSpaceOnUse"
       id="clipPath73">
      <path
         d="M 0,0 H 453.543 V 283.465 H 0 Z"
         transform="translate(-2124.0169,-2081.0838)"
         id="path73" />
    </clipPath>
    <clipPath
       clipPathUnits="userSpaceOnUse"
       id="clipPath74">
      <path
         d="M 0,0 H 453.543 V 283.465 H 0 Z"
         transform="rotate(-90,-32.895838,2142.7393)"
         id="path74" />
    </clipPath>
    <clipPath
       clipPathUnits="userSpaceOnUse"
       id="clipPath75">
      <path
         d="M 0,0 H 453.543 V 283.465 H 0 Z"
         transform="translate(-2124.0169,-2081.0838)"
         id="path75" />
    </clipPath>
    <clipPath
       clipPathUnits="userSpaceOnUse"
       id="clipPath76">
      <path
         d="M 0,0 H 453.543 V 283.465 H 0 Z"
         transform="translate(-2124.0169,-2081.0838)"
         id="path76" />
    </clipPath>
    <clipPath
       clipPathUnits="userSpaceOnUse"
       id="clipPath77">
      <path
         d="M 0,0 H 453.543 V 283.465 H 0 Z"
         transform="rotate(-90,-4.5490529,2171.0861)"
         id="path77" />
    </clipPath>
    <clipPath
       clipPathUnits="userSpaceOnUse"
       id="clipPath78">
      <path
         d="M 0,0 H 453.543 V 283.465 H 0 Z"
         transform="translate(-2124.0169,-2081.0838)"
         id="path78" />
    </clipPath>
    <clipPath
       clipPathUnits="userSpaceOnUse"
       id="clipPath79">
      <path
         d="M 0,0 H 453.543 V 283.465 H 0 Z"
         transform="translate(-2124.0169,-2081.0838)"
         id="path79" />
    </clipPath>
    <clipPath
       clipPathUnits="userSpaceOnUse"
       id="clipPath80">
      <path
         d="M 0,0 H 453.543 V 283.465 H 0 Z"
         transform="rotate(-90,16.711074,2192.3462)"
         id="path80" />
    </clipPath>
    <clipPath
       clipPathUnits="userSpaceOnUse"
       id="clipPath81">
      <path
         d="M 0,0 H 453.543 V 283.465 H 0 Z"
         transform="translate(-2124.0169,-2081.0838)"
         id="path81" />
    </clipPath>
    <clipPath
       clipPathUnits="userSpaceOnUse"
       id="clipPath82">
      <path
         d="M 0,0 H 453.543 V 283.465 H 0 Z"
         transform="translate(-2124.0169,-2081.0838)"
         id="path82" />
    </clipPath>
    <clipPath
       clipPathUnits="userSpaceOnUse"
       id="clipPath83">
      <path
         d="M 0,0 H 453.543 V 283.465 H 0 Z"
         transform="matrix(1,0,0,-1,-2121.5929,2225.6068)"
         id="path83" />
    </clipPath>
    <clipPath
       clipPathUnits="userSpaceOnUse"
       id="clipPath84">
      <path
         d="M 0,0 H 453.543 V 283.465 H 0 Z"
         transform="translate(-2124.0169,-2081.0838)"
         id="path84" />
    </clipPath>
    <clipPath
       clipPathUnits="userSpaceOnUse"
       id="clipPath85">
      <path
         d="M 0,0 H 453.543 V 283.465 H 0 Z"
         transform="matrix(0.70707356,-0.70716356,0.70716356,0.70707356,-3063.3172,-73.680888)"
         id="path85" />
    </clipPath>
    <clipPath
       clipPathUnits="userSpaceOnUse"
       id="clipPath86">
      <path
         d="M 0,0 H 453.543 V 283.465 H 0 Z"
         transform="translate(-2124.0169,-2081.0838)"
         id="path86" />
    </clipPath>
    <clipPath
       clipPathUnits="userSpaceOnUse"
       id="clipPath87">
      <path
         d="M 0,0 H 453.543 V 283.465 H 0 Z"
         transform="matrix(0.28221329,-0.95941317,0.95941317,0.28221329,-2723.3858,1408.9031)"
         id="path87" />
    </clipPath>
    <clipPath
       clipPathUnits="userSpaceOnUse"
       id="clipPath88">
      <path
         d="M 0,0 H 453.543 V 283.465 H 0 Z"
         transform="translate(-2124.0169,-2081.0838)"
         id="path88" />
    </clipPath>
    <clipPath
       clipPathUnits="userSpaceOnUse"
       id="clipPath89">
      <path
         d="M 0,0 H 453.543 V 283.465 H 0 Z"
         transform="matrix(-0.66165155,-0.74990374,0.74990374,-0.66165155,-250.69499,3067.2922)"
         id="path89" />
    </clipPath>
    <clipPath
       clipPathUnits="userSpaceOnUse"
       id="clipPath90">
      <path
         d="M 0,0 H 453.543 V 283.465 H 0 Z"
         transform="translate(-2124.0169,-2081.0838)"
         id="path90" />
    </clipPath>
    <clipPath
       clipPathUnits="userSpaceOnUse"
       id="clipPath91">
      <path
         d="M 0,0 H 453.543 V 283.465 H 0 Z"
         transform="matrix(-0.87005635,-0.4930646,0.4930646,-0.87005635,761.82317,2986.1906)"
         id="path91" />
    </clipPath>
    <clipPath
       clipPathUnits="userSpaceOnUse"
       id="clipPath92">
      <path
         d="M 0,0 H 453.543 V 283.465 H 0 Z"
         transform="translate(-2124.0169,-2081.0838)"
         id="path92" />
    </clipPath>
    <clipPath
       clipPathUnits="userSpaceOnUse"
       id="clipPath93">
      <path
         d="M 0,0 H 453.543 V 283.465 H 0 Z"
         transform="matrix(0.15440525,-0.98805759,0.98805759,0.15440525,-2516.026,1754.5627)"
         id="path93" />
    </clipPath>
    <clipPath
       clipPathUnits="userSpaceOnUse"
       id="clipPath94">
      <path
         d="M 0,0 H 453.543 V 283.465 H 0 Z"
         transform="translate(-2124.0169,-2081.0838)"
         id="path94" />
    </clipPath>
    <clipPath
       clipPathUnits="userSpaceOnUse"
       id="clipPath95">
      <path
         d="M 0,0 H 453.543 V 283.465 H 0 Z"
         transform="matrix(-0.42450869,-0.90546119,0.90546119,-0.42450869,-1101.5063,2869.222)"
         id="path95" />
    </clipPath>
    <clipPath
       clipPathUnits="userSpaceOnUse"
       id="clipPath96">
      <path
         d="M 0,0 H 240.377 V 212.598 H 0 Z"
         transform="matrix(1.3348533,0,0,-1.3348533,-0.18266667,283.62667)"
         id="path96" />
    </clipPath>
  </defs>
  <sodipodi:namedview
     id="namedview1"
     pagecolor="#ffffff"
     bordercolor="#000000"
     borderopacity="0.25"
     inkscape:showpageshadow="2"
     inkscape:pageopacity="0.0"
     inkscape:pagecheckerboard="0"
     inkscape:deskcolor="#d1d1d1">
    <inkscape:page
       x="0"
       y="0"
       inkscape:label="1"
       id="page1"
       width="320.504"
       height="283.46533"
       margin="0"
       bleed="0" />
  </sodipodi:namedview>
  <g
     id="g1"
     inkscape:groupmode="layer"
     inkscape:label="1">
    <g
       id="g211">
      <g
         clip-path="url(#clipPath96)"
         id="g210">
        <path
           d="M 0,0 H 453.543 V 283.465 H 0 Z"
           style="fill:#ffffff;fill-opacity:1;fill-rule:nonzero;stroke:none"
           transform="matrix(1.3348533,0,0,-1.3348533,-12.291121,340.38463)"
           clip-path="url(#clipPath1)"
           id="path97" />
        <path
           d="M 9.2141,0 C 9.2141,5.08885 5.08885,9.2141 0,9.2141 -5.08885,9.2141 -9.2141,5.08885 -9.2141,0 c 0,-5.08885 4.12525,-9.2141 9.2141,-9.2141 5.08885,0 9.2141,4.12525 9.2141,9.2141 z"
           style="fill:none;stroke:#000000;stroke-width:0.79701;stroke-linecap:butt;stroke-linejoin:miter;stroke-miterlimit:10;stroke-dasharray:none;stroke-opacity:1"
           transform="matrix(1.3348533,0,0,-1.3348533,153.21868,232.18409)"
           clip-path="url(#clipPath2)"
           id="path98" />
        <path
           d="M 3.7694908,-2.6818899 5.0570855,-4.098244 C 5.1975503,-4.2504143 5.2560774,-4.3323521 6.169099,-4.3323521 V -4.84739 c -0.3862784,0.023411 -0.9598433,0.035116 -1.0066649,0.035116 -0.2692243,0 -0.8193784,-0.023411 -1.1237189,-0.035116 v 0.5150379 c 0.1521702,0 0.2809297,0.023411 0.4096892,0.093643 -0.035116,0.070232 -0.035116,0.093643 -0.081938,0.1404648 L 3.4534449,-3.0798737 2.3765475,-4.3323521 h 0.4331 V -4.84739 c -0.2809297,0.011705 -0.9598432,0.035116 -1.3110054,0.035116 -0.3511622,0 -0.84278923,-0.023411 -1.20565682,-0.035116 v 0.5150379 H 1.0655421 l 1.7089892,2.0016244 -1.4280595,1.6036406 c -0.1872865,0.21069731 -0.58527028,0.21069731 -1.10030814,0.21069731 v 0.51503785 c 0.37457299,-0.02341081 0.94813784,-0.03511621 0.99495954,-0.03511621 0.2809297,0 0.9130216,0.02341081 1.1237189,0.03511621 v -0.51503785 c -0.1989919,0 -0.3979838,-0.0468216 -0.3979838,-0.11705406 0,-0.0117054 0,-0.0234108 0.070233,-0.10534865 l 1.0651919,-1.1939514 1.1939514,1.41635411 H 3.8748395 v 0.51503785 c 0.2809297,-0.0117054 0.9481378,-0.03511621 1.3110054,-0.03511621 0.3511622,0 0.8310838,0.02341081 1.1939514,0.03511621 V -0.51638979 H 5.6072395 Z m 0,0"
           style="fill:#000000;fill-opacity:1;fill-rule:nonzero;stroke:none"
           aria-label="x"
           transform="matrix(1.3348533,0,0,1.3348533,148.80031,235.41977)"
           clip-path="url(#clipPath3)"
           id="path99" />
        <path
           d="M 48.87383,-7.36333 H 64.5134 V 7.36334 H 48.87383 Z"
           style="fill:none;stroke:#000000;stroke-width:0.79701;stroke-linecap:butt;stroke-linejoin:miter;stroke-miterlimit:10;stroke-dasharray:none;stroke-opacity:1"
           transform="matrix(1.3348533,0,0,-1.3348533,2822.9598,-2437.557)"
           clip-path="url(#clipPath4)"
           id="path100" />
        <path
           d="m 4.0962902,-6.6955116 c 0.058527,-0.2692243 0.093643,-0.374573 0.3043406,-0.4096892 0.093643,-0.011705 0.4448054,-0.011705 0.6555027,-0.011705 0.7842622,0 1.989919,0 1.989919,1.0886027 0,0.3628676 -0.1755811,1.123719 -0.5969757,1.5451136 C 6.168147,-4.2022602 5.5828767,-3.851098 4.5996227,-3.851098 H 3.3822604 Z m 1.5685244,2.9848785 c 1.1003081,-0.2341081 2.3996082,-1.0066649 2.3996082,-2.1069731 0,-0.9364324 -0.9832541,-1.6387568 -2.4113136,-1.6387568 h -3.113638 c -0.2106973,0 -0.3160459,0 -0.3160459,0.2224027 0,0.1170541 0.1053486,0.1170541 0.3043405,0.1170541 0.023411,0 0.2341081,0 0.4213946,0.023411 0.1872865,0.023411 0.2926352,0.035116 0.2926352,0.1755811 0,0.046822 -0.011705,0.081938 -0.046822,0.2106973 l -1.4631758,5.8527029 c -0.1053486,0.43310002 -0.1287594,0.51503786 -0.99495947,0.51503786 -0.18728649,0 -0.29263515,0 -0.29263515,0.22240271 0,0.117054055301 0.12875947,0.117054055301 0.15217028,0.117054055301 0.30434055,0 1.07689734,-0.0351162153 1.38123784,-0.0351162153 0.3043406,0 1.0768974,0.0351162153 1.3812379,0.0351162153 0.093643,0 0.2224027,0 0.2224027,-0.222402715301 0,-0.11705405 -0.1053486,-0.11705405 -0.3043405,-0.11705405 -0.4096892,0 -0.7140298,0 -0.7140298,-0.1989919 0,-0.058527 0.023411,-0.11705406 0.035116,-0.1872865 L 3.312028,-3.6052845 h 1.2993001 c 0.9949595,0 1.1939514,0.6086811 1.1939514,0.9832541 0,0.1638757 -0.093643,0.5033325 -0.1521703,0.7608514 -0.081938,0.3043405 -0.1755811,0.7023243 -0.1755811,0.92472706 0,1.18224599 1.3110054,1.18224599 1.4514703,1.18224599 0.9247271,0 1.3110055,-1.11201356 1.3110055,-1.26418385 0,-0.1287594 -0.1287595,-0.1287594 -0.1404649,-0.1287594 -0.093643,0 -0.1170541,0.081938 -0.1404649,0.15217023 C 7.6898498,-0.18730597 7.2216336,-1.9474699e-5 6.97582,-1.9474699e-5 6.6129525,-1.9474699e-5 6.5310146,-0.245833 6.5310146,-0.66722761 c 0,-0.33945679 0.070233,-0.88961089 0.1170541,-1.24077299 0.011705,-0.1521703 0.035116,-0.3628676 0.035116,-0.5150379 0,-0.8427892 -0.7257352,-1.182246 -1.0183701,-1.2875946 z m 0,0"
           style="fill:#000000;fill-opacity:1;fill-rule:nonzero;stroke:none"
           aria-label="R"
           transform="matrix(1.3348533,0,0,1.3348533,2893.0516,-2432.582)"
           clip-path="url(#clipPath5)"
           id="path101" />
        <path
           d="M 9.6126,0 H 43.81284"
           style="fill:none;stroke:#000000;stroke-width:0.79701;stroke-linecap:butt;stroke-linejoin:miter;stroke-miterlimit:10;stroke-dasharray:none;stroke-opacity:1"
           transform="matrix(1.3348533,0,0,-1.3348533,2822.9598,-2437.557)"
           clip-path="url(#clipPath6)"
           id="path102" />
        <path
           d="M 4.66248,0 C 3.28098,0.25902 1.0361,1.0361 -0.51805,1.94269 V -1.94269 C 1.0361,-1.0361 3.28098,-0.25902 4.66248,0"
           style="fill:#000000;fill-opacity:1;fill-rule:nonzero;stroke:none"
           transform="matrix(1.3348533,0,0,-1.3348533,2881.4435,-2437.557)"
           clip-path="url(#clipPath7)"
           id="path103" />
        <path
           d="m 70.867,0 v 2.83484 h 2.83486 V 0 Z"
           style="fill:#808080;fill-opacity:1;fill-rule:nonzero;stroke:#404040;stroke-width:0.3985;stroke-linecap:butt;stroke-linejoin:miter;stroke-miterlimit:10;stroke-dasharray:none;stroke-opacity:1"
           transform="matrix(1.3348533,0,0,-1.3348533,2822.9598,-2437.557)"
           clip-path="url(#clipPath8)"
           id="path104" />
        <path
           d="m 73.70186,0 v 14.17339 h 2.83443 V 0 Z"
           style="fill:#808080;fill-opacity:1;fill-rule:nonzero;stroke:#404040;stroke-width:0.3985;stroke-linecap:butt;stroke-linejoin:miter;stroke-miterlimit:10;stroke-dasharray:none;stroke-opacity:1"
           transform="matrix(1.3348533,0,0,-1.3348533,2822.9598,-2437.557)"
           clip-path="url(#clipPath9)"
           id="path105" />
        <path
           d="M 1.9668917,-0.90227711 H 1.05387 v 0.90131624598 h 0.9130217 z m 4.8518907,0 H 5.9057607 v 0.90131624598 h 0.9130217 z m 4.8401856,0 h -0.913022 v 0.90131624598 h 0.913022 z m 0,0"
           style="fill:#000000;fill-opacity:1;fill-rule:nonzero;stroke:none"
           aria-label="..."
           transform="matrix(1.3348533,0,0,1.3348533,2924.8745,-2438.8425)"
           clip-path="url(#clipPath10)"
           id="path106" />
        <path
           d="m 96.37897,0 v 7.65375 h 2.83485 V 0 Z"
           style="fill:#808080;fill-opacity:1;fill-rule:nonzero;stroke:#404040;stroke-width:0.3985;stroke-linecap:butt;stroke-linejoin:miter;stroke-miterlimit:10;stroke-dasharray:none;stroke-opacity:1"
           transform="matrix(1.3348533,0,0,-1.3348533,2822.9598,-2437.557)"
           clip-path="url(#clipPath11)"
           id="path107" />
        <path
           d="m 99.21382,0 v 4.53558 h 2.83486 V 0 Z"
           style="fill:#808080;fill-opacity:1;fill-rule:nonzero;stroke:#404040;stroke-width:0.3985;stroke-linecap:butt;stroke-linejoin:miter;stroke-miterlimit:10;stroke-dasharray:none;stroke-opacity:1"
           transform="matrix(1.3348533,0,0,-1.3348533,2822.9598,-2437.557)"
           clip-path="url(#clipPath12)"
           id="path108" />
        <path
           d="m 70.867,0 v 2.83484 h 2.83486 V 0 Z"
           style="fill:#ff8080;fill-opacity:1;fill-rule:nonzero;stroke:#404040;stroke-width:0.3985;stroke-linecap:butt;stroke-linejoin:miter;stroke-miterlimit:10;stroke-dasharray:none;stroke-opacity:1"
           transform="matrix(1.3348533,0,0,-1.3348533,2822.9598,-2437.557)"
           clip-path="url(#clipPath13)"
           id="path109" />
        <path
           d="m 73.70186,0 v 14.17339 h 2.83443 V 0 Z"
           style="fill:#8080ff;fill-opacity:1;fill-rule:nonzero;stroke:#404040;stroke-width:0.3985;stroke-linecap:butt;stroke-linejoin:miter;stroke-miterlimit:10;stroke-dasharray:none;stroke-opacity:1"
           transform="matrix(1.3348533,0,0,-1.3348533,2822.9598,-2437.557)"
           clip-path="url(#clipPath14)"
           id="path110" />
        <path
           d="M 1.9668917,-0.90227711 H 1.05387 v 0.90131624598 h 0.9130217 z m 4.8518907,0 H 5.9057607 v 0.90131624598 h 0.9130217 z m 4.8401856,0 h -0.913022 v 0.90131624598 h 0.913022 z m 0,0"
           style="fill:#000000;fill-opacity:1;fill-rule:nonzero;stroke:none"
           aria-label="..."
           transform="matrix(1.3348533,0,0,1.3348533,2924.8745,-2438.8425)"
           clip-path="url(#clipPath15)"
           id="path111" />
        <path
           d="m 96.37897,0 v 7.65375 h 2.83485 V 0 Z"
           style="fill:#8080ff;fill-opacity:1;fill-rule:nonzero;stroke:#404040;stroke-width:0.3985;stroke-linecap:butt;stroke-linejoin:miter;stroke-miterlimit:10;stroke-dasharray:none;stroke-opacity:1"
           transform="matrix(1.3348533,0,0,-1.3348533,2822.9598,-2437.557)"
           clip-path="url(#clipPath16)"
           id="path112" />
        <path
           d="m 99.21382,0 v 4.53558 h 2.83486 V 0 Z"
           style="fill:#ff8080;fill-opacity:1;fill-rule:nonzero;stroke:#404040;stroke-width:0.3985;stroke-linecap:butt;stroke-linejoin:miter;stroke-miterlimit:10;stroke-dasharray:none;stroke-opacity:1"
           transform="matrix(1.3348533,0,0,-1.3348533,2822.9598,-2437.557)"
           clip-path="url(#clipPath17)"
           id="path113" />
        <path
           d="M 0,0 V 4.66248"
           style="fill:none;stroke:#000000;stroke-width:0.79701;stroke-linecap:butt;stroke-linejoin:miter;stroke-miterlimit:10;stroke-dasharray:none;stroke-opacity:1"
           transform="matrix(1.3348533,0,0,-1.3348533,2822.9598,-2437.557)"
           clip-path="url(#clipPath18)"
           id="path114" />
        <path
           d="M 4.66248,0 C 3.28098,0.25902 1.0361,1.0361 -0.51805,1.94269 V -1.94269 C 1.0361,-1.0361 3.28098,-0.25902 4.66248,0"
           style="fill:#000000;fill-opacity:1;fill-rule:nonzero;stroke:none"
           transform="matrix(0,-1.3348533,-1.3348533,0,2822.9598,-2431.3333)"
           clip-path="url(#clipPath19)"
           id="path115" />
        <path
           d="M 0,0 V 4.66248"
           style="fill:none;stroke:#000000;stroke-width:0.79701;stroke-linecap:butt;stroke-linejoin:miter;stroke-miterlimit:10;stroke-dasharray:none;stroke-opacity:1"
           transform="matrix(1.3348533,0,0,-1.3348533,2822.9598,-2437.557)"
           clip-path="url(#clipPath20)"
           id="path116" />
        <path
           d="M 4.66248,0 C 3.28098,0.25902 1.0361,1.0361 -0.51805,1.94269 V -1.94269 C 1.0361,-1.0361 3.28098,-0.25902 4.66248,0"
           style="fill:#000000;fill-opacity:1;fill-rule:nonzero;stroke:none"
           transform="matrix(0,-1.3348533,-1.3348533,0,2822.9598,-2431.3333)"
           clip-path="url(#clipPath21)"
           id="path117" />
        <path
           d="m -56.73149,48.50998 h 17.08403 v 16.36726 h -17.08403 z"
           style="fill:none;stroke:#000000;stroke-width:0.79701;stroke-linecap:butt;stroke-linejoin:miter;stroke-miterlimit:10;stroke-dasharray:none;stroke-opacity:1"
           transform="matrix(1.3348533,0,0,-1.3348533,2822.9598,-2437.557)"
           clip-path="url(#clipPath22)"
           id="path118" />
        <g
           aria-label="e&#10;1"
           transform="matrix(1.3348533,0,0,1.3348533,2752.0857,-2507.1643)"
           clip-path="url(#clipPath23)"
           id="g120">
          <path
             d="m 2.0368937,-2.5165101 c 0.3160459,0 1.1237189,-0.023411 1.673873,-0.257519 0.7608514,-0.3277513 0.8193784,-0.9715487 0.8193784,-1.1237189 0,-0.4799217 -0.4213946,-0.9247271 -1.1705406,-0.9247271 -1.2056568,0 -2.856119,1.0534865 -2.856119,2.9731731 0,1.11201354 0.6437973,1.96650817 1.7089893,1.96650817 1.5568189,0 2.481546,-1.15883517 2.481546,-1.28759467 0,-0.058527 -0.070232,-0.1404648 -0.1287595,-0.1404648 -0.058527,0 -0.081938,0.023411 -0.1521702,0.1053486 -0.8544947,1.08860275 -2.0484461,1.08860275 -2.1772055,1.08860275 -0.8544947,0 -0.9481379,-0.92472705 -0.9481379,-1.26418385 0,-0.1404648 0.011705,-0.4682162 0.1755811,-1.1354243 z M 1.5218558,-2.7623237 c 0.4331,-1.6504622 1.556819,-1.8143379 1.8377487,-1.8143379 0.5150379,0 0.807673,0.316046 0.807673,0.6789136 0,1.1354243 -1.7441054,1.1354243 -2.1889109,1.1354243 z m 0,0"
             style="fill:#000000;fill-opacity:1;fill-rule:nonzero;stroke:none"
             id="path119" />
          <path
             d="m 7.585256,-9.0393475 c 0,-0.2106974 -0.023411,-0.2224028 -0.2341081,-0.2224028 -0.3277513,0.316046 -0.749146,0.5150379 -1.5099973,0.5150379 v 0.2575189 c 0.2224027,0 0.6555027,0 1.1120135,-0.2106973 v 4.0851867 c 0,0.2926351 -0.023411,0.3979838 -0.7842622,0.3979838 H 5.8879722 v 0.2575189 c 0.3277513,-0.023411 1.0183703,-0.023411 1.3812379,-0.023411 0.3511622,0 1.0417811,0 1.3695325,0.023411 V -4.2167203 H 8.3695182 c -0.7608514,0 -0.7842622,-0.1053487 -0.7842622,-0.3979838 z m 0,0"
             style="fill:#000000;fill-opacity:1;fill-rule:nonzero;stroke:none"
             id="path120" />
        </g>
        <path
           d="M 76.30469,48.31073 H 93.77617 V 65.07649 H 76.30469 Z"
           style="fill:none;stroke:#000000;stroke-width:0.79701;stroke-linecap:butt;stroke-linejoin:miter;stroke-miterlimit:10;stroke-dasharray:none;stroke-opacity:1"
           transform="matrix(1.3348533,0,0,-1.3348533,2822.9598,-2437.557)"
           clip-path="url(#clipPath24)"
           id="path121" />
        <g
           aria-label="e&#10;k"
           transform="matrix(1.3348533,0,0,1.3348533,2929.6679,-2506.8973)"
           clip-path="url(#clipPath25)"
           id="g123">
          <path
             d="m 2.0367574,-2.5175182 c 0.3160459,0 1.1237189,-0.023411 1.673873,-0.257519 0.7608514,-0.3277513 0.8193784,-0.9715487 0.8193784,-1.1237189 0,-0.4799217 -0.4213946,-0.9247271 -1.1705406,-0.9247271 -1.2056568,0 -2.85611901,1.0534865 -2.85611901,2.9731731 0,1.11201354 0.64379731,1.96650817 1.70898921,1.96650817 1.556819,0 2.4815461,-1.15883517 2.4815461,-1.28759467 0,-0.058527 -0.070233,-0.1404648 -0.1287595,-0.1404648 -0.058527,0 -0.081938,0.023411 -0.1521703,0.1053486 -0.8544946,1.08860275 -2.048446,1.08860275 -2.1772054,1.08860275 -0.8544947,0 -0.9481379,-0.92472705 -0.9481379,-1.26418385 0,-0.1404648 0.011705,-0.4682162 0.1755811,-1.1354243 z M 1.5217195,-2.7633318 c 0.4331,-1.6504622 1.556819,-1.8143379 1.8377487,-1.8143379 0.5150379,0 0.807673,0.316046 0.807673,0.6789136 0,1.1354243 -1.7441054,1.1354243 -2.1889109,1.1354243 z m 0,0"
             style="fill:#000000;fill-opacity:1;fill-rule:nonzero;stroke:none"
             id="path122" />
          <path
             d="m 7.4095386,-9.251053 c 0.011705,-0.023411 0.035116,-0.117054 0.035116,-0.1287594 0,-0.035116 -0.035116,-0.1170541 -0.1287595,-0.1170541 -0.035116,0 -0.2809297,0.023411 -0.4682162,0.046822 l -0.4448055,0.035116 c -0.1755811,0.011705 -0.2575189,0.023411 -0.2575189,0.1638756 0,0.1053487 0.1170541,0.1053487 0.2106973,0.1053487 0.3862784,0 0.3862784,0.046822 0.3862784,0.1287595 0,0.023411 0,0.035116 -0.046822,0.1755811 l -1.123719,4.5416974 c -0.035116,0.1170541 -0.035116,0.1638757 -0.035116,0.1755811 0,0.1287595 0.1053487,0.2458135 0.2575189,0.2458135 0.2692244,0 0.3394568,-0.2575189 0.374573,-0.374573 0.070232,-0.3277513 0.2809298,-1.1705405 0.374573,-1.5099973 0.4331,0.046822 0.9715487,0.1989919 0.9715487,0.6555027 0,0.035116 0,0.081938 -0.023411,0.1638757 -0.023411,0.093643 -0.035116,0.2106973 -0.035116,0.2458135 0,0.4799217 0.3511621,0.8193784 0.807673,0.8193784 0.3394567,0 0.550154,-0.2458135 0.6555027,-0.3979838 0.1872865,-0.2926351 0.3160459,-0.7725568 0.3160459,-0.8193784 0,-0.081938 -0.070232,-0.1053486 -0.117054,-0.1053486 -0.1053487,0 -0.1170541,0.046822 -0.1521703,0.1872865 -0.1053486,0.3745729 -0.3043405,0.9130216 -0.6789135,0.9130216 -0.2106973,0 -0.257519,-0.1755811 -0.257519,-0.3979838 0,-0.093643 0.011705,-0.1989919 0.046822,-0.374573 0.011705,-0.035116 0.035116,-0.1638757 0.035116,-0.2458135 0,-0.6555027 -0.8193784,-0.807673 -1.2173622,-0.8544946 0.2926351,-0.1755811 0.5618595,-0.4448054 0.6555027,-0.5501541 0.4448054,-0.4331 0.7959676,-0.7257352 1.182246,-0.7257352 0.1053487,0 0.1989919,0.023411 0.2575189,0.1053487 -0.4213946,0.046822 -0.4213946,0.4213946 -0.4213946,0.4331 0,0.1755811 0.1287595,0.2926352 0.3043406,0.2926352 0.2224027,0 0.4565108,-0.1755811 0.4565108,-0.5033325 0,-0.2692243 -0.1872865,-0.5501541 -0.5852703,-0.5501541 -0.4682162,0 -0.8779054,0.3511622 -1.3344163,0.7959676 -0.4682162,0.4565109 -0.6672081,0.5501541 -0.7959676,0.6086811 z m 0,0"
             style="fill:#000000;fill-opacity:1;fill-rule:nonzero;stroke:none"
             id="path123" />
        </g>
        <path
           d="m -56.73149,48.50998 h 17.08403 v 16.36726 h -17.08403 z"
           style="fill:#bfbfbf;fill-opacity:1;fill-rule:nonzero;stroke:#000000;stroke-width:0.79701;stroke-linecap:butt;stroke-linejoin:miter;stroke-miterlimit:10;stroke-dasharray:none;stroke-opacity:1"
           transform="matrix(1.3348533,0,0,-1.3348533,2822.9598,-2437.557)"
           clip-path="url(#clipPath26)"
           id="path124" />
        <g
           aria-label="e&#10;1"
           transform="matrix(1.3348533,0,0,1.3348533,2752.0857,-2507.1643)"
           clip-path="url(#clipPath27)"
           id="g126">
          <path
             d="m 2.0368937,-2.5165101 c 0.3160459,0 1.1237189,-0.023411 1.673873,-0.257519 0.7608514,-0.3277513 0.8193784,-0.9715487 0.8193784,-1.1237189 0,-0.4799217 -0.4213946,-0.9247271 -1.1705406,-0.9247271 -1.2056568,0 -2.856119,1.0534865 -2.856119,2.9731731 0,1.11201354 0.6437973,1.96650817 1.7089893,1.96650817 1.5568189,0 2.481546,-1.15883517 2.481546,-1.28759467 0,-0.058527 -0.070232,-0.1404648 -0.1287595,-0.1404648 -0.058527,0 -0.081938,0.023411 -0.1521702,0.1053486 -0.8544947,1.08860275 -2.0484461,1.08860275 -2.1772055,1.08860275 -0.8544947,0 -0.9481379,-0.92472705 -0.9481379,-1.26418385 0,-0.1404648 0.011705,-0.4682162 0.1755811,-1.1354243 z M 1.5218558,-2.7623237 c 0.4331,-1.6504622 1.556819,-1.8143379 1.8377487,-1.8143379 0.5150379,0 0.807673,0.316046 0.807673,0.6789136 0,1.1354243 -1.7441054,1.1354243 -2.1889109,1.1354243 z m 0,0"
             style="fill:#000000;fill-opacity:1;fill-rule:nonzero;stroke:none"
             id="path125" />
          <path
             d="m 7.585256,-9.0393475 c 0,-0.2106974 -0.023411,-0.2224028 -0.2341081,-0.2224028 -0.3277513,0.316046 -0.749146,0.5150379 -1.5099973,0.5150379 v 0.2575189 c 0.2224027,0 0.6555027,0 1.1120135,-0.2106973 v 4.0851867 c 0,0.2926351 -0.023411,0.3979838 -0.7842622,0.3979838 H 5.8879722 v 0.2575189 c 0.3277513,-0.023411 1.0183703,-0.023411 1.3812379,-0.023411 0.3511622,0 1.0417811,0 1.3695325,0.023411 V -4.2167203 H 8.3695182 c -0.7608514,0 -0.7842622,-0.1053487 -0.7842622,-0.3979838 z m 0,0"
             style="fill:#000000;fill-opacity:1;fill-rule:nonzero;stroke:none"
             id="path126" />
        </g>
        <path
           d="M 76.30469,48.31073 H 93.77617 V 65.07649 H 76.30469 Z"
           style="fill:#bfbfbf;fill-opacity:1;fill-rule:nonzero;stroke:#000000;stroke-width:0.79701;stroke-linecap:butt;stroke-linejoin:miter;stroke-miterlimit:10;stroke-dasharray:none;stroke-opacity:1"
           transform="matrix(1.3348533,0,0,-1.3348533,2822.9598,-2437.557)"
           clip-path="url(#clipPath28)"
           id="path127" />
        <g
           aria-label="e&#10;k"
           transform="matrix(1.3348533,0,0,1.3348533,2929.6679,-2506.8973)"
           clip-path="url(#clipPath29)"
           id="g129">
          <path
             d="m 2.0367574,-2.5175182 c 0.3160459,0 1.1237189,-0.023411 1.673873,-0.257519 0.7608514,-0.3277513 0.8193784,-0.9715487 0.8193784,-1.1237189 0,-0.4799217 -0.4213946,-0.9247271 -1.1705406,-0.9247271 -1.2056568,0 -2.85611901,1.0534865 -2.85611901,2.9731731 0,1.11201354 0.64379731,1.96650817 1.70898921,1.96650817 1.556819,0 2.4815461,-1.15883517 2.4815461,-1.28759467 0,-0.058527 -0.070233,-0.1404648 -0.1287595,-0.1404648 -0.058527,0 -0.081938,0.023411 -0.1521703,0.1053486 -0.8544946,1.08860275 -2.048446,1.08860275 -2.1772054,1.08860275 -0.8544947,0 -0.9481379,-0.92472705 -0.9481379,-1.26418385 0,-0.1404648 0.011705,-0.4682162 0.1755811,-1.1354243 z M 1.5217195,-2.7633318 c 0.4331,-1.6504622 1.556819,-1.8143379 1.8377487,-1.8143379 0.5150379,0 0.807673,0.316046 0.807673,0.6789136 0,1.1354243 -1.7441054,1.1354243 -2.1889109,1.1354243 z m 0,0"
             style="fill:#000000;fill-opacity:1;fill-rule:nonzero;stroke:none"
             id="path128" />
          <path
             d="m 7.4095386,-9.251053 c 0.011705,-0.023411 0.035116,-0.117054 0.035116,-0.1287594 0,-0.035116 -0.035116,-0.1170541 -0.1287595,-0.1170541 -0.035116,0 -0.2809297,0.023411 -0.4682162,0.046822 l -0.4448055,0.035116 c -0.1755811,0.011705 -0.2575189,0.023411 -0.2575189,0.1638756 0,0.1053487 0.1170541,0.1053487 0.2106973,0.1053487 0.3862784,0 0.3862784,0.046822 0.3862784,0.1287595 0,0.023411 0,0.035116 -0.046822,0.1755811 l -1.123719,4.5416974 c -0.035116,0.1170541 -0.035116,0.1638757 -0.035116,0.1755811 0,0.1287595 0.1053487,0.2458135 0.2575189,0.2458135 0.2692244,0 0.3394568,-0.2575189 0.374573,-0.374573 0.070232,-0.3277513 0.2809298,-1.1705405 0.374573,-1.5099973 0.4331,0.046822 0.9715487,0.1989919 0.9715487,0.6555027 0,0.035116 0,0.081938 -0.023411,0.1638757 -0.023411,0.093643 -0.035116,0.2106973 -0.035116,0.2458135 0,0.4799217 0.3511621,0.8193784 0.807673,0.8193784 0.3394567,0 0.550154,-0.2458135 0.6555027,-0.3979838 0.1872865,-0.2926351 0.3160459,-0.7725568 0.3160459,-0.8193784 0,-0.081938 -0.070232,-0.1053486 -0.117054,-0.1053486 -0.1053487,0 -0.1170541,0.046822 -0.1521703,0.1872865 -0.1053486,0.3745729 -0.3043405,0.9130216 -0.6789135,0.9130216 -0.2106973,0 -0.257519,-0.1755811 -0.257519,-0.3979838 0,-0.093643 0.011705,-0.1989919 0.046822,-0.374573 0.011705,-0.035116 0.035116,-0.1638757 0.035116,-0.2458135 0,-0.6555027 -0.8193784,-0.807673 -1.2173622,-0.8544946 0.2926351,-0.1755811 0.5618595,-0.4448054 0.6555027,-0.5501541 0.4448054,-0.4331 0.7959676,-0.7257352 1.182246,-0.7257352 0.1053487,0 0.1989919,0.023411 0.2575189,0.1053487 -0.4213946,0.046822 -0.4213946,0.4213946 -0.4213946,0.4331 0,0.1755811 0.1287595,0.2926352 0.3043406,0.2926352 0.2224027,0 0.4565108,-0.1755811 0.4565108,-0.5033325 0,-0.2692243 -0.1872865,-0.5501541 -0.5852703,-0.5501541 -0.4682162,0 -0.8779054,0.3511622 -1.3344163,0.7959676 -0.4682162,0.4565109 -0.6672081,0.5501541 -0.7959676,0.6086811 z m 0,0"
             style="fill:#000000;fill-opacity:1;fill-rule:nonzero;stroke:none"
             id="path129" />
        </g>
        <path
           d="M -22.71541,48.50998 H -5.63138 V 64.87724 H -22.71541 Z"
           style="fill:none;stroke:#000000;stroke-width:0.79701;stroke-linecap:butt;stroke-linejoin:miter;stroke-miterlimit:10;stroke-dasharray:none;stroke-opacity:1"
           transform="matrix(1.3348533,0,0,-1.3348533,2822.9598,-2437.557)"
           clip-path="url(#clipPath30)"
           id="path130" />
        <g
           aria-label="e&#10;2"
           transform="matrix(1.3348533,0,0,1.3348533,2797.4921,-2507.1643)"
           clip-path="url(#clipPath31)"
           id="g132">
          <path
             d="m 2.036803,-2.5165101 c 0.316046,0 1.123719,-0.023411 1.6738731,-0.257519 0.7608513,-0.3277513 0.8193784,-0.9715487 0.8193784,-1.1237189 0,-0.4799217 -0.4213946,-0.9247271 -1.1705406,-0.9247271 -1.2056568,0 -2.85611904,1.0534865 -2.85611904,2.9731731 0,1.11201354 0.64379734,1.96650817 1.70898924,1.96650817 1.556819,0 2.4815461,-1.15883517 2.4815461,-1.28759467 0,-0.058527 -0.070232,-0.1404648 -0.1287595,-0.1404648 -0.058527,0 -0.081938,0.023411 -0.1521703,0.1053486 -0.8544946,1.08860275 -2.048446,1.08860275 -2.1772055,1.08860275 -0.8544946,0 -0.9481378,-0.92472705 -0.9481378,-1.26418385 0,-0.1404648 0.011705,-0.4682162 0.175581,-1.1354243 z M 1.5217652,-2.7623237 c 0.4331,-1.6504622 1.5568189,-1.8143379 1.8377487,-1.8143379 0.5150378,0 0.807673,0.316046 0.807673,0.6789136 0,1.1354243 -1.7441055,1.1354243 -2.1889109,1.1354243 z m 0,0"
             style="fill:#000000;fill-opacity:1;fill-rule:nonzero;stroke:none"
             id="path131" />
          <path
             d="m 7.3276465,-5.5862528 c 0.1287594,-0.1170541 0.4682162,-0.3862784 0.5852703,-0.4916271 0.5033324,-0.4565108 0.9715486,-0.8896108 0.9715486,-1.615346 0,-0.9481378 -0.7959676,-1.5685244 -1.790927,-1.5685244 -0.9598433,0 -1.5919352,0.7257352 -1.5919352,1.439765 0,0.3862784 0.3160459,0.4448054 0.4213946,0.4448054 0.1638756,0 0.4213946,-0.1170541 0.4213946,-0.4213946 0,-0.4213946 -0.3979838,-0.4213946 -0.5033325,-0.4213946 0.2341081,-0.5735649 0.7725568,-0.7725568 1.1588352,-0.7725568 0.7374406,0 1.123719,0.6203865 1.123719,1.2993 0,0.8193784 -0.5852703,1.4280595 -1.5217028,2.3996082 L 5.5952464,-4.263542 c -0.093643,0.093643 -0.093643,0.1053487 -0.093643,0.3043406 H 8.6503573 L 8.8844654,-5.3872609 H 8.6386519 c -0.023411,0.1638757 -0.093643,0.5618595 -0.1872865,0.7140297 -0.046822,0.058527 -0.6555027,0.058527 -0.7842622,0.058527 H 6.2507491 Z m 0,0"
             style="fill:#000000;fill-opacity:1;fill-rule:nonzero;stroke:none"
             id="path132" />
        </g>
        <path
           d="m 28.37404,48.31073 h 28.2923 v 16.76576 h -28.2923 z"
           style="fill:none;stroke:#000000;stroke-width:0.79701;stroke-linecap:butt;stroke-linejoin:miter;stroke-miterlimit:10;stroke-dasharray:none;stroke-opacity:1"
           transform="matrix(1.3348533,0,0,-1.3348533,2822.9598,-2437.557)"
           clip-path="url(#clipPath32)"
           id="path133" />
        <g
           aria-label="e&#10;k−1"
           transform="matrix(1.3348533,0,0,1.3348533,2865.6884,-2506.8973)"
           clip-path="url(#clipPath33)"
           id="g137">
          <path
             d="m 2.0360468,-2.5175182 c 0.316046,0 1.123719,-0.023411 1.673873,-0.257519 0.7608514,-0.3277513 0.8193784,-0.9715487 0.8193784,-1.1237189 0,-0.4799217 -0.4213946,-0.9247271 -1.1705405,-0.9247271 -1.2056568,0 -2.85611906,1.0534865 -2.85611906,2.9731731 0,1.11201354 0.64379736,1.96650817 1.70898926,1.96650817 1.556819,0 2.481546,-1.15883517 2.481546,-1.28759467 0,-0.058527 -0.070232,-0.1404648 -0.1287594,-0.1404648 -0.058527,0 -0.081938,0.023411 -0.1521703,0.1053486 -0.8544946,1.08860275 -2.048446,1.08860275 -2.1772055,1.08860275 -0.8544946,0 -0.9481379,-0.92472705 -0.9481379,-1.26418385 0,-0.1404648 0.011705,-0.4682162 0.1755811,-1.1354243 z M 1.5210089,-2.7633318 c 0.4331001,-1.6504622 1.556819,-1.8143379 1.8377488,-1.8143379 0.5150378,0 0.807673,0.316046 0.807673,0.6789136 0,1.1354243 -1.7441055,1.1354243 -2.1889109,1.1354243 z m 0,0"
             style="fill:#000000;fill-opacity:1;fill-rule:nonzero;stroke:none"
             id="path134" />
          <path
             d="m 7.4088281,-9.251053 c 0.011705,-0.023411 0.035116,-0.117054 0.035116,-0.1287594 0,-0.035116 -0.035116,-0.1170541 -0.1287595,-0.1170541 -0.035116,0 -0.2809297,0.023411 -0.4682162,0.046822 l -0.4448054,0.035116 c -0.1755811,0.011705 -0.2575189,0.023411 -0.2575189,0.1638756 0,0.1053487 0.117054,0.1053487 0.2106973,0.1053487 0.3862784,0 0.3862784,0.046822 0.3862784,0.1287595 0,0.023411 0,0.035116 -0.046822,0.1755811 l -1.1237189,4.5416974 c -0.035116,0.1170541 -0.035116,0.1638757 -0.035116,0.1755811 0,0.1287595 0.1053486,0.2458135 0.2575189,0.2458135 0.2692243,0 0.3394567,-0.2575189 0.374573,-0.374573 0.070232,-0.3277513 0.2809297,-1.1705405 0.374573,-1.5099973 0.4331,0.046822 0.9715486,0.1989919 0.9715486,0.6555027 0,0.035116 0,0.081938 -0.023411,0.1638757 -0.023411,0.093643 -0.035116,0.2106973 -0.035116,0.2458135 0,0.4799217 0.3511622,0.8193784 0.807673,0.8193784 0.3394568,0 0.5501541,-0.2458135 0.6555027,-0.3979838 0.1872865,-0.2926351 0.316046,-0.7725568 0.316046,-0.8193784 0,-0.081938 -0.070232,-0.1053486 -0.1170541,-0.1053486 -0.1053486,0 -0.117054,0.046822 -0.1521702,0.1872865 -0.1053487,0.3745729 -0.3043406,0.9130216 -0.6789136,0.9130216 -0.2106973,0 -0.2575189,-0.1755811 -0.2575189,-0.3979838 0,-0.093643 0.011705,-0.1989919 0.046822,-0.374573 0.011705,-0.035116 0.035116,-0.1638757 0.035116,-0.2458135 0,-0.6555027 -0.8193784,-0.807673 -1.2173622,-0.8544946 0.2926352,-0.1755811 0.5618595,-0.4448054 0.6555028,-0.5501541 0.4448054,-0.4331 0.7959676,-0.7257352 1.1822459,-0.7257352 0.1053487,0 0.1989919,0.023411 0.257519,0.1053487 -0.4213946,0.046822 -0.4213946,0.4213946 -0.4213946,0.4331 0,0.1755811 0.1287594,0.2926352 0.3043405,0.2926352 0.2224027,0 0.4565108,-0.1755811 0.4565108,-0.5033325 0,-0.2692243 -0.1872865,-0.5501541 -0.5852702,-0.5501541 -0.4682163,0 -0.8779055,0.3511622 -1.3344163,0.7959676 -0.4682162,0.4565109 -0.6672081,0.5501541 -0.7959676,0.6086811 z m 0,0"
             style="fill:#000000;fill-opacity:1;fill-rule:nonzero;stroke:none"
             id="path135" />
          <path
             d="m 15.274861,-5.7745474 c 0.128759,0 0.30434,0 0.30434,-0.1755811 0,-0.1872865 -0.175581,-0.1872865 -0.30434,-0.1872865 h -4.565108 c -0.12876,0 -0.304341,0 -0.304341,0.1872865 0,0.1755811 0.175581,0.1755811 0.304341,0.1755811 z m 0,0"
             style="fill:#000000;fill-opacity:1;fill-rule:nonzero;stroke:none"
             id="path136" />
          <path
             d="m 18.795262,-9.0403556 c 0,-0.2106974 -0.02341,-0.2224028 -0.234109,-0.2224028 -0.327751,0.316046 -0.749145,0.5150379 -1.509997,0.5150379 v 0.2575189 c 0.222403,0 0.655503,0 1.112014,-0.2106973 v 4.0851867 c 0,0.2926351 -0.02341,0.3979838 -0.784262,0.3979838 h -0.28093 v 0.2575189 c 0.327751,-0.023411 1.01837,-0.023411 1.381238,-0.023411 0.351162,0 1.041781,0 1.369532,0.023411 v -0.2575189 h -0.269224 c -0.760852,0 -0.784262,-0.1053487 -0.784262,-0.3979838 z m 0,0"
             style="fill:#000000;fill-opacity:1;fill-rule:nonzero;stroke:none"
             id="path137" />
        </g>
        <path
           d="m 2.7493447,-3.5805292 c 0,-0.4213946 -0.3394567,-0.7608513 -0.7608513,-0.7608513 -0.4096893,0 -0.7608514,0.3394567 -0.7608514,0.7608513 0,0.4096893 0.3511621,0.749146 0.7608514,0.749146 0.4213946,0 0.7608513,-0.3394567 0.7608513,-0.749146 z m 6.3823726,0 c 0,-0.4213946 -0.3394568,-0.7608513 -0.7608514,-0.7608513 -0.4096892,0 -0.7608514,0.3394567 -0.7608514,0.7608513 0,0.4096893 0.3511622,0.749146 0.7608514,0.749146 0.4213946,0 0.7608514,-0.3394567 0.7608514,-0.749146 z m 6.3677407,0 c 0,-0.4213946 -0.339457,-0.7608513 -0.760851,-0.7608513 -0.40969,0 -0.760852,0.3394567 -0.760852,0.7608513 0,0.4096893 0.351162,0.749146 0.760852,0.749146 0.421394,0 0.760851,-0.3394567 0.760851,-0.749146 z m 0,0"
           style="fill:#000000;fill-opacity:1;fill-rule:nonzero;stroke:none"
           aria-label="···"
           transform="matrix(1.3348533,0,0,1.3348533,2838.5722,-2508.9783)"
           clip-path="url(#clipPath34)"
           id="path138" />
        <path
           d="M -6.22554,7.32356 -37.8793,44.55927"
           style="fill:none;stroke:#000000;stroke-width:0.79701;stroke-linecap:butt;stroke-linejoin:miter;stroke-miterlimit:10;stroke-dasharray:none;stroke-opacity:1"
           transform="matrix(1.3348533,0,0,-1.3348533,2822.9598,-2437.557)"
           clip-path="url(#clipPath35)"
           id="path139" />
        <path
           d="M 4.66248,0 C 3.28098,0.25902 1.0361,1.0361 -0.51805,1.94269 V -1.94269 C 1.0361,-1.0361 3.28098,-0.25902 4.66248,0"
           style="fill:#000000;fill-opacity:1;fill-rule:nonzero;stroke:none"
           transform="matrix(-0.86450441,-1.0169847,-1.0169847,0.86450441,2772.3965,-2497.0371)"
           clip-path="url(#clipPath36)"
           id="path140" />
        <path
           d="M -2.33142,9.32541 -10.89833,43.5883"
           style="fill:none;stroke:#000000;stroke-width:0.79701;stroke-linecap:butt;stroke-linejoin:miter;stroke-miterlimit:10;stroke-dasharray:none;stroke-opacity:1"
           transform="matrix(1.3348533,0,0,-1.3348533,2822.9598,-2437.557)"
           clip-path="url(#clipPath37)"
           id="path141" />
        <path
           d="M 4.66248,0 C 3.28098,0.25902 1.0361,1.0361 -0.51805,1.94269 V -1.94269 C 1.0361,-1.0361 3.28098,-0.25902 4.66248,0"
           style="fill:#000000;fill-opacity:1;fill-rule:nonzero;stroke:none"
           transform="matrix(-0.32375533,-1.2949679,-1.2949679,0.32375533,2808.4121,-2495.741)"
           clip-path="url(#clipPath38)"
           id="path142" />
        <path
           d="m 5.76776,7.68965 27.37271,36.4928"
           style="fill:none;stroke:#000000;stroke-width:0.79701;stroke-linecap:butt;stroke-linejoin:miter;stroke-miterlimit:10;stroke-dasharray:none;stroke-opacity:1"
           transform="matrix(1.3348533,0,0,-1.3348533,2822.9598,-2437.557)"
           clip-path="url(#clipPath39)"
           id="path143" />
        <path
           d="M 4.66248,0 C 3.28098,0.25902 1.0361,1.0361 -0.51805,1.94269 V -1.94269 C 1.0361,-1.0361 3.28098,-0.25902 4.66248,0"
           style="fill:#000000;fill-opacity:1;fill-rule:nonzero;stroke:none"
           transform="matrix(0.8009387,-1.0678293,-1.0678293,-0.8009387,2867.1974,-2496.5341)"
           clip-path="url(#clipPath40)"
           id="path144" />
        <path
           d="M 7.99739,5.33228 72.02715,48.02399"
           style="fill:none;stroke:#000000;stroke-width:0.79701;stroke-linecap:butt;stroke-linejoin:miter;stroke-miterlimit:10;stroke-dasharray:none;stroke-opacity:1"
           transform="matrix(1.3348533,0,0,-1.3348533,2822.9598,-2437.557)"
           clip-path="url(#clipPath41)"
           id="path145" />
        <path
           d="M 4.66248,0 C 3.28098,0.25902 1.0361,1.0361 -0.51805,1.94269 V -1.94269 C 1.0361,-1.0361 3.28098,-0.25902 4.66248,0"
           style="fill:#000000;fill-opacity:1;fill-rule:nonzero;stroke:none"
           transform="matrix(1.1105579,-0.74046984,-0.74046984,-1.1105579,2919.1054,-2501.662)"
           clip-path="url(#clipPath42)"
           id="path146" />
        <path
           d="m -37.72832,99.21382 c 0,5.7776 -4.68355,10.46115 -10.46115,10.46115 -5.7776,0 -10.46115,-4.68355 -10.46115,-10.46115 0,-5.7776 4.68355,-10.46115 10.46115,-10.46115 5.7776,0 10.46115,4.68355 10.46115,10.46115 z"
           style="fill:none;stroke:#000000;stroke-width:0.79701;stroke-linecap:butt;stroke-linejoin:miter;stroke-miterlimit:10;stroke-dasharray:none;stroke-opacity:1"
           transform="matrix(1.3348533,0,0,-1.3348533,2822.9598,-2437.557)"
           clip-path="url(#clipPath43)"
           id="path147" />
        <g
           aria-label="by&#10;1"
           transform="matrix(1.3348533,0,0,1.3348533,2752.2406,-2565.3372)"
           clip-path="url(#clipPath44)"
           id="g150">
          <path
             d="m 3.0212018,-7.4671227 2.9731731,1.3344162 0.1287595,-0.2341081 -3.0902272,-1.7441055 -3.09022712,1.7441055 0.12875946,0.2341081 z m 0,0"
             style="fill:#000000;fill-opacity:1;fill-rule:nonzero;stroke:none"
             id="path148" />
          <path
             d="m 4.8618769,-4.1544929 c 0.046822,-0.1521703 0.046822,-0.1755811 0.046822,-0.2575189 0,-0.1872865 -0.1521703,-0.2926352 -0.316046,-0.2926352 -0.117054,0 -0.2926351,0.070232 -0.3862783,0.2341081 -0.023411,0.058527 -0.1053487,0.3862784 -0.1521703,0.5852703 -0.081938,0.2809298 -0.1521703,0.5852703 -0.2224027,0.8779055 l -0.4916271,1.9665082 c -0.035116,0.16387564 -0.5033324,0.92472702 -1.2290676,0.92472702 -0.5501541,0 -0.6789135,-0.47992164 -0.6789135,-0.88961082 0,-0.5033325 0.1872865,-1.1705406 0.5618595,-2.1303839 0.175581,-0.4565108 0.2106973,-0.5735649 0.2106973,-0.7959676 0,-0.4799216 -0.3394568,-0.8896108 -0.8896109,-0.8896108 -1.0300757,0 -1.4397649,1.5802298 -1.4397649,1.6855784 0,0.1053487 0.10534865,0.1053487 0.12875946,0.1053487 0.11705406,0 0.11705406,-0.023411 0.17558109,-0.1989919 0.29263514,-1.0183703 0.73744057,-1.3461217 1.10030815,-1.3461217 0.093643,0 0.2809297,0 0.2809297,0.3394568 0,0.2809297 -0.117054,0.5618594 -0.1872865,0.7725568 -0.44480538,1.1471297 -0.63209187,1.7792216 -0.63209187,2.2825541 0,0.97154867 0.67891357,1.29930004 1.32271087,1.29930004 0.4331,0 0.7959676,-0.1872865 1.1003081,-0.49162705 -0.1404648,0.57356489 -0.2692243,1.10030815 -0.7023243,1.68557841 -0.2809298,0.374573 -0.7023244,0.690619 -1.2056568,0.690619 -0.1521703,0 -0.64379734,-0.035116 -0.81937842,-0.4682163 0.16387568,0 0.31604595,0 0.46821623,-0.1287594 C 1.0107984,1.3119316 1.116147,1.1714668 1.116147,0.96076946 c 0,-0.33945677 -0.29263513,-0.38627839 -0.39798378,-0.38627839 -0.25751893,0 -0.60868111,0.17558108 -0.60868111,0.71402973 0,0.5501541 0.47992164,0.9481379 1.14712979,0.9481379 1.1237189,0 2.2474379,-0.9949595 2.5517785,-2.22402711 z m 0,0"
             style="fill:#000000;fill-opacity:1;fill-rule:nonzero;stroke:none"
             id="path149" />
          <path
             d="m 7.7999337,-9.0385735 c 0,-0.2106973 -0.023411,-0.2224027 -0.2341081,-0.2224027 -0.3277513,0.316046 -0.7491459,0.5150379 -1.5099973,0.5150379 v 0.2575189 c 0.2224027,0 0.6555027,0 1.1120135,-0.2106973 v 4.0851866 c 0,0.2926352 -0.023411,0.3979838 -0.7842622,0.3979838 H 6.1026499 v 0.257519 c 0.3277514,-0.023411 1.0183703,-0.023411 1.3812379,-0.023411 0.3511622,0 1.0417811,0 1.3695325,0.023411 v -0.257519 H 8.5841959 c -0.7608513,0 -0.7842622,-0.1053486 -0.7842622,-0.3979838 z m 0,0"
             style="fill:#000000;fill-opacity:1;fill-rule:nonzero;stroke:none"
             id="path150" />
        </g>
        <path
           d="m -3.71223,99.21382 c 0,5.7776 -4.68355,10.46115 -10.46116,10.46115 -5.7776,0 -10.46115,-4.68355 -10.46115,-10.46115 0,-5.7776 4.68355,-10.46115 10.46115,-10.46115 5.77761,0 10.46116,4.68355 10.46116,10.46115 z"
           style="fill:none;stroke:#000000;stroke-width:0.79701;stroke-linecap:butt;stroke-linejoin:miter;stroke-miterlimit:10;stroke-dasharray:none;stroke-opacity:1"
           transform="matrix(1.3348533,0,0,-1.3348533,2822.9598,-2437.557)"
           clip-path="url(#clipPath45)"
           id="path151" />
        <g
           aria-label="by&#10;2"
           transform="matrix(1.3348533,0,0,1.3348533,2797.6469,-2565.3372)"
           clip-path="url(#clipPath46)"
           id="g154">
          <path
             d="m 3.0211112,-7.4671227 2.9731731,1.3344162 0.1287594,-0.2341081 -3.0902271,-1.7441055 -3.09022716,1.7441055 0.12875947,0.2341081 z m 0,0"
             style="fill:#000000;fill-opacity:1;fill-rule:nonzero;stroke:none"
             id="path152" />
          <path
             d="m 4.8500808,-4.1544929 c 0.046822,-0.1521703 0.046822,-0.1755811 0.046822,-0.2575189 0,-0.1872865 -0.1521703,-0.2926352 -0.316046,-0.2926352 -0.1170541,0 -0.2926351,0.070232 -0.3862784,0.2341081 -0.023411,0.058527 -0.1053486,0.3862784 -0.1521703,0.5852703 -0.081938,0.2809298 -0.1521702,0.5852703 -0.2224027,0.8779055 l -0.491627,1.9665082 c -0.035116,0.16387564 -0.5033325,0.92472702 -1.2290676,0.92472702 -0.5501541,0 -0.6789136,-0.47992164 -0.6789136,-0.88961082 0,-0.5033325 0.1872865,-1.1705406 0.5618595,-2.1303839 0.1755811,-0.4565108 0.2106973,-0.5735649 0.2106973,-0.7959676 0,-0.4799216 -0.3394568,-0.8896108 -0.8896108,-0.8896108 -1.03007574,0 -1.43976495,1.5802298 -1.43976495,1.6855784 0,0.1053487 0.10534866,0.1053487 0.12875947,0.1053487 0.11705406,0 0.11705406,-0.023411 0.17558108,-0.1989919 0.29263515,-1.0183703 0.73744057,-1.3461217 1.1003082,-1.3461217 0.093643,0 0.2809297,0 0.2809297,0.3394568 0,0.2809297 -0.1170541,0.5618594 -0.1872865,0.7725568 -0.44480542,1.1471297 -0.63209192,1.7792216 -0.63209192,2.2825541 0,0.97154867 0.67891352,1.29930004 1.32271082,1.29930004 0.4331001,0 0.7959676,-0.1872865 1.1003082,-0.49162705 C 3.0123324,0.19991808 2.883573,0.72666134 2.4504729,1.3119316 c -0.2809297,0.374573 -0.7023243,0.690619 -1.2056568,0.690619 -0.1521702,0 -0.64379728,-0.035116 -0.81937837,-0.4682163 0.16387568,0 0.31604596,0 0.46821624,-0.1287594 C 0.99900232,1.3119316 1.104351,1.1714668 1.104351,0.96076946 c 0,-0.33945677 -0.29263517,-0.38627839 -0.39798383,-0.38627839 -0.25751893,0 -0.6086811,0.17558108 -0.6086811,0.71402973 0,0.5501541 0.47992164,0.9481379 1.14712973,0.9481379 1.123719,0 2.247438,-0.9949595 2.5517785,-2.22402711 z m 0,0"
             style="fill:#000000;fill-opacity:1;fill-rule:nonzero;stroke:none"
             id="path153" />
          <path
             d="m 7.5423242,-5.5854788 c 0.1287594,-0.117054 0.4682162,-0.3862783 0.5852703,-0.491627 0.5033324,-0.4565108 0.9715487,-0.8896108 0.9715487,-1.615346 0,-0.9481379 -0.7959676,-1.5685244 -1.7909271,-1.5685244 -0.9598433,0 -1.5919352,0.7257352 -1.5919352,1.4397649 0,0.3862784 0.3160459,0.4448055 0.4213946,0.4448055 0.1638757,0 0.4213946,-0.1170541 0.4213946,-0.4213947 0,-0.4213946 -0.3979838,-0.4213946 -0.5033325,-0.4213946 0.2341082,-0.5735649 0.7725568,-0.7725568 1.1588352,-0.7725568 0.7374406,0 1.123719,0.6203866 1.123719,1.2993001 0,0.8193784 -0.5852703,1.4280595 -1.5217028,2.3996082 l -1.0066649,1.0300757 c -0.093643,0.093643 -0.093643,0.1053487 -0.093643,0.3043406 H 8.865035 L 9.0991432,-5.3864869 H 8.8533296 c -0.023411,0.1638757 -0.093643,0.5618595 -0.1872865,0.7140298 -0.046822,0.058527 -0.6555027,0.058527 -0.7842621,0.058527 H 6.4654268 Z m 0,0"
             style="fill:#000000;fill-opacity:1;fill-rule:nonzero;stroke:none"
             id="path154" />
        </g>
        <path
           d="m 57.52103,99.21382 c 0,8.28482 -6.71601,15.00083 -15.00083,15.00083 -8.28482,0 -15.00082,-6.71601 -15.00082,-15.00083 0,-8.28482 6.716,-15.00082 15.00082,-15.00082 8.28482,0 15.00083,6.716 15.00083,15.00082 z"
           style="fill:none;stroke:#000000;stroke-width:0.79701;stroke-linecap:butt;stroke-linejoin:miter;stroke-miterlimit:10;stroke-dasharray:none;stroke-opacity:1"
           transform="matrix(1.3348533,0,0,-1.3348533,2822.9598,-2437.557)"
           clip-path="url(#clipPath47)"
           id="path155" />
        <g
           aria-label="by&#10;k−1"
           transform="matrix(1.3348533,0,0,1.3348533,2865.8419,-2565.0715)"
           clip-path="url(#clipPath48)"
           id="g160">
          <path
             d="m 3.021355,-7.4671308 2.973173,1.3344162 0.1287595,-0.2341081 -3.0902271,-1.7441055 -3.09022718,1.7441055 0.12875946,0.2341081 z m 0,0"
             style="fill:#000000;fill-opacity:1;fill-rule:nonzero;stroke:none"
             id="path156" />
          <path
             d="m 4.86203,-4.154501 c 0.046822,-0.1521703 0.046822,-0.1755811 0.046822,-0.2575189 0,-0.1872865 -0.1521702,-0.2926352 -0.3160459,-0.2926352 -0.1170541,0 -0.2926352,0.070233 -0.3862784,0.2341081 -0.023411,0.058527 -0.1053487,0.3862784 -0.1521703,0.5852703 -0.081938,0.2809298 -0.1521703,0.5852703 -0.2224027,0.8779055 l -0.491627,1.9665082 c -0.035116,0.16387564 -0.5033325,0.92472702 -1.2290676,0.92472702 -0.5501541,0 -0.6789136,-0.47992164 -0.6789136,-0.88961082 0,-0.5033325 0.1872865,-1.1705406 0.5618595,-2.1303839 0.1755811,-0.4565108 0.2106973,-0.5735649 0.2106973,-0.7959676 0,-0.4799216 -0.3394568,-0.8896108 -0.8896108,-0.8896108 -1.03007576,0 -1.43976496,1.5802298 -1.43976496,1.6855784 0,0.1053487 0.10534865,0.1053487 0.12875946,0.1053487 0.11705406,0 0.11705406,-0.023411 0.17558109,-0.1989919 0.29263514,-1.0183703 0.73744057,-1.3461217 1.10030811,-1.3461217 0.093643,0 0.2809298,0 0.2809298,0.3394568 0,0.2809297 -0.1170541,0.5618594 -0.1872865,0.7725568 -0.44480544,1.1471297 -0.63209193,1.7792216 -0.63209193,2.2825541 0,0.97154867 0.67891353,1.29930004 1.32271083,1.29930004 0.4331,0 0.7959676,-0.1872865 1.1003082,-0.49162705 C 3.0242813,0.19990998 2.8955218,0.72665324 2.4624218,1.3119235 2.1814921,1.6864965 1.7600975,2.0025425 1.256765,2.0025425 c -0.1521703,0 -0.6437973,-0.035116 -0.81937838,-0.4682163 0.16387568,0 0.31604595,0 0.46821623,-0.1287594 C 1.0109515,1.3119235 1.1163002,1.1714587 1.1163002,0.96076136 c 0,-0.33945677 -0.29263519,-0.38627839 -0.39798384,-0.38627839 -0.25751893,0 -0.60868111,0.17558108 -0.60868111,0.71402973 0,0.5501541 0.47992164,0.9481379 1.14712975,0.9481379 1.123719,0 2.2474379,-0.9949595 2.5517785,-2.22402712 z m 0,0"
             style="fill:#000000;fill-opacity:1;fill-rule:nonzero;stroke:none"
             id="path157" />
          <path
             d="m 7.6245058,-9.2492789 c 0.011705,-0.023411 0.035116,-0.117054 0.035116,-0.1287594 0,-0.035116 -0.035116,-0.1170541 -0.1287594,-0.1170541 -0.035116,0 -0.2809298,0.023411 -0.4682163,0.046822 l -0.4448054,0.035116 c -0.1755811,0.011705 -0.2575189,0.023411 -0.2575189,0.1638757 0,0.1053487 0.117054,0.1053487 0.2106973,0.1053487 0.3862784,0 0.3862784,0.046822 0.3862784,0.1287594 0,0.023411 0,0.035116 -0.046822,0.1755811 L 5.7867566,-4.297892 c -0.035116,0.117054 -0.035116,0.1638757 -0.035116,0.1755811 0,0.1287594 0.1053486,0.2458135 0.2575189,0.2458135 0.2692243,0 0.3394568,-0.2575189 0.374573,-0.374573 0.070232,-0.3277514 0.2809297,-1.1705406 0.374573,-1.5099973 0.4331,0.046822 0.9715487,0.1989919 0.9715487,0.6555027 0,0.035116 0,0.081938 -0.023411,0.1638757 -0.023411,0.093643 -0.035116,0.2106973 -0.035116,0.2458135 0,0.4799216 0.3511622,0.8193784 0.807673,0.8193784 0.3394568,0 0.5501541,-0.2458135 0.6555028,-0.3979838 0.1872864,-0.2926351 0.3160459,-0.7725568 0.3160459,-0.8193784 0,-0.081938 -0.070232,-0.1053487 -0.117054,-0.1053487 -0.1053487,0 -0.1170541,0.046822 -0.1521703,0.1872865 -0.1053487,0.374573 -0.3043406,0.9130217 -0.6789136,0.9130217 -0.2106973,0 -0.2575189,-0.1755811 -0.2575189,-0.3979838 0,-0.093643 0.011705,-0.1989919 0.046822,-0.374573 0.011705,-0.035116 0.035116,-0.1638757 0.035116,-0.2458135 0,-0.6555028 -0.8193785,-0.807673 -1.2173623,-0.8544946 0.2926352,-0.1755811 0.5618595,-0.4448055 0.6555028,-0.5501541 0.4448054,-0.4331 0.7959676,-0.7257352 1.182246,-0.7257352 0.1053486,0 0.1989919,0.023411 0.2575189,0.1053487 -0.4213946,0.046822 -0.4213946,0.4213946 -0.4213946,0.4331 0,0.1755811 0.1287594,0.2926351 0.3043405,0.2926351 0.2224027,0 0.4565109,-0.1755811 0.4565109,-0.5033324 0,-0.2692244 -0.1872865,-0.5501541 -0.5852703,-0.5501541 -0.4682163,0 -0.8779055,0.3511622 -1.3344163,0.7959676 -0.4682162,0.4565108 -0.6672081,0.5501541 -0.7959676,0.6086811 z m 0,0"
             style="fill:#000000;fill-opacity:1;fill-rule:nonzero;stroke:none"
             id="path158" />
          <path
             d="m 15.490539,-5.7727734 c 0.128759,0 0.30434,0 0.30434,-0.175581 0,-0.1872865 -0.175581,-0.1872865 -0.30434,-0.1872865 H 10.92543 c -0.128759,0 -0.30434,0 -0.30434,0.1872865 0,0.175581 0.175581,0.175581 0.30434,0.175581 z m 0,0"
             style="fill:#000000;fill-opacity:1;fill-rule:nonzero;stroke:none"
             id="path159" />
          <path
             d="m 19.010939,-9.0385816 c 0,-0.2106973 -0.02341,-0.2224027 -0.234108,-0.2224027 -0.327751,0.316046 -0.749146,0.5150379 -1.509997,0.5150379 v 0.2575189 c 0.222403,0 0.655503,0 1.112013,-0.2106973 v 4.0851866 c 0,0.2926352 -0.02341,0.3979838 -0.784262,0.3979838 h -0.28093 v 0.257519 c 0.327752,-0.023411 1.018371,-0.023411 1.381238,-0.023411 0.351163,0 1.041781,0 1.369533,0.023411 v -0.257519 h -0.269224 c -0.760852,0 -0.784263,-0.1053486 -0.784263,-0.3979838 z m 0,0"
             style="fill:#000000;fill-opacity:1;fill-rule:nonzero;stroke:none"
             id="path160" />
        </g>
        <path
           d="m 95.77594,99.21382 c 0,5.92914 -4.80638,10.73552 -10.73552,10.73552 -5.92914,0 -10.73552,-4.80638 -10.73552,-10.73552 0,-5.92914 4.80638,-10.73552 10.73552,-10.73552 5.92914,0 10.73552,4.80638 10.73552,10.73552 z"
           style="fill:none;stroke:#000000;stroke-width:0.79701;stroke-linecap:butt;stroke-linejoin:miter;stroke-miterlimit:10;stroke-dasharray:none;stroke-opacity:1"
           transform="matrix(1.3348533,0,0,-1.3348533,2822.9598,-2437.557)"
           clip-path="url(#clipPath49)"
           id="path161" />
        <g
           aria-label="by&#10;k"
           transform="matrix(1.3348533,0,0,1.3348533,2929.8215,-2565.0715)"
           clip-path="url(#clipPath50)"
           id="g164">
          <path
             d="m 3.0191392,-7.4671308 2.973173,1.3344162 0.1287595,-0.2341081 -3.0902271,-1.7441055 -3.09022718,1.7441055 0.12875946,0.2341081 z m 0,0"
             style="fill:#000000;fill-opacity:1;fill-rule:nonzero;stroke:none"
             id="path162" />
          <path
             d="m 4.8627406,-4.154501 c 0.046822,-0.1521703 0.046822,-0.1755811 0.046822,-0.2575189 0,-0.1872865 -0.1521703,-0.2926352 -0.316046,-0.2926352 -0.117054,0 -0.2926351,0.070233 -0.3862784,0.2341081 C 4.1838272,-4.41202 4.1018896,-4.0842686 4.055068,-3.8852767 3.97313,-3.6043469 3.9028977,-3.3000064 3.8326653,-3.0073712 L 3.3410378,-1.040863 c -0.035116,0.16387564 -0.5033324,0.92472702 -1.2290676,0.92472702 -0.5501541,0 -0.6789135,-0.47992164 -0.6789135,-0.88961082 0,-0.5033325 0.1872865,-1.1705406 0.5618594,-2.1303839 0.1755811,-0.4565108 0.2106974,-0.5735649 0.2106974,-0.7959676 0,-0.4799216 -0.3394568,-0.8896108 -0.8896109,-0.8896108 -1.03007571,0 -1.43976491,1.5802298 -1.43976491,1.6855784 0,0.1053487 0.10534865,0.1053487 0.12875946,0.1053487 0.11705406,0 0.11705406,-0.023411 0.17558109,-0.1989919 0.29263515,-1.0183703 0.73744057,-1.3461217 1.10030816,-1.3461217 0.093643,0 0.2809297,0 0.2809297,0.3394568 0,0.2809297 -0.117054,0.5618594 -0.1872865,0.7725568 -0.44480539,1.1471297 -0.63209188,1.7792216 -0.63209188,2.2825541 0,0.97154867 0.67891358,1.29930004 1.32271088,1.29930004 0.4331,0 0.7959676,-0.1872865 1.1003081,-0.49162705 C 3.0249919,0.19990998 2.8962324,0.72665324 2.4631324,1.3119235 2.1822026,1.6864965 1.760808,2.0025425 1.2574756,2.0025425 c -0.1521703,0 -0.64379734,-0.035116 -0.81937843,-0.4682163 0.16387568,0 0.31604596,0 0.46821623,-0.1287594 0.1053487,-0.093643 0.2106973,-0.2341081 0.2106973,-0.44480544 0,-0.33945677 -0.29263514,-0.38627839 -0.39798379,-0.38627839 -0.25751893,0 -0.6086811,0.17558108 -0.6086811,0.71402973 0,0.5501541 0.47992163,0.9481379 1.14712979,0.9481379 1.1237189,0 2.2474379,-0.9949595 2.5517784,-2.22402712 z m 0,0"
             style="fill:#000000;fill-opacity:1;fill-rule:nonzero;stroke:none"
             id="path163" />
          <path
             d="m 7.6252164,-9.2492789 c 0.011705,-0.023411 0.035116,-0.117054 0.035116,-0.1287594 0,-0.035116 -0.035116,-0.1170541 -0.1287595,-0.1170541 -0.035116,0 -0.2809297,0.023411 -0.4682162,0.046822 l -0.4448054,0.035116 c -0.1755811,0.011705 -0.257519,0.023411 -0.257519,0.1638757 0,0.1053487 0.1170541,0.1053487 0.2106973,0.1053487 0.3862784,0 0.3862784,0.046822 0.3862784,0.1287594 0,0.023411 0,0.035116 -0.046822,0.1755811 L 5.787467,-4.297892 c -0.035116,0.117054 -0.035116,0.1638757 -0.035116,0.1755811 0,0.1287594 0.1053487,0.2458135 0.2575189,0.2458135 0.2692244,0 0.3394568,-0.2575189 0.374573,-0.374573 0.070233,-0.3277514 0.2809298,-1.1705406 0.374573,-1.5099973 0.4331,0.046822 0.9715487,0.1989919 0.9715487,0.6555027 0,0.035116 0,0.081938 -0.023411,0.1638757 -0.023411,0.093643 -0.035116,0.2106973 -0.035116,0.2458135 0,0.4799216 0.3511622,0.8193784 0.807673,0.8193784 0.3394567,0 0.5501541,-0.2458135 0.6555027,-0.3979838 0.1872865,-0.2926351 0.316046,-0.7725568 0.316046,-0.8193784 0,-0.081938 -0.070232,-0.1053487 -0.1170541,-0.1053487 -0.1053486,0 -0.1170541,0.046822 -0.1521703,0.1872865 -0.1053486,0.374573 -0.3043405,0.9130217 -0.6789135,0.9130217 -0.2106973,0 -0.2575189,-0.1755811 -0.2575189,-0.3979838 0,-0.093643 0.011705,-0.1989919 0.046822,-0.374573 0.011705,-0.035116 0.035116,-0.1638757 0.035116,-0.2458135 0,-0.6555028 -0.8193784,-0.807673 -1.2173622,-0.8544946 0.2926351,-0.1755811 0.5618595,-0.4448055 0.6555027,-0.5501541 0.4448054,-0.4331 0.7959676,-0.7257352 1.182246,-0.7257352 0.1053487,0 0.1989919,0.023411 0.2575189,0.1053487 -0.4213946,0.046822 -0.4213946,0.4213946 -0.4213946,0.4331 0,0.1755811 0.1287595,0.2926351 0.3043406,0.2926351 0.2224027,0 0.4565108,-0.1755811 0.4565108,-0.5033324 0,-0.2692244 -0.1872865,-0.5501541 -0.5852703,-0.5501541 -0.4682162,0 -0.8779054,0.3511622 -1.3344162,0.7959676 -0.4682163,0.4565108 -0.6672082,0.5501541 -0.7959676,0.6086811 z m 0,0"
             style="fill:#000000;fill-opacity:1;fill-rule:nonzero;stroke:none"
             id="path164" />
        </g>
        <path
           d="M -48.18947,65.27576 V 83.69168"
           style="fill:none;stroke:#000000;stroke-width:0.79701;stroke-linecap:butt;stroke-linejoin:miter;stroke-miterlimit:10;stroke-dasharray:none;stroke-opacity:1"
           transform="matrix(1.3348533,0,0,-1.3348533,2822.9598,-2437.557)"
           clip-path="url(#clipPath51)"
           id="path165" />
        <path
           d="M 4.66248,0 C 3.28098,0.25902 1.0361,1.0361 -0.51805,1.94269 V -1.94269 C 1.0361,-1.0361 3.28098,-0.25902 4.66248,0"
           style="fill:#000000;fill-opacity:1;fill-rule:nonzero;stroke:none"
           transform="matrix(0,-1.3348533,-1.3348533,0,2758.6339,-2549.2731)"
           clip-path="url(#clipPath52)"
           id="path166" />
        <path
           d="M -14.17339,65.27576 V 83.69168"
           style="fill:none;stroke:#000000;stroke-width:0.79701;stroke-linecap:butt;stroke-linejoin:miter;stroke-miterlimit:10;stroke-dasharray:none;stroke-opacity:1"
           transform="matrix(1.3348533,0,0,-1.3348533,2822.9598,-2437.557)"
           clip-path="url(#clipPath53)"
           id="path167" />
        <path
           d="M 4.66248,0 C 3.28098,0.25902 1.0361,1.0361 -0.51805,1.94269 V -1.94269 C 1.0361,-1.0361 3.28098,-0.25902 4.66248,0"
           style="fill:#000000;fill-opacity:1;fill-rule:nonzero;stroke:none"
           transform="matrix(0,-1.3348533,-1.3348533,0,2804.0404,-2549.2731)"
           clip-path="url(#clipPath54)"
           id="path168" />
        <path
           d="M 42.5202,65.475 V 79.15201"
           style="fill:none;stroke:#000000;stroke-width:0.79701;stroke-linecap:butt;stroke-linejoin:miter;stroke-miterlimit:10;stroke-dasharray:none;stroke-opacity:1"
           transform="matrix(1.3348533,0,0,-1.3348533,2822.9598,-2437.557)"
           clip-path="url(#clipPath55)"
           id="path169" />
        <path
           d="M 4.66248,0 C 3.28098,0.25902 1.0361,1.0361 -0.51805,1.94269 V -1.94269 C 1.0361,-1.0361 3.28098,-0.25902 4.66248,0"
           style="fill:#000000;fill-opacity:1;fill-rule:nonzero;stroke:none"
           transform="matrix(0,-1.3348533,-1.3348533,0,2879.718,-2543.2133)"
           clip-path="url(#clipPath56)"
           id="path170" />
        <path
           d="M 85.04042,65.475 V 83.41733"
           style="fill:none;stroke:#000000;stroke-width:0.79701;stroke-linecap:butt;stroke-linejoin:miter;stroke-miterlimit:10;stroke-dasharray:none;stroke-opacity:1"
           transform="matrix(1.3348533,0,0,-1.3348533,2822.9598,-2437.557)"
           clip-path="url(#clipPath57)"
           id="path171" />
        <path
           d="M 4.66248,0 C 3.28098,0.25902 1.0361,1.0361 -0.51805,1.94269 V -1.94269 C 1.0361,-1.0361 3.28098,-0.25902 4.66248,0"
           style="fill:#000000;fill-opacity:1;fill-rule:nonzero;stroke:none"
           transform="matrix(0,-1.3348533,-1.3348533,0,2936.4763,-2548.9069)"
           clip-path="url(#clipPath58)"
           id="path172" />
        <path
           d="m -91.47382,49.64847 h 12.86679 v 14.09029 h -12.86679 z"
           style="fill:none;stroke:#000000;stroke-width:0.79701;stroke-linecap:butt;stroke-linejoin:miter;stroke-miterlimit:10;stroke-dasharray:none;stroke-opacity:1"
           transform="matrix(1.3348533,0,0,-1.3348533,2822.9598,-2437.557)"
           clip-path="url(#clipPath59)"
           id="path173" />
        <path
           d="m 5.1391817,-4.1094009 c 0.011705,-0.070232 0.035116,-0.1287594 0.035116,-0.1989919 0,-0.1872865 -0.1287595,-0.2926351 -0.316046,-0.2926351 -0.117054,0 -0.4096892,0.070232 -0.4448054,0.4682162 C 4.2144544,-4.5425009 3.828176,-4.8234306 3.395076,-4.8234306 c -1.240773,0 -2.59860008,1.5334081 -2.59860008,3.1019325 0,1.07689737 0.66720818,1.72069468649 1.45147028,1.72069468649 0.6437974,0 1.1588352,-0.51503785649 1.2641839,-0.63209191649 l 0.011705,0.0117054 C 3.2897276,0.35035876 3.1609681,0.79516418 3.1609681,0.818575 3.1258519,0.91221824 2.7512789,2.000821 1.5924437,2.000821 1.3817464,2.000821 1.0305842,1.9891156 0.72624369,1.8837669 1.0422896,1.7901237 1.1710491,1.5091939 1.1710491,1.3219074 c 0,-0.175581 -0.1287595,-0.38627835 -0.4213946,-0.38627835 -0.23410812,0 -0.58527029,0.19899195 -0.58527029,0.63209195 0,0.4448054 0.39798379,0.6672081 1.45147029,0.6672081 1.3578271,0 2.1537947,-0.8544946 2.3176704,-1.50999735 z m -1.4163541,2.7156542 c -0.070232,0.2809297 -0.316046,0.55015407 -0.5618595,0.76085137 -0.2224027,0.1989919 -0.5618595,0.38627839 -0.8779054,0.38627839 -0.5501541,0 -0.7140298,-0.56185948 -0.7140298,-0.99495946 0,-0.5267433 0.316046,-1.8143379 0.6086811,-2.364492 0.3043406,-0.5384487 0.7725568,-0.9715487 1.2290676,-0.9715487 0.7140298,0 0.8662001,0.8779054 0.8662001,0.9364325 0,0.046822 -0.023411,0.117054 -0.023411,0.1638757 z m 0,0"
           style="fill:#000000;fill-opacity:1;fill-rule:nonzero;stroke:none"
           aria-label="g"
           transform="matrix(1.3348533,0,0,1.3348533,2705.7103,-2511.5146)"
           clip-path="url(#clipPath60)"
           id="path174" />
        <path
           d="m -74.83345,99.21382 c 0,5.63722 -4.56975,10.20697 -10.20697,10.20697 -5.63722,0 -10.20697,-4.56975 -10.20697,-10.20697 0,-5.63724 4.56975,-10.20697 10.20697,-10.20697 5.63722,0 10.20697,4.56973 10.20697,10.20697 z"
           style="fill:none;stroke:#000000;stroke-width:0.79701;stroke-linecap:butt;stroke-linejoin:miter;stroke-miterlimit:10;stroke-dasharray:none;stroke-opacity:1"
           transform="matrix(1.3348533,0,0,-1.3348533,2822.9598,-2437.557)"
           clip-path="url(#clipPath61)"
           id="path175" />
        <path
           d="m 8.0419317,-4.0981578 c 0.058527,-0.1521703 0.093643,-0.2341081 0.7374406,-0.2341081 v -0.5150379 c -0.2458135,0.023411 -0.5735649,0.035116 -0.8310838,0.035116 -0.3043406,0 -0.807673,-0.023411 -1.0534865,-0.035116 v 0.5150379 c 0.093643,0 0.6320919,0.011705 0.6320919,0.1287595 0,0.035116 -0.035116,0.1053486 -0.046822,0.1287594 l -1.1471297,2.797592 -1.240773,-3.0551109 h 0.6086811 v -0.5150379 c -0.3394568,0.011705 -0.9130217,0.035116 -1.2407731,0.035116 -0.4565108,0 -0.9130216,-0.023411 -1.0886027,-0.035116 v 0.5150379 h 0.6437973 c 0.2341081,0.5501541 0.2341081,0.5618595 0.2341081,0.5735649 0,0.046822 -0.035116,0.117054 -0.046822,0.1521703 l -0.8662,2.0835622 -1.1471298,-2.8092974 h 0.6203865 v -0.5150379 c -0.4565108,0.023411 -0.9013162,0.035116 -1.3461217,0.035116 -0.3394567,0 -0.81937836,-0.023411 -1.19395135,-0.035116 v 0.5150379 h 0.64379732 l 1.67387303,4.08518663 c 0.070232,0.17558108 0.1170541,0.29263514 0.3862784,0.29263514 0.2809297,0 0.316046,-0.11705406 0.3979838,-0.29263514 L 4.53031,-3.0797875 5.6891452,-0.24707927 c 0.070232,0.17558108 0.117054,0.29263514 0.3862783,0.29263514 0.2692244,0 0.316046,-0.11705406 0.3979838,-0.29263514 z m 0,0"
           style="fill:#000000;fill-opacity:1;fill-rule:nonzero;stroke:none"
           aria-label="w"
           transform="matrix(1.3348533,0,0,1.3348533,2703.2808,-2566.7561)"
           clip-path="url(#clipPath62)"
           id="path176" />
        <path
           d="M -7.99754,5.33212 -74.3294,49.55739"
           style="fill:none;stroke:#000000;stroke-width:0.79701;stroke-linecap:butt;stroke-linejoin:miter;stroke-miterlimit:10;stroke-dasharray:none;stroke-opacity:1"
           transform="matrix(1.3348533,0,0,-1.3348533,2822.9598,-2437.557)"
           clip-path="url(#clipPath63)"
           id="path177" />
        <path
           d="M 4.66248,0 C 3.28098,0.25902 1.0361,1.0361 -0.51805,1.94269 V -1.94269 C 1.0361,-1.0361 3.28098,-0.25902 4.66248,0"
           style="fill:#000000;fill-opacity:1;fill-rule:nonzero;stroke:none"
           transform="matrix(-1.1105846,-0.74044314,-0.74044314,1.1105846,2723.7409,-2503.7089)"
           clip-path="url(#clipPath64)"
           id="path178" />
        <path
           d="M -85.04042,64.13727 V 83.94586"
           style="fill:none;stroke:#000000;stroke-width:0.79701;stroke-linecap:butt;stroke-linejoin:miter;stroke-miterlimit:10;stroke-dasharray:none;stroke-opacity:1"
           transform="matrix(1.3348533,0,0,-1.3348533,2822.9598,-2437.557)"
           clip-path="url(#clipPath65)"
           id="path179" />
        <path
           d="M 4.66248,0 C 3.28098,0.25902 1.0361,1.0361 -0.51805,1.94269 V -1.94269 C 1.0361,-1.0361 3.28098,-0.25902 4.66248,0"
           style="fill:#000000;fill-opacity:1;fill-rule:nonzero;stroke:none"
           transform="matrix(0,-1.3348533,-1.3348533,0,2709.4433,-2549.6124)"
           clip-path="url(#clipPath66)"
           id="path180" />
        <path
           d="M -59.52847,99.21382 H 93.54454"
           style="fill:none;stroke:#000000;stroke-width:0.79701;stroke-linecap:butt;stroke-linejoin:miter;stroke-miterlimit:10;stroke-dasharray:none;stroke-opacity:1"
           transform="matrix(1.3348533,0,0,-1.3348533,2822.9598,-2437.557)"
           clip-path="url(#clipPath67)"
           id="path181" />
        <path
           d="m -74.43494,99.21382 h 4.57471"
           style="fill:none;stroke:#000000;stroke-width:0.79701;stroke-linecap:butt;stroke-linejoin:miter;stroke-miterlimit:10;stroke-dasharray:none;stroke-opacity:1"
           transform="matrix(1.3348533,0,0,-1.3348533,2822.9598,-2437.557)"
           clip-path="url(#clipPath68)"
           id="path182" />
        <path
           d="M 4.66248,0 C 3.28098,0.25902 1.0361,1.0361 -0.51805,1.94269 V -1.94269 C 1.0361,-1.0361 3.28098,-0.25902 4.66248,0"
           style="fill:#000000;fill-opacity:1;fill-rule:nonzero;stroke:none"
           transform="matrix(1.3348533,0,0,-1.3348533,2729.7066,-2569.9929)"
           clip-path="url(#clipPath69)"
           id="path183" />
        <path
           d="M -48.18947,65.27576 V 94.55135"
           style="fill:none;stroke:#000000;stroke-width:0.79701;stroke-linecap:butt;stroke-linejoin:miter;stroke-miterlimit:10;stroke-dasharray:none;stroke-opacity:1"
           transform="matrix(1.3348533,0,0,-1.3348533,2822.9598,-2437.557)"
           clip-path="url(#clipPath70)"
           id="path184" />
        <path
           d="M 4.66248,0 C 3.28098,0.25902 1.0361,1.0361 -0.51805,1.94269 V -1.94269 C 1.0361,-1.0361 3.28098,-0.25902 4.66248,0"
           style="fill:#000000;fill-opacity:1;fill-rule:nonzero;stroke:none"
           transform="matrix(0,-1.3348533,-1.3348533,0,2758.6339,-2563.7692)"
           clip-path="url(#clipPath71)"
           id="path185" />
        <path
           d="m -46.78043,99.21382 c 0,0.77818 -0.63086,1.40904 -1.40904,1.40904 -0.7782,0 -1.40904,-0.63086 -1.40904,-1.40904 0,-0.7782 0.63084,-1.40904 1.40904,-1.40904 0.77818,0 1.40904,0.63084 1.40904,1.40904 z"
           style="fill:#000000;fill-opacity:1;fill-rule:nonzero;stroke:none"
           transform="matrix(1.3348533,0,0,-1.3348533,2822.9598,-2437.557)"
           clip-path="url(#clipPath72)"
           id="path186" />
        <path
           d="M -14.17339,65.27576 V 94.55135"
           style="fill:none;stroke:#000000;stroke-width:0.79701;stroke-linecap:butt;stroke-linejoin:miter;stroke-miterlimit:10;stroke-dasharray:none;stroke-opacity:1"
           transform="matrix(1.3348533,0,0,-1.3348533,2822.9598,-2437.557)"
           clip-path="url(#clipPath73)"
           id="path187" />
        <path
           d="M 4.66248,0 C 3.28098,0.25902 1.0361,1.0361 -0.51805,1.94269 V -1.94269 C 1.0361,-1.0361 3.28098,-0.25902 4.66248,0"
           style="fill:#000000;fill-opacity:1;fill-rule:nonzero;stroke:none"
           transform="matrix(0,-1.3348533,-1.3348533,0,2804.0404,-2563.7692)"
           clip-path="url(#clipPath74)"
           id="path188" />
        <path
           d="m -12.76434,99.21382 c 0,0.77818 -0.63086,1.40904 -1.40905,1.40904 -0.77819,0 -1.40904,-0.63086 -1.40904,-1.40904 0,-0.7782 0.63085,-1.40904 1.40904,-1.40904 0.77819,0 1.40905,0.63084 1.40905,1.40904 z"
           style="fill:#000000;fill-opacity:1;fill-rule:nonzero;stroke:none"
           transform="matrix(1.3348533,0,0,-1.3348533,2822.9598,-2437.557)"
           clip-path="url(#clipPath75)"
           id="path189" />
        <path
           d="M 42.5202,65.475 V 94.55135"
           style="fill:none;stroke:#000000;stroke-width:0.79701;stroke-linecap:butt;stroke-linejoin:miter;stroke-miterlimit:10;stroke-dasharray:none;stroke-opacity:1"
           transform="matrix(1.3348533,0,0,-1.3348533,2822.9598,-2437.557)"
           clip-path="url(#clipPath76)"
           id="path190" />
        <path
           d="M 4.66248,0 C 3.28098,0.25902 1.0361,1.0361 -0.51805,1.94269 V -1.94269 C 1.0361,-1.0361 3.28098,-0.25902 4.66248,0"
           style="fill:#000000;fill-opacity:1;fill-rule:nonzero;stroke:none"
           transform="matrix(0,-1.3348533,-1.3348533,0,2879.718,-2563.7692)"
           clip-path="url(#clipPath77)"
           id="path191" />
        <path
           d="m 43.92924,99.21382 c 0,0.77818 -0.63085,1.40904 -1.40904,1.40904 -0.7782,0 -1.40904,-0.63086 -1.40904,-1.40904 0,-0.7782 0.63084,-1.40904 1.40904,-1.40904 0.77819,0 1.40904,0.63084 1.40904,1.40904 z"
           style="fill:#000000;fill-opacity:1;fill-rule:nonzero;stroke:none"
           transform="matrix(1.3348533,0,0,-1.3348533,2822.9598,-2437.557)"
           clip-path="url(#clipPath78)"
           id="path192" />
        <path
           d="M 85.04042,65.475 V 94.55135"
           style="fill:none;stroke:#000000;stroke-width:0.79701;stroke-linecap:butt;stroke-linejoin:miter;stroke-miterlimit:10;stroke-dasharray:none;stroke-opacity:1"
           transform="matrix(1.3348533,0,0,-1.3348533,2822.9598,-2437.557)"
           clip-path="url(#clipPath79)"
           id="path193" />
        <path
           d="M 4.66248,0 C 3.28098,0.25902 1.0361,1.0361 -0.51805,1.94269 V -1.94269 C 1.0361,-1.0361 3.28098,-0.25902 4.66248,0"
           style="fill:#000000;fill-opacity:1;fill-rule:nonzero;stroke:none"
           transform="matrix(0,-1.3348533,-1.3348533,0,2936.4763,-2563.7692)"
           clip-path="url(#clipPath80)"
           id="path194" />
        <path
           d="m 86.44946,99.21382 c 0,0.77818 -0.63084,1.40904 -1.40904,1.40904 -0.77818,0 -1.40904,-0.63086 -1.40904,-1.40904 0,-0.7782 0.63086,-1.40904 1.40904,-1.40904 0.7782,0 1.40904,0.63084 1.40904,1.40904 z"
           style="fill:#000000;fill-opacity:1;fill-rule:nonzero;stroke:none"
           transform="matrix(1.3348533,0,0,-1.3348533,2822.9598,-2437.557)"
           clip-path="url(#clipPath81)"
           id="path195" />
        <path
           d="M -6.50601,138.76723 H 6.50603 V 156.0394 H -6.50601 Z"
           style="fill:none;stroke:#000000;stroke-width:0.79701;stroke-linecap:butt;stroke-linejoin:miter;stroke-miterlimit:10;stroke-dasharray:none;stroke-opacity:1"
           transform="matrix(1.3348533,0,0,-1.3348533,2822.9598,-2437.557)"
           clip-path="url(#clipPath82)"
           id="path196" />
        <g
           aria-label="by"
           transform="matrix(1.3348533,0,0,1.3348533,2819.7241,-2630.474)"
           clip-path="url(#clipPath83)"
           id="g198">
          <path
             d="m 3.0189233,-7.4670333 2.9731731,1.3344162 0.1287594,-0.2341081 -3.0902271,-1.7441054 -3.09022716,1.7441054 0.12875946,0.2341081 z m 0,0"
             style="fill:#000000;fill-opacity:1;fill-rule:nonzero;stroke:none"
             id="path197" />
          <path
             d="m 4.8625247,-4.1544035 c 0.046822,-0.1521703 0.046822,-0.1755811 0.046822,-0.2575189 0,-0.1872865 -0.1521703,-0.2926352 -0.3160459,-0.2926352 -0.1170541,0 -0.2926352,0.070233 -0.3862784,0.2341082 -0.023411,0.058527 -0.1053487,0.3862784 -0.1521703,0.5852703 -0.081938,0.2809297 -0.1521703,0.5852702 -0.2224027,0.8779054 l -0.4916271,1.9665082 c -0.035116,0.16387566 -0.5033324,0.92472704 -1.2290676,0.92472704 -0.5501541,0 -0.6789135,-0.47992164 -0.6789135,-0.88961084 0,-0.5033325 0.1872865,-1.1705406 0.5618595,-2.1303839 0.1755811,-0.4565108 0.2106973,-0.5735649 0.2106973,-0.7959676 0,-0.4799216 -0.3394568,-0.8896108 -0.8896109,-0.8896108 -1.03007569,0 -1.43976489,1.5802298 -1.43976489,1.6855784 0,0.1053487 0.10534865,0.1053487 0.12875946,0.1053487 0.11705406,0 0.11705406,-0.023411 0.17558109,-0.1989919 0.29263514,-1.0183703 0.73744057,-1.3461217 1.10030814,-1.3461217 0.093643,0 0.2809297,0 0.2809297,0.3394568 0,0.2809297 -0.117054,0.5618595 -0.1872864,0.7725568 -0.44480547,1.1471297 -0.63209196,1.7792217 -0.63209196,2.2825541 0,0.97154869 0.67891356,1.29930005 1.32271086,1.29930005 0.4331,0 0.7959676,-0.18728649 1.1003081,-0.49162704 C 3.024776,0.20000749 2.8960165,0.72675076 2.4629165,1.312021 2.1819868,1.686594 1.7605921,2.00264 1.2572597,2.00264 c -0.1521703,0 -0.64379733,-0.035116 -0.81937841,-0.4682162 0.16387568,0 0.31604595,0 0.46821623,-0.1287595 C 1.0114462,1.312021 1.1167948,1.1715562 1.1167948,0.96085887 c 0,-0.33945677 -0.29263512,-0.38627839 -0.39798377,-0.38627839 -0.25751893,0 -0.60868111,0.17558109 -0.60868111,0.71402972 0,0.5501541 0.47992164,0.9481379 1.14712978,0.9481379 1.123719,0 2.2474379,-0.9949595 2.5517785,-2.2240271 z m 0,0"
             style="fill:#000000;fill-opacity:1;fill-rule:nonzero;stroke:none"
             id="path198" />
        </g>
        <path
           d="m -48.18947,99.21382 37.98837,37.9926"
           style="fill:none;stroke:#000000;stroke-width:0.79701;stroke-linecap:butt;stroke-linejoin:miter;stroke-miterlimit:10;stroke-dasharray:none;stroke-opacity:1"
           transform="matrix(1.3348533,0,0,-1.3348533,2822.9598,-2437.557)"
           clip-path="url(#clipPath84)"
           id="path199" />
        <path
           d="M 4.66248,0 C 3.28098,0.25902 1.0361,1.0361 -0.51805,1.94269 V -1.94269 C 1.0361,-1.0361 3.28098,-0.25902 4.66248,0"
           style="fill:#000000;fill-opacity:1;fill-rule:nonzero;stroke:none"
           transform="matrix(0.94380805,-0.94392819,-0.94392819,-0.94380805,2809.3428,-2620.7074)"
           clip-path="url(#clipPath85)"
           id="path200" />
        <path
           d="M -14.17339,99.21382 -3.97104,133.896"
           style="fill:none;stroke:#000000;stroke-width:0.79701;stroke-linecap:butt;stroke-linejoin:miter;stroke-miterlimit:10;stroke-dasharray:none;stroke-opacity:1"
           transform="matrix(1.3348533,0,0,-1.3348533,2822.9598,-2437.557)"
           clip-path="url(#clipPath86)"
           id="path201" />
        <path
           d="M 4.66248,0 C 3.28098,0.25902 1.0361,1.0361 -0.51805,1.94269 V -1.94269 C 1.0361,-1.0361 3.28098,-0.25902 4.66248,0"
           style="fill:#000000;fill-opacity:1;fill-rule:nonzero;stroke:none"
           transform="matrix(0.37666891,-1.2805248,-1.2805248,-0.37666891,2817.659,-2616.2885)"
           clip-path="url(#clipPath87)"
           id="path202" />
        <path
           d="M 42.5202,99.21382 9.98901,136.08513"
           style="fill:none;stroke:#000000;stroke-width:0.79701;stroke-linecap:butt;stroke-linejoin:miter;stroke-miterlimit:10;stroke-dasharray:none;stroke-opacity:1"
           transform="matrix(1.3348533,0,0,-1.3348533,2822.9598,-2437.557)"
           clip-path="url(#clipPath88)"
           id="path203" />
        <path
           d="M 4.66248,0 C 3.28098,0.25902 1.0361,1.0361 -0.51805,1.94269 V -1.94269 C 1.0361,-1.0361 3.28098,-0.25902 4.66248,0"
           style="fill:#000000;fill-opacity:1;fill-rule:nonzero;stroke:none"
           transform="matrix(-0.88308557,-1.000873,-1.000873,0.88308557,2836.2937,-2619.2107)"
           clip-path="url(#clipPath89)"
           id="path204" />
        <path
           d="M 85.04042,99.21382 10.9607,141.19612"
           style="fill:none;stroke:#000000;stroke-width:0.79701;stroke-linecap:butt;stroke-linejoin:miter;stroke-miterlimit:10;stroke-dasharray:none;stroke-opacity:1"
           transform="matrix(1.3348533,0,0,-1.3348533,2822.9598,-2437.557)"
           clip-path="url(#clipPath90)"
           id="path205" />
        <path
           d="M 4.66248,0 C 3.28098,0.25902 1.0361,1.0361 -0.51805,1.94269 V -1.94269 C 1.0361,-1.0361 3.28098,-0.25902 4.66248,0"
           style="fill:#000000;fill-opacity:1;fill-rule:nonzero;stroke:none"
           transform="matrix(-1.161269,-0.65809604,-0.65809604,1.161269,2837.5907,-2626.0331)"
           clip-path="url(#clipPath91)"
           id="path206" />
        <path
           d="m -12.83296,65.27576 10.70314,68.48663"
           style="fill:none;stroke:#000000;stroke-width:0.79701;stroke-linecap:butt;stroke-linejoin:miter;stroke-miterlimit:10;stroke-dasharray:none;stroke-opacity:1"
           transform="matrix(1.3348533,0,0,-1.3348533,2822.9598,-2437.557)"
           clip-path="url(#clipPath92)"
           id="path207" />
        <path
           d="M 4.66248,0 C 3.28098,0.25902 1.0361,1.0361 -0.51805,1.94269 V -1.94269 C 1.0361,-1.0361 3.28098,-0.25902 4.66248,0"
           style="fill:#000000;fill-opacity:1;fill-rule:nonzero;stroke:none"
           transform="matrix(0.20608801,-1.3187817,-1.3187817,-0.20608801,2820.1168,-2616.1101)"
           clip-path="url(#clipPath93)"
           id="path208" />
        <path
           d="M 38.40567,65.475 6.20941,134.14734"
           style="fill:none;stroke:#000000;stroke-width:0.79701;stroke-linecap:butt;stroke-linejoin:miter;stroke-miterlimit:10;stroke-dasharray:none;stroke-opacity:1"
           transform="matrix(1.3348533,0,0,-1.3348533,2822.9598,-2437.557)"
           clip-path="url(#clipPath94)"
           id="path209" />
        <path
           d="M 4.66248,0 C 3.28098,0.25902 1.0361,1.0361 -0.51805,1.94269 V -1.94269 C 1.0361,-1.0361 3.28098,-0.25902 4.66248,0"
           style="fill:#000000;fill-opacity:1;fill-rule:nonzero;stroke:none"
           transform="matrix(-0.56661854,-1.2085762,-1.2085762,0.56661854,2831.2484,-2616.624)"
           clip-path="url(#clipPath95)"
           id="path210" />
      </g>
    </g>
  </g>
</svg>
