<?xml version="1.0" encoding="UTF-8" standalone="no"?>
<!-- Created with Inkscape (http://www.inkscape.org/) -->

<svg
   version="1.1"
   id="svg1"
   width="471.68399"
   height="94.487999"
   viewBox="0 0 471.68399 94.487999"
   sodipodi:docname="cvae-page1.pdf"
   xmlns:inkscape="http://www.inkscape.org/namespaces/inkscape"
   xmlns:sodipodi="http://sodipodi.sourceforge.net/DTD/sodipodi-0.dtd"
   xmlns="http://www.w3.org/2000/svg"
   xmlns:svg="http://www.w3.org/2000/svg">
  <defs
     id="defs1">
    <clipPath
       clipPathUnits="userSpaceOnUse"
       id="clipPath1">
      <path
         d="M 0,0 H 453.543 V 283.465 H 0 Z"
         id="path1" />
    </clipPath>
    <clipPath
       clipPathUnits="userSpaceOnUse"
       id="clipPath2">
      <path
         d="M 0,0 H 453.543 V 283.465 H 0 Z"
         transform="translate(-38.562001,-134.778)"
         id="path2" />
    </clipPath>
    <clipPath
       clipPathUnits="userSpaceOnUse"
       id="clipPath3">
      <path
         d="M 0,0 H 453.543 V 283.465 H 0 Z"
         transform="matrix(1,0,0,-1,-35.251001,132.354)"
         id="path3" />
    </clipPath>
    <clipPath
       clipPathUnits="userSpaceOnUse"
       id="clipPath4">
      <path
         d="M 0,0 H 453.543 V 283.465 H 0 Z"
         transform="translate(-38.562001,-134.778)"
         id="path4" />
    </clipPath>
    <clipPath
       clipPathUnits="userSpaceOnUse"
       id="clipPath5">
      <path
         d="M 0,0 H 453.543 V 283.465 H 0 Z"
         transform="matrix(1,0,0,-1,-35.164001,175.934)"
         id="path5" />
    </clipPath>
    <clipPath
       clipPathUnits="userSpaceOnUse"
       id="clipPath6">
      <path
         d="M 0,0 H 453.543 V 283.465 H 0 Z"
         transform="translate(-38.562001,-134.778)"
         id="path6" />
    </clipPath>
    <clipPath
       clipPathUnits="userSpaceOnUse"
       id="clipPath7">
      <path
         d="M 0,0 H 453.543 V 283.465 H 0 Z"
         transform="matrix(1,0,0,-1,-76.740002,152.311)"
         id="path7" />
    </clipPath>
    <clipPath
       clipPathUnits="userSpaceOnUse"
       id="clipPath8">
      <path
         d="M 0,0 H 453.543 V 283.465 H 0 Z"
         transform="translate(-38.562001,-134.778)"
         id="path8" />
    </clipPath>
    <clipPath
       clipPathUnits="userSpaceOnUse"
       id="clipPath9">
      <path
         d="M 0,0 H 453.543 V 283.465 H 0 Z"
         transform="matrix(1,0,0,-1,-163.33301,153.614)"
         id="path9" />
    </clipPath>
    <clipPath
       clipPathUnits="userSpaceOnUse"
       id="clipPath10">
      <path
         d="M 0,0 H 453.543 V 283.465 H 0 Z"
         transform="translate(-38.562001,-134.778)"
         id="path10" />
    </clipPath>
    <clipPath
       clipPathUnits="userSpaceOnUse"
       id="clipPath11">
      <path
         d="M 0,0 H 453.543 V 283.465 H 0 Z"
         transform="matrix(1,0,0,-1,-203.97301,152.311)"
         id="path11" />
    </clipPath>
    <clipPath
       clipPathUnits="userSpaceOnUse"
       id="clipPath12">
      <path
         d="M 0,0 H 453.543 V 283.465 H 0 Z"
         transform="translate(-38.562001,-134.778)"
         id="path12" />
    </clipPath>
    <clipPath
       clipPathUnits="userSpaceOnUse"
       id="clipPath13">
      <path
         d="M 0,0 H 453.543 V 283.465 H 0 Z"
         transform="matrix(1,0,0,-1,-290.649,152.174)"
         id="path13" />
    </clipPath>
    <clipPath
       clipPathUnits="userSpaceOnUse"
       id="clipPath14">
      <path
         d="M 0,0 H 453.543 V 283.465 H 0 Z"
         transform="translate(-38.562001,-134.778)"
         id="path14" />
    </clipPath>
    <clipPath
       clipPathUnits="userSpaceOnUse"
       id="clipPath15">
      <path
         d="M 0,0 H 453.543 V 283.465 H 0 Z"
         transform="translate(-152.23476,-156.0408)"
         id="path15" />
    </clipPath>
    <clipPath
       clipPathUnits="userSpaceOnUse"
       id="clipPath16">
      <path
         d="M 0,0 H 453.543 V 283.465 H 0 Z"
         transform="matrix(1,0,0,-1,-100.30001,163.402)"
         id="path16" />
    </clipPath>
    <clipPath
       clipPathUnits="userSpaceOnUse"
       id="clipPath17">
      <path
         d="M 0,0 H 453.543 V 283.465 H 0 Z"
         transform="translate(-38.562001,-134.778)"
         id="path17" />
    </clipPath>
    <clipPath
       clipPathUnits="userSpaceOnUse"
       id="clipPath18">
      <path
         d="M 0,0 H 453.543 V 283.465 H 0 Z"
         transform="matrix(0.89447838,-0.44725919,0.44725919,0.89447838,-128.29386,-103.30946)"
         id="path18" />
    </clipPath>
    <clipPath
       clipPathUnits="userSpaceOnUse"
       id="clipPath19">
      <path
         d="M 0,0 H 453.543 V 283.465 H 0 Z"
         transform="translate(-38.562001,-134.778)"
         id="path19" />
    </clipPath>
    <clipPath
       clipPathUnits="userSpaceOnUse"
       id="clipPath20">
      <path
         d="M 0,0 H 453.543 V 283.465 H 0 Z"
         transform="matrix(0.89445236,0.44729117,-0.44729117,0.89445236,11.294795,-175.83957)"
         id="path20" />
    </clipPath>
    <clipPath
       clipPathUnits="userSpaceOnUse"
       id="clipPath21">
      <path
         d="M 0,0 H 453.543 V 283.465 H 0 Z"
         transform="translate(-38.562001,-134.778)"
         id="path21" />
    </clipPath>
    <clipPath
       clipPathUnits="userSpaceOnUse"
       id="clipPath22">
      <path
         d="M 0,0 H 453.543 V 283.465 H 0 Z"
         transform="translate(-195.29805,-156.04105)"
         id="path22" />
    </clipPath>
    <clipPath
       clipPathUnits="userSpaceOnUse"
       id="clipPath23">
      <path
         d="M 0,0 H 453.543 V 283.465 H 0 Z"
         transform="translate(-38.562001,-134.778)"
         id="path23" />
    </clipPath>
    <clipPath
       clipPathUnits="userSpaceOnUse"
       id="clipPath24">
      <path
         d="M 0,0 H 453.543 V 283.465 H 0 Z"
         transform="rotate(19.998771,553.80107,-474.22511)"
         id="path24" />
    </clipPath>
    <clipPath
       clipPathUnits="userSpaceOnUse"
       id="clipPath25">
      <path
         d="M 0,0 H 453.543 V 283.465 H 0 Z"
         transform="translate(-38.562001,-134.778)"
         id="path25" />
    </clipPath>
    <clipPath
       clipPathUnits="userSpaceOnUse"
       id="clipPath26">
      <path
         d="M 0,0 H 453.543 V 283.465 H 0 Z"
         transform="translate(-278.34341,-156.04082)"
         id="path26" />
    </clipPath>
    <clipPath
       clipPathUnits="userSpaceOnUse"
       id="clipPath27">
      <path
         d="M 0,0 H 453.543 V 283.465 H 0 Z"
         transform="matrix(1,0,0,-1,-227.419,162.803)"
         id="path27" />
    </clipPath>
    <clipPath
       clipPathUnits="userSpaceOnUse"
       id="clipPath28">
      <path
         d="M 0,0 H 353.762 V 70.866 H 0 Z"
         transform="matrix(1.3336533,0,0,-1.3336533,-0.05733333,94.5)"
         id="path28" />
    </clipPath>
  </defs>
  <sodipodi:namedview
     id="namedview1"
     pagecolor="#ffffff"
     bordercolor="#000000"
     borderopacity="0.25"
     inkscape:showpageshadow="2"
     inkscape:pageopacity="0.0"
     inkscape:pagecheckerboard="0"
     inkscape:deskcolor="#d1d1d1">
    <inkscape:page
       x="0"
       y="0"
       inkscape:label="1"
       id="page1"
       width="471.68399"
       height="94.487999"
       margin="0"
       bleed="0" />
  </sodipodi:namedview>
  <g
     id="g1"
     inkscape:groupmode="layer"
     inkscape:label="1">
    <g
       id="g74">
      <g
         clip-path="url(#clipPath28)"
         id="g73">
        <path
           d="M 0,0 H 453.543 V 283.465 H 0 Z"
           style="fill:#ffffff;fill-opacity:1;fill-rule:nonzero;stroke:none"
           transform="matrix(1.3336533,0,0,-1.3336533,-12.154903,245.71762)"
           clip-path="url(#clipPath1)"
           id="path29" />
        <path
           d="M 9.2141,0 C 9.2141,5.08885 5.08885,9.2141 0,9.2141 -5.08885,9.2141 -9.2141,5.08885 -9.2141,0 c 0,-5.08885 4.12525,-9.2141 9.2141,-9.2141 5.08885,0 9.2141,4.12525 9.2141,9.2141 z"
           style="fill:#8080ff;fill-opacity:1;fill-rule:nonzero;stroke:#000000;stroke-width:0.79701;stroke-linecap:butt;stroke-linejoin:miter;stroke-miterlimit:10;stroke-dasharray:none;stroke-opacity:1"
           transform="matrix(1.3336533,0,0,-1.3336533,39.273437,65.970488)"
           clip-path="url(#clipPath2)"
           id="path30" />
        <path
           d="M 3.7737798,-2.6830537 5.0508171,-4.1006823 C 5.1914084,-4.2529895 5.261704,-4.335001 6.1638312,-4.335001 v -0.5037854 c -0.3866259,0.011716 -0.948991,0.023432 -1.0075707,0.023432 -0.2694665,0 -0.8083997,-0.011716 -1.12473,-0.023432 v 0.5037854 c 0.1640231,0 0.2928984,0.023432 0.4217738,0.1054434 -0.046864,0.05858 -0.046864,0.082012 -0.093727,0.1288753 L 3.4457336,-3.0813956 2.3795832,-4.335001 h 0.4334897 v -0.5037854 c -0.2811825,0.011716 -0.9724229,0.023432 -1.3121851,0.023432 -0.3514781,0 -0.84354751,-0.011716 -1.2067416,-0.023432 v 0.5037854 h 0.7732519 l 1.6988111,2.0151413 -1.4176286,1.60508357 c -0.187455,0.19917095 -0.58579687,0.19917095 -1.11301409,0.19917095 V -1.0390506e-4 C 0.62219247,-0.02353578 1.1845575,-0.03525172 1.2431372,-0.03525172 c 0.2694666,0 0.9021272,0.02343188 1.1247301,0.0351478149 V -0.51560518 c -0.199171,0 -0.3983419,-0.0468638 -0.3983419,-0.11715939 0,-0.0117159 0,-0.0234319 0.070296,-0.10544344 l 1.054434,-1.19502569 1.2067417,1.41762852 H 3.8792233 V -1.0390506e-4 C 4.1604058,-0.01181984 4.8282143,-0.03525172 5.1796924,-0.03525172 c 0.3514782,0 0.8435476,0.02343188 1.2067417,0.0351478149 V -0.51560518 h -0.773252 z m 0,0"
           style="fill:#000000;fill-opacity:1;fill-rule:nonzero;stroke:none"
           aria-label="x"
           transform="matrix(1.3336533,0,0,1.3336533,34.857711,69.203264)"
           clip-path="url(#clipPath3)"
           id="path31" />
        <path
           d="m 10.01602,42.5202 c 0,5.53177 -4.48425,10.01604 -10.01602,10.01604 -5.53177,0 -10.01602,-4.48427 -10.01602,-10.01604 0,-5.53177 4.48425,-10.01603 10.01602,-10.01603 5.53177,0 10.01602,4.48426 10.01602,10.01603 z"
           style="fill:#8080ff;fill-opacity:1;fill-rule:nonzero;stroke:#000000;stroke-width:0.3985;stroke-linecap:butt;stroke-linejoin:miter;stroke-miterlimit:10;stroke-dasharray:none;stroke-opacity:1"
           transform="matrix(1.3336533,0,0,-1.3336533,39.273437,65.970488)"
           clip-path="url(#clipPath4)"
           id="path32" />
        <path
           d="m 5.5185851,-4.1010433 c 0.082012,-0.1523072 0.1054434,-0.2343188 0.8083997,-0.2343188 v -0.5037853 c -0.2577506,0.011716 -0.5857969,0.023432 -0.8669794,0.023432 -0.2694666,0 -0.761536,-0.011716 -0.9841388,-0.023432 v 0.5037853 c 0.023432,0 0.5037853,0 0.5037853,0.1405913 0,0 -0.035148,0.1171594 -0.046864,0.1288753 L 3.6791828,-1.3829456 2.2967021,-4.3353621 H 2.882499 v -0.5037853 c -0.3631941,0.011716 -1.3473329,0.023432 -1.3590488,0.023432 -0.3046144,0 -0.79668382,-0.011716 -1.24188947,-0.023432 v 0.5037853 H 0.98451702 L 3.0230903,-4.6493092e-4 2.7653396,0.52675229 C 2.5310209,1.0422536 2.1795427,1.7920736 1.4062908,1.7920736 c -0.1523072,0 -0.1757391,-0.011716 -0.2577506,-0.046864 0.093727,-0.046864 0.3514781,-0.199171 0.3514781,-0.574081 0,-0.3631941 -0.2694666,-0.62094474 -0.63266066,-0.62094474 -0.31633033,0 -0.63266066,0.19917095 -0.63266066,0.63266064 0,0.5506491 0.51550128,0.9958548 1.17159382,0.9958548 0.8435475,0 1.4762082,-0.6795244 1.7691067,-1.30046917 z m 0,0"
           style="fill:#000000;fill-opacity:1;fill-rule:nonzero;stroke:none"
           aria-label="y"
           transform="matrix(1.3336533,0,0,1.3336533,34.741683,11.082651)"
           clip-path="url(#clipPath5)"
           id="path33" />
        <path
           d="M 34.54321,13.89674 H 50.49716 V 28.62341 H 34.54321 Z"
           style="fill:#ffbf80;fill-opacity:1;fill-rule:nonzero;stroke:#000000;stroke-width:0.79701;stroke-linecap:butt;stroke-linejoin:miter;stroke-miterlimit:10;stroke-dasharray:none;stroke-opacity:1"
           transform="matrix(1.3336533,0,0,-1.3336533,39.273437,65.970488)"
           clip-path="url(#clipPath6)"
           id="path34" />
        <path
           d="m 7.7221171,-2.5435632 c 0.023432,-0.05858 0.05858,-0.1288753 0.05858,-0.1523072 0,-0.011716 0,-0.1171593 -0.1288754,-0.1171593 -0.1054434,0 -0.1288753,0.05858 -0.1405912,0.1288753 C 6.796558,-1.067355 6.3982161,-0.34096679 4.5236659,-0.34096679 H 2.9302984 c -0.1523072,0 -0.1640232,0 -0.2343188,-0.0117159 -0.1054435,-0.0117159 -0.1405913,-0.0234319 -0.1405913,-0.10544344 0,-0.0351478 0,-0.0585797 0.05858,-0.25775064 L 3.3520721,-3.6917251 h 1.0778663 c 0.9255592,0 0.9255592,0.2343188 0.9255592,0.5037853 0,0.082012 0,0.2108869 -0.070296,0.5389332 -0.023432,0.046864 -0.035148,0.082012 -0.035148,0.1171594 0,0.05858 0.046864,0.1171594 0.1405913,0.1171594 0.082011,0 0.1171594,-0.046864 0.1640231,-0.2108869 l 0.6209447,-2.5540746 c 0,-0.070296 -0.05858,-0.1171593 -0.1288753,-0.1171593 -0.1054434,0 -0.1171594,0.05858 -0.1523072,0.187455 C 5.660112,-4.277522 5.460941,-4.0314873 4.4650863,-4.0314873 H 3.4340837 l 0.6560925,-2.6243702 c 0.1054435,-0.37491 0.1054435,-0.4217737 0.5857969,-0.4217737 H 6.222477 c 1.323901,0 1.6519473,0.3163303 1.6519473,1.2067416 0,0.2577506 0,0.2811825 -0.046864,0.574081 0,0.070296 0,0.1523072 0,0.1991709 0,0.05858 0.023432,0.1288753 0.1288753,0.1288753 0.1171594,0 0.1288754,-0.05858 0.1523072,-0.2694666 L 8.3196299,-7.124495 C 8.3547777,-7.4173935 8.296198,-7.4173935 8.0267315,-7.4173935 h -5.506491 c -0.2226028,0 -0.3280462,0 -0.3280462,0.2226029 0,0.1171594 0.1054434,0.1171594 0.3046143,0.1171594 0.4100579,0 0.7146723,0 0.7146723,0.1991709 0,0.035148 0,0.05858 -0.05858,0.2577506 l -1.4410604,5.76424163 c -0.1054435,0.43348971 -0.1288753,0.51550128 -0.99585476,0.51550128 -0.17573907,0 -0.30461439,0 -0.30461439,0.21088688 0,0.12887532 0.10544344,0.12887532 0.30461439,0.12887532 H 6.3865001 c 0.2460347,0 0.2577507,-0.01171593 0.3280463,-0.18745501 z m 0,0"
           style="fill:#000000;fill-opacity:1;fill-rule:nonzero;stroke:none"
           aria-label="E"
           transform="matrix(1.3336533,0,0,1.3336533,90.189654,42.587544)"
           clip-path="url(#clipPath7)"
           id="path35" />
        <path
           d="m 136.4021,21.26009 c 0,4.88305 -3.95842,8.84146 -8.84148,8.84146 -4.88305,0 -8.84146,-3.95841 -8.84146,-8.84146 0,-4.88306 3.95841,-8.84148 8.84146,-8.84148 4.88306,0 8.84148,3.95842 8.84148,8.84148 z"
           style="fill:none;stroke:#000000;stroke-width:0.79701;stroke-linecap:butt;stroke-linejoin:miter;stroke-miterlimit:10;stroke-dasharray:none;stroke-opacity:1"
           transform="matrix(1.3336533,0,0,-1.3336533,39.273437,65.970488)"
           clip-path="url(#clipPath8)"
           id="path36" />
        <path
           d="m 4.898075,-4.3687187 c 0.082012,-0.1288753 0.1054435,-0.1405912 0.1054435,-0.2460347 0,-0.2226028 -0.1523072,-0.2226028 -0.3397622,-0.2226028 H 0.6569054 L 0.52803008,-2.9276583 H 1.0318154 c 0.070296,-1.12473 0.4100579,-1.5230719 1.5347879,-1.5230719 h 0.9255591 l -3.04614389,3.97170301 c -0.0937275,0.11715938 -0.0937275,0.14059126 -0.0937275,0.2460347 0,0.23431877 0.14059126,0.23431877 0.35147814,0.23431877 H 4.8394953 L 5.0386663,-2.2012701 H 4.523165 C 4.429438,-1.0999719 4.2536984,-0.43216344 2.812638,-0.43216344 H 1.875363 Z m 0,0"
           style="fill:#000000;fill-opacity:1;fill-rule:nonzero;stroke:none"
           aria-label="z"
           transform="matrix(1.3336533,0,0,1.3336533,205.6747,40.849794)"
           clip-path="url(#clipPath9)"
           id="path37" />
        <path
           d="m 161.77734,13.89674 h 16.607 v 14.72667 h -16.607 z"
           style="fill:#80ff80;fill-opacity:1;fill-rule:nonzero;stroke:#000000;stroke-width:0.79701;stroke-linecap:butt;stroke-linejoin:miter;stroke-miterlimit:10;stroke-dasharray:none;stroke-opacity:1"
           transform="matrix(1.3336533,0,0,-1.3336533,39.273437,65.970488)"
           clip-path="url(#clipPath10)"
           id="path38" />
        <path
           d="m 1.7344323,-0.85646807 c -0.1054435,0.43348971 -0.1288754,0.51550128 -0.99585479,0.51550128 -0.18745501,0 -0.30461439,0 -0.30461439,0.21088688 0,0.12887532 0.10544344,0.12887532 0.30461439,0.12887532 H 4.3470865 c 2.272892,0 4.4286246,-2.29632391 4.4286246,-4.68637531 0,-1.5465038 -0.9372751,-2.7649614 -2.5657905,-2.7649614 H 2.542832 c -0.2108869,0 -0.3280463,0 -0.3280463,0.2108869 0,0.1288753 0.093727,0.1288753 0.3163304,0.1288753 0.1405912,0 0.3397622,0.011716 0.4686375,0.023432 0.1757391,0.023432 0.2460347,0.05858 0.2460347,0.1757391 0,0.035148 -0.011716,0.070296 -0.046864,0.1991709 z M 4.0893358,-6.7027212 c 0.1054435,-0.37491 0.1171594,-0.4100579 0.5857969,-0.4100579 h 1.1715939 c 1.0661503,0 1.9799935,0.574081 1.9799935,2.0151414 0,0.5389332 -0.2226028,2.3314717 -1.1481619,3.5264974 -0.3163304,0.3983419 -1.1833098,1.23017351 -2.5189267,1.23017351 H 2.929458 c -0.1640232,0 -0.1757391,0 -0.2460348,-0.0117159 -0.1054434,-0.0117159 -0.1405912,-0.0234319 -0.1405912,-0.10544344 0,-0.0351478 0,-0.0585797 0.05858,-0.25775064 z m 0,0"
           style="fill:#000000;fill-opacity:1;fill-rule:nonzero;stroke:none"
           aria-label="D"
           transform="matrix(1.3336533,0,0,1.3336533,259.87437,42.587544)"
           clip-path="url(#clipPath11)"
           id="path39" />
        <path
           d="m 265.43018,21.26009 c 0,5.69349 -4.61539,10.30888 -10.3089,10.30888 -5.6935,0 -10.30888,-4.61539 -10.30888,-10.30888 0,-5.69352 4.61538,-10.3089 10.30888,-10.3089 5.69351,0 10.3089,4.61538 10.3089,10.3089 z"
           style="fill:none;stroke:#000000;stroke-width:0.79701;stroke-linecap:butt;stroke-linejoin:miter;stroke-miterlimit:10;stroke-dasharray:none;stroke-opacity:1"
           transform="matrix(1.3336533,0,0,-1.3336533,39.273437,65.970488)"
           clip-path="url(#clipPath12)"
           id="path40" />
        <g
           aria-label="b&#10;x"
           transform="matrix(1.3336533,0,0,1.3336533,375.4701,42.770255)"
           clip-path="url(#clipPath13)"
           id="g42">
          <path
             d="M 3.0216961,-7.4753109 5.9858284,-6.127978 6.1147038,-6.3740127 3.033412,-8.1196875 -0.05959567,-6.3740127 0.06927965,-6.127978 Z m 0,0"
             style="fill:#000000;fill-opacity:1;fill-rule:nonzero;stroke:none"
             id="path41" />
          <path
             d="M 3.4932626,-2.531185 4.7702998,-3.9488135 C 4.9108911,-4.1011207 4.9811867,-4.1831322 5.883314,-4.1831322 v -0.5037854 c -0.386626,0.011716 -0.948991,0.023432 -1.0075707,0.023432 -0.2694666,0 -0.8083997,-0.011716 -1.1247301,-0.023432 v 0.5037854 c 0.1640232,0 0.2928985,0.023432 0.4217738,0.1054434 -0.046864,0.05858 -0.046864,0.082012 -0.093727,0.1288753 L 3.1652163,-2.9295269 2.0990659,-4.1831322 h 0.4334898 v -0.5037854 c -0.2811826,0.011716 -0.9724229,0.023432 -1.3121851,0.023432 -0.35147817,0 -0.84354757,-0.011716 -1.20674165,-0.023432 v 0.5037854 H 0.78688087 L 2.4856919,-2.1679909 1.0680634,-0.56290734 C 0.88060837,-0.3637364 0.48226647,-0.3637364 -0.04495074,-0.3637364 v 0.51550128 c 0.38662596,-0.0234319 0.94899099,-0.0351478 1.00757068,-0.0351478 0.26946656,0 0.90212726,0.0234319 1.12473006,0.0351478 V -0.3637364 c -0.1991709,0 -0.3983419,-0.0468637 -0.3983419,-0.11715938 0,-0.0117159 0,-0.0234319 0.070296,-0.10544344 L 2.8137382,-1.7813649 4.0204798,-0.3637364 H 3.598706 v 0.51550128 c 0.2811825,-0.0117159 0.948991,-0.0351478 1.3004692,-0.0351478 0.3514781,0 0.8435475,0.0234319 1.2067416,0.0351478 V -0.3637364 H 5.3326649 Z m 0,0"
             style="fill:#000000;fill-opacity:1;fill-rule:nonzero;stroke:none"
             id="path42" />
        </g>
        <path
           d="m 50.90189,21.26291 62.77087,-1.1e-4"
           style="fill:none;stroke:#000000;stroke-width:0.79701;stroke-linecap:butt;stroke-linejoin:miter;stroke-miterlimit:10;stroke-dasharray:none;stroke-opacity:1"
           transform="matrix(1.3336533,0,0,-1.3336533,39.273437,65.970488)"
           clip-path="url(#clipPath14)"
           id="path43" />
        <path
           d="M 4.66248,0 C 3.28098,0.25902 1.0361,1.0361 -0.51805,1.94269 V -1.94269 C 1.0361,-1.0361 3.28098,-0.25902 4.66248,0"
           style="fill:#000000;fill-opacity:1;fill-rule:nonzero;stroke:none"
           transform="matrix(1.3336533,0,0,-1.3336533,190.87349,37.613284)"
           clip-path="url(#clipPath15)"
           id="path44" />
        <g
           aria-label="q&#10;ϕ&#10;(z|x,y)"
           transform="matrix(1.3336533,0,0,1.3336533,121.61053,27.795995)"
           clip-path="url(#clipPath16)"
           id="g53">
          <path
             d="m 4.9315465,-4.6974313 c 0,-0.046864 -0.035148,-0.1171594 -0.1054435,-0.1171594 -0.1288753,0 -0.562365,0.4452057 -0.74982,0.761536 -0.2343188,-0.5975128 -0.6678085,-0.7732519 -1.0075707,-0.7732519 -1.2887532,0 -2.63608609,1.6167995 -2.63608609,3.1984511 0,1.07786634 0.64437659,1.74567481 1.44106039,1.74567481 0.4686375,0 0.8904113,-0.25775064 1.2887532,-0.65609253 -0.093727,0.38662596 -0.4569216,1.86283412 -0.4920694,1.95656172 -0.082012,0.3046143 -0.1757391,0.3514781 -0.7849679,0.363194 -0.1405912,0 -0.2460347,0 -0.2460347,0.2108869 0,0.011716 0,0.1288753 0.1405913,0.1288753 0.3514781,0 0.7263882,-0.035148 1.0895823,-0.035148 0.37491,0 0.7615359,0.035148 1.12473,0.035148 0.046864,0 0.199171,0 0.199171,-0.2226028 0,-0.1171594 -0.1171594,-0.1171594 -0.2928985,-0.1171594 -0.5155013,0 -0.5155013,-0.082012 -0.5155013,-0.175739 0,-0.082012 0.011716,-0.1405913 0.035148,-0.2460347 z m -3.0227121,4.58093185 c -0.6560925,0 -0.7029563,-0.84354755 -0.7029563,-1.03100255 0,-0.5155013 0.3163304,-1.710527 0.5037854,-2.1674486 0.3397622,-0.8083997 0.9021272,-1.2653213 1.3590488,-1.2653213 0.7029563,0 0.8552635,0.8786954 0.8552635,0.9607069 0,0.05858 -0.5975129,2.4486311 -0.6326607,2.4954949 -0.1640231,0.30461436 -0.7732519,1.00757065 -1.3824807,1.00757065 z m 0,0"
             style="fill:#000000;fill-opacity:1;fill-rule:nonzero;stroke:none"
             id="path45" />
          <path
             d="m 8.5488424,-3.6488548 c 0,-0.093727 -0.082012,-0.1054435 -0.1288753,-0.1054435 -0.1054435,0 -0.1054435,0.046864 -0.1405913,0.1757391 l -0.4569216,1.8276864 c -1.4059126,0.05858 -2.5423586,1.12473004 -2.5423586,2.1557326 0,0.7966838 0.6912404,1.4176285 1.6402314,1.4527763 -0.070296,0.2577507 -0.1171594,0.5037854 -0.187455,0.7498201 -0.093728,0.37491 -0.1640232,0.6795244 -0.1640232,0.7029563 0,0 0,0.093727 0.1171594,0.093727 0.1054435,0 0.1171594,-0.046864 0.1523072,-0.199171 L 7.1780776,1.8693521 c 1.4059126,-0.070296 2.5306427,-1.11301416 2.5306427,-2.14401672 0,-0.92555908 -0.7966838,-1.44106038 -1.6285154,-1.47620818 z M 8.0216252,-1.52827 c 0.5975128,0.046864 1.12473,0.3631941 1.12473,1.10129819 0,0.76153598 -0.5506491,1.93312981 -1.9214138,2.06200511 z M 6.9789067,1.6467492 C 6.721156,1.6350333 5.8541766,1.506158 5.8541766,0.54545106 c 0,-0.85526349 0.6326607,-1.94484576 1.9096979,-2.07372106 z m 0,0"
             style="fill:#000000;fill-opacity:1;fill-rule:nonzero;stroke:none"
             id="path46" />
          <path
             d="m 14.011399,2.6133141 c 0,-0.023432 0,-0.046864 -0.187455,-0.2343187 -1.359049,-1.3707648 -1.710527,-3.4327699 -1.710527,-5.1081491 0,-1.8979819 0.421773,-3.7959639 1.75739,-5.1550128 0.140592,-0.1288753 0.140592,-0.1523072 0.140592,-0.187455 0,-0.070296 -0.04686,-0.1054434 -0.105444,-0.1054434 -0.105443,0 -1.089582,0.7381041 -1.733959,2.1205848 -0.562365,1.2067416 -0.69124,2.4134833 -0.69124,3.3273264 0,0.8552635 0.117159,2.17916454 0.726388,3.40933805 0.644377,1.33561695 1.593368,2.05028915 1.698811,2.05028915 0.05858,0 0.105444,-0.035148 0.105444,-0.1171594 z m 0,0"
             style="fill:#000000;fill-opacity:1;fill-rule:nonzero;stroke:none"
             id="path47" />
          <path
             d="m 19.541321,-4.369385 c 0.08201,-0.1288753 0.105444,-0.1405913 0.105444,-0.2460347 0,-0.2226028 -0.152307,-0.2226028 -0.339762,-0.2226028 h -4.006851 l -0.128876,1.9096979 h 0.503786 c 0.07029,-1.1247301 0.410058,-1.523072 1.534788,-1.523072 h 0.925559 l -3.046144,3.97170307 c -0.09373,0.11715938 -0.09373,0.14059125 -0.09373,0.2460347 0,0.23431876162 0.140592,0.23431876162 0.351479,0.23431876162 H 19.48274 L 19.681913,-2.2019364 h -0.515502 c -0.09373,1.1012981 -0.269466,1.76910662 -1.710527,1.76910662 h -0.937275 z m 0,0"
             style="fill:#000000;fill-opacity:1;fill-rule:nonzero;stroke:none"
             id="path48" />
          <path
             d="m 21.954805,-7.790439 c 0,-0.187455 0,-0.3866259 -0.222603,-0.3866259 -0.210887,0 -0.210887,0.1991709 -0.210887,0.3866259 V 2.3321316 c 0,0.199171 0,0.3983419 0.210887,0.3983419 0.222603,0 0.222603,-0.1991709 0.222603,-0.3983419 z m 0,0"
             style="fill:#000000;fill-opacity:1;fill-rule:nonzero;stroke:none"
             id="path49" />
          <path
             d="m 27.021948,-2.6822899 1.277037,-1.4176285 c 0.140591,-0.1523072 0.210887,-0.2343188 1.113014,-0.2343188 v -0.5037853 c -0.386626,0.011716 -0.948991,0.023432 -1.00757,0.023432 -0.269467,0 -0.8084,-0.011716 -1.12473,-0.023432 v 0.5037853 c 0.164023,0 0.292898,0.023432 0.421773,0.1054435 -0.04686,0.05858 -0.04686,0.082012 -0.09373,0.1288753 l -0.913843,1.0192866 -1.066151,-1.2536054 h 0.43349 v -0.5037853 c -0.281183,0.011716 -0.972423,0.023432 -1.312185,0.023432 -0.351478,0 -0.843548,-0.011716 -1.206742,-0.023432 v 0.5037853 h 0.773252 l 1.698811,2.0151414 -1.417628,1.6050835 c -0.187455,0.19917095 -0.585797,0.19917095 -1.113014,0.19917095 V 6.5993162e-4 c 0.386626,-0.0234318716 0.948991,-0.0351478116 1.00757,-0.0351478116 0.269467,0 0.902127,0.02343187 1.12473,0.0351478116 V -0.51484135 c -0.199171,0 -0.398342,-0.0468637 -0.398342,-0.11715938 0,-0.0117159 0,-0.0234319 0.0703,-0.10544344 l 1.054434,-1.19502573 1.206742,1.41762855 H 27.127391 V 6.5993162e-4 C 27.408574,-0.01105601 28.076382,-0.03448788 28.42786,-0.03448788 c 0.351479,0 0.843548,0.02343187 1.206742,0.0351478116 V -0.51484135 H 28.86135 Z m 0,0"
             style="fill:#000000;fill-opacity:1;fill-rule:nonzero;stroke:none"
             id="path50" />
          <path
             d="m 32.086162,-0.01105601 c 0,-0.71467223 -0.269466,-1.14816189 -0.702956,-1.14816189 -0.351478,0 -0.574081,0.28118247 -0.574081,0.58579686 0,0.29289846 0.222603,0.57408097162 0.574081,0.57408097162 0.140591,0 0.281182,-0.0468637516 0.386626,-0.14059126162 0.03515,-0.0234319 0.04686,-0.0351478 0.05858,-0.0351478 0.01171,0 0.02343,0.0117159 0.02343,0.16402313 0,0.80839974 -0.386626,1.4644923 -0.74982,1.8276863 -0.117159,0.1171594 -0.117159,0.1405913 -0.117159,0.1640232 0,0.082012 0.05858,0.1288753 0.105443,0.1288753 0.128876,0 0.995855,-0.8435475 0.995855,-2.1205848 z m 0,0"
             style="fill:#000000;fill-opacity:1;fill-rule:nonzero;stroke:none"
             id="path51" />
          <path
             d="m 40.243384,-4.0999184 c 0.08201,-0.1523072 0.105444,-0.2343188 0.8084,-0.2343188 v -0.5037853 c -0.257751,0.011716 -0.585797,0.023432 -0.86698,0.023432 -0.269466,0 -0.761536,-0.011716 -0.984138,-0.023432 v 0.5037853 c 0.02343,0 0.503785,0 0.503785,0.1405913 0,0 -0.03515,0.1171593 -0.04686,0.1288753 l -1.253605,2.6829498 -1.382481,-2.9524164 h 0.585797 v -0.5037853 c -0.363194,0.011716 -1.347333,0.023432 -1.359049,0.023432 -0.304614,0 -0.796684,-0.011716 -1.241889,-0.023432 v 0.5037853 H 35.70932 L 37.747889,6.5993162e-4 37.490139,0.52787715 C 37.25582,1.0433784 36.904342,1.7931985 36.13109,1.7931985 c -0.152307,0 -0.175739,-0.011716 -0.257751,-0.046864 0.09373,-0.046864 0.351478,-0.1991709 0.351478,-0.574081 0,-0.36319403 -0.269466,-0.62094467 -0.63266,-0.62094467 -0.316331,0 -0.632661,0.19917094 -0.632661,0.63266067 0,0.5506491 0.515501,0.9958547 1.171594,0.9958547 0.843547,0 1.476208,-0.6795244 1.769106,-1.30046911 z m 0,0"
             style="fill:#000000;fill-opacity:1;fill-rule:nonzero;stroke:none"
             id="path52" />
          <path
             d="m 44.672009,-2.7291537 c 0,-0.8435475 -0.11716,-2.1674485 -0.714672,-3.397622 -0.656093,-1.3473329 -1.593368,-2.0502892 -1.710527,-2.0502892 -0.05858,0 -0.105444,0.035148 -0.105444,0.1054434 0,0.035148 0,0.05858 0.210887,0.2460347 1.06615,1.0895823 1.687095,2.8235411 1.687095,5.0964331 0,1.86283421 -0.398342,3.7842481 -1.757391,5.1667288 -0.140591,0.1288753 -0.140591,0.1523072 -0.140591,0.175739 0,0.070296 0.04686,0.1171594 0.105444,0.1171594 0.117159,0 1.089582,-0.74982 1.733958,-2.13230072 0.562365,-1.1950257 0.691241,-2.41348328 0.691241,-3.32732648 z m 0,0"
             style="fill:#000000;fill-opacity:1;fill-rule:nonzero;stroke:none"
             id="path53" />
        </g>
        <path
           d="M 8.59819,4.29932 29.97891,14.99088"
           style="fill:none;stroke:#000000;stroke-width:0.79701;stroke-linecap:butt;stroke-linejoin:miter;stroke-miterlimit:10;stroke-dasharray:none;stroke-opacity:1"
           transform="matrix(1.3336533,0,0,-1.3336533,39.273437,65.970488)"
           clip-path="url(#clipPath17)"
           id="path54" />
        <path
           d="M 4.66248,0 C 3.28098,0.25902 1.0361,1.0361 -0.51805,1.94269 V -1.94269 C 1.0361,-1.0361 3.28098,-0.25902 4.66248,0"
           style="fill:#000000;fill-opacity:1;fill-rule:nonzero;stroke:none"
           transform="matrix(1.1927662,-0.59640977,-0.59640977,-1.1927662,79.25491,45.977877)"
           clip-path="url(#clipPath18)"
           id="path55" />
        <path
           d="M 9.1379,37.95773 29.97899,27.5356"
           style="fill:none;stroke:#000000;stroke-width:0.79701;stroke-linecap:butt;stroke-linejoin:miter;stroke-miterlimit:10;stroke-dasharray:none;stroke-opacity:1"
           transform="matrix(1.3336533,0,0,-1.3336533,39.273437,65.970488)"
           clip-path="url(#clipPath19)"
           id="path56" />
        <path
           d="M 4.66248,0 C 3.28098,0.25902 1.0361,1.0361 -0.51805,1.94269 V -1.94269 C 1.0361,-1.0361 3.28098,-0.25902 4.66248,0"
           style="fill:#000000;fill-opacity:1;fill-rule:nonzero;stroke:none"
           transform="matrix(1.1927529,0.59646312,0.59646312,-1.1927529,79.255017,29.24753)"
           clip-path="url(#clipPath20)"
           id="path57" />
        <path
           d="m 136.81712,21.26337 19.91893,-3.2e-4"
           style="fill:none;stroke:#000000;stroke-width:0.79701;stroke-linecap:butt;stroke-linejoin:miter;stroke-miterlimit:10;stroke-dasharray:none;stroke-opacity:1"
           transform="matrix(1.3336533,0,0,-1.3336533,39.273437,65.970488)"
           clip-path="url(#clipPath21)"
           id="path58" />
        <path
           d="M 4.66248,0 C 3.28098,0.25902 1.0361,1.0361 -0.51805,1.94269 V -1.94269 C 1.0361,-1.0361 3.28098,-0.25902 4.66248,0"
           style="fill:#000000;fill-opacity:1;fill-rule:nonzero;stroke:none"
           transform="matrix(1.3336533,0,0,-1.3336533,248.30499,37.61295)"
           clip-path="url(#clipPath22)"
           id="path59" />
        <path
           d="m 9.59995,46.02017 c 56.28466,20.48502 95.5144,-1.10389 147.41726,-19.994"
           style="fill:none;stroke:#000000;stroke-width:0.79701;stroke-linecap:butt;stroke-linejoin:miter;stroke-miterlimit:10;stroke-dasharray:none;stroke-opacity:1"
           transform="matrix(1.3336533,0,0,-1.3336533,39.273437,65.970488)"
           clip-path="url(#clipPath23)"
           id="path60" />
        <path
           d="M 4.66248,0 C 3.28098,0.25902 1.0361,1.0361 -0.51805,1.94269 V -1.94269 C 1.0361,-1.0361 3.28098,-0.25902 4.66248,0"
           style="fill:#000000;fill-opacity:1;fill-rule:nonzero;stroke:none"
           transform="matrix(1.253234,0.45610944,0.45610944,-1.253234,248.67996,31.260586)"
           clip-path="url(#clipPath24)"
           id="path61" />
        <path
           d="m 178.80467,21.26291 60.97673,-9e-5"
           style="fill:none;stroke:#000000;stroke-width:0.79701;stroke-linecap:butt;stroke-linejoin:miter;stroke-miterlimit:10;stroke-dasharray:none;stroke-opacity:1"
           transform="matrix(1.3336533,0,0,-1.3336533,39.273437,65.970488)"
           clip-path="url(#clipPath25)"
           id="path62" />
        <path
           d="M 4.66248,0 C 3.28098,0.25902 1.0361,1.0361 -0.51805,1.94269 V -1.94269 C 1.0361,-1.0361 3.28098,-0.25902 4.66248,0"
           style="fill:#000000;fill-opacity:1;fill-rule:nonzero;stroke:none"
           transform="matrix(1.3336533,0,0,-1.3336533,359.0587,37.613257)"
           clip-path="url(#clipPath26)"
           id="path63" />
        <g
           aria-label="p&#10;θ&#10;(x|z,y)"
           transform="matrix(1.3336533,0,0,1.3336533,291.1432,28.594853)"
           clip-path="url(#clipPath27)"
           id="g72">
          <path
             d="m 0.49306408,1.3347897 c -0.0937275,0.3631941 -0.10544344,0.4452057 -0.58579691,0.4452057 -0.14059125,0 -0.25775064,0 -0.25775064,0.1991709 0,0.093728 0.0585797,0.1405913 0.14059126,0.1405913 0.29289846,0 0.60922879,-0.035148 0.92555912,-0.035148 0.35147819,0 0.72638819,0.035148 1.07786629,0.035148 0.046864,0 0.187455,0 0.187455,-0.2226028 0,-0.1171594 -0.1054434,-0.1171594 -0.2577506,-0.1171594 -0.5389332,0 -0.5389332,-0.082012 -0.5389332,-0.1757391 0,-0.1288753 0.4569216,-1.90969791 0.5272173,-2.17916449 0.1405912,0.31633033 0.4452056,0.69124035 1.0075706,0.69124035 1.2653214,0 2.6243702,-1.59336756 2.6243702,-3.19845116 0,-1.0192866 -0.6209447,-1.7456747 -1.4527763,-1.7456747 -0.5389332,0 -1.0661504,0.3983418 -1.4293445,0.8201156 -0.1054434,-0.5857969 -0.574081,-0.8201156 -0.9724229,-0.8201156 -0.50378531,0 -0.7146722,0.4334897 -0.80839971,0.6326606 -0.19917095,0.3631941 -0.3397622,1.0192866 -0.3397622,1.0544344 0,0.1054435 0.10544344,0.1054435 0.12887532,0.1054435 0.10544344,0 0.11715938,-0.011716 0.18745501,-0.2460347 C 0.84454223,-4.0545418 1.0554291,-4.581759 1.453771,-4.581759 c 0.187455,0 0.3397622,0.082012 0.3397622,0.5037853 0,0.2460347 -0.035148,0.3631941 -0.082011,0.5506491 z M 2.4144779,-3.3984493 C 2.4847736,-3.7030637 2.777672,-4.0076781 2.976843,-4.1717012 3.3634689,-4.5114634 3.6797993,-4.581759 3.8672543,-4.581759 c 0.4334897,0 0.6912403,0.3866259 0.6912403,1.0192866 0,0.6443766 -0.3631941,1.897982 -0.5506491,2.3197557 -0.37491,0.76153601 -0.9021272,1.1247301 -1.3004691,1.1247301 -0.7263882,0 -0.8669794,-0.9138432 -0.8669794,-0.9724229 0,-0.023432 0,-0.046864 0.035148,-0.175739 z m 0,0"
             style="fill:#000000;fill-opacity:1;fill-rule:nonzero;stroke:none"
             id="path64" />
          <path
             d="m 9.3093076,-2.136057 c 0,-0.9958547 -0.386626,-1.698811 -1.0427185,-1.698811 -1.1950257,0 -2.4251992,2.2143123 -2.4251992,3.99513493 0,0.76153598 0.2577506,1.69881107 1.0544344,1.69881107 1.1598779,0 2.4134833,-2.15573266 2.4134833,-3.995135 z m -2.5775064,1.0075707 c 0.37491,-1.6050835 1.0310025,-2.4837789 1.5230719,-2.4837789 0.4803535,0 0.4803535,0.8552635 0.4803535,1.0075707 0,0.4452057 -0.1405913,1.0895823 -0.2460347,1.4762082 z m 1.6870951,0.28118255 C 8.0439862,0.74606384 7.3996096,1.6364751 6.8958243,1.6364751 c -0.4217738,0 -0.4686375,-0.64437656 -0.4686375,-1.00757064 0,-0.50378535 0.1405912,-1.14816195 0.2343187,-1.47620821 z m 0,0"
             style="fill:#000000;fill-opacity:1;fill-rule:nonzero;stroke:none"
             id="path65" />
          <path
             d="m 13.781867,2.611827 c 0,-0.023432 0,-0.046864 -0.187455,-0.2343188 -1.359049,-1.3707647 -1.710527,-3.4327699 -1.710527,-5.108149 0,-1.897982 0.421774,-3.795964 1.757391,-5.1550128 0.140591,-0.1288753 0.140591,-0.1523072 0.140591,-0.187455 0,-0.070296 -0.04686,-0.1054435 -0.105443,-0.1054435 -0.105444,0 -1.089583,0.7381041 -1.733959,2.1205848 -0.562365,1.2067417 -0.691241,2.4134833 -0.691241,3.3273265 0,0.8552635 0.11716,2.17916448 0.726388,3.40933799 0.644377,1.33561691 1.593368,2.05028921 1.698812,2.05028921 0.05858,0 0.105443,-0.035148 0.105443,-0.1171594 z m 0,0"
             style="fill:#000000;fill-opacity:1;fill-rule:nonzero;stroke:none"
             id="path66" />
          <path
             d="m 18.18706,-2.6837771 1.277037,-1.4176285 c 0.140591,-0.1523072 0.210887,-0.2343187 1.113014,-0.2343187 v -0.5037854 c -0.386626,0.011716 -0.948991,0.023432 -1.007571,0.023432 -0.269466,0 -0.808399,-0.011716 -1.12473,-0.023432 v 0.5037854 c 0.164023,0 0.292899,0.023432 0.421774,0.1054434 -0.04686,0.05858 -0.04686,0.082012 -0.09373,0.1288753 L 17.85901,-3.082119 16.79286,-4.3357243 h 0.43349 v -0.5037854 c -0.281183,0.011716 -0.972423,0.023432 -1.312185,0.023432 -0.351478,0 -0.843548,-0.011716 -1.206742,-0.023432 v 0.5037854 h 0.773252 l 1.698811,2.0151413 -1.417628,1.60508355 C 15.574405,-0.5163285 15.176064,-0.5163285 14.648846,-0.5163285 V -8.2722147e-4 C 15.035472,-0.0242591 15.597837,-0.03597504 15.656417,-0.03597504 c 0.269467,0 0.902127,0.02343188 1.12473,0.0351478185 V -0.5163285 c -0.199171,0 -0.398342,-0.0468637 -0.398342,-0.11715938 0,-0.0117159 0,-0.0234319 0.0703,-0.10544345 l 1.054434,-1.19502567 1.206742,1.4176285 H 18.292503 V -8.2722147e-4 C 18.573686,-0.01254316 19.241494,-0.03597504 19.592972,-0.03597504 c 0.351478,0 0.843548,0.02343188 1.206742,0.0351478185 V -0.5163285 h -0.773252 z m 0,0"
             style="fill:#000000;fill-opacity:1;fill-rule:nonzero;stroke:none"
             id="path67" />
          <path
             d="m 22.767992,-7.7919261 c 0,-0.187455 0,-0.386626 -0.222603,-0.386626 -0.210887,0 -0.210887,0.199171 -0.210887,0.386626 V 2.3306445 c 0,0.1991709 0,0.3983419 0.210887,0.3983419 0.222603,0 0.222603,-0.199171 0.222603,-0.3983419 z m 0,0"
             style="fill:#000000;fill-opacity:1;fill-rule:nonzero;stroke:none"
             id="path68" />
          <path
             d="m 28.962794,-4.3708722 c 0.08201,-0.1288753 0.105443,-0.1405912 0.105443,-0.2460347 0,-0.2226028 -0.152307,-0.2226028 -0.339762,-0.2226028 h -4.006851 l -0.128875,1.9096979 h 0.503785 c 0.0703,-1.12473 0.410058,-1.5230719 1.534788,-1.5230719 h 0.925559 l -3.046144,3.97170301 c -0.09373,0.11715939 -0.09373,0.14059126 -0.09373,0.24603471 0,0.23431875853 0.140591,0.23431875853 0.351478,0.23431875853 h 4.135726 L 29.103385,-2.2034236 h -0.515501 c -0.09373,1.1012982 -0.269467,1.76910667 -1.710527,1.76910667 h -0.937275 z m 0,0"
             style="fill:#000000;fill-opacity:1;fill-rule:nonzero;stroke:none"
             id="path69" />
          <path
             d="m 31.856631,-0.01254316 c 0,-0.71467223 -0.269467,-1.14816194 -0.702957,-1.14816194 -0.351478,0 -0.574081,0.28118252 -0.574081,0.58579691 0,0.29289845 0.222603,0.57408096853 0.574081,0.57408096853 0.140592,0 0.281183,-0.0468637485 0.386626,-0.14059125853 0.03515,-0.0234319 0.04686,-0.0351478 0.05858,-0.0351478 0.01172,0 0.02343,0.0117159 0.02343,0.16402313 0,0.80839973 -0.386626,1.46449225 -0.74982,1.82768635 -0.11716,0.1171594 -0.11716,0.1405913 -0.11716,0.1640231 0,0.082012 0.05858,0.1288754 0.105444,0.1288754 0.128875,0 0.995855,-0.8435476 0.995855,-2.12058485 z m 0,0"
             style="fill:#000000;fill-opacity:1;fill-rule:nonzero;stroke:none"
             id="path70" />
          <path
             d="m 40.010924,-4.1014056 c 0.08201,-0.1523072 0.105443,-0.2343187 0.808399,-0.2343187 v -0.5037854 c -0.25775,0.011716 -0.585797,0.023432 -0.866979,0.023432 -0.269467,0 -0.761536,-0.011716 -0.984139,-0.023432 v 0.5037854 c 0.02343,0 0.503785,0 0.503785,0.1405912 0,0 -0.03515,0.1171594 -0.04686,0.1288753 l -1.253606,2.6829499 -1.38248,-2.9524164 h 0.585796 v -0.5037854 c -0.363194,0.011716 -1.347332,0.023432 -1.359048,0.023432 -0.304615,0 -0.796684,-0.011716 -1.24189,-0.023432 v 0.5037854 h 0.702956 L 37.515429,-8.2722147e-4 37.257678,0.52639 c -0.234319,0.5155013 -0.585797,1.2653213 -1.359049,1.2653213 -0.152307,0 -0.175739,-0.011716 -0.25775,-0.046864 0.09373,-0.046864 0.351478,-0.199171 0.351478,-0.574081 0,-0.36319409 -0.269467,-0.62094473 -0.632661,-0.62094473 -0.31633,0 -0.632661,0.19917095 -0.632661,0.63266063 0,0.5506491 0.515502,0.9958548 1.171594,0.9958548 0.843548,0 1.476208,-0.6795244 1.769107,-1.30046916 z m 0,0"
             style="fill:#000000;fill-opacity:1;fill-rule:nonzero;stroke:none"
             id="path71" />
          <path
             d="m 44.439548,-2.7306408 c 0,-0.8435476 -0.117159,-2.1674486 -0.714672,-3.3976221 -0.656093,-1.3473329 -1.593368,-2.0502892 -1.710527,-2.0502892 -0.05858,0 -0.105443,0.035148 -0.105443,0.1054435 0,0.035148 0,0.05858 0.210886,0.2460347 1.066151,1.0895822 1.687096,2.8235411 1.687096,5.0964331 0,1.86283415 -0.398342,3.784248 -1.757391,5.1667287 -0.140591,0.1288753 -0.140591,0.1523072 -0.140591,0.1757391 0,0.070296 0.04686,0.1171594 0.105443,0.1171594 0.117159,0 1.089582,-0.7498201 1.733959,-2.13230077 0.562365,-1.1950257 0.69124,-2.41348323 0.69124,-3.32732643 z m 0,0"
             style="fill:#000000;fill-opacity:1;fill-rule:nonzero;stroke:none"
             id="path72" />
        </g>
      </g>
    </g>
  </g>
</svg>
