<?xml version="1.0" encoding="UTF-8" standalone="no"?>
<!-- Created with Inkscape (http://www.inkscape.org/) -->

<svg
   version="1.1"
   id="svg1"
   width="253.98399"
   height="83.150665"
   viewBox="0 0 253.98399 83.150665"
   sodipodi:docname="chain-calc-page1.pdf"
   xmlns:inkscape="http://www.inkscape.org/namespaces/inkscape"
   xmlns:sodipodi="http://sodipodi.sourceforge.net/DTD/sodipodi-0.dtd"
   xmlns="http://www.w3.org/2000/svg"
   xmlns:svg="http://www.w3.org/2000/svg">
  <defs
     id="defs1">
    <clipPath
       clipPathUnits="userSpaceOnUse"
       id="clipPath1">
      <path
         d="M 0,0 H 453.543 V 283.465 H 0 Z"
         id="path1" />
    </clipPath>
    <clipPath
       clipPathUnits="userSpaceOnUse"
       id="clipPath2">
      <path
         d="M 0,0 H 453.543 V 283.465 H 0 Z"
         transform="matrix(1,0,0,-1,-2035.0648,2167.7639)"
         id="path2" />
    </clipPath>
    <clipPath
       clipPathUnits="userSpaceOnUse"
       id="clipPath3">
      <path
         d="M 0,0 H 453.543 V 283.465 H 0 Z"
         transform="matrix(1,0,0,-1,-2032.0078,2180.2828)"
         id="path3" />
    </clipPath>
    <clipPath
       clipPathUnits="userSpaceOnUse"
       id="clipPath4">
      <path
         d="M 0,0 H 453.543 V 283.465 H 0 Z"
         transform="matrix(1,0,0,-1,-2077.7029,2167.7639)"
         id="path4" />
    </clipPath>
    <clipPath
       clipPathUnits="userSpaceOnUse"
       id="clipPath5">
      <path
         d="M 0,0 H 453.543 V 283.465 H 0 Z"
         transform="matrix(1,0,0,-1,-2073.2538,2180.2828)"
         id="path5" />
    </clipPath>
    <clipPath
       clipPathUnits="userSpaceOnUse"
       id="clipPath6">
      <path
         d="M 0,0 H 453.543 V 283.465 H 0 Z"
         transform="translate(-2038.3758,-2170.1879)"
         id="path6" />
    </clipPath>
    <clipPath
       clipPathUnits="userSpaceOnUse"
       id="clipPath7">
      <path
         d="M 0,0 H 453.543 V 283.465 H 0 Z"
         transform="translate(-2069.206,-2170.1879)"
         id="path7" />
    </clipPath>
    <clipPath
       clipPathUnits="userSpaceOnUse"
       id="clipPath8">
      <path
         d="M 0,0 H 453.543 V 283.465 H 0 Z"
         transform="matrix(1,0,0,-1,-2056.4368,2176.3439)"
         id="path8" />
    </clipPath>
    <clipPath
       clipPathUnits="userSpaceOnUse"
       id="clipPath9">
      <path
         d="M 0,0 H 453.543 V 283.465 H 0 Z"
         transform="matrix(1,0,0,-1,-2120.6898,2167.7639)"
         id="path9" />
    </clipPath>
    <clipPath
       clipPathUnits="userSpaceOnUse"
       id="clipPath10">
      <path
         d="M 0,0 H 453.543 V 283.465 H 0 Z"
         transform="matrix(1,0,0,-1,-2118.0649,2180.2828)"
         id="path10" />
    </clipPath>
    <clipPath
       clipPathUnits="userSpaceOnUse"
       id="clipPath11">
      <path
         d="M 0,0 H 453.543 V 283.465 H 0 Z"
         transform="translate(-2038.3758,-2170.1879)"
         id="path11" />
    </clipPath>
    <clipPath
       clipPathUnits="userSpaceOnUse"
       id="clipPath12">
      <path
         d="M 0,0 H 453.543 V 283.465 H 0 Z"
         transform="translate(-2112.1932,-2170.1879)"
         id="path12" />
    </clipPath>
    <clipPath
       clipPathUnits="userSpaceOnUse"
       id="clipPath13">
      <path
         d="M 0,0 H 453.543 V 283.465 H 0 Z"
         transform="matrix(1,0,0,-1,-2099.8839,2176.3439)"
         id="path13" />
    </clipPath>
    <clipPath
       clipPathUnits="userSpaceOnUse"
       id="clipPath14">
      <path
         d="M 0,0 H 453.543 V 283.465 H 0 Z"
         transform="matrix(1,0,0,-1,-2163.5018,2167.8389)"
         id="path14" />
    </clipPath>
    <clipPath
       clipPathUnits="userSpaceOnUse"
       id="clipPath15">
      <path
         d="M 0,0 H 453.543 V 283.465 H 0 Z"
         transform="matrix(1,0,0,-1,-2162.3388,2180.2069)"
         id="path15" />
    </clipPath>
    <clipPath
       clipPathUnits="userSpaceOnUse"
       id="clipPath16">
      <path
         d="M 0,0 H 453.543 V 283.465 H 0 Z"
         transform="translate(-2038.3758,-2170.1879)"
         id="path16" />
    </clipPath>
    <clipPath
       clipPathUnits="userSpaceOnUse"
       id="clipPath17">
      <path
         d="M 0,0 H 453.543 V 283.465 H 0 Z"
         transform="translate(-2155.006,-2170.1879)"
         id="path17" />
    </clipPath>
    <clipPath
       clipPathUnits="userSpaceOnUse"
       id="clipPath18">
      <path
         d="M 0,0 H 453.543 V 283.465 H 0 Z"
         transform="matrix(1,0,0,-1,-2142.3508,2174.2219)"
         id="path18" />
    </clipPath>
    <clipPath
       clipPathUnits="userSpaceOnUse"
       id="clipPath19">
      <path
         d="M 0,0 H 453.543 V 283.465 H 0 Z"
         transform="matrix(1,0,0,-1,-65.552001,143.972)"
         id="path19" />
    </clipPath>
    <clipPath
       clipPathUnits="userSpaceOnUse"
       id="clipPath20">
      <path
         d="M 0,0 H 190.488 V 62.363 H 0 Z"
         transform="matrix(1.3347333,0,0,-1.3347333,-0.13333333,83.194667)"
         id="path20" />
    </clipPath>
  </defs>
  <sodipodi:namedview
     id="namedview1"
     pagecolor="#ffffff"
     bordercolor="#000000"
     borderopacity="0.25"
     inkscape:showpageshadow="2"
     inkscape:pageopacity="0.0"
     inkscape:pagecheckerboard="0"
     inkscape:deskcolor="#d1d1d1">
    <inkscape:page
       x="0"
       y="0"
       inkscape:label="1"
       id="page1"
       width="253.98399"
       height="83.150665"
       margin="0"
       bleed="0" />
  </sodipodi:namedview>
  <g
     id="g1"
     inkscape:groupmode="layer"
     inkscape:label="1">
    <g
       id="g53">
      <g
         clip-path="url(#clipPath20)"
         id="g52">
        <path
           d="M 0,0 H 453.543 V 283.465 H 0 Z"
           style="fill:#ffffff;fill-opacity:1;fill-rule:nonzero;stroke:none"
           transform="matrix(1.3347333,0,0,-1.3347333,-18.293715,253.45192)"
           clip-path="url(#clipPath1)"
           id="path21" />
        <path
           d="m 3.7705785,-2.6799701 1.2877104,-1.4164814 c 0.1404775,-0.152184 0.1990098,-0.2341292 1.1121136,-0.2341292 v -0.5150841 c -0.3863131,0.023413 -0.9599296,0.035119 -1.0067554,0.035119 -0.2692486,0 -0.8194521,-0.023413 -1.12382,-0.035119 v 0.5150841 c 0.1521839,0 0.280955,0.023413 0.409726,0.093652 -0.035119,0.070239 -0.035119,0.093652 -0.081945,0.1404775 L 3.4545042,-3.0779896 2.37751,-4.3305807 h 0.433139 v -0.5150841 c -0.280955,0.011706 -0.9599296,0.035119 -1.3111234,0.035119 -0.3511937,0 -0.84286495,-0.023413 -1.20576515,-0.035119 v 0.5150841 H 1.0663867 l 1.7091429,2.0018044 -1.4281879,1.60378476 C 1.1600384,-0.51427529 0.76201878,-0.51427529 0.24693461,-0.51427529 V 8.0886769e-4 C 0.62154128,-0.02260405 1.1951577,-0.03431051 1.2419836,-0.03431051 c 0.280955,0 0.9131037,0.02341292 1.12382,0.0351193777 V -0.51427529 c -0.1990098,0 -0.3980196,-0.0468258 -0.3980196,-0.11706459 0,-0.0117065 0,-0.0234129 0.070239,-0.10535812 l 1.0652877,-1.1940587 1.1940588,1.41648141 H 3.8759367 V 8.0886769e-4 C 4.1568917,-0.01089759 4.8241598,-0.03431051 5.18706,-0.03431051 c 0.3511937,0 0.8311585,0.02341292 1.1940587,0.0351193777 V -0.51427529 H 5.6084925 Z m 0,0"
           style="fill:#000000;fill-opacity:1;fill-rule:nonzero;stroke:none"
           aria-label="x"
           transform="matrix(1.3347333,0,0,1.3347333,2697.9751,-2639.9347)"
           clip-path="url(#clipPath2)"
           id="path22" />
        <g
           aria-label="R&#10;d"
           transform="matrix(1.3347333,0,0,1.3347333,2693.8948,-2656.6442)"
           clip-path="url(#clipPath3)"
           id="g24">
          <path
             d="m 2.9264013,-3.4302405 h 0.3863132 l 1.6389041,2.54030148 c 0.1053581,0.16389041 0.3746067,0.59702937 0.4916713,0.76091978 0.081945,0.12877104261 0.1053581,0.12877104261 0.3629002,0.12877104261 h 1.4984266 c 0.1990098,0 0.3629002,0 0.3629002,-0.19900979261 0,-0.0819452 -0.058532,-0.16389041 -0.1638904,-0.18730333 C 7.1056069,-0.46850653 6.5671098,-1.1943069 6.3095678,-1.5337942 6.2276226,-1.6508588 5.6891255,-2.3649528 4.9516186,-3.547305 c 0.971636,-0.1755969 1.9081527,-0.5853229 1.9081527,-1.8847398 0,-1.5218396 -1.6037848,-2.0369237 -2.8914952,-2.0369237 H 0.54999032 c -0.19900979,0 -0.37460666,0 -0.37460666,0.1873033 0,0.1873033 0.21071624,0.1873033 0.29266145,0.1873033 0.62044229,0 0.67897459,0.081945 0.67897459,0.6204423 v 5.466916 c 0,0.55020353 -0.058532,0.62044228 -0.67897459,0.62044228 -0.0819452,0 -0.29266145,0 -0.29266145,0.18730333 0,0.19900979261 0.17559687,0.19900979261 0.37460666,0.19900979261 H 3.5351372 c 0.1990098,0 0.3629002,0 0.3629002,-0.19900979261 0,-0.18730333 -0.1873034,-0.18730333 -0.3043679,-0.18730333 -0.6204423,0 -0.6672682,-0.0819452 -0.6672682,-0.62044228 z m 2.1071625,-0.5267906 c 0.3043679,-0.409726 0.3394873,-0.9833425 0.3394873,-1.4633073 0,-0.5267906 -0.070239,-1.100407 -0.4214325,-1.5569589 0.4448454,0.1053581 1.533546,0.4448454 1.533546,1.5452525 0,0.7023875 -0.3277808,1.2642975 -1.4516008,1.4750137 z M 2.9264013,-6.4973325 c 0,-0.2341292 0,-0.5970294 0.6789746,-0.5970294 0.9248102,0 1.3813621,0.3863131 1.3813621,1.6740235 0,1.404775 -0.3394873,1.6154913 -2.0603367,1.6154913 z m -1.4867202,6.11077118 c 0.081945,-0.18730333 0.081945,-0.49167124 0.081945,-0.59702937 V -6.4973325 c 0,-0.1053581 0,-0.3980196 -0.081945,-0.5970294 h 1.2408846 c -0.1404775,0.1755969 -0.1404775,0.3980196 -0.1404775,0.56191 v 5.54886121 c 0,0.10535813 0,0.40972604 0.093652,0.59702937 z M 3.7692663,-3.4302405 c 0.070239,-0.011706 0.1170646,-0.023413 0.1990098,-0.023413 0.1638904,0 0.4097261,-0.011706 0.5736165,-0.035119 0.1638904,0.257542 1.3345362,2.2008141 2.2476399,3.10221138 H 5.7242449 Z m 0,0"
             style="fill:#000000;fill-opacity:1;fill-rule:nonzero;stroke:none"
             id="path23" />
          <path
             d="m 12.162797,-9.2483502 c 0.01171,-0.023413 0.03512,-0.1170646 0.03512,-0.128771 0,-0.035119 -0.03512,-0.1170646 -0.128771,-0.1170646 -0.03512,0 -0.280955,0.023413 -0.456552,0.046826 l -0.444845,0.035119 c -0.175597,0.011707 -0.257542,0.023413 -0.257542,0.1638904 0,0.1053581 0.105358,0.1053581 0.19901,0.1053581 0.386313,0 0.386313,0.046826 0.386313,0.1287711 0,0.046826 -0.05853,0.3043679 -0.105358,0.4682583 l -0.386313,1.5569589 c -0.07024,-0.1404775 -0.304368,-0.4799647 -0.784333,-0.4799647 -0.9599298,0 -2.0018045,1.100407 -2.0018045,2.2827593 0,0.8311585 0.538497,1.3111233 1.1472329,1.3111233 0.5150841,0 0.9482226,-0.409726 1.1004066,-0.5736164 0.140478,0.5502035 0.678975,0.5736164 0.772627,0.5736164 0.374606,0 0.550203,-0.3043679 0.620442,-0.4448454 0.152184,-0.280955 0.269248,-0.7492133 0.269248,-0.7726262 0,-0.046826 -0.03512,-0.1053581 -0.128771,-0.1053581 -0.09365,0 -0.105358,0.046826 -0.16389,0.2458356 -0.105358,0.4331389 -0.257542,0.8545714 -0.573616,0.8545714 -0.175597,0 -0.245836,-0.1521839 -0.245836,-0.3746066 0,-0.152184 0.02341,-0.2458357 0.04683,-0.3511938 z M 10.46536,-4.823309 c -0.398019,0.5502036 -0.8194516,0.7258004 -1.0769937,0.7258004 -0.3629002,0 -0.5502036,-0.3394873 -0.5502036,-0.7492133 0,-0.3746067 0.2224227,-1.2291781 0.3980196,-1.5803719 0.2341292,-0.4916712 0.6204423,-0.819452 0.9833427,-0.819452 0.515084,0 0.667268,0.5736164 0.667268,0.6789745 0,0.023413 -0.19901,0.8077457 -0.245836,1.0184619 -0.105358,0.3746067 -0.105358,0.3863131 -0.175597,0.7258004 z m 0,0"
             style="fill:#000000;fill-opacity:1;fill-rule:nonzero;stroke:none"
             id="path24" />
        </g>
        <path
           d="M 4.7771814,-0.78352383 V 0.07104762 L 6.708747,8.0886769e-4 V -0.51427529 c -0.6789746,0 -0.7492133,0 -0.7492133,-0.4214325 V -4.9041971 l -2.0018044,0.081945 v 0.5150841 c 0.6789746,0 0.7609198,0 0.7609198,0.4214325 v 2.0837496 c 0,0.90139728 -0.56191,1.47501374 -1.3579492,1.47501374 -0.8428649,0 -0.8779843,-0.26924854 -0.8779843,-0.86627794 v -3.7109472 l -1.99009792,0.081945 v 0.5150841 c 0.67897462,0 0.74921332,0 0.74921332,0.4214325 v 2.5403015 c 0,1.17064579 0.8896908,1.41648142 1.966685,1.41648142 0.280955,0 1.0652877,0 1.5686654,-0.85457105 z m 0,0"
           style="fill:#000000;fill-opacity:1;fill-rule:nonzero;stroke:none"
           aria-label="u"
           transform="matrix(1.3347333,0,0,1.3347333,2754.8855,-2639.9347)"
           clip-path="url(#clipPath4)"
           id="path25" />
        <g
           aria-label="R&#10;m"
           transform="matrix(1.3347333,0,0,1.3347333,2748.9472,-2656.6442)"
           clip-path="url(#clipPath5)"
           id="g27">
          <path
             d="m 2.9251803,-3.4302405 h 0.3863131 l 1.6389041,2.54030148 c 0.1053582,0.16389041 0.3746067,0.59702937 0.4916713,0.76091978 0.081945,0.12877104261 0.1053581,0.12877104261 0.3629002,0.12877104261 h 1.4984266 c 0.1990098,0 0.3629002,0 0.3629002,-0.19900979261 0,-0.0819452 -0.058532,-0.16389041 -0.1638904,-0.18730333 C 7.1043858,-0.46850653 6.5658888,-1.1943069 6.3083467,-1.5337942 6.2264015,-1.6508588 5.6879044,-2.3649528 4.9503975,-3.547305 c 0.9716361,-0.1755969 1.9081527,-0.5853229 1.9081527,-1.8847398 0,-1.5218396 -1.6037848,-2.0369237 -2.8914952,-2.0369237 H 0.54876924 c -0.19900979,0 -0.37460667,0 -0.37460667,0.1873033 0,0.1873033 0.21071625,0.1873033 0.29266146,0.1873033 0.62044227,0 0.67897457,0.081945 0.67897457,0.6204423 v 5.466916 c 0,0.55020353 -0.058532,0.62044228 -0.67897457,0.62044228 -0.0819452,0 -0.29266146,0 -0.29266146,0.18730333 0,0.19900979261 0.17559688,0.19900979261 0.37460667,0.19900979261 H 3.5339161 c 0.1990098,0 0.3629002,0 0.3629002,-0.19900979261 0,-0.18730333 -0.1873033,-0.18730333 -0.3043679,-0.18730333 -0.6204423,0 -0.6672681,-0.0819452 -0.6672681,-0.62044228 z M 5.0323427,-3.9570311 C 5.3367106,-4.3667571 5.37183,-4.9403736 5.37183,-5.4203384 c 0,-0.5267906 -0.070239,-1.100407 -0.4214325,-1.5569589 0.4448454,0.1053581 1.5335461,0.4448454 1.5335461,1.5452525 0,0.7023875 -0.3277809,1.2642975 -1.4516009,1.4750137 z M 2.9251803,-6.4973325 c 0,-0.2341292 0,-0.5970294 0.6789745,-0.5970294 0.9248102,0 1.3813621,0.3863131 1.3813621,1.6740235 0,1.404775 -0.3394873,1.6154913 -2.0603366,1.6154913 z m -1.4867202,6.11077118 c 0.081945,-0.18730333 0.081945,-0.49167124 0.081945,-0.59702937 V -6.4973325 c 0,-0.1053581 0,-0.3980196 -0.081945,-0.5970294 h 1.2408845 c -0.1404775,0.1755969 -0.1404775,0.3980196 -0.1404775,0.56191 v 5.54886121 c 0,0.10535813 0,0.40972604 0.093652,0.59702937 z M 3.7680452,-3.4302405 c 0.070239,-0.011706 0.1170646,-0.023413 0.1990098,-0.023413 0.1638905,0 0.4097261,-0.011706 0.5736165,-0.035119 0.1638904,0.257542 1.3345362,2.2008141 2.24764,3.10221138 H 5.7230238 Z m 0,0"
             style="fill:#000000;fill-opacity:1;fill-rule:nonzero;stroke:none"
             id="path26" />
          <path
             d="m 9.472017,-5.2681544 c 0.023413,-0.1170646 0.1053581,-0.4214325 0.1287711,-0.5384971 0.023413,-0.081945 0.070239,-0.2692485 0.093652,-0.3511937 0.011706,-0.035119 0.2692486,-0.56191 0.6204419,-0.8194521 0.280955,-0.2107162 0.538497,-0.2692485 0.76092,-0.2692485 0.292661,0 0.456552,0.1755968 0.456552,0.538497 0,0.1873034 -0.04683,0.3746067 -0.140478,0.7375069 -0.04683,0.1990098 -0.187303,0.7375069 -0.234129,0.9482231 l -0.117065,0.4799648 c -0.04683,0.1404775 -0.09365,0.3746067 -0.09365,0.4214325 0,0.1755969 0.140477,0.2458356 0.245835,0.2458356 0.152184,0 0.269249,-0.093652 0.327781,-0.1990098 0.02341,-0.046826 0.08194,-0.3160743 0.117065,-0.4799647 l 0.187303,-0.714094 c 0.02341,-0.1170646 0.105358,-0.4214325 0.128771,-0.5384971 0.117065,-0.4331389 0.117065,-0.4331389 0.292662,-0.7023875 0.269248,-0.3863131 0.643855,-0.7375068 1.170645,-0.7375068 0.292662,0 0.456552,0.1638904 0.456552,0.538497 0,0.4448455 -0.327781,1.3579492 -0.479964,1.7442623 -0.08195,0.1990098 -0.105359,0.2575421 -0.105359,0.4097261 0,0.4565518 0.374607,0.6789745 0.714094,0.6789745 0.784333,0 1.112114,-1.12382 1.112114,-1.2174716 0,-0.081945 -0.07024,-0.1053581 -0.128771,-0.1053581 -0.09365,0 -0.105358,0.058532 -0.128771,0.128771 -0.187304,0.6672681 -0.526791,0.971636 -0.831159,0.971636 -0.128771,0 -0.187303,-0.081945 -0.187303,-0.2692485 0,-0.1755969 0.05853,-0.3511938 0.140477,-0.5502035 0.117065,-0.304368 0.468259,-1.2291782 0.468259,-1.6740236 0,-0.5970293 -0.409726,-0.8779843 -0.983343,-0.8779843 -0.550203,0 -1.006755,0.280955 -1.369655,0.7726262 -0.05853,-0.6321487 -0.573617,-0.7726262 -0.983343,-0.7726262 -0.374606,0 -0.854571,0.128771 -1.2994163,0.7023875 -0.046826,-0.4799648 -0.433139,-0.7023875 -0.8077456,-0.7023875 -0.280955,0 -0.4799648,0.1638904 -0.6087358,0.4331389 -0.1990098,0.3746067 -0.280955,0.7726263 -0.280955,0.7843327 0,0.070239 0.058532,0.1053581 0.128771,0.1053581 0.093652,0 0.1053581,-0.035119 0.1638904,-0.2458356 0.093652,-0.3863131 0.2341292,-0.8545714 0.5736165,-0.8545714 0.2107162,0 0.2575421,0.1990098 0.2575421,0.3746066 0,0.1404775 -0.046826,0.2926615 -0.1053582,0.5502036 -0.011706,0.070239 -0.1404775,0.538497 -0.1638904,0.6555616 l -0.3043679,1.1940588 c -0.023413,0.1170645 -0.070239,0.3160743 -0.070239,0.3511937 0,0.1755969 0.152184,0.2458356 0.2458357,0.2458356 0.1521839,0 0.2692485,-0.093652 0.3277808,-0.1990098 0.023413,-0.046826 0.081945,-0.3160743 0.128771,-0.4799647 z m 0,0"
             style="fill:#000000;fill-opacity:1;fill-rule:nonzero;stroke:none"
             id="path27" />
        </g>
        <path
           d="M 7.14589,0 H 30.83023"
           style="fill:none;stroke:#000000;stroke-width:0.79701;stroke-linecap:butt;stroke-linejoin:miter;stroke-miterlimit:10;stroke-dasharray:none;stroke-opacity:1"
           transform="matrix(1.3347333,0,0,-1.3347333,2702.3944,-2643.1701)"
           clip-path="url(#clipPath6)"
           id="path28" />
        <path
           d="M 4.66248,0 C 3.28098,0.25902 1.0361,1.0361 -0.51805,1.94269 V -1.94269 C 1.0361,-1.0361 3.28098,-0.25902 4.66248,0"
           style="fill:#000000;fill-opacity:1;fill-rule:nonzero;stroke:none"
           transform="matrix(1.3347333,0,0,-1.3347333,2743.5445,-2643.1701)"
           clip-path="url(#clipPath7)"
           id="path29" />
        <path
           d="m 4.0028472,-4.3665339 h 0.9365166 c 0.2224227,0 0.3277809,0 0.3277809,-0.2107163 0,-0.128771 -0.1053582,-0.128771 -0.2926615,-0.128771 H 4.0730859 l 0.2224227,-1.2408846 c 0.046826,-0.2341291 0.1990098,-1.0067554 0.2692486,-1.1355264 0.093652,-0.2107163 0.280955,-0.3746067 0.5033777,-0.3746067 0.046826,0 0.3277808,0 0.5384971,0.1990098 -0.4799648,0.046826 -0.585323,0.433139 -0.585323,0.5970294 0,0.2458356 0.1873034,0.3746066 0.3980196,0.3746066 0.280955,0 0.5970294,-0.2341291 0.5970294,-0.6555616 0,-0.5033777 -0.4916713,-0.7492134 -0.9482231,-0.7492134 -0.3629002,0 -1.0535813,0.1990098 -1.3813621,1.276004 -0.070239,0.2341292 -0.093652,0.3394873 -0.3629002,1.7091429 H 2.5746593 c -0.2107163,0 -0.3277809,0 -0.3277809,0.2107162 0,0.1287711 0.093652,0.1287711 0.304368,0.1287711 H 3.2770468 L 2.4575947,-0.0585573 C 2.2585849,1.0067304 2.0712816,2.0017793 1.5093716,2.0017793 c -0.046826,0 -0.3160744,0 -0.52679064,-0.1990097 0.50337774,-0.035119 0.59702934,-0.433139 0.59702934,-0.5970294 0,-0.24583563 -0.1990098,-0.37460667 -0.3980195,-0.37460667 -0.29266151,0 -0.60873588,0.23412917 -0.60873588,0.65556167 0,0.4916712 0.47996478,0.7492133 0.93651668,0.7492133 0.5970293,0 1.0301683,-0.6438552 1.2291781,-1.0535812 0.3511937,-0.69068106 0.5970294,-2.01351084 0.6087358,-2.08374959 z m 0,0"
           style="fill:#000000;fill-opacity:1;fill-rule:nonzero;stroke:none"
           aria-label="f"
           transform="matrix(1.3347333,0,0,1.3347333,2726.501,-2651.3867)"
           clip-path="url(#clipPath8)"
           id="path30" />
        <path
           d="m 5.5255093,-4.0964515 c 0.058532,-0.152184 0.1053581,-0.2341292 0.8077456,-0.2341292 v -0.5150841 c -0.280955,0.023413 -0.5970294,0.035119 -0.8662779,0.035119 -0.2692485,0 -0.7609198,-0.023413 -0.9950489,-0.035119 v 0.5150841 c 0.2107162,0 0.5267906,0.035119 0.5267906,0.1170646 0,0.011706 -0.011707,0.035119 -0.058532,0.128771 L 3.6758889,-1.3571403 2.2945268,-4.3305807 h 0.5853229 v -0.5150841 c -0.3629002,0.023413 -1.3462427,0.035119 -1.3579491,0.035119 -0.3043679,0 -0.79603917,-0.023413 -1.24088458,-0.035119 v 0.5150841 h 0.70238749 l 1.90815269,4.0972604 c 0.128771,0.280955 0.2692485,0.280955 0.409726,0.280955 0.1873034,0 0.304368,-0.03511937 0.4097261,-0.26924854 z m 0,0"
           style="fill:#000000;fill-opacity:1;fill-rule:nonzero;stroke:none"
           aria-label="v"
           transform="matrix(1.3347333,0,0,1.3347333,2812.2616,-2639.9347)"
           clip-path="url(#clipPath9)"
           id="path31" />
        <g
           aria-label="R&#10;c"
           transform="matrix(1.3347333,0,0,1.3347333,2808.758,-2656.6442)"
           clip-path="url(#clipPath10)"
           id="g33">
          <path
             d="m 2.9265023,-3.4302405 h 0.3863131 l 1.6389042,2.54030148 c 0.1053581,0.16389041 0.3746067,0.59702937 0.4916712,0.76091978 0.081945,0.12877104261 0.1053582,0.12877104261 0.3629002,0.12877104261 h 1.4984267 c 0.1990098,0 0.3629002,0 0.3629002,-0.19900979261 0,-0.0819452 -0.058532,-0.16389041 -0.1638904,-0.18730333 C 7.1057079,-0.46850653 6.5672108,-1.1943069 6.3096687,-1.5337942 6.2277235,-1.6508588 5.6892265,-2.3649528 4.9517196,-3.547305 c 0.971636,-0.1755969 1.9081527,-0.5853229 1.9081527,-1.8847398 0,-1.5218396 -1.6037848,-2.0369237 -2.8914952,-2.0369237 H 0.5500913 c -0.19900979,0 -0.37460666,0 -0.37460666,0.1873033 0,0.1873033 0.21071624,0.1873033 0.29266145,0.1873033 0.62044231,0 0.67897461,0.081945 0.67897461,0.6204423 v 5.466916 c 0,0.55020353 -0.058532,0.62044228 -0.67897461,0.62044228 -0.0819452,0 -0.29266145,0 -0.29266145,0.18730333 0,0.19900979261 0.17559687,0.19900979261 0.37460666,0.19900979261 h 2.9851468 c 0.1990098,0 0.3629003,0 0.3629003,-0.19900979261 0,-0.18730333 -0.1873034,-0.18730333 -0.304368,-0.18730333 -0.6204422,0 -0.6672681,-0.0819452 -0.6672681,-0.62044228 z m 2.1071625,-0.5267906 c 0.3043679,-0.409726 0.3394873,-0.9833425 0.3394873,-1.4633073 0,-0.5267906 -0.070239,-1.100407 -0.4214325,-1.5569589 0.4448454,0.1053581 1.533546,0.4448454 1.533546,1.5452525 0,0.7023875 -0.3277808,1.2642975 -1.4516008,1.4750137 z M 2.9265023,-6.4973325 c 0,-0.2341292 0,-0.5970294 0.6789746,-0.5970294 0.9248102,0 1.3813621,0.3863131 1.3813621,1.6740235 0,1.404775 -0.3394873,1.6154913 -2.0603367,1.6154913 z m -1.4867202,6.11077118 c 0.081945,-0.18730333 0.081945,-0.49167124 0.081945,-0.59702937 V -6.4973325 c 0,-0.1053581 0,-0.3980196 -0.081945,-0.5970294 h 1.2408846 c -0.1404775,0.1755969 -0.1404775,0.3980196 -0.1404775,0.56191 v 5.54886121 c 0,0.10535813 0,0.40972604 0.093652,0.59702937 z M 3.7693673,-3.4302405 c 0.070239,-0.011706 0.1170646,-0.023413 0.1990098,-0.023413 0.1638904,0 0.409726,-0.011706 0.5736165,-0.035119 0.1638904,0.257542 1.3345362,2.2008141 2.2476399,3.10221138 H 5.7243458 Z m 0,0"
             style="fill:#000000;fill-opacity:1;fill-rule:nonzero;stroke:none"
             id="path32" />
          <path
             d="m 11.144436,-7.0124167 c -0.327781,0.046826 -0.433139,0.2926615 -0.433139,0.4448454 0,0.2341292 0.19901,0.304368 0.304368,0.304368 0.04683,0 0.444845,-0.035119 0.444845,-0.5267907 0,-0.4799648 -0.515084,-0.6789745 -0.995049,-0.6789745 -1.135526,0 -2.2359331,1.100407 -2.2359331,2.2125206 0,0.7609197 0.5150842,1.381362 1.404775,1.381362 1.2525911,0 1.9198591,-0.8077456 1.9198591,-0.9131037 0,-0.070239 -0.08194,-0.128771 -0.128771,-0.128771 -0.04683,0 -0.07024,0.023413 -0.105358,0.070239 -0.632149,0.7492133 -1.5335462,0.7492133 -1.6740237,0.7492133 -0.4331389,0 -0.7726262,-0.2692485 -0.7726262,-0.8662779 0,-0.3511937 0.1638904,-1.2057652 0.5384971,-1.6974364 0.3511937,-0.4448454 0.7492128,-0.5853229 1.0535808,-0.5853229 0.09365,0 0.468259,0 0.678975,0.2341288 z m 0,0"
             style="fill:#000000;fill-opacity:1;fill-rule:nonzero;stroke:none"
             id="path33" />
        </g>
        <path
           d="M 50.133,0 H 73.81734"
           style="fill:none;stroke:#000000;stroke-width:0.79701;stroke-linecap:butt;stroke-linejoin:miter;stroke-miterlimit:10;stroke-dasharray:none;stroke-opacity:1"
           transform="matrix(1.3347333,0,0,-1.3347333,2702.3944,-2643.1701)"
           clip-path="url(#clipPath11)"
           id="path34" />
        <path
           d="M 4.66248,0 C 3.28098,0.25902 1.0361,1.0361 -0.51805,1.94269 V -1.94269 C 1.0361,-1.0361 3.28098,-0.25902 4.66248,0"
           style="fill:#000000;fill-opacity:1;fill-rule:nonzero;stroke:none"
           transform="matrix(1.3347333,0,0,-1.3347333,2800.9209,-2643.1701)"
           clip-path="url(#clipPath12)"
           id="path35" />
        <path
           d="m 5.1398933,-4.1089918 c 0.011706,-0.070239 0.035119,-0.1287711 0.035119,-0.1990098 0,-0.1873034 -0.1287711,-0.2926615 -0.3160744,-0.2926615 -0.1170646,0 -0.409726,0.070239 -0.4448454,0.4682583 -0.1990098,-0.409726 -0.5853229,-0.690681 -1.0184619,-0.690681 -1.2408845,0 -2.59883369,1.533546 -2.59883369,3.1022114 0,1.07699419 0.66726809,1.720849393257 1.45160079,1.720849393257 0.6438552,0 1.1589394,-0.515084163257 1.2642975,-0.632148743257 l 0.011707,0.0117065 C 3.2902729,0.35116874 3.1615019,0.79601415 3.1615019,0.81942707 3.1263825,0.91307873 2.7517758,2.0017793 1.5928365,2.0017793 c -0.2107163,0 -0.56191,-0.011706 -0.86627794,-0.1170645 C 1.0426329,1.7910631 1.171404,1.5101081 1.171404,1.3228048 c 0,-0.1755969 -0.1287711,-0.38631315 -0.42143252,-0.38631315 -0.23412917,0 -0.58532292,0.19900975 -0.58532292,0.63214875 0,0.4448454 0.39801958,0.6672681 1.45160084,0.6672681 1.3579491,0 2.1539883,-0.8545714 2.3178787,-1.5101331 z m -1.4164814,2.7158983 c -0.070239,0.280955 -0.3160744,0.5502035 -0.56191,0.76091975 -0.2224227,0.19900979 -0.56191,0.38631312 -0.8779844,0.38631312 -0.5502035,0 -0.7140939,-0.56190999 -0.7140939,-0.99504897 0,-0.5267906 0.3160743,-1.814501 0.6087358,-2.3647045 0.3043679,-0.5384971 0.7726262,-0.9716361 1.2291781,-0.9716361 0.7140939,0 0.8662779,0.8779844 0.8662779,0.9365167 0,0.046826 -0.023413,0.1170646 -0.023413,0.1638904 z m 0,0"
           style="fill:#000000;fill-opacity:1;fill-rule:nonzero;stroke:none"
           aria-label="g"
           transform="matrix(1.3347333,0,0,1.3347333,2784.4912,-2651.3867)"
           clip-path="url(#clipPath13)"
           id="path36" />
        <path
           d="m 1.4501795,-0.90168039 c 0.585323,-0.63214871 0.9013973,-0.91310371 1.2994169,-1.25259101 0,-0.011707 0.6789746,-0.5853229 1.0652877,-0.9716361 1.0418748,-1.0184618 1.276004,-1.5452524 1.276004,-1.5920783 0,-0.1053581 -0.093652,-0.1053581 -0.1170646,-0.1053581 -0.081945,0 -0.1053582,0.023413 -0.1638904,0.1170646 -0.3277809,0.5267906 -0.56191,0.7023875 -0.8194521,0.7023875 -0.2575421,0 -0.3863131,-0.1638904 -0.5502036,-0.3511938 -0.2107162,-0.2458356 -0.3980195,-0.4682583 -0.7609197,-0.4682583 -0.8194521,0 -1.3111234,1.0184619 -1.3111234,1.2408846 0,0.058532 0.023413,0.128771 0.1287711,0.128771 0.093652,0 0.1170646,-0.058532 0.1404775,-0.128771 0.2107162,-0.5033777 0.842865,-0.5150842 0.9248102,-0.5150842 0.2341291,0 0.4331389,0.081945 0.690681,0.1638904 0.433139,0.1638904 0.5502035,0.1638904 0.842865,0.1638904 -0.3980196,0.4799648 -1.3111233,1.2642975 -1.5218396,1.4398944 L 1.590657,-1.4167646 c -0.73750682,0.72580045 -1.12381995,1.34624274 -1.12381995,1.42818795 0,0.10535812 0.10535813,0.10535812 0.12877104,0.10535812 0.0936517,0 0.11706459,-0.02341291 0.17559688,-0.1404775 C 1.028747,-0.39830269 1.3565279,-0.7026706 1.6960152,-0.7026706 c 0.257542,0 0.3629002,0.10535812 0.6321487,0.42143249 0.1873033,0.22242271 0.3863131,0.39801958 0.7023875,0.39801958 1.0769942,0 1.7091429,-1.38136207 1.7091429,-1.67402357 0,-0.058532 -0.035119,-0.1170645 -0.128771,-0.1170645 -0.093652,0 -0.1170646,0.070239 -0.152184,0.1521839 -0.2458356,0.70238751 -0.9482231,0.91310376 -1.3111233,0.91310376 -0.2107163,0 -0.4097261,-0.0702388 -0.6438552,-0.1404775 -0.3629002,-0.1404775 -0.5267906,-0.18730333 -0.7609198,-0.18730333 -0.023413,0 -0.1990098,0 -0.2926615,0.0351194 z m 0,0"
           style="fill:#000000;fill-opacity:1;fill-rule:nonzero;stroke:none"
           aria-label="z"
           transform="matrix(1.3347333,0,0,1.3347333,2869.4042,-2640.0348)"
           clip-path="url(#clipPath14)"
           id="path37" />
        <path
           d="m 2.9263273,-3.4301485 h 0.3863131 l 1.6389042,2.54030146 c 0.1053581,0.16389041 0.3746066,0.59702937 0.4916712,0.76091978 0.081945,0.12877104103 0.1053581,0.12877104103 0.3629002,0.12877104103 h 1.4984267 c 0.1990098,0 0.3629002,0 0.3629002,-0.19900979103 0,-0.0819452 -0.058532,-0.16389041 -0.1638904,-0.18730333 C 7.1055329,-0.46841455 6.5670358,-1.194215 6.3094937,-1.5337022 6.2275485,-1.6507668 5.6890514,-2.3648608 4.9515446,-3.5472131 c 0.971636,-0.1755968 1.9081527,-0.5853229 1.9081527,-1.8847397 0,-1.5218396 -1.6037848,-2.0369238 -2.8914952,-2.0369238 H 0.54991628 c -0.19900979,0 -0.37460666,0 -0.37460666,0.1873034 0,0.1873033 0.21071625,0.1873033 0.29266146,0.1873033 0.62044232,0 0.67897462,0.081945 0.67897462,0.6204423 v 5.466916 c 0,0.55020351 -0.058532,0.62044226 -0.67897462,0.62044226 -0.0819452,0 -0.29266146,0 -0.29266146,0.18730333 0,0.19900979103 0.17559687,0.19900979103 0.37460666,0.19900979103 H 3.5350631 c 0.1990098,0 0.3629002,0 0.3629002,-0.19900979103 0,-0.18730333 -0.1873033,-0.18730333 -0.3043679,-0.18730333 -0.6204423,0 -0.6672681,-0.0819452 -0.6672681,-0.62044226 z m 2.1071625,-0.5267906 c 0.3043679,-0.409726 0.3394873,-0.9833425 0.3394873,-1.4633073 0,-0.5267906 -0.070239,-1.100407 -0.4214325,-1.5569589 0.4448454,0.1053581 1.533546,0.4448454 1.533546,1.5452525 0,0.7023875 -0.3277808,1.2642975 -1.4516008,1.4750137 z M 2.9263273,-6.4972405 c 0,-0.2341292 0,-0.5970294 0.6789746,-0.5970294 0.9248102,0 1.381362,0.3863131 1.381362,1.6740235 0,1.404775 -0.3394872,1.6154913 -2.0603366,1.6154913 z m -1.4867202,6.11077116 c 0.081945,-0.18730333 0.081945,-0.49167125 0.081945,-0.59702937 V -6.4972405 c 0,-0.1053582 0,-0.3980196 -0.081945,-0.5970294 h 1.2408846 c -0.1404775,0.1755969 -0.1404775,0.3980196 -0.1404775,0.56191 v 5.54886119 c 0,0.10535812 0,0.40972604 0.093652,0.59702937 z M 3.7691923,-3.4301485 c 0.070239,-0.011706 0.1170646,-0.023413 0.1990098,-0.023413 0.1638904,0 0.409726,-0.011707 0.5736164,-0.035119 0.1638905,0.2575421 1.3345363,2.2008142 2.24764,3.10221146 H 5.7241708 Z m 0,0"
           style="fill:#000000;fill-opacity:1;fill-rule:nonzero;stroke:none"
           aria-label="R"
           transform="matrix(1.3347333,0,0,1.3347333,2867.8519,-2656.5428)"
           clip-path="url(#clipPath15)"
           id="path38" />
        <path
           d="m 92.94586,0 h 23.68433"
           style="fill:none;stroke:#000000;stroke-width:0.79701;stroke-linecap:butt;stroke-linejoin:miter;stroke-miterlimit:10;stroke-dasharray:none;stroke-opacity:1"
           transform="matrix(1.3347333,0,0,-1.3347333,2702.3944,-2643.1701)"
           clip-path="url(#clipPath16)"
           id="path39" />
        <path
           d="M 4.66248,0 C 3.28098,0.25902 1.0361,1.0361 -0.51805,1.94269 V -1.94269 C 1.0361,-1.0361 3.28098,-0.25902 4.66248,0"
           style="fill:#000000;fill-opacity:1;fill-rule:nonzero;stroke:none"
           transform="matrix(1.3347333,0,0,-1.3347333,2858.0646,-2643.1701)"
           clip-path="url(#clipPath17)"
           id="path40" />
        <path
           d="m 3.1245597,-7.4572433 c 0,0 0,-0.1170646 -0.1404775,-0.1170646 -0.2458356,0 -1.0418748,0.093652 -1.3228298,0.1170646 -0.093652,0 -0.2107162,0.011706 -0.2107162,0.2107162 0,0.128771 0.093652,0.128771 0.257542,0.128771 0.5267907,0 0.5502036,0.081945 0.5502036,0.1873034 L 2.2231624,-6.70803 0.64279054,-0.42166195 c -0.0468258,0.15218396 -0.0468258,0.17559687 -0.0468258,0.23412916 0,0.25754208 0.2224227,0.30436792 0.31607437,0.30436792 0.17559689,0 0.35119369,-0.12877104 0.40972599,-0.280955 L 1.5207749,-0.9952784 1.7666105,-1.9786209 c 0.070239,-0.2341292 0.1287711,-0.4799648 0.1873034,-0.7258004 0.023413,-0.070239 0.1053581,-0.4214325 0.1170645,-0.4916712 0.035119,-0.093652 0.3746067,-0.714094 0.7375069,-1.0067555 0.2458356,-0.1755968 0.5853229,-0.3746066 1.0535813,-0.3746066 0.4682583,0 0.5853229,0.3629002 0.5853229,0.7609198 0,0.5853229 -0.4097261,1.7793816 -0.6789746,2.4466497 -0.081945,0.2458357 -0.1404775,0.3746067 -0.1404775,0.5970294 0,0.51508416 0.3863131,0.88969083 0.9013973,0.88969083 1.0184618,0 1.4281879,-1.59207833 1.4281879,-1.67402353 0,-0.1170646 -0.1053582,-0.1170646 -0.1287711,-0.1170646 -0.1170646,0 -0.1170646,0.035119 -0.1638904,0.1990098 -0.1638904,0.58532292 -0.5150841,1.35794916 -1.1121135,1.35794916 -0.1873033,0 -0.2692486,-0.11706458 -0.2692486,-0.3629002 0,-0.26924854 0.1053582,-0.53849706 0.1990098,-0.77262626 0.1755969,-0.4682583 0.6672682,-1.7676752 0.6672682,-2.3998239 0,-0.714094 -0.433139,-1.1706458 -1.2525911,-1.1706458 -0.690681,0 -1.2174716,0.3394872 -1.6154912,0.842865 z m 0,0"
           style="fill:#000000;fill-opacity:1;fill-rule:nonzero;stroke:none"
           aria-label="h"
           transform="matrix(1.3347333,0,0,1.3347333,2841.1733,-2648.5544)"
           clip-path="url(#clipPath18)"
           id="path41" />
        <g
           aria-label="z=h(g(f(x)))"
           transform="matrix(1.3347333,0,0,1.3347333,69.200724,61.287688)"
           clip-path="url(#clipPath19)"
           id="g51">
          <path
             d="M 1.4504728,-0.90036784 C 2.0357957,-1.5325166 2.35187,-1.8134716 2.7498896,-2.1529589 c 0,-0.011706 0.6789746,-0.5853229 1.0652877,-0.971636 1.0418748,-1.0184619 1.276004,-1.5452525 1.276004,-1.5920783 0,-0.1053581 -0.093652,-0.1053581 -0.1170646,-0.1053581 -0.081945,0 -0.1053581,0.023413 -0.1638904,0.1170645 -0.3277809,0.5267907 -0.56191,0.7023875 -0.8194521,0.7023875 -0.2575421,0 -0.3863131,-0.1638904 -0.5502035,-0.3511937 -0.2107163,-0.2458356 -0.3980196,-0.4682583 -0.7609198,-0.4682583 -0.8194521,0 -1.3111233,1.0184618 -1.3111233,1.2408845 0,0.058532 0.023413,0.1287711 0.128771,0.1287711 0.093652,0 0.1170646,-0.058532 0.1404775,-0.1287711 0.2107162,-0.5033777 0.842865,-0.5150841 0.9248102,-0.5150841 0.2341292,0 0.433139,0.081945 0.690681,0.1638904 0.433139,0.1638904 0.5502036,0.1638904 0.842865,0.1638904 -0.3980196,0.4799648 -1.3111233,1.2642975 -1.5218395,1.4398944 L 1.5909503,-1.415452 c -0.7375069,0.72580041 -1.12382002,1.34624269 -1.12382002,1.4281879 0,0.10535813 0.10535812,0.10535813 0.12877104,0.10535813 0.0936517,0 0.11706458,-0.02341292 0.17559687,-0.1404775 0.25754211,-0.37460667 0.58532291,-0.67897458 0.92481021,-0.67897458 0.2575421,0 0.3629002,0.10535812 0.6321487,0.4214325 0.1873034,0.2224227 0.3863132,0.39801958 0.7023875,0.39801958 1.0769942,0 1.7091429,-1.38136203 1.7091429,-1.67402353 0,-0.058532 -0.035119,-0.1170646 -0.128771,-0.1170646 -0.093652,0 -0.1170646,0.070239 -0.152184,0.152184 -0.2458356,0.70238747 -0.9482231,0.91310372 -1.3111233,0.91310372 -0.2107162,0 -0.409726,-0.0702388 -0.6438552,-0.1404775 -0.3629002,-0.1404775 -0.5267906,-0.18730333 -0.7609198,-0.18730333 -0.023413,0 -0.1990098,0 -0.2926614,0.0351194 z m 0,0"
             style="fill:#000000;fill-opacity:1;fill-rule:nonzero;stroke:none"
             id="path42" />
          <path
             d="m 17.889267,-3.5694403 c 0.16389,0 0.374606,0 0.374606,-0.2107163 0,-0.2224227 -0.210716,-0.2224227 -0.3629,-0.2224227 h -6.532204 c -0.152183,0 -0.3629,0 -0.3629,0.2224227 0,0.2107163 0.210717,0.2107163 0.374607,0.2107163 z m 0.01171,2.1188689 c 0.152184,0 0.3629,0 0.3629,-0.2224227 0,-0.2107162 -0.210716,-0.2107162 -0.374606,-0.2107162 H 11.38048 c -0.16389,0 -0.374607,0 -0.374607,0.2107162 0,0.2224227 0.210717,0.2224227 0.3629,0.2224227 z m 0,0"
             style="fill:#000000;fill-opacity:1;fill-rule:nonzero;stroke:none"
             id="path43" />
          <path
             d="m 26.862267,-7.4559844 c 0,0 0,-0.1170646 -0.140478,-0.1170646 -0.245835,0 -1.041874,0.093652 -1.322829,0.1170646 -0.09365,0 -0.210717,0.011706 -0.210717,0.2107162 0,0.128771 0.09365,0.128771 0.257543,0.128771 0.52679,0 0.550203,0.081945 0.550203,0.1873034 l -0.03512,0.2224227 -1.580372,6.28636805 c -0.04683,0.15218396 -0.04683,0.17559687 -0.04683,0.23412916 0,0.25754208 0.222423,0.30436792 0.316074,0.30436792 0.175597,0 0.351194,-0.12877104 0.409726,-0.280955 l 0.19901,-0.83115853 0.245836,-0.9833425 c 0.07024,-0.2341292 0.128771,-0.4799648 0.187303,-0.7258004 0.02341,-0.070239 0.105358,-0.4214325 0.117065,-0.4916712 0.03512,-0.093652 0.374606,-0.714094 0.737507,-1.0067555 0.245835,-0.1755968 0.585322,-0.3746066 1.053581,-0.3746066 0.468258,0 0.585323,0.3629002 0.585323,0.7609198 0,0.5853229 -0.409726,1.7793816 -0.678975,2.4466497 -0.08195,0.2458357 -0.140477,0.3746067 -0.140477,0.5970294 0,0.51508416 0.386313,0.88969083 0.901397,0.88969083 1.018462,0 1.428188,-1.59207833 1.428188,-1.67402353 0,-0.1170646 -0.105358,-0.1170646 -0.128771,-0.1170646 -0.117065,0 -0.117065,0.035119 -0.163891,0.1990098 -0.16389,0.58532292 -0.515084,1.35794916 -1.112113,1.35794916 -0.187303,0 -0.269249,-0.11706458 -0.269249,-0.3629002 0,-0.26924854 0.105358,-0.53849706 0.19901,-0.77262626 0.175597,-0.4682583 0.667268,-1.7676752 0.667268,-2.3998239 0,-0.714094 -0.433139,-1.1706458 -1.252591,-1.1706458 -0.690681,0 -1.217471,0.3394872 -1.615491,0.8428649 z m 0,0"
             style="fill:#000000;fill-opacity:1;fill-rule:nonzero;stroke:none"
             id="path44" />
          <path
             d="m 33.6286,2.6232761 c 0,-0.035119 0,-0.058532 -0.175597,-0.2458356 -1.369656,-1.3696556 -1.720849,-3.4299923 -1.720849,-5.1040158 0,-1.8964463 0.421432,-3.7928925 1.755968,-5.1625481 0.140478,-0.128771 0.140478,-0.152184 0.140478,-0.1873033 0,-0.070239 -0.03512,-0.1053582 -0.105358,-0.1053582 -0.105358,0 -1.088701,0.7375069 -1.732556,2.1305754 -0.56191,1.1940588 -0.690681,2.4115304 -0.690681,3.3246342 0,0.8545714 0.128771,2.16569475 0.7258,3.40657932 0.655562,1.33453628 1.592079,2.04863018 1.697437,2.04863018 0.07024,0 0.105358,-0.035119 0.105358,-0.1053581 z m 0,0"
             style="fill:#000000;fill-opacity:1;fill-rule:nonzero;stroke:none"
             id="path45" />
          <path
             d="m 39.40281,-4.1079374 c 0.01171,-0.070239 0.03512,-0.128771 0.03512,-0.1990098 0,-0.1873033 -0.128771,-0.2926614 -0.316075,-0.2926614 -0.117064,0 -0.409726,0.070239 -0.444845,0.4682583 -0.19901,-0.409726 -0.585323,-0.690681 -1.018462,-0.690681 -1.240885,0 -2.598834,1.533546 -2.598834,3.1022114 0,1.07699414 0.667268,1.72084934 1.451601,1.72084934 0.643855,0 1.158939,-0.51508416 1.264298,-0.63214874 l 0.01171,0.0117065 c -0.234129,0.97163603 -0.3629,1.41648144 -0.3629,1.43989436 -0.03512,0.0936517 -0.409726,1.18235224 -1.568666,1.18235224 -0.210716,0 -0.56191,-0.011706 -0.866277,-0.1170646 0.316074,-0.093652 0.444845,-0.3746066 0.444845,-0.56191 0,-0.1755969 -0.128771,-0.38631306 -0.421433,-0.38631306 -0.234129,0 -0.585322,0.19900976 -0.585322,0.63214866 0,0.4448455 0.398019,0.6672682 1.4516,0.6672682 1.35795,0 2.153989,-0.8545715 2.317879,-1.51013311 z m -1.416481,2.7158983 c -0.07024,0.280955 -0.316075,0.55020355 -0.56191,0.7609198 -0.222423,0.19900979 -0.56191,0.38631312 -0.877984,0.38631312 -0.550204,0 -0.714094,-0.56190999 -0.714094,-0.99504892 0,-0.5267906 0.316074,-1.8145011 0.608735,-2.3647046 0.304368,-0.5384971 0.772627,-0.971636 1.229178,-0.971636 0.714094,0 0.866278,0.8779843 0.866278,0.9365166 0,0.046826 -0.02341,0.1170646 -0.02341,0.1638905 z m 0,0"
             style="fill:#000000;fill-opacity:1;fill-rule:nonzero;stroke:none"
             id="path46" />
          <path
             d="m 43.464951,2.6232761 c 0,-0.035119 0,-0.058532 -0.175597,-0.2458356 -1.369655,-1.3696556 -1.720849,-3.4299923 -1.720849,-5.1040158 0,-1.8964463 0.421433,-3.7928925 1.755969,-5.1625481 0.140477,-0.128771 0.140477,-0.152184 0.140477,-0.1873033 0,-0.070239 -0.03512,-0.1053582 -0.105358,-0.1053582 -0.105358,0 -1.0887,0.7375069 -1.732556,2.1305754 -0.56191,1.1940588 -0.690681,2.4115304 -0.690681,3.3246342 0,0.8545714 0.128771,2.16569475 0.725801,3.40657932 0.655561,1.33453628 1.592078,2.04863018 1.697436,2.04863018 0.07024,0 0.105358,-0.035119 0.105358,-0.1053581 z m 0,0"
             style="fill:#000000;fill-opacity:1;fill-rule:nonzero;stroke:none"
             id="path47" />
          <path
             d="m 48.106562,-4.3654795 h 0.936517 c 0.222422,0 0.32778,0 0.32778,-0.2107162 0,-0.1287711 -0.105358,-0.1287711 -0.292661,-0.1287711 h -0.901397 l 0.222422,-1.2408845 c 0.04683,-0.2341292 0.19901,-1.0067554 0.269249,-1.1355265 0.09365,-0.2107162 0.280955,-0.3746066 0.503378,-0.3746066 0.04683,0 0.327781,0 0.538497,0.1990097 -0.479965,0.046826 -0.585323,0.433139 -0.585323,0.5970294 0,0.2458356 0.187303,0.3746067 0.398019,0.3746067 0.280955,0 0.59703,-0.2341292 0.59703,-0.6555617 0,-0.5033777 -0.491671,-0.7492133 -0.948223,-0.7492133 -0.362901,0 -1.053582,0.1990098 -1.381362,1.2760039 -0.07024,0.2341292 -0.09365,0.3394873 -0.362901,1.7091429 h -0.749213 c -0.210716,0 -0.327781,0 -0.327781,0.2107163 0,0.128771 0.09365,0.128771 0.304368,0.128771 h 0.725801 L 46.56131,-0.05750285 C 46.3623,1.0077849 46.174996,2.0028338 45.613086,2.0028338 c -0.04683,0 -0.316074,0 -0.52679,-0.1990098 0.503377,-0.035119 0.597029,-0.4331389 0.597029,-0.5970294 0,-0.24583558 -0.19901,-0.37460662 -0.398019,-0.37460662 -0.292662,0 -0.608736,0.23412912 -0.608736,0.65556162 0,0.4916713 0.479965,0.7492134 0.936516,0.7492134 0.59703,0 1.030169,-0.6438552 1.229179,-1.0535813 0.351193,-0.69068101 0.597029,-2.01351079 0.608735,-2.08374954 z m 0,0"
             style="fill:#000000;fill-opacity:1;fill-rule:nonzero;stroke:none"
             id="path48" />
          <path
             d="m 54.217333,2.6232761 c 0,-0.035119 0,-0.058532 -0.175597,-0.2458356 -1.369655,-1.3696556 -1.720849,-3.4299923 -1.720849,-5.1040158 0,-1.8964463 0.421432,-3.7928925 1.755969,-5.1625481 0.140477,-0.128771 0.140477,-0.152184 0.140477,-0.1873033 0,-0.070239 -0.03512,-0.1053582 -0.105358,-0.1053582 -0.105358,0 -1.088701,0.7375069 -1.732556,2.1305754 -0.56191,1.1940588 -0.690681,2.4115304 -0.690681,3.3246342 0,0.8545714 0.128771,2.16569475 0.725801,3.40657932 0.655561,1.33453628 1.592078,2.04863018 1.697436,2.04863018 0.07024,0 0.105358,-0.035119 0.105358,-0.1053581 z m 0,0"
             style="fill:#000000;fill-opacity:1;fill-rule:nonzero;stroke:none"
             id="path49" />
          <path
             d="m 58.624815,-2.6797495 1.28771,-1.4164814 c 0.140478,-0.152184 0.19901,-0.2341292 1.112114,-0.2341292 v -0.5150842 c -0.386313,0.023413 -0.95993,0.035119 -1.006756,0.035119 -0.269248,0 -0.819452,-0.023413 -1.12382,-0.035119 v 0.5150842 c 0.152184,0 0.280955,0.023413 0.409726,0.093652 -0.03512,0.070239 -0.03512,0.093652 -0.08195,0.1404775 l -0.913104,1.0184618 -1.076994,-1.252591 H 57.66488 V -4.845444 c -0.280955,0.011706 -0.959929,0.035119 -1.311123,0.035119 -0.351194,0 -0.842865,-0.023413 -1.205765,-0.035119 v 0.5150842 h 0.772626 l 1.709143,2.0018044 -1.428188,1.60378473 c -0.187303,0.21071625 -0.585323,0.21071625 -1.100407,0.21071625 v 0.51508416 c 0.374606,-0.02341291 0.948223,-0.03511937 0.995049,-0.03511937 0.280955,0 0.913103,0.02341292 1.12382,0.03511937 v -0.51508416 c -0.19901,0 -0.39802,-0.0468258 -0.39802,-0.11706458 0,-0.0117065 0,-0.0234129 0.07024,-0.10535812 l 1.065288,-1.19405878 1.194058,1.41648148 h -0.421432 v 0.51508416 c 0.280955,-0.01170645 0.948223,-0.03511937 1.311123,-0.03511937 0.351194,0 0.831159,0.02341292 1.194059,0.03511937 v -0.51508416 h -0.772626 z m 0,0"
             style="fill:#000000;fill-opacity:1;fill-rule:nonzero;stroke:none"
             id="path50" />
          <path
             d="m 64.624375,-2.7265753 c 0,-0.8545715 -0.117065,-2.1656948 -0.714094,-3.4065794 -0.655562,-1.3345362 -1.592079,-2.0486302 -1.709143,-2.0486302 -0.05853,0 -0.105358,0.046826 -0.105358,0.1053582 0,0.035119 0,0.058532 0.210716,0.2575421 1.065288,1.0769941 1.68573,2.8095499 1.68573,5.0923093 0,1.86132684 -0.39802,3.781186 -1.755969,5.1625481 -0.140477,0.128771 -0.140477,0.1521839 -0.140477,0.1873033 0,0.058532 0.04683,0.1053581 0.105358,0.1053581 0.117064,0 1.100407,-0.7375069 1.744262,-2.13057539 0.550204,-1.19405874 0.678975,-2.41153041 0.678975,-3.32463411 z m 4.243591,0 c 0,-0.8545715 -0.117065,-2.1656948 -0.714094,-3.4065794 -0.655562,-1.3345362 -1.592079,-2.0486302 -1.709143,-2.0486302 -0.05853,0 -0.105358,0.046826 -0.105358,0.1053582 0,0.035119 0,0.058532 0.210716,0.2575421 1.065288,1.0769941 1.68573,2.8095499 1.68573,5.0923093 0,1.86132684 -0.39802,3.781186 -1.755969,5.1625481 -0.140477,0.128771 -0.140477,0.1521839 -0.140477,0.1873033 0,0.058532 0.04683,0.1053581 0.105358,0.1053581 0.117064,0 1.100407,-0.7375069 1.744262,-2.13057539 0.550204,-1.19405874 0.678975,-2.41153041 0.678975,-3.32463411 z m 4.240664,0 c 0,-0.8545715 -0.117064,-2.1656948 -0.714094,-3.4065794 -0.655561,-1.3345362 -1.592078,-2.0486302 -1.709143,-2.0486302 -0.05853,0 -0.105358,0.046826 -0.105358,0.1053582 0,0.035119 0,0.058532 0.210716,0.2575421 1.065288,1.0769941 1.68573,2.8095499 1.68573,5.0923093 0,1.86132684 -0.398019,3.781186 -1.755968,5.1625481 -0.140478,0.128771 -0.140478,0.1521839 -0.140478,0.1873033 0,0.058532 0.04683,0.1053581 0.105358,0.1053581 0.117065,0 1.100407,-0.7375069 1.744263,-2.13057539 0.550203,-1.19405874 0.678974,-2.41153041 0.678974,-3.32463411 z m 0,0"
             style="fill:#000000;fill-opacity:1;fill-rule:nonzero;stroke:none"
             id="path51" />
        </g>
      </g>
    </g>
  </g>
</svg>
