<?xml version="1.0" encoding="UTF-8" standalone="no"?>
<!-- Created with Inkscape (http://www.inkscape.org/) -->

<svg
   version="1.1"
   id="svg1"
   width="1056"
   height="816"
   viewBox="0 0 1056 816"
   sodipodi:docname="polyfit3.pdf"
   xmlns:inkscape="http://www.inkscape.org/namespaces/inkscape"
   xmlns:sodipodi="http://sodipodi.sourceforge.net/DTD/sodipodi-0.dtd"
   xmlns="http://www.w3.org/2000/svg"
   xmlns:svg="http://www.w3.org/2000/svg">
  <defs
     id="defs1">
    <clipPath
       clipPathUnits="userSpaceOnUse"
       id="clipPath2">
      <path
         d="M 220,170 V 7730 H 5890 V 170 Z"
         id="path2" />
    </clipPath>
    <clipPath
       clipPathUnits="userSpaceOnUse"
       id="clipPath4">
      <path
         d="M 220,170 V 7730 H 5890 V 170 Z"
         id="path4" />
    </clipPath>
    <clipPath
       clipPathUnits="userSpaceOnUse"
       id="clipPath6">
      <path
         d="M 220,170 V 7730 H 5890 V 170 Z"
         id="path6" />
    </clipPath>
    <clipPath
       clipPathUnits="userSpaceOnUse"
       id="clipPath8">
      <path
         d="M 220,170 V 7730 H 5890 V 170 Z"
         id="path8" />
    </clipPath>
    <clipPath
       clipPathUnits="userSpaceOnUse"
       id="clipPath10">
      <path
         d="M 220,170 V 7730 H 5890 V 170 Z"
         id="path10" />
    </clipPath>
    <clipPath
       clipPathUnits="userSpaceOnUse"
       id="clipPath12">
      <path
         d="M 220,170 V 7730 H 5890 V 170 Z"
         id="path12" />
    </clipPath>
    <clipPath
       clipPathUnits="userSpaceOnUse"
       id="clipPath14">
      <path
         d="M 220,170 V 7730 H 5890 V 170 Z"
         id="path14" />
    </clipPath>
    <clipPath
       clipPathUnits="userSpaceOnUse"
       id="clipPath16">
      <path
         d="M 220,170 V 7730 H 5890 V 170 Z"
         id="path16" />
    </clipPath>
    <clipPath
       clipPathUnits="userSpaceOnUse"
       id="clipPath18">
      <path
         d="M 220,170 V 7730 H 5890 V 170 Z"
         id="path18" />
    </clipPath>
    <clipPath
       clipPathUnits="userSpaceOnUse"
       id="clipPath20">
      <path
         d="M 220,170 V 7730 H 5890 V 170 Z"
         transform="matrix(0,0.1,0.1,0,-28.250001,-588.91702)"
         id="path20" />
    </clipPath>
    <clipPath
       clipPathUnits="userSpaceOnUse"
       id="clipPath22">
      <path
         d="M 220,170 V 7730 H 5890 V 170 Z"
         id="path22" />
    </clipPath>
    <clipPath
       clipPathUnits="userSpaceOnUse"
       id="clipPath24">
      <path
         d="M 220,170 V 7730 H 5890 V 170 Z"
         id="path24" />
    </clipPath>
    <clipPath
       clipPathUnits="userSpaceOnUse"
       id="clipPath26">
      <path
         d="M 220,170 V 7730 H 5890 V 170 Z"
         transform="matrix(0,0.1,0.1,0,-101.583,-588.91702)"
         id="path26" />
    </clipPath>
    <clipPath
       clipPathUnits="userSpaceOnUse"
       id="clipPath28">
      <path
         d="M 220,170 V 7730 H 5890 V 170 Z"
         id="path28" />
    </clipPath>
    <clipPath
       clipPathUnits="userSpaceOnUse"
       id="clipPath30">
      <path
         d="M 220,170 V 7730 H 5890 V 170 Z"
         id="path30" />
    </clipPath>
    <clipPath
       clipPathUnits="userSpaceOnUse"
       id="clipPath32">
      <path
         d="M 220,170 V 7730 H 5890 V 170 Z"
         transform="matrix(0,0.1,0.1,0,-174.91701,-588.91702)"
         id="path32" />
    </clipPath>
    <clipPath
       clipPathUnits="userSpaceOnUse"
       id="clipPath34">
      <path
         d="M 220,170 V 7730 H 5890 V 170 Z"
         id="path34" />
    </clipPath>
    <clipPath
       clipPathUnits="userSpaceOnUse"
       id="clipPath36">
      <path
         d="M 220,170 V 7730 H 5890 V 170 Z"
         id="path36" />
    </clipPath>
    <clipPath
       clipPathUnits="userSpaceOnUse"
       id="clipPath38">
      <path
         d="M 220,170 V 7730 H 5890 V 170 Z"
         transform="matrix(0,0.1,0.1,0,-248.25001,-588.91702)"
         id="path38" />
    </clipPath>
    <clipPath
       clipPathUnits="userSpaceOnUse"
       id="clipPath40">
      <path
         d="M 220,170 V 7730 H 5890 V 170 Z"
         id="path40" />
    </clipPath>
    <clipPath
       clipPathUnits="userSpaceOnUse"
       id="clipPath42">
      <path
         d="M 220,170 V 7730 H 5890 V 170 Z"
         id="path42" />
    </clipPath>
    <clipPath
       clipPathUnits="userSpaceOnUse"
       id="clipPath44">
      <path
         d="M 220,170 V 7730 H 5890 V 170 Z"
         transform="matrix(0,0.1,0.1,0,-321.58301,-588.91702)"
         id="path44" />
    </clipPath>
    <clipPath
       clipPathUnits="userSpaceOnUse"
       id="clipPath46">
      <path
         d="M 220,170 V 7730 H 5890 V 170 Z"
         id="path46" />
    </clipPath>
    <clipPath
       clipPathUnits="userSpaceOnUse"
       id="clipPath48">
      <path
         d="M 220,170 V 7730 H 5890 V 170 Z"
         id="path48" />
    </clipPath>
    <clipPath
       clipPathUnits="userSpaceOnUse"
       id="clipPath50">
      <path
         d="M 220,170 V 7730 H 5890 V 170 Z"
         transform="matrix(0,0.1,0.1,0,-400.75001,-588.91702)"
         id="path50" />
    </clipPath>
    <clipPath
       clipPathUnits="userSpaceOnUse"
       id="clipPath52">
      <path
         d="M 220,170 V 7730 H 5890 V 170 Z"
         id="path52" />
    </clipPath>
    <clipPath
       clipPathUnits="userSpaceOnUse"
       id="clipPath54">
      <path
         d="M 220,170 V 7730 H 5890 V 170 Z"
         id="path54" />
    </clipPath>
    <clipPath
       clipPathUnits="userSpaceOnUse"
       id="clipPath56">
      <path
         d="M 220,170 V 7730 H 5890 V 170 Z"
         transform="matrix(0,0.1,0.1,0,-474.08301,-588.91702)"
         id="path56" />
    </clipPath>
    <clipPath
       clipPathUnits="userSpaceOnUse"
       id="clipPath58">
      <path
         d="M 220,170 V 7730 H 5890 V 170 Z"
         id="path58" />
    </clipPath>
    <clipPath
       clipPathUnits="userSpaceOnUse"
       id="clipPath60">
      <path
         d="M 220,170 V 7730 H 5890 V 170 Z"
         id="path60" />
    </clipPath>
    <clipPath
       clipPathUnits="userSpaceOnUse"
       id="clipPath62">
      <path
         d="M 220,170 V 7730 H 5890 V 170 Z"
         transform="matrix(0,0.1,0.1,0,-547.41701,-588.91702)"
         id="path62" />
    </clipPath>
    <clipPath
       clipPathUnits="userSpaceOnUse"
       id="clipPath64">
      <path
         d="M 220,170 V 7730 H 5890 V 170 Z"
         id="path64" />
    </clipPath>
    <clipPath
       clipPathUnits="userSpaceOnUse"
       id="clipPath66">
      <path
         d="M 220,170 V 7730 H 5890 V 170 Z"
         id="path66" />
    </clipPath>
    <clipPath
       clipPathUnits="userSpaceOnUse"
       id="clipPath68">
      <path
         d="M 220,170 V 7730 H 5890 V 170 Z"
         transform="matrix(0,0.1,0.1,0,-620.75002,-588.91702)"
         id="path68" />
    </clipPath>
    <clipPath
       clipPathUnits="userSpaceOnUse"
       id="clipPath70">
      <path
         d="M 220,170 V 7730 H 5890 V 170 Z"
         id="path70" />
    </clipPath>
    <clipPath
       clipPathUnits="userSpaceOnUse"
       id="clipPath72">
      <path
         d="M 220,170 V 7730 H 5890 V 170 Z"
         id="path72" />
    </clipPath>
    <clipPath
       clipPathUnits="userSpaceOnUse"
       id="clipPath74">
      <path
         d="M 220,170 V 7730 H 5890 V 170 Z"
         transform="matrix(0,0.1,0.1,0,-694.08302,-588.91702)"
         id="path74" />
    </clipPath>
    <clipPath
       clipPathUnits="userSpaceOnUse"
       id="clipPath76">
      <path
         d="M 220,170 V 7730 H 5890 V 170 Z"
         id="path76" />
    </clipPath>
    <clipPath
       clipPathUnits="userSpaceOnUse"
       id="clipPath78">
      <path
         d="M 220,170 V 7730 H 5890 V 170 Z"
         id="path78" />
    </clipPath>
    <clipPath
       clipPathUnits="userSpaceOnUse"
       id="clipPath80">
      <path
         d="M 220,170 V 7730 H 5890 V 170 Z"
         transform="matrix(0,0.1,0.1,0,-767.41704,-588.91702)"
         id="path80" />
    </clipPath>
    <clipPath
       clipPathUnits="userSpaceOnUse"
       id="clipPath82">
      <path
         d="M 220,170 V 7730 H 5890 V 170 Z"
         id="path82" />
    </clipPath>
    <clipPath
       clipPathUnits="userSpaceOnUse"
       id="clipPath84">
      <path
         d="M 220,170 V 7730 H 5890 V 170 Z"
         id="path84" />
    </clipPath>
    <clipPath
       clipPathUnits="userSpaceOnUse"
       id="clipPath86">
      <path
         d="M 220,170 V 7730 H 5890 V 170 Z"
         transform="matrix(0,0.1,0.1,0,-17.000001,-580.50001)"
         id="path86" />
    </clipPath>
    <clipPath
       clipPathUnits="userSpaceOnUse"
       id="clipPath88">
      <path
         d="M 220,170 V 7730 H 5890 V 170 Z"
         id="path88" />
    </clipPath>
    <clipPath
       clipPathUnits="userSpaceOnUse"
       id="clipPath90">
      <path
         d="M 220,170 V 7730 H 5890 V 170 Z"
         id="path90" />
    </clipPath>
    <clipPath
       clipPathUnits="userSpaceOnUse"
       id="clipPath92">
      <path
         d="M 220,170 V 7730 H 5890 V 170 Z"
         transform="matrix(0,0.1,0.1,0,-17.000001,-519.41701)"
         id="path92" />
    </clipPath>
    <clipPath
       clipPathUnits="userSpaceOnUse"
       id="clipPath94">
      <path
         d="M 220,170 V 7730 H 5890 V 170 Z"
         id="path94" />
    </clipPath>
    <clipPath
       clipPathUnits="userSpaceOnUse"
       id="clipPath96">
      <path
         d="M 220,170 V 7730 H 5890 V 170 Z"
         id="path96" />
    </clipPath>
    <clipPath
       clipPathUnits="userSpaceOnUse"
       id="clipPath98">
      <path
         d="M 220,170 V 7730 H 5890 V 170 Z"
         transform="matrix(0,0.1,0.1,0,-22.5832,-458.41701)"
         id="path98" />
    </clipPath>
    <clipPath
       clipPathUnits="userSpaceOnUse"
       id="clipPath100">
      <path
         d="M 220,170 V 7730 H 5890 V 170 Z"
         id="path100" />
    </clipPath>
    <clipPath
       clipPathUnits="userSpaceOnUse"
       id="clipPath102">
      <path
         d="M 220,170 V 7730 H 5890 V 170 Z"
         id="path102" />
    </clipPath>
    <clipPath
       clipPathUnits="userSpaceOnUse"
       id="clipPath104">
      <path
         d="M 220,170 V 7730 H 5890 V 170 Z"
         transform="matrix(0,0.1,0.1,0,-22.5832,-397.41701)"
         id="path104" />
    </clipPath>
    <clipPath
       clipPathUnits="userSpaceOnUse"
       id="clipPath106">
      <path
         d="M 220,170 V 7730 H 5890 V 170 Z"
         id="path106" />
    </clipPath>
    <clipPath
       clipPathUnits="userSpaceOnUse"
       id="clipPath108">
      <path
         d="M 220,170 V 7730 H 5890 V 170 Z"
         id="path108" />
    </clipPath>
    <clipPath
       clipPathUnits="userSpaceOnUse"
       id="clipPath110">
      <path
         d="M 220,170 V 7730 H 5890 V 170 Z"
         transform="matrix(0,0.1,0.1,0,-22.5832,-336.33301)"
         id="path110" />
    </clipPath>
    <clipPath
       clipPathUnits="userSpaceOnUse"
       id="clipPath112">
      <path
         d="M 220,170 V 7730 H 5890 V 170 Z"
         id="path112" />
    </clipPath>
    <clipPath
       clipPathUnits="userSpaceOnUse"
       id="clipPath114">
      <path
         d="M 220,170 V 7730 H 5890 V 170 Z"
         id="path114" />
    </clipPath>
    <clipPath
       clipPathUnits="userSpaceOnUse"
       id="clipPath116">
      <path
         d="M 220,170 V 7730 H 5890 V 170 Z"
         transform="matrix(0,0.1,0.1,0,-22.5832,-275.33301)"
         id="path116" />
    </clipPath>
    <clipPath
       clipPathUnits="userSpaceOnUse"
       id="clipPath118">
      <path
         d="M 220,170 V 7730 H 5890 V 170 Z"
         id="path118" />
    </clipPath>
    <clipPath
       clipPathUnits="userSpaceOnUse"
       id="clipPath120">
      <path
         d="M 220,170 V 7730 H 5890 V 170 Z"
         id="path120" />
    </clipPath>
    <clipPath
       clipPathUnits="userSpaceOnUse"
       id="clipPath122">
      <path
         d="M 220,170 V 7730 H 5890 V 170 Z"
         transform="matrix(0,0.1,0.1,0,-28.416801,-214.333)"
         id="path122" />
    </clipPath>
    <clipPath
       clipPathUnits="userSpaceOnUse"
       id="clipPath124">
      <path
         d="M 220,170 V 7730 H 5890 V 170 Z"
         id="path124" />
    </clipPath>
    <clipPath
       clipPathUnits="userSpaceOnUse"
       id="clipPath126">
      <path
         d="M 220,170 V 7730 H 5890 V 170 Z"
         id="path126" />
    </clipPath>
    <clipPath
       clipPathUnits="userSpaceOnUse"
       id="clipPath128">
      <path
         d="M 220,170 V 7730 H 5890 V 170 Z"
         transform="matrix(0,0.1,0.1,0,-28.416801,-153.25)"
         id="path128" />
    </clipPath>
    <clipPath
       clipPathUnits="userSpaceOnUse"
       id="clipPath130">
      <path
         d="M 220,170 V 7730 H 5890 V 170 Z"
         id="path130" />
    </clipPath>
    <clipPath
       clipPathUnits="userSpaceOnUse"
       id="clipPath132">
      <path
         d="M 220,170 V 7730 H 5890 V 170 Z"
         id="path132" />
    </clipPath>
    <clipPath
       clipPathUnits="userSpaceOnUse"
       id="clipPath134">
      <path
         d="M 220,170 V 7730 H 5890 V 170 Z"
         transform="matrix(0,0.1,0.1,0,-28.416801,-92.250002)"
         id="path134" />
    </clipPath>
    <clipPath
       clipPathUnits="userSpaceOnUse"
       id="clipPath136">
      <path
         d="M 220,170 V 7730 H 5890 V 170 Z"
         id="path136" />
    </clipPath>
    <clipPath
       clipPathUnits="userSpaceOnUse"
       id="clipPath138">
      <path
         d="M 220,170 V 7730 H 5890 V 170 Z"
         id="path138" />
    </clipPath>
    <clipPath
       clipPathUnits="userSpaceOnUse"
       id="clipPath140">
      <path
         d="M 220,170 V 7730 H 5890 V 170 Z"
         transform="matrix(0,0.1,0.1,0,-28.416801,-31.250001)"
         id="path140" />
    </clipPath>
    <clipPath
       clipPathUnits="userSpaceOnUse"
       id="clipPath142">
      <path
         d="M 220,170 V 7730 H 5890 V 170 Z"
         id="path142" />
    </clipPath>
    <clipPath
       clipPathUnits="userSpaceOnUse"
       id="clipPath144">
      <path
         d="M 220,170 V 7730 H 5890 V 170 Z"
         id="path144" />
    </clipPath>
    <clipPath
       clipPathUnits="userSpaceOnUse"
       id="clipPath146">
      <path
         d="M 220,170 V 7730 H 5890 V 170 Z"
         id="path146" />
    </clipPath>
    <clipPath
       clipPathUnits="userSpaceOnUse"
       id="clipPath148">
      <path
         d="M 220,170 V 7730 H 5890 V 170 Z"
         id="path148" />
    </clipPath>
    <clipPath
       clipPathUnits="userSpaceOnUse"
       id="clipPath150">
      <path
         d="M 220,170 V 7730 H 5890 V 170 Z"
         id="path150" />
    </clipPath>
    <clipPath
       clipPathUnits="userSpaceOnUse"
       id="clipPath152">
      <path
         d="M 220,170 V 7730 H 5890 V 170 Z"
         id="path152" />
    </clipPath>
    <clipPath
       clipPathUnits="userSpaceOnUse"
       id="clipPath154">
      <path
         d="M 220,170 V 7730 H 5890 V 170 Z"
         id="path154" />
    </clipPath>
    <clipPath
       clipPathUnits="userSpaceOnUse"
       id="clipPath156">
      <path
         d="M 220,170 V 7730 H 5890 V 170 Z"
         id="path156" />
    </clipPath>
    <clipPath
       clipPathUnits="userSpaceOnUse"
       id="clipPath158">
      <path
         d="M 220,170 V 7730 H 5890 V 170 Z"
         id="path158" />
    </clipPath>
    <clipPath
       clipPathUnits="userSpaceOnUse"
       id="clipPath160">
      <path
         d="M 220,170 V 7730 H 5890 V 170 Z"
         id="path160" />
    </clipPath>
    <clipPath
       clipPathUnits="userSpaceOnUse"
       id="clipPath162">
      <path
         d="M 220,170 V 7730 H 5890 V 170 Z"
         id="path162" />
    </clipPath>
    <clipPath
       clipPathUnits="userSpaceOnUse"
       id="clipPath164">
      <path
         d="M 220,170 V 7730 H 5890 V 170 Z"
         id="path164" />
    </clipPath>
    <clipPath
       clipPathUnits="userSpaceOnUse"
       id="clipPath166">
      <path
         d="M 220,170 V 7730 H 5890 V 170 Z"
         id="path166" />
    </clipPath>
    <clipPath
       clipPathUnits="userSpaceOnUse"
       id="clipPath168">
      <path
         d="M 220,170 V 7730 H 5890 V 170 Z"
         id="path168" />
    </clipPath>
    <clipPath
       clipPathUnits="userSpaceOnUse"
       id="clipPath170">
      <path
         d="M 275.832,368.332 V 7702.5 H 5769.17 V 368.332 Z"
         id="path170" />
    </clipPath>
    <clipPath
       clipPathUnits="userSpaceOnUse"
       id="clipPath172">
      <path
         d="M 275.832,368.332 V 7702.5 H 5769.17 V 368.332 Z"
         id="path172" />
    </clipPath>
    <clipPath
       clipPathUnits="userSpaceOnUse"
       id="clipPath174">
      <path
         d="M 275.832,368.332 V 7702.5 H 5769.17 V 368.332 Z"
         id="path174" />
    </clipPath>
    <clipPath
       clipPathUnits="userSpaceOnUse"
       id="clipPath176">
      <path
         d="M 275.832,368.332 V 7702.5 H 5769.17 V 368.332 Z"
         id="path176" />
    </clipPath>
  </defs>
  <sodipodi:namedview
     id="namedview1"
     pagecolor="#ffffff"
     bordercolor="#000000"
     borderopacity="0.25"
     inkscape:showpageshadow="2"
     inkscape:pageopacity="0.0"
     inkscape:pagecheckerboard="0"
     inkscape:deskcolor="#d1d1d1">
    <inkscape:page
       x="0"
       y="0"
       inkscape:label="1"
       id="page1"
       width="1056"
       height="816"
       margin="0"
       bleed="0" />
  </sodipodi:namedview>
  <g
     id="g1"
     inkscape:groupmode="layer"
     inkscape:label="1">
    <path
       id="path1"
       d="m 275.832,368.332 h 5492.5 v 7333.34 h -5492.5 z"
       style="fill:none;stroke:#ffffff;stroke-width:5;stroke-linecap:butt;stroke-linejoin:round;stroke-miterlimit:10;stroke-dasharray:none;stroke-opacity:1"
       transform="matrix(0,0.13333333,0.13333333,0,0,0)"
       clip-path="url(#clipPath2)" />
    <path
       id="path3"
       d="M 275.832,368.332 V 7701.67"
       style="fill:none;stroke:#000000;stroke-width:5;stroke-linecap:butt;stroke-linejoin:round;stroke-miterlimit:10;stroke-dasharray:none;stroke-opacity:1"
       transform="matrix(0,0.13333333,0.13333333,0,0,0)"
       clip-path="url(#clipPath4)" />
    <path
       id="path5"
       d="M 5768.33,368.332 V 7701.67"
       style="fill:none;stroke:#000000;stroke-width:5;stroke-linecap:butt;stroke-linejoin:round;stroke-miterlimit:10;stroke-dasharray:none;stroke-opacity:1"
       transform="matrix(0,0.13333333,0.13333333,0,0,0)"
       clip-path="url(#clipPath6)" />
    <path
       id="path7"
       d="M 5768.33,7701.67 H 275.832"
       style="fill:none;stroke:#000000;stroke-width:5;stroke-linecap:butt;stroke-linejoin:round;stroke-miterlimit:10;stroke-dasharray:none;stroke-opacity:1"
       transform="matrix(0,0.13333333,0.13333333,0,0,0)"
       clip-path="url(#clipPath8)" />
    <path
       id="path9"
       d="M 5768.33,368.332 H 275.832"
       style="fill:none;stroke:#000000;stroke-width:5;stroke-linecap:butt;stroke-linejoin:round;stroke-miterlimit:10;stroke-dasharray:none;stroke-opacity:1"
       transform="matrix(0,0.13333333,0.13333333,0,0,0)"
       clip-path="url(#clipPath10)" />
    <path
       id="path11"
       d="M 5768.33,368.332 V 7701.67"
       style="fill:none;stroke:#000000;stroke-width:5;stroke-linecap:butt;stroke-linejoin:round;stroke-miterlimit:10;stroke-dasharray:none;stroke-opacity:1"
       transform="matrix(0,0.13333333,0.13333333,0,0,0)"
       clip-path="url(#clipPath12)" />
    <path
       id="path13"
       d="M 5768.33,368.332 H 275.832"
       style="fill:none;stroke:#000000;stroke-width:5;stroke-linecap:butt;stroke-linejoin:round;stroke-miterlimit:10;stroke-dasharray:none;stroke-opacity:1"
       transform="matrix(0,0.13333333,0.13333333,0,0,0)"
       clip-path="url(#clipPath14)" />
    <path
       id="path15"
       d="M 5768.33,368.332 H 5695"
       style="fill:none;stroke:#000000;stroke-width:5;stroke-linecap:butt;stroke-linejoin:round;stroke-miterlimit:10;stroke-dasharray:none;stroke-opacity:1"
       transform="matrix(0,0.13333333,0.13333333,0,0,0)"
       clip-path="url(#clipPath16)" />
    <path
       id="path17"
       d="m 275.832,368.332 h 73.336"
       style="fill:none;stroke:#000000;stroke-width:5;stroke-linecap:butt;stroke-linejoin:round;stroke-miterlimit:10;stroke-dasharray:none;stroke-opacity:1"
       transform="matrix(0,0.13333333,0.13333333,0,0,0)"
       clip-path="url(#clipPath18)" />
    <path
       id="path19"
       d="M 5.2861328,-3.1171953 H 0.55175781 V -3.9375078 H 5.2861328 Z M 6.25,-1.8750078 7.1757812,-1.9570391 c 0.070312,0.4541016 0.2285157,0.7939454 0.4804688,1.01953129 0.2490234,0.22851562 0.5507813,0.33984375 0.9023438,0.33984375 0.421875,0 0.7763671,-0.15820313 1.0664062,-0.48046874 0.2958984,-0.3193359 0.445313,-0.7412109 0.445313,-1.265625 0,-0.4980469 -0.1406255,-0.8935547 -0.4218755,-1.1835938 -0.28125,-0.2958984 -0.6533203,-0.4453125 -1.1132812,-0.4453125 -0.28125,0 -0.5361329,0.067383 -0.7617188,0.1992188 -0.2285156,0.1259766 -0.4072266,0.2929687 -0.5390625,0.5039062 L 6.4140625,-3.3867266 7.1054687,-7.0546953 h 3.5625003 v 0.8320312 H 7.8085937 l -0.3867187,1.921875 c 0.4277344,-0.2958984 0.8789063,-0.4453125 1.3476563,-0.4453125 0.6240234,0 1.1513671,0.2197266 1.5820317,0.65625 0.427734,0.4306641 0.644531,0.984375 0.644531,1.6640625 0,0.6503907 -0.1875,1.2070313 -0.5625,1.67578129 -0.4628909,0.58007812 -1.0869143,0.8671875 -1.8750002,0.8671875 -0.6562501,0 -1.1923829,-0.17871094 -1.6054688,-0.5390625 C 6.5458984,-0.78809375 6.3115234,-1.2714922 6.25,-1.8750078 Z m 0,0"
       style="fill:#000000;fill-opacity:1;fill-rule:nonzero;stroke:none"
       aria-label="−5"
       transform="matrix(1.3333333,0,0,1.3333333,37.666667,785.22267)"
       clip-path="url(#clipPath20)" />
    <path
       id="path21"
       d="M 5768.33,1101.67 H 5695"
       style="fill:none;stroke:#000000;stroke-width:5;stroke-linecap:butt;stroke-linejoin:round;stroke-miterlimit:10;stroke-dasharray:none;stroke-opacity:1"
       transform="matrix(0,0.13333333,0.13333333,0,0,0)"
       clip-path="url(#clipPath22)" />
    <path
       id="path23"
       d="m 275.832,1101.67 h 73.336"
       style="fill:none;stroke:#000000;stroke-width:5;stroke-linecap:butt;stroke-linejoin:round;stroke-miterlimit:10;stroke-dasharray:none;stroke-opacity:1"
       transform="matrix(0,0.13333333,0.13333333,0,0,0)"
       clip-path="url(#clipPath24)" />
    <path
       id="path25"
       d="M 5.2861406,-3.1171953 H 0.55176563 V -3.9375078 H 5.2861406 Z M 9.0742266,-7.8124999e-6 V -1.7109453 H 5.9687578 v -0.8085938 l 3.2578125,-4.640625 h 0.7265625 v 4.640625 H 10.91407 v 0.8085938 H 9.9531328 V -7.8124999e-6 Z m 0,-2.5195312875001 v -3.2226562 l -2.2382813,3.2226562 z m 0,0"
       style="fill:#000000;fill-opacity:1;fill-rule:nonzero;stroke:none"
       aria-label="−4"
       transform="matrix(1.3333333,0,0,1.3333333,135.444,785.22267)"
       clip-path="url(#clipPath26)" />
    <path
       id="path27"
       d="M 5768.33,1835 H 5695"
       style="fill:none;stroke:#000000;stroke-width:5;stroke-linecap:butt;stroke-linejoin:round;stroke-miterlimit:10;stroke-dasharray:none;stroke-opacity:1"
       transform="matrix(0,0.13333333,0.13333333,0,0,0)"
       clip-path="url(#clipPath28)" />
    <path
       id="path29"
       d="m 275.832,1835 h 73.336"
       style="fill:none;stroke:#000000;stroke-width:5;stroke-linecap:butt;stroke-linejoin:round;stroke-miterlimit:10;stroke-dasharray:none;stroke-opacity:1"
       transform="matrix(0,0.13333333,0.13333333,0,0,0)"
       clip-path="url(#clipPath30)" />
    <path
       id="path31"
       d="M 5.2851484,-3.1171953 H 0.55077344 V -3.9375078 H 5.2851484 Z m 0.975586,1.2304687 0.8789062,-0.1171875 c 0.099609,0.5009766 0.272461,0.8613282 0.515625,1.07812504 0.2402344,0.21972656 0.5332031,0.328125 0.8789063,0.328125 0.4130859,0 0.7617187,-0.14355469 1.0429687,-0.43359374 0.2871094,-0.2871094 0.4335934,-0.6445313 0.4335934,-1.0664063 0,-0.3984375 -0.1347653,-0.7265625 -0.3984371,-0.984375 C 9.3544844,-3.3457109 9.0205,-3.4804766 8.6162031,-3.4804766 c -0.1728515,0 -0.3808594,0.032227 -0.6210937,0.09375 l 0.09375,-0.7734375 c 0.061523,0.00879 0.1083984,0.011719 0.140625,0.011719 0.375,0 0.7089843,-0.09668 1.0078125,-0.2929688 0.3046875,-0.1933593 0.4570312,-0.4951171 0.4570312,-0.9023437 0,-0.3193359 -0.1113281,-0.5859375 -0.328125,-0.796875 -0.2197265,-0.2109375 -0.5009765,-0.3164063 -0.84375,-0.3164063 -0.3457031,0 -0.6298828,0.1113282 -0.8554687,0.328125 -0.2285157,0.2109375 -0.375,0.5332032 -0.4453125,0.9609375 L 6.3427656,-5.3320391 c 0.1083985,-0.5859375 0.3544922,-1.0371093 0.7382813,-1.359375 0.3808593,-0.328125 0.8554687,-0.4921875 1.4179687,-0.4921875 0.3896485,0 0.75,0.087891 1.078125,0.2578125 0.328125,0.1640625 0.5771484,0.3925782 0.7500004,0.6796875 0.178711,0.2900391 0.269531,0.5976563 0.269531,0.9257813 0,0.3046875 -0.08789,0.5859375 -0.257813,0.84375 -0.164062,0.2519531 -0.4072262,0.4511719 -0.7265621,0.5976562 0.4218751,0.1025391 0.7500001,0.3105469 0.9843751,0.6210938 0.234375,0.3046875 0.351562,0.6884766 0.351562,1.1484375 0,0.6269531 -0.231445,1.15722655 -0.691406,1.59374999 -0.4541014,0.43066406 -1.0283202,0.64453125 -1.7226561,0.64453125 -0.6269532,0 -1.1484375,-0.1875 -1.5703125,-0.5625 C 6.5478437,-0.80860156 6.3134687,-1.292 6.2607344,-1.8867266 Z m 0,0"
       style="fill:#000000;fill-opacity:1;fill-rule:nonzero;stroke:none"
       aria-label="−3"
       transform="matrix(1.3333333,0,0,1.3333333,233.22267,785.22267)"
       clip-path="url(#clipPath32)" />
    <path
       id="path33"
       d="M 5768.33,2568.33 H 5695"
       style="fill:none;stroke:#000000;stroke-width:5;stroke-linecap:butt;stroke-linejoin:round;stroke-miterlimit:10;stroke-dasharray:none;stroke-opacity:1"
       transform="matrix(0,0.13333333,0.13333333,0,0,0)"
       clip-path="url(#clipPath34)" />
    <path
       id="path35"
       d="m 275.832,2568.33 h 73.336"
       style="fill:none;stroke:#000000;stroke-width:5;stroke-linecap:butt;stroke-linejoin:round;stroke-miterlimit:10;stroke-dasharray:none;stroke-opacity:1"
       transform="matrix(0,0.13333333,0.13333333,0,0,0)"
       clip-path="url(#clipPath36)" />
    <path
       id="path37"
       d="M 5.2851562,-3.1171953 H 0.55078125 V -3.9375078 H 5.2851562 Z m 5.5810548,2.27343749 V -7.8124999e-6 H 6.1435547 C 6.1347656,-0.21094531 6.1699219,-0.41309375 6.2490234,-0.60938281 6.3662109,-0.92871875 6.5566406,-1.245125 6.8232422,-1.5586016 c 0.2636719,-0.3105468 0.6474609,-0.6738281 1.1484375,-1.0898437 0.7792969,-0.6328125 1.3066406,-1.1367188 1.5820312,-1.5117188 0.272461,-0.375 0.4101563,-0.7265625 0.4101563,-1.0546875 0,-0.3515625 -0.1259766,-0.6445312 -0.375,-0.8789062 -0.2519531,-0.2402344 -0.5742188,-0.3632813 -0.9726563,-0.3632813 -0.430664,0 -0.7734375,0.1289063 -1.03125,0.3867188 -0.2519531,0.2519531 -0.375,0.5976562 -0.375,1.0429687 l -0.9023437,-0.082031 c 0.061523,-0.6796875 0.2929687,-1.1953125 0.6914062,-1.546875 0.4042969,-0.3515625 0.9492188,-0.5273438 1.6289063,-0.5273438 0.6855469,0 1.2304687,0.1933594 1.6289063,0.5742188 0.404297,0.375 0.609375,0.84375 0.609375,1.40625 0,0.2900391 -0.05859,0.5742187 -0.175781,0.8554687 -0.117188,0.2753907 -0.313477,0.5625 -0.585938,0.8671875 -0.2753904,0.3046875 -0.7265623,0.7236329 -1.3593748,1.2539063 -0.5244141,0.4453125 -0.8642578,0.75 -1.0195313,0.9140625 -0.149414,0.1582031 -0.2695312,0.31347655 -0.3632812,0.46874999 z m 0,0"
       style="fill:#000000;fill-opacity:1;fill-rule:nonzero;stroke:none"
       aria-label="−2"
       transform="matrix(1.3333333,0,0,1.3333333,331,785.22267)"
       clip-path="url(#clipPath38)" />
    <path
       id="path39"
       d="M 5768.33,3301.67 H 5695"
       style="fill:none;stroke:#000000;stroke-width:5;stroke-linecap:butt;stroke-linejoin:round;stroke-miterlimit:10;stroke-dasharray:none;stroke-opacity:1"
       transform="matrix(0,0.13333333,0.13333333,0,0,0)"
       clip-path="url(#clipPath40)" />
    <path
       id="path41"
       d="m 275.832,3301.67 h 73.336"
       style="fill:none;stroke:#000000;stroke-width:5;stroke-linecap:butt;stroke-linejoin:round;stroke-miterlimit:10;stroke-dasharray:none;stroke-opacity:1"
       transform="matrix(0,0.13333333,0.13333333,0,0,0)"
       clip-path="url(#clipPath42)" />
    <path
       id="path43"
       d="M 5.2851641,-3.1171953 H 0.55078906 V -3.9375078 H 5.2851641 Z M 9.5654375,-7.8124999e-6 H 8.6865313 V -5.6015703 C 8.4755938,-5.3964922 8.1972734,-5.1943437 7.8545,-4.9921953 7.5087969,-4.7871172 7.2011797,-4.6347734 6.9287188,-4.5351641 v -0.8554687 c 0.4921875,-0.2255859 0.9199218,-0.5039063 1.2890625,-0.8320313 0.3662109,-0.3339843 0.6240234,-0.65625 0.7734375,-0.9609375 h 0.5742187 z m 0,0"
       style="fill:#000000;fill-opacity:1;fill-rule:nonzero;stroke:none"
       aria-label="−1"
       transform="matrix(1.3333333,0,0,1.3333333,428.77733,785.22267)"
       clip-path="url(#clipPath44)" />
    <path
       id="path45"
       d="M 5768.33,4035 H 5695"
       style="fill:none;stroke:#000000;stroke-width:5;stroke-linecap:butt;stroke-linejoin:round;stroke-miterlimit:10;stroke-dasharray:none;stroke-opacity:1"
       transform="matrix(0,0.13333333,0.13333333,0,0,0)"
       clip-path="url(#clipPath46)" />
    <path
       id="path47"
       d="m 275.832,4035 h 73.336"
       style="fill:none;stroke:#000000;stroke-width:5;stroke-linecap:butt;stroke-linejoin:round;stroke-miterlimit:10;stroke-dasharray:none;stroke-opacity:1"
       transform="matrix(0,0.13333333,0.13333333,0,0,0)"
       clip-path="url(#clipPath48)" />
    <path
       id="path49"
       d="m 0.40917969,-3.5273516 c 0,-0.84375 0.0849609,-1.5234375 0.2578125,-2.0390625 0.17871094,-0.515625 0.43945311,-0.9140625 0.78515621,-1.1953125 0.3427735,-0.28125 0.7734375,-0.421875 1.2890625,-0.421875 0.3896485,0 0.7294922,0.079102 1.0195313,0.234375 0.2871094,0.1494141 0.5273437,0.3720704 0.7148437,0.6679688 0.1875,0.2900391 0.3339844,0.6445312 0.4453125,1.0664062 0.1083985,0.4160157 0.1640625,0.9785157 0.1640625,1.6875 0,0.8378907 -0.09082,1.5117188 -0.2695312,2.0273438 -0.1728516,0.51562499 -0.4306641,0.91406249 -0.7734375,1.19531249 -0.3369141,0.28125 -0.7705078,0.421875 -1.3007813,0.421875 -0.6884765,0 -1.227539,-0.24609375 -1.6171875,-0.73828125 C 0.64648438,-1.2128984 0.40917969,-2.182625 0.40917969,-3.5273516 Z m 0.90234371,0 c 0,1.171875 0.1347657,1.9541016 0.4101563,2.34375 0.28125,0.39257816 0.6210937,0.58593754 1.0195312,0.58593754 0.4042969,0 0.7441407,-0.19335938 1.0195313,-0.58593754 0.28125,-0.3896484 0.421875,-1.171875 0.421875,-2.34375 0,-1.1777343 -0.140625,-1.9599609 -0.421875,-2.34375 C 3.4853516,-6.26075 3.1455078,-6.4570391 2.7412109,-6.4570391 c -0.4072265,0 -0.7324218,0.1728516 -0.9726562,0.515625 -0.3046875,0.4394532 -0.4570313,1.2421875 -0.4570313,2.4140625 z m 0,0"
       style="fill:#000000;fill-opacity:1;fill-rule:nonzero;stroke:none"
       aria-label="0"
       transform="matrix(1.3333333,0,0,1.3333333,534.33333,785.22267)"
       clip-path="url(#clipPath50)" />
    <path
       id="path51"
       d="M 5768.33,4768.33 H 5695"
       style="fill:none;stroke:#000000;stroke-width:5;stroke-linecap:butt;stroke-linejoin:round;stroke-miterlimit:10;stroke-dasharray:none;stroke-opacity:1"
       transform="matrix(0,0.13333333,0.13333333,0,0,0)"
       clip-path="url(#clipPath52)" />
    <path
       id="path53"
       d="m 275.832,4768.33 h 73.336"
       style="fill:none;stroke:#000000;stroke-width:5;stroke-linecap:butt;stroke-linejoin:round;stroke-miterlimit:10;stroke-dasharray:none;stroke-opacity:1"
       transform="matrix(0,0.13333333,0.13333333,0,0,0)"
       clip-path="url(#clipPath54)" />
    <path
       id="path55"
       d="M 3.7255938,-7.8124999e-6 H 2.8466875 V -5.6015703 C 2.63575,-5.3964922 2.3574297,-5.1943437 2.0146563,-4.9921953 1.6689531,-4.7871172 1.3613359,-4.6347734 1.088875,-4.5351641 v -0.8554687 c 0.4921875,-0.2255859 0.9199219,-0.5039063 1.2890625,-0.8320313 0.3662109,-0.3339843 0.6240234,-0.65625 0.7734375,-0.9609375 h 0.5742188 z m 0,0"
       style="fill:#000000;fill-opacity:1;fill-rule:nonzero;stroke:none"
       aria-label="1"
       transform="matrix(1.3333333,0,0,1.3333333,632.11067,785.22267)"
       clip-path="url(#clipPath56)" />
    <path
       id="path57"
       d="M 5768.33,5501.67 H 5695"
       style="fill:none;stroke:#000000;stroke-width:5;stroke-linecap:butt;stroke-linejoin:round;stroke-miterlimit:10;stroke-dasharray:none;stroke-opacity:1"
       transform="matrix(0,0.13333333,0.13333333,0,0,0)"
       clip-path="url(#clipPath58)" />
    <path
       id="path59"
       d="m 275.832,5501.67 h 73.336"
       style="fill:none;stroke:#000000;stroke-width:5;stroke-linecap:butt;stroke-linejoin:round;stroke-miterlimit:10;stroke-dasharray:none;stroke-opacity:1"
       transform="matrix(0,0.13333333,0.13333333,0,0,0)"
       clip-path="url(#clipPath60)" />
    <path
       id="path61"
       d="M 5.0283125,-0.84375781 V -7.8124999e-6 H 0.30565625 C 0.29686719,-0.21094531 0.33202344,-0.41309375 0.411125,-0.60938281 0.5283125,-0.92871875 0.71874219,-1.245125 0.98534375,-1.5586016 1.2490156,-1.8691484 1.6328047,-2.2324297 2.1337813,-2.6484453 c 0.7792968,-0.6328125 1.3066406,-1.1367188 1.5820312,-1.5117188 0.2724609,-0.375 0.4101563,-0.7265625 0.4101563,-1.0546875 0,-0.3515625 -0.1259766,-0.6445312 -0.375,-0.8789062 C 3.4990156,-6.3339922 3.17675,-6.4570391 2.7783125,-6.4570391 c -0.4306641,0 -0.7734375,0.1289063 -1.03125,0.3867188 -0.2519531,0.2519531 -0.375,0.5976562 -0.375,1.0429687 l -0.90234375,-0.082031 c 0.0615234,-0.6796875 0.29296875,-1.1953125 0.69140625,-1.546875 0.4042969,-0.3515625 0.9492188,-0.5273438 1.6289063,-0.5273438 0.6855468,0 1.2304687,0.1933594 1.6289062,0.5742188 0.4042969,0.375 0.609375,0.84375 0.609375,1.40625 0,0.2900391 -0.058594,0.5742187 -0.1757812,0.8554687 -0.1171875,0.2753907 -0.3134766,0.5625 -0.5859375,0.8671875 -0.2753907,0.3046875 -0.7265625,0.7236329 -1.359375,1.2539063 -0.5244141,0.4453125 -0.8642579,0.75 -1.0195313,0.9140625 -0.1494141,0.1582031 -0.2695312,0.31347655 -0.3632812,0.46874999 z m 0,0"
       style="fill:#000000;fill-opacity:1;fill-rule:nonzero;stroke:none"
       aria-label="2"
       transform="matrix(1.3333333,0,0,1.3333333,729.88933,785.22267)"
       clip-path="url(#clipPath62)" />
    <path
       id="path63"
       d="M 5768.33,6235 H 5695"
       style="fill:none;stroke:#000000;stroke-width:5;stroke-linecap:butt;stroke-linejoin:round;stroke-miterlimit:10;stroke-dasharray:none;stroke-opacity:1"
       transform="matrix(0,0.13333333,0.13333333,0,0,0)"
       clip-path="url(#clipPath64)" />
    <path
       id="path65"
       d="m 275.832,6235 h 73.336"
       style="fill:none;stroke:#000000;stroke-width:5;stroke-linecap:butt;stroke-linejoin:round;stroke-miterlimit:10;stroke-dasharray:none;stroke-opacity:1"
       transform="matrix(0,0.13333333,0.13333333,0,0,0)"
       clip-path="url(#clipPath66)" />
    <path
       id="path67"
       d="M 0.42285156,-1.8867266 1.3017578,-2.0039141 c 0.099609,0.5009766 0.2724609,0.8613282 0.515625,1.07812504 0.2402344,0.21972656 0.5332031,0.328125 0.8789063,0.328125 0.4130859,0 0.7617187,-0.14355469 1.0429687,-0.43359374 0.2871094,-0.2871094 0.4335938,-0.6445313 0.4335938,-1.0664063 0,-0.3984375 -0.1347657,-0.7265625 -0.3984375,-0.984375 -0.2578125,-0.2636718 -0.5917969,-0.3984375 -0.9960938,-0.3984375 -0.1728515,0 -0.3808594,0.032227 -0.6210937,0.09375 l 0.09375,-0.7734375 c 0.061523,0.00879 0.1083984,0.011719 0.140625,0.011719 0.375,0 0.7089843,-0.09668 1.0078125,-0.2929688 0.3046875,-0.1933593 0.4570312,-0.4951171 0.4570312,-0.9023437 0,-0.3193359 -0.1113281,-0.5859375 -0.328125,-0.796875 -0.2197265,-0.2109375 -0.5009765,-0.3164063 -0.84375,-0.3164063 -0.3457031,0 -0.6298828,0.1113282 -0.8554687,0.328125 -0.2285157,0.2109375 -0.375,0.5332032 -0.4453125,0.9609375 L 0.50488281,-5.3320391 c 0.10839844,-0.5859375 0.35449219,-1.0371093 0.73828129,-1.359375 0.3808593,-0.328125 0.8554687,-0.4921875 1.4179687,-0.4921875 0.3896485,0 0.75,0.087891 1.078125,0.2578125 0.328125,0.1640625 0.5771484,0.3925782 0.75,0.6796875 0.1787109,0.2900391 0.2695313,0.5976563 0.2695313,0.9257813 0,0.3046875 -0.087891,0.5859375 -0.2578125,0.84375 -0.1640625,0.2519531 -0.4072266,0.4511719 -0.7265625,0.5976562 0.421875,0.1025391 0.75,0.3105469 0.984375,0.6210938 0.234375,0.3046875 0.3515625,0.6884766 0.3515625,1.1484375 0,0.6269531 -0.2314454,1.15722655 -0.6914063,1.59374999 -0.4541015,0.43066406 -1.0283203,0.64453125 -1.7226562,0.64453125 -0.6269532,0 -1.1484375,-0.1875 -1.5703125,-0.5625 C 0.70996094,-0.80860156 0.47558594,-1.292 0.42285156,-1.8867266 Z m 0,0"
       style="fill:#000000;fill-opacity:1;fill-rule:nonzero;stroke:none"
       aria-label="3"
       transform="matrix(1.3333333,0,0,1.3333333,827.66667,785.22267)"
       clip-path="url(#clipPath68)" />
    <path
       id="path69"
       d="M 5768.33,6968.33 H 5695"
       style="fill:none;stroke:#000000;stroke-width:5;stroke-linecap:butt;stroke-linejoin:round;stroke-miterlimit:10;stroke-dasharray:none;stroke-opacity:1"
       transform="matrix(0,0.13333333,0.13333333,0,0,0)"
       clip-path="url(#clipPath70)" />
    <path
       id="path71"
       d="m 275.832,6968.33 h 73.336"
       style="fill:none;stroke:#000000;stroke-width:5;stroke-linecap:butt;stroke-linejoin:round;stroke-miterlimit:10;stroke-dasharray:none;stroke-opacity:1"
       transform="matrix(0,0.13333333,0.13333333,0,0,0)"
       clip-path="url(#clipPath72)" />
    <path
       id="path73"
       d="M 3.2353594,-7.8124999e-6 V -1.7109453 H 0.12989062 v -0.8085938 l 3.25781248,-4.640625 h 0.7265625 v 4.640625 h 0.9609375 v 0.8085938 H 4.1142656 V -7.8124999e-6 Z m 0,-2.5195312875001 v -3.2226562 l -2.23828128,3.2226562 z m 0,0"
       style="fill:#000000;fill-opacity:1;fill-rule:nonzero;stroke:none"
       aria-label="4"
       transform="matrix(1.3333333,0,0,1.3333333,925.444,785.22267)"
       clip-path="url(#clipPath74)" />
    <path
       id="path75"
       d="M 5768.33,7701.67 H 5695"
       style="fill:none;stroke:#000000;stroke-width:5;stroke-linecap:butt;stroke-linejoin:round;stroke-miterlimit:10;stroke-dasharray:none;stroke-opacity:1"
       transform="matrix(0,0.13333333,0.13333333,0,0,0)"
       clip-path="url(#clipPath76)" />
    <path
       id="path77"
       d="m 275.832,7701.67 h 73.336"
       style="fill:none;stroke:#000000;stroke-width:5;stroke-linecap:butt;stroke-linejoin:round;stroke-miterlimit:10;stroke-dasharray:none;stroke-opacity:1"
       transform="matrix(0,0.13333333,0.13333333,0,0,0)"
       clip-path="url(#clipPath78)" />
    <path
       id="path79"
       d="m 0.41014844,-1.8750078 0.92578126,-0.082031 c 0.070312,0.4541016 0.2285156,0.7939454 0.4804687,1.01953129 0.2490235,0.22851562 0.5507813,0.33984375 0.9023438,0.33984375 0.421875,0 0.7763672,-0.15820313 1.0664062,-0.48046874 0.2958985,-0.3193359 0.4453125,-0.7412109 0.4453125,-1.265625 0,-0.4980469 -0.140625,-0.8935547 -0.421875,-1.1835938 -0.28125,-0.2958984 -0.6533203,-0.4453125 -1.1132812,-0.4453125 -0.28125,0 -0.5361328,0.067383 -0.7617188,0.1992188 -0.2285156,0.1259766 -0.4072265,0.2929687 -0.5390625,0.5039062 L 0.57421094,-3.3867266 1.2656172,-7.0546953 h 3.5625 v 0.8320312 h -2.859375 l -0.3867188,1.921875 c 0.4277344,-0.2958984 0.8789063,-0.4453125 1.3476563,-0.4453125 0.6240234,0 1.1513672,0.2197266 1.5820312,0.65625 0.4277344,0.4306641 0.6445313,0.984375 0.6445313,1.6640625 0,0.6503907 -0.1875,1.2070313 -0.5625,1.67578129 -0.4628906,0.58007812 -1.0869141,0.8671875 -1.875,0.8671875 -0.65625,0 -1.1923828,-0.17871094 -1.6054688,-0.5390625 C 0.70604688,-0.78809375 0.47167188,-1.2714922 0.41014844,-1.8750078 Z m 0,0"
       style="fill:#000000;fill-opacity:1;fill-rule:nonzero;stroke:none"
       aria-label="5"
       transform="matrix(1.3333333,0,0,1.3333333,1023.2227,785.22267)"
       clip-path="url(#clipPath80)" />
    <path
       id="path81"
       d="m 5768.33,368.332 v 73.336"
       style="fill:none;stroke:#000000;stroke-width:5;stroke-linecap:butt;stroke-linejoin:round;stroke-miterlimit:10;stroke-dasharray:none;stroke-opacity:1"
       transform="matrix(0,0.13333333,0.13333333,0,0,0)"
       clip-path="url(#clipPath82)" />
    <path
       id="path83"
       d="m 5768.33,7701.67 v -73.34"
       style="fill:none;stroke:#000000;stroke-width:5;stroke-linecap:butt;stroke-linejoin:round;stroke-miterlimit:10;stroke-dasharray:none;stroke-opacity:1"
       transform="matrix(0,0.13333333,0.13333333,0,0,0)"
       clip-path="url(#clipPath84)" />
    <path
       id="path85"
       d="M 5.2861328,-3.1171875 H 0.55175781 V -3.9375 H 5.2861328 Z M 9.5664063,0 H 8.6875 v -5.6015625 c -0.2109375,0.2050781 -0.4892578,0.4072266 -0.8320313,0.609375 -0.3457031,0.2050781 -0.6533203,0.3574219 -0.9257812,0.4570313 V -5.390625 C 7.421875,-5.6162109 7.8496094,-5.8945312 8.21875,-6.2226562 8.5849609,-6.5566406 8.8427734,-6.8789062 8.9921875,-7.1835937 H 9.5664063 Z M 16.427734,-0.84375 V 0 h -4.722656 c -0.0088,-0.2109375 0.02637,-0.41308594 0.105469,-0.609375 0.117187,-0.31933594 0.307617,-0.6357422 0.574219,-0.9492187 0.263672,-0.3105469 0.647461,-0.6738282 1.148437,-1.0898438 0.779297,-0.6328125 1.306641,-1.1367188 1.582031,-1.5117187 0.272461,-0.375 0.410157,-0.7265625 0.410157,-1.0546875 0,-0.3515625 -0.125977,-0.6445313 -0.375,-0.8789063 -0.251953,-0.2402344 -0.574219,-0.3632812 -0.972657,-0.3632812 -0.430664,0 -0.773437,0.1289062 -1.03125,0.3867187 -0.251953,0.2519531 -0.375,0.5976563 -0.375,1.0429688 l -0.902343,-0.082031 c 0.06152,-0.6796875 0.292968,-1.1953125 0.691406,-1.546875 0.404297,-0.3515625 0.949219,-0.5273437 1.628906,-0.5273437 0.685547,0 1.230469,0.1933593 1.628906,0.5742187 0.404297,0.375 0.609375,0.84375 0.609375,1.40625 0,0.2900391 -0.05859,0.5742188 -0.175781,0.8554688 -0.117187,0.2753906 -0.313476,0.5624999 -0.585937,0.8671874 -0.275391,0.3046875 -0.726563,0.7236329 -1.359375,1.2539063 -0.524414,0.4453125 -0.864258,0.75 -1.019532,0.9140625 -0.149414,0.1582031 -0.269531,0.31347656 -0.363281,0.46875 z m 0,0"
       style="fill:#000000;fill-opacity:1;fill-rule:nonzero;stroke:none"
       aria-label="−12"
       transform="matrix(1.3333333,0,0,1.3333333,22.666667,774)"
       clip-path="url(#clipPath86)" />
    <path
       id="path87"
       d="m 5157.5,368.332 v 73.336"
       style="fill:none;stroke:#000000;stroke-width:5;stroke-linecap:butt;stroke-linejoin:round;stroke-miterlimit:10;stroke-dasharray:none;stroke-opacity:1"
       transform="matrix(0,0.13333333,0.13333333,0,0,0)"
       clip-path="url(#clipPath88)" />
    <path
       id="path89"
       d="m 5157.5,7701.67 v -73.34"
       style="fill:none;stroke:#000000;stroke-width:5;stroke-linecap:butt;stroke-linejoin:round;stroke-miterlimit:10;stroke-dasharray:none;stroke-opacity:1"
       transform="matrix(0,0.13333333,0.13333333,0,0,0)"
       clip-path="url(#clipPath90)" />
    <path
       id="path91"
       d="M 5.2861328,-3.1181719 H 0.55175781 V -3.9384844 H 5.2861328 Z M 9.5664063,-9.84375e-4 H 8.6875 V -5.6025469 C 8.4765625,-5.3974687 8.1982422,-5.1953203 7.8554687,-4.9931719 7.5097656,-4.7880937 7.2021484,-4.63575 6.9296875,-4.5361406 V -5.3916094 C 7.421875,-5.6171953 7.8496094,-5.8955156 8.21875,-6.2236406 8.5849609,-6.557625 8.8427734,-6.8798906 8.9921875,-7.1845781 H 9.5664063 Z M 11.810547,-3.5283281 c 0,-0.84375 0.08496,-1.5234375 0.257812,-2.0390625 0.178711,-0.515625 0.439454,-0.9140625 0.785157,-1.1953125 0.342773,-0.28125 0.773437,-0.421875 1.289062,-0.421875 0.389649,0 0.729492,0.079102 1.019531,0.234375 0.28711,0.149414 0.527344,0.3720703 0.714844,0.6679687 0.1875,0.2900391 0.333984,0.6445313 0.445313,1.0664063 0.108398,0.4160156 0.164062,0.9785156 0.164062,1.6875 0,0.8378906 -0.09082,1.5117187 -0.269531,2.0273437 -0.172852,0.51562503 -0.430664,0.91406253 -0.773438,1.19531253 -0.336914,0.28125 -0.770507,0.421875 -1.300781,0.421875 -0.688476,0 -1.227539,-0.24609375 -1.617187,-0.73828125 C 12.047852,-1.213875 11.810547,-2.1836016 11.810547,-3.5283281 Z m 0.902344,0 c 0,1.171875 0.134765,1.9541015 0.410156,2.34375 0.28125,0.3925781 0.621094,0.58593748 1.019531,0.58593748 0.404297,0 0.744141,-0.19335938 1.019531,-0.58593748 0.28125,-0.3896485 0.421875,-1.171875 0.421875,-2.34375 0,-1.1777344 -0.140625,-1.959961 -0.421875,-2.34375 -0.27539,-0.3896485 -0.615234,-0.5859375 -1.019531,-0.5859375 -0.407226,0 -0.732422,0.1728515 -0.972656,0.515625 -0.304688,0.4394531 -0.457031,1.2421875 -0.457031,2.4140625 z m 0,0"
       style="fill:#000000;fill-opacity:1;fill-rule:nonzero;stroke:none"
       aria-label="−10"
       transform="matrix(1.3333333,0,0,1.3333333,22.666667,692.556)"
       clip-path="url(#clipPath92)" />
    <path
       id="path93"
       d="m 4547.5,368.332 v 73.336"
       style="fill:none;stroke:#000000;stroke-width:5;stroke-linecap:butt;stroke-linejoin:round;stroke-miterlimit:10;stroke-dasharray:none;stroke-opacity:1"
       transform="matrix(0,0.13333333,0.13333333,0,0,0)"
       clip-path="url(#clipPath94)" />
    <path
       id="path95"
       d="m 4547.5,7701.67 v -73.34"
       style="fill:none;stroke:#000000;stroke-width:5;stroke-linecap:butt;stroke-linejoin:round;stroke-miterlimit:10;stroke-dasharray:none;stroke-opacity:1"
       transform="matrix(0,0.13333333,0.13333333,0,0,0)"
       clip-path="url(#clipPath96)" />
    <path
       id="path97"
       d="m 5.2839875,-3.1171953 h -4.734375 v -0.8203125 h 4.734375 z M 7.6101594,-3.8789141 C 7.2410188,-4.01075 6.9685578,-4.2011797 6.7898469,-4.4531328 6.6169953,-4.7021562 6.5320344,-4.9980547 6.5320344,-5.3437578 c 0,-0.515625 0.1875,-0.9492188 0.5625,-1.3007813 0.375,-0.3574218 0.8701172,-0.5390625 1.4882812,-0.5390625 0.6240235,0 1.1279297,0.1845704 1.5117184,0.5507813 0.38086,0.3603516 0.574219,0.796875 0.574219,1.3125 0,0.3369141 -0.09082,0.6298828 -0.269531,0.8789062 -0.172852,0.2431641 -0.4335939,0.4306641 -0.7851564,0.5625 0.4365234,0.140625 0.7675784,0.3720704 0.9960934,0.6914063 0.234375,0.3222656 0.351563,0.7001953 0.351563,1.1367187 0,0.6181641 -0.219727,1.1337891 -0.65625,1.54687504 -0.4306642,0.41601562 -0.9960939,0.62109375 -1.6992189,0.62109375 -0.711914,0 -1.2832031,-0.20507813 -1.7109375,-0.62109375 -0.430664,-0.421875 -0.6445312,-0.94335934 -0.6445312,-1.57031254 0,-0.4599609 0.1171875,-0.8466796 0.3515625,-1.1601562 0.234375,-0.3193359 0.5683594,-0.5332031 1.0078125,-0.6445313 z M 7.4343781,-5.3671953 c 0,0.3369141 0.1083985,0.6152344 0.328125,0.8320312 0.2167969,0.2109375 0.4980469,0.3164063 0.84375,0.3164063 0.3339844,0 0.6123047,-0.1054688 0.8320313,-0.3164063 0.2167969,-0.2109375 0.328125,-0.4716796 0.328125,-0.7851562 0,-0.3193359 -0.1142578,-0.5888672 -0.3398438,-0.8085938 -0.2197265,-0.2167968 -0.4980468,-0.328125 -0.8320312,-0.328125 -0.3369141,0 -0.6152344,0.1113282 -0.8320313,0.328125 -0.2197265,0.2109375 -0.328125,0.4658204 -0.328125,0.7617188 z m -0.28125,3.3046875 c 0,0.2519531 0.058594,0.4921875 0.1757813,0.7265625 0.1171875,0.234375 0.2929687,0.4189453 0.5273437,0.55078124 0.234375,0.12597656 0.4863282,0.1875 0.7617188,0.1875 0.4130859,0 0.7558594,-0.13183594 1.03125,-0.3984375 0.2724609,-0.27246094 0.4101561,-0.62109374 0.4101561,-1.04296874 0,-0.421875 -0.1406249,-0.7675781 -0.4218749,-1.0429688 -0.28125,-0.28125 -0.6328125,-0.421875 -1.0546875,-0.421875 -0.4160156,0 -0.758789,0.1376954 -1.03125,0.4101563 -0.2666015,0.2753906 -0.3984375,0.6181641 -0.3984375,1.03125 z m 0,0"
       style="fill:#000000;fill-opacity:1;fill-rule:nonzero;stroke:none"
       aria-label="−8"
       transform="matrix(1.3333333,0,0,1.3333333,30.110933,611.22267)"
       clip-path="url(#clipPath98)" />
    <path
       id="path99"
       d="m 3937.5,368.332 v 73.336"
       style="fill:none;stroke:#000000;stroke-width:5;stroke-linecap:butt;stroke-linejoin:round;stroke-miterlimit:10;stroke-dasharray:none;stroke-opacity:1"
       transform="matrix(0,0.13333333,0.13333333,0,0,0)"
       clip-path="url(#clipPath100)" />
    <path
       id="path101"
       d="m 3937.5,7701.67 v -73.34"
       style="fill:none;stroke:#000000;stroke-width:5;stroke-linecap:butt;stroke-linejoin:round;stroke-miterlimit:10;stroke-dasharray:none;stroke-opacity:1"
       transform="matrix(0,0.13333333,0.13333333,0,0,0)"
       clip-path="url(#clipPath102)" />
    <path
       id="path103"
       d="m 5.2839875,-3.1162187 h -4.734375 v -0.8203125 h 4.734375 z M 10.809378,-5.401375 9.9421906,-5.331063 c -0.079102,-0.3427734 -0.1875,-0.5917969 -0.328125,-0.75 -0.243164,-0.2490234 -0.5361328,-0.375 -0.8789062,-0.375 -0.28125,0 -0.5273438,0.079102 -0.7382813,0.234375 -0.28125,0.1962891 -0.5039062,0.4892578 -0.6679687,0.8789063 -0.1582031,0.383789 -0.234375,0.9345703 -0.234375,1.6523437 0.2109375,-0.3193359 0.46875,-0.5566406 0.7734375,-0.7148437 0.3046875,-0.1552735 0.6240234,-0.234375 0.9609375,-0.234375 0.5859375,0 1.0810547,0.2167968 1.4882816,0.6445312 0.413086,0.4306641 0.621093,0.9902344 0.621093,1.6757813 0,0.4453125 -0.09961,0.8642578 -0.292968,1.2539062 -0.1875,0.38378906 -0.454102,0.67675781 -0.7968754,0.87890625 -0.336914,0.20214844 -0.7207031,0.3046875 -1.1484375,0.3046875 -0.7353515,0 -1.3330078,-0.26367187 -1.7929687,-0.796875 C 6.4441438,-1.2177812 6.2156281,-2.1084062 6.2156281,-3.3505937 c 0,-1.3828125 0.2519532,-2.3847657 0.7617188,-3.0117188 0.4511719,-0.5449219 1.0546875,-0.8203125 1.8046875,-0.8203125 0.5625,0 1.0224609,0.1611328 1.3828126,0.4804688 0.357422,0.3134765 0.574219,0.7470703 0.644531,1.3007812 z m -3.5859374,3.0820313 c 0,0.3046875 0.061523,0.5976562 0.1875,0.8789062 0.131836,0.2753906 0.3105469,0.48632813 0.5390625,0.6328125 0.234375,0.140625 0.4804688,0.2109375 0.7382813,0.2109375 0.3662109,0 0.6826172,-0.14648437 0.9492187,-0.4453125 0.272461,-0.3046875 0.4101559,-0.7148437 0.4101559,-1.2304687 0,-0.4921875 -0.1347652,-0.8789063 -0.3984371,-1.1601563 -0.2666016,-0.2871094 -0.5976563,-0.4335937 -0.9960938,-0.4335937 -0.3984375,0 -0.7382812,0.1464843 -1.0195312,0.4335937 -0.2753906,0.28125 -0.4101563,0.6533203 -0.4101563,1.1132813 z m 0,0"
       style="fill:#000000;fill-opacity:1;fill-rule:nonzero;stroke:none"
       aria-label="−6"
       transform="matrix(1.3333333,0,0,1.3333333,30.110933,529.88933)"
       clip-path="url(#clipPath104)" />
    <path
       id="path105"
       d="m 3326.67,368.332 v 73.336"
       style="fill:none;stroke:#000000;stroke-width:5;stroke-linecap:butt;stroke-linejoin:round;stroke-miterlimit:10;stroke-dasharray:none;stroke-opacity:1"
       transform="matrix(0,0.13333333,0.13333333,0,0,0)"
       clip-path="url(#clipPath106)" />
    <path
       id="path107"
       d="m 3326.67,7701.67 v -73.34"
       style="fill:none;stroke:#000000;stroke-width:5;stroke-linecap:butt;stroke-linejoin:round;stroke-miterlimit:10;stroke-dasharray:none;stroke-opacity:1"
       transform="matrix(0,0.13333333,0.13333333,0,0,0)"
       clip-path="url(#clipPath108)" />
    <path
       id="path109"
       d="m 5.2839875,-3.1162031 h -4.734375 v -0.8203125 h 4.734375 z M 9.0750031,9.84375e-4 V -1.7099531 H 5.9695344 v -0.8085938 l 3.2578125,-4.640625 h 0.7265625 v 4.640625 h 0.9609376 v 0.8085938 H 9.9539094 V 9.84375e-4 Z m 0,-2.519531275 v -3.2226562 l -2.2382812,3.2226562 z m 0,0"
       style="fill:#000000;fill-opacity:1;fill-rule:nonzero;stroke:none"
       aria-label="−4"
       transform="matrix(1.3333333,0,0,1.3333333,30.110933,448.444)"
       clip-path="url(#clipPath110)" />
    <path
       id="path111"
       d="m 2716.67,368.332 v 73.336"
       style="fill:none;stroke:#000000;stroke-width:5;stroke-linecap:butt;stroke-linejoin:round;stroke-miterlimit:10;stroke-dasharray:none;stroke-opacity:1"
       transform="matrix(0,0.13333333,0.13333333,0,0,0)"
       clip-path="url(#clipPath112)" />
    <path
       id="path113"
       d="m 2716.67,7701.67 v -73.34"
       style="fill:none;stroke:#000000;stroke-width:5;stroke-linecap:butt;stroke-linejoin:round;stroke-miterlimit:10;stroke-dasharray:none;stroke-opacity:1"
       transform="matrix(0,0.13333333,0.13333333,0,0,0)"
       clip-path="url(#clipPath114)" />
    <path
       id="path115"
       d="m 5.2839875,-3.1181562 h -4.734375 v -0.8203125 h 4.734375 z m 5.5839845,2.27343745 v 0.84375 H 6.1453156 c -0.00879,-0.2109375 0.026367,-0.41308594 0.1054688,-0.609375 0.1171875,-0.31933594 0.3076172,-0.63574215 0.5742187,-0.94921875 0.2636719,-0.3105469 0.647461,-0.6738281 1.1484375,-1.0898437 0.7792969,-0.6328125 1.3066407,-1.1367188 1.5820313,-1.5117188 0.2724609,-0.375 0.4101562,-0.7265625 0.4101562,-1.0546875 0,-0.3515625 -0.1259765,-0.6445312 -0.375,-0.8789062 C 9.338675,-6.3349531 9.0164094,-6.458 8.6179719,-6.458 c -0.4306641,0 -0.7734375,0.1289063 -1.03125,0.3867188 -0.2519531,0.2519531 -0.375,0.5976562 -0.375,1.0429687 l -0.9023438,-0.082031 c 0.061523,-0.6796875 0.2929688,-1.1953125 0.6914063,-1.546875 0.4042969,-0.3515625 0.9492187,-0.5273438 1.6289062,-0.5273438 0.6855469,0 1.2304688,0.1933594 1.6289064,0.5742188 0.404297,0.375 0.609375,0.84375 0.609375,1.40625 0,0.290039 -0.05859,0.5742187 -0.175781,0.8554687 -0.117188,0.2753906 -0.313477,0.5625 -0.585938,0.8671875 -0.2753905,0.3046875 -0.7265624,0.7236328 -1.3593749,1.2539063 -0.524414,0.4453125 -0.8642578,0.75 -1.0195312,0.9140625 -0.1494141,0.1582031 -0.2695313,0.31347651 -0.3632813,0.46874995 z m 0,0"
       style="fill:#000000;fill-opacity:1;fill-rule:nonzero;stroke:none"
       aria-label="−2"
       transform="matrix(1.3333333,0,0,1.3333333,30.110933,367.11067)"
       clip-path="url(#clipPath116)" />
    <path
       id="path117"
       d="m 2106.67,368.332 v 73.336"
       style="fill:none;stroke:#000000;stroke-width:5;stroke-linecap:butt;stroke-linejoin:round;stroke-miterlimit:10;stroke-dasharray:none;stroke-opacity:1"
       transform="matrix(0,0.13333333,0.13333333,0,0,0)"
       clip-path="url(#clipPath118)" />
    <path
       id="path119"
       d="m 2106.67,7701.67 v -73.34"
       style="fill:none;stroke:#000000;stroke-width:5;stroke-linecap:butt;stroke-linejoin:round;stroke-miterlimit:10;stroke-dasharray:none;stroke-opacity:1"
       transform="matrix(0,0.13333333,0.13333333,0,0,0)"
       clip-path="url(#clipPath120)" />
    <path
       id="path121"
       d="m 0.411325,-3.5273359 c 0,-0.84375 0.0849609,-1.5234375 0.2578125,-2.0390625 0.17871094,-0.515625 0.4394531,-0.9140625 0.7851563,-1.1953125 0.3427734,-0.28125 0.7734375,-0.421875 1.2890625,-0.421875 0.3896484,0 0.7294921,0.079102 1.0195312,0.234375 0.2871094,0.149414 0.5273438,0.3720703 0.7148438,0.6679687 0.1875,0.2900391 0.3339843,0.6445313 0.4453125,1.0664063 0.1083984,0.4160156 0.1640625,0.9785156 0.1640625,1.6875 0,0.8378906 -0.09082,1.5117187 -0.2695313,2.0273437 -0.1728516,0.51562501 -0.4306641,0.91406251 -0.7734375,1.19531251 -0.3369141,0.28125 -0.7705078,0.421875 -1.3007812,0.421875 -0.6884766,0 -1.2275391,-0.24609375 -1.6171875,-0.73828125 C 0.64862969,-1.2128828 0.411325,-2.1826094 0.411325,-3.5273359 Z m 0.9023438,0 c 0,1.171875 0.1347656,1.9541015 0.4101562,2.34375 0.28125,0.39257809 0.6210938,0.58593746 1.0195313,0.58593746 0.4042968,0 0.7441406,-0.19335937 1.0195312,-0.58593746 0.28125,-0.3896485 0.421875,-1.171875 0.421875,-2.34375 0,-1.1777344 -0.140625,-1.959961 -0.421875,-2.34375 -0.2753906,-0.3896485 -0.6152344,-0.5859375 -1.0195312,-0.5859375 -0.4072266,0 -0.7324219,0.1728515 -0.9726563,0.515625 -0.3046875,0.4394531 -0.4570312,1.2421875 -0.4570312,2.4140625 z m 0,0"
       style="fill:#000000;fill-opacity:1;fill-rule:nonzero;stroke:none"
       aria-label="0"
       transform="matrix(1.3333333,0,0,1.3333333,37.889067,285.77733)"
       clip-path="url(#clipPath122)" />
    <path
       id="path123"
       d="m 1495.83,368.332 v 73.336"
       style="fill:none;stroke:#000000;stroke-width:5;stroke-linecap:butt;stroke-linejoin:round;stroke-miterlimit:10;stroke-dasharray:none;stroke-opacity:1"
       transform="matrix(0,0.13333333,0.13333333,0,0,0)"
       clip-path="url(#clipPath124)" />
    <path
       id="path125"
       d="m 1495.83,7701.67 v -73.34"
       style="fill:none;stroke:#000000;stroke-width:5;stroke-linecap:butt;stroke-linejoin:round;stroke-miterlimit:10;stroke-dasharray:none;stroke-opacity:1"
       transform="matrix(0,0.13333333,0.13333333,0,0,0)"
       clip-path="url(#clipPath126)" />
    <path
       id="path127"
       d="M 5.0285125,-0.84472656 V -9.765625e-4 H 0.30585625 C 0.29706719,-0.21191406 0.33222344,-0.4140625 0.411325,-0.61035156 0.5285125,-0.9296875 0.71894219,-1.2460937 0.98554375,-1.5595703 1.2492156,-1.8701172 1.6330047,-2.2333984 2.1339813,-2.6494141 c 0.7792968,-0.6328125 1.3066406,-1.1367187 1.5820312,-1.5117187 0.2724609,-0.375 0.4101563,-0.7265625 0.4101563,-1.0546875 0,-0.3515625 -0.1259766,-0.6445313 -0.375,-0.8789063 C 3.4992156,-6.3349609 3.17695,-6.4580078 2.7785125,-6.4580078 c -0.4306641,0 -0.7734375,0.1289062 -1.03125,0.3867187 -0.2519531,0.2519532 -0.375,0.5976563 -0.375,1.0429688 L 0.46991875,-5.1103513 C 0.53144215,-5.7900388 0.7628875,-6.3056638 1.161325,-6.6572263 1.5656219,-7.0087888 2.1105438,-7.18457 2.7902313,-7.18457 c 0.6855468,0 1.2304687,0.1933594 1.6289062,0.5742187 0.4042969,0.375 0.609375,0.84375 0.609375,1.40625 0,0.2900391 -0.058594,0.5742188 -0.1757812,0.8554688 -0.1171875,0.2753906 -0.3134766,0.5625 -0.5859375,0.8671875 -0.2753907,0.3046875 -0.7265625,0.7236328 -1.359375,1.2539062 -0.5244141,0.4453125 -0.8642579,0.75 -1.0195313,0.9140625 C 1.7384734,-1.1552734 1.6183563,-1 1.5246063,-0.84472656 Z m 0,0"
       style="fill:#000000;fill-opacity:1;fill-rule:nonzero;stroke:none"
       aria-label="2"
       transform="matrix(1.3333333,0,0,1.3333333,37.889067,204.33333)"
       clip-path="url(#clipPath128)" />
    <path
       id="path129"
       d="m 885.832,368.332 v 73.336"
       style="fill:none;stroke:#000000;stroke-width:5;stroke-linecap:butt;stroke-linejoin:round;stroke-miterlimit:10;stroke-dasharray:none;stroke-opacity:1"
       transform="matrix(0,0.13333333,0.13333333,0,0,0)"
       clip-path="url(#clipPath130)" />
    <path
       id="path131"
       d="m 885.832,7701.67 v -73.34"
       style="fill:none;stroke:#000000;stroke-width:5;stroke-linecap:butt;stroke-linejoin:round;stroke-miterlimit:10;stroke-dasharray:none;stroke-opacity:1"
       transform="matrix(0,0.13333333,0.13333333,0,0,0)"
       clip-path="url(#clipPath132)" />
    <path
       id="path133"
       d="M 3.2355438,0 V -1.7109375 H 0.130075 V -2.5195313 L 3.3878875,-7.1601562 H 4.11445 v 4.6406249 h 0.9609375 v 0.8085938 H 4.11445 V 0 Z m 0,-2.5195313 v -3.2226562 l -2.2382813,3.2226562 z m 0,0"
       style="fill:#000000;fill-opacity:1;fill-rule:nonzero;stroke:none"
       aria-label="4"
       transform="matrix(1.3333333,0,0,1.3333333,37.889067,123)"
       clip-path="url(#clipPath134)" />
    <path
       id="path135"
       d="m 275.832,368.332 v 73.336"
       style="fill:none;stroke:#000000;stroke-width:5;stroke-linecap:butt;stroke-linejoin:round;stroke-miterlimit:10;stroke-dasharray:none;stroke-opacity:1"
       transform="matrix(0,0.13333333,0.13333333,0,0,0)"
       clip-path="url(#clipPath136)" />
    <path
       id="path137"
       d="m 275.832,7701.67 v -73.34"
       style="fill:none;stroke:#000000;stroke-width:5;stroke-linecap:butt;stroke-linejoin:round;stroke-miterlimit:10;stroke-dasharray:none;stroke-opacity:1"
       transform="matrix(0,0.13333333,0.13333333,0,0,0)"
       clip-path="url(#clipPath138)" />
    <path
       id="path139"
       d="m 4.9699188,-5.4013672 -0.8671875,0.070312 c -0.079102,-0.3427734 -0.1875,-0.5917969 -0.328125,-0.75 -0.2431641,-0.2490234 -0.5361329,-0.375 -0.8789063,-0.375 -0.28125,0 -0.5273437,0.079102 -0.7382812,0.234375 -0.28125,0.1962891 -0.5039063,0.4892578 -0.6679688,0.8789063 -0.1582031,0.383789 -0.234375,0.9345703 -0.234375,1.6523437 0.2109375,-0.3193359 0.46875,-0.5566406 0.7734375,-0.7148437 0.3046875,-0.1552735 0.6240234,-0.234375 0.9609375,-0.234375 0.5859375,0 1.0810547,0.2167968 1.4882813,0.6445312 0.4130859,0.4306641 0.6210937,0.9902344 0.6210937,1.6757813 0,0.4453125 -0.099609,0.8642578 -0.2929687,1.2539062 -0.1875,0.38378908 -0.4541016,0.67675782 -0.796875,0.87890626 -0.3369141,0.20214844 -0.7207032,0.3046875 -1.1484375,0.3046875 -0.7353516,0 -1.3330079,-0.26367187 -1.7929688,-0.796875 C 0.60468438,-1.2177734 0.37616875,-2.1083984 0.37616875,-3.3505859 c 0,-1.3828125 0.25195313,-2.3847657 0.76171875,-3.0117188 0.4511719,-0.5449219 1.0546875,-0.8203125 1.8046875,-0.8203125 0.5625,0 1.0224609,0.1611328 1.3828125,0.4804688 0.3574219,0.3134765 0.5742188,0.7470703 0.6445313,1.3007812 z m -3.5859375,3.0820313 c 0,0.3046875 0.061523,0.5976562 0.1875,0.8789062 0.1318359,0.2753906 0.3105468,0.48632814 0.5390625,0.63281251 0.234375,0.140625 0.4804687,0.2109375 0.7382812,0.2109375 0.3662109,0 0.6826172,-0.14648437 0.9492188,-0.44531251 C 4.0705047,-1.3466797 4.2082,-1.7568359 4.2082,-2.2724609 c 0,-0.4921875 -0.1347656,-0.8789063 -0.3984375,-1.1601563 -0.2666016,-0.2871094 -0.5976562,-0.4335937 -0.9960937,-0.4335937 -0.3984375,0 -0.7382813,0.1464843 -1.0195313,0.4335937 -0.2753906,0.28125 -0.4101562,0.6533203 -0.4101562,1.1132813 z m 0,0"
       style="fill:#000000;fill-opacity:1;fill-rule:nonzero;stroke:none"
       aria-label="6"
       transform="matrix(1.3333333,0,0,1.3333333,37.889067,41.666667)"
       clip-path="url(#clipPath140)" />
    <path
       id="path141"
       d="M 275.832,368.332 V 7701.67"
       style="fill:none;stroke:#000000;stroke-width:5;stroke-linecap:butt;stroke-linejoin:round;stroke-miterlimit:10;stroke-dasharray:none;stroke-opacity:1"
       transform="matrix(0,0.13333333,0.13333333,0,0,0)"
       clip-path="url(#clipPath142)" />
    <path
       id="path143"
       d="M 5768.33,368.332 V 7701.67"
       style="fill:none;stroke:#000000;stroke-width:5;stroke-linecap:butt;stroke-linejoin:round;stroke-miterlimit:10;stroke-dasharray:none;stroke-opacity:1"
       transform="matrix(0,0.13333333,0.13333333,0,0,0)"
       clip-path="url(#clipPath144)" />
    <path
       id="path145"
       d="M 5768.33,7701.67 H 275.832"
       style="fill:none;stroke:#000000;stroke-width:5;stroke-linecap:butt;stroke-linejoin:round;stroke-miterlimit:10;stroke-dasharray:none;stroke-opacity:1"
       transform="matrix(0,0.13333333,0.13333333,0,0,0)"
       clip-path="url(#clipPath146)" />
    <path
       id="path147"
       d="M 5768.33,368.332 H 275.832"
       style="fill:none;stroke:#000000;stroke-width:5;stroke-linecap:butt;stroke-linejoin:round;stroke-miterlimit:10;stroke-dasharray:none;stroke-opacity:1"
       transform="matrix(0,0.13333333,0.13333333,0,0,0)"
       clip-path="url(#clipPath148)" />
    <path
       id="path149"
       d="m 1806.66,805 c 38.66,0 70,-31.344 70,-70 0,-38.656 -31.34,-70 -70,-70 -38.65,0 -70,31.344 -70,70 0,38.656 31.35,70 70,70"
       style="fill:none;stroke:#0000ff;stroke-width:30;stroke-linecap:butt;stroke-linejoin:round;stroke-miterlimit:10;stroke-dasharray:none;stroke-opacity:1"
       transform="matrix(0,0.13333333,0.13333333,0,0,0)"
       clip-path="url(#clipPath150)" />
    <path
       id="path151"
       d="m 1863.33,1538.33 c 38.66,0 70,-31.34 70,-70 0,-38.65 -31.34,-70 -70,-70 -38.65,0 -70,31.35 -70,70 0,38.66 31.35,70 70,70"
       style="fill:none;stroke:#0000ff;stroke-width:30;stroke-linecap:butt;stroke-linejoin:round;stroke-miterlimit:10;stroke-dasharray:none;stroke-opacity:1"
       transform="matrix(0,0.13333333,0.13333333,0,0,0)"
       clip-path="url(#clipPath152)" />
    <path
       id="path153"
       d="m 1504.16,2271.66 c 38.66,0 70,-31.34 70,-70 0,-38.65 -31.34,-70 -70,-70 -38.65,0 -70,31.35 -70,70 0,38.66 31.35,70 70,70"
       style="fill:none;stroke:#0000ff;stroke-width:30;stroke-linecap:butt;stroke-linejoin:round;stroke-miterlimit:10;stroke-dasharray:none;stroke-opacity:1"
       transform="matrix(0,0.13333333,0.13333333,0,0,0)"
       clip-path="url(#clipPath154)" />
    <path
       id="path155"
       d="m 2050,3005 c 38.66,0 70,-31.34 70,-70 0,-38.66 -31.34,-70 -70,-70 -38.66,0 -70,31.34 -70,70 0,38.66 31.34,70 70,70"
       style="fill:none;stroke:#0000ff;stroke-width:30;stroke-linecap:butt;stroke-linejoin:round;stroke-miterlimit:10;stroke-dasharray:none;stroke-opacity:1"
       transform="matrix(0,0.13333333,0.13333333,0,0,0)"
       clip-path="url(#clipPath156)" />
    <path
       id="path157"
       d="m 1704.16,3738.33 c 38.66,0 70,-31.34 70,-70 0,-38.65 -31.34,-70 -70,-70 -38.65,0 -70,31.35 -70,70 0,38.66 31.35,70 70,70"
       style="fill:none;stroke:#0000ff;stroke-width:30;stroke-linecap:butt;stroke-linejoin:round;stroke-miterlimit:10;stroke-dasharray:none;stroke-opacity:1"
       transform="matrix(0,0.13333333,0.13333333,0,0,0)"
       clip-path="url(#clipPath158)" />
    <path
       id="path159"
       d="m 2361.66,4471.66 c 38.66,0 70,-31.34 70,-70 0,-38.65 -31.34,-70 -70,-70 -38.65,0 -70,31.35 -70,70 0,38.66 31.35,70 70,70"
       style="fill:none;stroke:#0000ff;stroke-width:30;stroke-linecap:butt;stroke-linejoin:round;stroke-miterlimit:10;stroke-dasharray:none;stroke-opacity:1"
       transform="matrix(0,0.13333333,0.13333333,0,0,0)"
       clip-path="url(#clipPath160)" />
    <path
       id="path161"
       d="m 2307.5,5205 c 38.66,0 70,-31.34 70,-70 0,-38.66 -31.34,-70 -70,-70 -38.66,0 -70,31.34 -70,70 0,38.66 31.34,70 70,70"
       style="fill:none;stroke:#0000ff;stroke-width:30;stroke-linecap:butt;stroke-linejoin:round;stroke-miterlimit:10;stroke-dasharray:none;stroke-opacity:1"
       transform="matrix(0,0.13333333,0.13333333,0,0,0)"
       clip-path="url(#clipPath162)" />
    <path
       id="path163"
       d="m 2860,5938.33 c 38.66,0 70,-31.34 70,-70 0,-38.65 -31.34,-70 -70,-70 -38.66,0 -70,31.35 -70,70 0,38.66 31.34,70 70,70"
       style="fill:none;stroke:#0000ff;stroke-width:30;stroke-linecap:butt;stroke-linejoin:round;stroke-miterlimit:10;stroke-dasharray:none;stroke-opacity:1"
       transform="matrix(0,0.13333333,0.13333333,0,0,0)"
       clip-path="url(#clipPath164)" />
    <path
       id="path165"
       d="m 2964.16,6671.66 c 38.66,0 70,-31.34 70,-70 0,-38.65 -31.34,-70 -70,-70 -38.65,0 -70,31.35 -70,70 0,38.66 31.35,70 70,70"
       style="fill:none;stroke:#0000ff;stroke-width:30;stroke-linecap:butt;stroke-linejoin:round;stroke-miterlimit:10;stroke-dasharray:none;stroke-opacity:1"
       transform="matrix(0,0.13333333,0.13333333,0,0,0)"
       clip-path="url(#clipPath166)" />
    <path
       id="path167"
       d="m 4013.33,7405 c 38.66,0 70,-31.34 70,-70 0,-38.66 -31.34,-70 -70,-70 -38.65,0 -70,31.34 -70,70 0,38.66 31.35,70 70,70"
       style="fill:none;stroke:#0000ff;stroke-width:30;stroke-linecap:butt;stroke-linejoin:round;stroke-miterlimit:10;stroke-dasharray:none;stroke-opacity:1"
       transform="matrix(0,0.13333333,0.13333333,0,0,0)"
       clip-path="url(#clipPath168)" />
    <path
       id="path169"
       d="m 2374.17,5141.67 3.33,7.5 3.33,7.5 3.34,7.5 3.33,7.5 3.33,6.66 2.5,7.5 3.34,7.5 3.33,7.5 3.33,7.5 3.34,6.67 3.33,7.5 3.33,7.5 3.34,7.5 3.33,7.5 3.33,6.67 3.34,7.5 3.33,7.5 3.33,7.5 3.34,6.66 4.16,7.5 3.34,7.5 3.33,7.5 3.33,7.5 3.34,7.5 3.33,6.67 3.33,7.5 4.17,7.5 3.33,7.5 3.34,7.5 3.33,6.67 4.17,7.5 3.33,7.5 3.33,7.5 3.34,7.5 4.16,6.66 3.34,7.5 3.33,7.5 4.17,7.5 3.33,7.5 3.33,6.67 4.17,7.5 3.33,7.5 3.34,7.5 4.16,6.67 3.34,7.5 4.16,7.5 3.34,7.5 4.16,7.5 3.34,7.5 4.16,6.66 3.34,7.5 4.16,7.5 3.34,7.5 4.16,7.5 3.34,6.67 4.16,7.5 4.17,7.5 3.33,7.5 4.17,7.5 3.33,6.67 4.17,7.5 4.17,7.5 3.33,7.5 4.17,7.5 4.16,6.66 4.17,7.5 3.33,7.5 4.17,7.5 4.17,6.67 4.16,7.5 3.34,7.5 4.16,7.5 4.17,7.5 4.17,7.5 4.16,6.67 4.17,7.5 4.17,7.5 3.33,7.5 4.17,7.5 4.16,6.66 4.17,7.5 4.17,7.5 4.16,7.5 4.17,7.5 4.17,6.67 4.16,7.5 4.17,7.5 4.17,7.5 4.16,7.5 4.17,6.67 4.17,7.5 4.16,7.5 5,7.5 4.17,7.5 4.17,6.66 4.16,7.5 4.17,7.5 4.17,7.5 5,7.5 4.16,6.67 4.17,7.5 4.17,7.5 4.16,7.5 5,7.5 4.17,6.67 4.17,7.5 5,7.5 4.16,7.5 4.17,7.5 5,6.66 4.17,7.5 5,7.5 4.16,7.5 4.17,7.5 5,6.67 4.17,7.5 5,7.5 4.16,7.5 5,7.5 4.17,6.67 5,7.5 4.17,7.5 5,7.5 4.16,7.5 5,6.66 5,7.5 4.17,7.5 5,7.5 5,7.5 4.17,6.67 5,7.5 5,7.5 4.16,7.5 5,7.5 5,6.67 5,7.5 4.17,7.5 5,7.5 5,7.5 5,6.66 5,7.5 4.17,7.5 5,7.5 5,7.5 5,6.67 5,7.5 5,7.5 5,7.5 5,7.5 5,6.67 5,7.5 5,7.5 5,7.5 5,7.5 5,6.66 5,7.5 5,7.5 5,7.5 5,7.5 5,6.67 5.83,7.5 5,7.5 5,7.5 5,7.5 5,6.67 5.83,7.5 5,7.5 5,7.5 5,6.66 5.84,7.5 5,7.5 5,7.5 5.83,7.5 5,7.5 5,6.67 5.83,7.5 5,7.5 5.84,7.5 5,7.5 5.83,6.67 5,7.5 5.83,7.5 5,7.5 5.84,7.5 5,6.66 5.83,7.5 5,7.5 5.83,7.5 5,7.5 5.84,6.67 5.83,7.5 5,7.5 5.83,7.5 5.84,6.67 5,7.5 5.83,7.5 5.83,7.5 5.84,7.5 5,7.5 5.83,6.66 5.83,7.5 5.84,7.5 5.83,7.5 5.83,7.5 5,6.67 5.84,7.5 5.83,7.5 5.83,7.5 5.84,7.5 5.83,6.67 5.83,7.5 5.84,7.5 5.83,7.5 5.83,7.5 5.84,6.66 5.83,7.5 5.83,7.5 5.84,7.5 5.83,6.67 6.67,7.5 5.83,7.5 5.83,7.5 5.84,7.5 5.83,7.5 6.67,6.67 5.83,7.5 5.83,7.5 5.84,7.5 6.66,7.5 5.84,6.66 5.83,7.5 6.67,7.5 5.83,7.5 5.83,7.5 6.67,6.67 5.83,7.5 5.84,7.5 6.66,7.5 5.84,7.5 6.66,6.67 5.84,7.5 6.66,7.5 5.84,7.5 6.66,6.66 5.84,7.5 6.66,7.5 6.67,7.5 5.83,7.5 6.67,7.5 6.67,6.67 5.83,7.5 6.67,7.5 6.66,7.5 5.84,7.5 6.66,6.67 6.67,7.5 6.67,7.5 5.83,7.5 6.67,7.5 6.66,6.66 6.67,7.5 6.67,7.5 6.66,7.5 6.67,7.5 5.83,6.67 6.67,7.5 6.67,7.5 6.66,7.5 6.67,7.5 6.67,6.67 6.66,7.5 6.67,7.5 6.67,7.5 7.5,7.5 6.66,6.66 6.67,7.5 6.67,7.5 6.66,7.5 6.67,7.5 6.67,6.67 7.5,7.5 6.66,7.5 6.67,7.5 6.67,7.5 7.5,6.67 6.66,7.5 6.67,7.5 7.5,7.5 6.67,7.5 6.66,6.66 7.5,7.5 6.67,7.5 7.5,7.5 6.67,7.5 7.5,6.67 6.66,7.5 7.5,7.5 6.67,7.5 7.5,7.5"
       style="fill:none;stroke:#ff0000;stroke-width:50;stroke-linecap:butt;stroke-linejoin:round;stroke-miterlimit:10;stroke-dasharray:none;stroke-opacity:1"
       transform="matrix(0,0.13333333,0.13333333,0,0,0)"
       clip-path="url(#clipPath170)" />
    <path
       id="path171"
       d="m 1822.5,2949.17 0.83,7.5 0.84,7.5 0.83,7.5 0.83,6.66 0.84,7.5 0.83,7.5 0.83,7.5 0.84,7.5 0.83,6.67 v 7.5 l 0.83,7.5 0.84,7.5 0.83,7.5 0.83,6.67 0.84,7.5 0.83,7.5 0.83,7.5 0.84,7.5 0.83,6.66 0.83,7.5 0.84,7.5 0.83,7.5 0.83,7.5 0.84,6.67 1.66,7.5 0.84,7.5 0.83,7.5 0.83,7.5 0.84,6.67 0.83,7.5 0.83,7.5 0.84,7.5 0.83,7.5 0.83,6.66 0.84,7.5 1.66,7.5 0.84,7.5 0.83,7.5 0.83,6.67 0.84,7.5 0.83,7.5 1.67,7.5 0.83,7.5 0.83,6.67 0.84,7.5 0.83,7.5 1.67,7.5 0.83,7.5 0.83,6.66 0.84,7.5 1.66,7.5 0.84,7.5 0.83,7.5 0.83,6.67 1.67,7.5 0.83,7.5 0.84,7.5 1.66,6.67 0.84,7.5 0.83,7.5 1.67,7.5 0.83,7.5 0.83,7.5 1.67,6.66 0.83,7.5 0.84,7.5 1.66,7.5 0.84,7.5 1.66,6.67 0.84,7.5 0.83,7.5 1.67,7.5 0.83,7.5 1.67,6.67 0.83,7.5 1.67,7.5 0.83,7.5 1.67,7.5 0.83,6.66 1.67,7.5 0.83,7.5 1.67,7.5 0.83,6.67 1.67,7.5 0.83,7.5 1.67,7.5 0.83,7.5 1.67,7.5 0.83,6.67 1.67,7.5 1.66,7.5 0.84,7.5 1.66,7.5 0.84,6.66 1.66,7.5 1.67,7.5 0.83,7.5 1.67,7.5 1.67,6.67 0.83,7.5 1.67,7.5 1.66,7.5 0.84,7.5 1.66,6.67 1.67,7.5 0.83,7.5 1.67,7.5 1.67,7.5 1.66,6.66 0.84,7.5 1.66,7.5 1.67,7.5 1.67,7.5 1.66,6.67 0.84,7.5 1.66,7.5 1.67,7.5 1.67,7.5 1.66,6.67 1.67,7.5 0.83,7.5 1.67,7.5 1.67,7.5 1.66,6.66 1.67,7.5 1.67,7.5 1.66,7.5 1.67,7.5 1.67,6.67 1.66,7.5 0.84,7.5 1.66,7.5 1.67,7.5 1.67,6.67 1.66,7.5 1.67,7.5 1.67,7.5 1.66,7.5 1.67,6.66 2.5,7.5 1.67,7.5 1.66,7.5 1.67,7.5 1.67,6.67 1.66,7.5 1.67,7.5 1.67,7.5 1.66,7.5 1.67,6.67 1.67,7.5 2.5,7.5 1.66,7.5 1.67,7.5 1.67,6.66 1.66,7.5 2.5,7.5 1.67,7.5 1.67,7.5 1.66,6.67 1.67,7.5 2.5,7.5 1.67,7.5 1.66,6.67 2.5,7.5 1.67,7.5 1.67,7.5 1.66,7.5 2.5,7.5 1.67,6.66 1.67,7.5 2.5,7.5 1.66,7.5 2.5,7.5 1.67,6.67 1.67,7.5 2.5,7.5 1.66,7.5 2.5,7.5 1.67,6.67 1.67,7.5 2.5,7.5 1.66,7.5 2.5,7.5 1.67,6.66 2.5,7.5 1.67,7.5 2.5,7.5 1.66,7.5 2.5,6.67 1.67,7.5 2.5,7.5 2.5,7.5 1.67,7.5 2.5,6.67 1.66,7.5 2.5,7.5 2.5,7.5 1.67,7.5 2.5,6.66 2.5,7.5 1.67,7.5 2.5,7.5 2.5,7.5 1.66,6.67 2.5,7.5 2.5,7.5 2.5,7.5 1.67,7.5 2.5,6.67 2.5,7.5 2.5,7.5 1.67,7.5 2.5,7.5 2.5,6.66 2.5,7.5 2.5,7.5 2.5,7.5 1.66,6.67 2.5,7.5 2.5,7.5 2.5,7.5 2.5,7.5 2.5,7.5 2.5,6.67 2.5,7.5 2.5,7.5 2.5,7.5 2.5,7.5 2.5,6.66 2.5,7.5 2.5,7.5 2.5,7.5 2.5,7.5 2.5,6.67 2.5,7.5 2.5,7.5 2.5,7.5 2.5,7.5 2.5,6.67 2.5,7.5 2.5,7.5 2.5,7.5 3.34,6.66 2.5,7.5 2.5,7.5 2.5,7.5 2.5,7.5 2.5,7.5 3.33,6.67 2.5,7.5 2.5,7.5 2.5,7.5 3.33,7.5 2.5,6.67 2.5,7.5 3.34,7.5 2.5,7.5 2.5,7.5 3.33,6.66 2.5,7.5 2.5,7.5 3.33,7.5 2.5,7.5 2.5,6.67 3.34,7.5 2.5,7.5 3.33,7.5 2.5,6.67 3.33,7.5 2.5,7.5 3.34,7.5 2.5,7.5 3.33,7.5 2.5,6.66 3.33,7.5 2.5,7.5 3.34,7.5 2.5,7.5 3.33,6.67 2.5,7.5 3.33,7.5 3.34,7.5 2.5,7.5 3.33,6.67 3.33,7.5 2.5,7.5 3.34,7.5 3.33,7.5 2.5,6.66 3.33,7.5 3.34,7.5 3.33,7.5 2.5,6.67 3.33,7.5 3.34,7.5 3.33,7.5 2.5,7.5 3.33,7.5 3.34,6.67"
       style="fill:none;stroke:#ff0000;stroke-width:50;stroke-linecap:butt;stroke-linejoin:round;stroke-miterlimit:10;stroke-dasharray:none;stroke-opacity:1"
       transform="matrix(0,0.13333333,0.13333333,0,0,0)"
       clip-path="url(#clipPath172)" />
    <path
       id="path173"
       d="m 1792.5,756.668 v 14.164 l -0.83,7.5 v 15 l -0.84,7.5 V 815 l -0.83,7.5 v 15 l -0.83,7.5 v 14.168 l -0.84,7.5 v 15 l -0.83,6.664 v 15 l -0.83,7.5 V 932.5 l -0.84,7.5 v 14.168 l -0.83,7.5 v 15 l -0.83,7.5 v 21.662 l -0.84,7.5 v 15 l -0.83,6.67 v 22.5 l -0.83,7.5 v 14.17 l -0.84,7.5 v 21.66 l -0.83,7.5 v 22.5 l -0.83,6.67 v 22.5 l -0.84,7.5 v 21.67 l -0.83,7.5 v 21.66 l -0.83,7.5 V 1255 l -0.84,7.5 v 29.17 l -0.83,7.5 v 29.16 l -0.83,7.5 v 36.67 l -0.84,7.5 v 36.67 l -0.83,7.5 v 36.66 l -0.83,7.5 v 50.84 l -0.84,7.5 v 65.83 l -0.83,7.5 v 322.5 l 0.83,7.5 v 58.33 l 0.84,7.5 V 2040 l 0.83,7.5 v 36.67 l 0.83,7.5 v 29.16 l 0.84,7.5 V 2150 l 0.83,7.5 v 29.17 l 0.83,7.5 v 14.16 l 0.84,7.5 v 22.5 l 0.83,6.67 v 15 l 0.83,7.5 v 14.17 l 0.84,7.5 v 15 l 0.83,7.5 v 14.16 l 0.83,7.5 v 15 l 0.84,6.67 v 15 l 0.83,7.5 v 7.5 l 0.83,6.67 v 15 l 0.84,7.5 v 7.5 l 0.83,6.66 v 7.5 l 0.83,7.5 v 15 l 0.84,6.67 v 7.5 l 0.83,7.5 v 7.5 l 0.83,7.5 v 6.67 l 0.84,7.5 v 7.5 l 0.83,7.5 v 7.5 l 0.83,6.66 v 7.5 l 0.84,7.5 v 7.5 l 0.83,7.5 v 6.67 l 0.83,7.5 v 7.5 l 0.84,7.5 0.83,7.5 v 6.67 l 0.83,7.5 v 7.5 l 0.84,7.5 0.83,7.5 v 6.66 l 0.83,7.5 v 7.5 l 0.84,7.5 0.83,7.5 v 6.67 l 0.83,7.5 0.84,7.5 v 7.5 l 0.83,7.5 v 6.67 l 0.83,7.5 0.84,7.5 0.83,7.5 v 7.5 l 0.83,6.66 0.84,7.5 v 7.5 l 0.83,7.5 0.83,7.5 v 6.67 l 0.84,7.5 0.83,7.5 0.83,7.5 v 7.5 l 0.84,6.67 0.83,7.5 0.83,7.5 0.84,7.5 v 7.5 l 0.83,6.66 0.83,7.5 0.84,7.5 0.83,7.5 v 7.5 l 0.83,6.67 0.84,7.5 0.83,7.5 0.83,7.5 0.84,7.5 0.83,6.67 v 7.5"
       style="fill:none;stroke:#ff0000;stroke-width:50;stroke-linecap:butt;stroke-linejoin:round;stroke-miterlimit:10;stroke-dasharray:none;stroke-opacity:1"
       transform="matrix(0,0.13333333,0.13333333,0,0,0)"
       clip-path="url(#clipPath174)" />
    <path
       id="path175"
       d="m 1793.33,735 v 14.168 l -0.83,7.5"
       style="fill:none;stroke:#ff0000;stroke-width:50;stroke-linecap:butt;stroke-linejoin:round;stroke-miterlimit:10;stroke-dasharray:none;stroke-opacity:1"
       transform="matrix(0,0.13333333,0.13333333,0,0,0)"
       clip-path="url(#clipPath176)" />
  </g>
</svg>
